<svg width="24" height="24" viewBox="0 0 24 24" fill="none" xmlns="http://www.w3.org/2000/svg">
<g clip-path="url(#clip0_2625_1541)">
<path d="M12.0002 24C18.6277 24 24.0002 18.6274 24.0002 12C24.0002 5.37258 18.6277 0 12.0002 0C5.37283 0 0.000244141 5.37258 0.000244141 12C0.000244141 18.6274 5.37283 24 12.0002 24Z" fill="#F0F0F0"/>
<path d="M2.48069 4.69434C1.53808 5.92073 0.827311 7.33424 0.413452 8.86982H6.65617L2.48069 4.69434Z" fill="#0052B4"/>
<path d="M23.5867 8.86977C23.1729 7.33424 22.4621 5.92073 21.5195 4.69434L17.3441 8.86977H23.5867Z" fill="#0052B4"/>
<path d="M0.413452 15.1299C0.827358 16.6654 1.53812 18.0789 2.48069 19.3053L6.65603 15.1299H0.413452Z" fill="#0052B4"/>
<path d="M19.3058 2.48037C18.0794 1.53776 16.666 0.826992 15.1304 0.413086V6.65576L19.3058 2.48037Z" fill="#0052B4"/>
<path d="M4.69421 21.5191C5.9206 22.4617 7.33412 23.1725 8.86965 23.5864V17.3438L4.69421 21.5191Z" fill="#0052B4"/>
<path d="M8.8696 0.413086C7.33407 0.826992 5.92056 1.53776 4.69421 2.48032L8.8696 6.65571V0.413086Z" fill="#0052B4"/>
<path d="M15.1304 23.5864C16.6659 23.1725 18.0794 22.4617 19.3058 21.5191L15.1304 17.3438V23.5864Z" fill="#0052B4"/>
<path d="M17.3441 15.1299L21.5195 19.3053C22.4621 18.079 23.1729 16.6654 23.5867 15.1299H17.3441Z" fill="#0052B4"/>
<path d="M23.8987 10.4348H13.5655H13.5655V0.101578C13.0531 0.034875 12.5307 0 12.0002 0C11.4697 0 10.9474 0.034875 10.435 0.101578V10.4347V10.4347H0.101822C0.0351191 10.9471 0.000244141 11.4695 0.000244141 12C0.000244141 12.5306 0.0351191 13.0529 0.101822 13.5652H10.4349H10.435V23.8984C10.9474 23.9651 11.4697 24 12.0002 24C12.5307 24 13.0531 23.9652 13.5654 23.8984V13.5653V13.5653H23.8987C23.9654 13.0529 24.0002 12.5306 24.0002 12C24.0002 11.4695 23.9654 10.9471 23.8987 10.4348Z" fill="#D80027"/>
<path d="M15.1304 15.1309L20.4852 20.4857C20.7315 20.2395 20.9664 19.9821 21.1906 19.7153L16.6061 15.1309H15.1304V15.1309Z" fill="#D80027"/>
<path d="M8.86963 15.1309H8.86953L3.51477 20.4856C3.76096 20.7319 4.01835 20.9668 4.28516 21.191L8.86963 16.6064V15.1309Z" fill="#D80027"/>
<path d="M8.86963 8.8696V8.86951L3.51482 3.51465C3.26854 3.76084 3.0336 4.01823 2.80945 4.28504L7.39396 8.86955H8.86963V8.8696Z" fill="#D80027"/>
<path d="M15.1304 8.8698L20.4852 3.5149C20.239 3.26862 19.9817 3.03368 19.7148 2.80957L15.1304 7.39408V8.8698Z" fill="#D80027"/>
</g>
<defs>
<clipPath id="clip0_2625_1541">
<rect width="24" height="24" fill="white"/>
</clipPath>
</defs>
</svg>
