<svg width="41" height="41" viewBox="0 0 41 41" fill="none" xmlns="http://www.w3.org/2000/svg">
<path d="M20.1323 40.6152C31.178 40.6152 40.1323 31.6609 40.1323 20.6152C40.1323 9.56954 31.178 0.615234 20.1323 0.615234C9.08663 0.615234 0.132324 9.56954 0.132324 20.6152C0.132324 31.6609 9.08663 40.6152 20.1323 40.6152Z" fill="#8264FF"/>
<path d="M17.2909 27.2826C16.8907 27.2826 16.5105 27.1337 16.2304 26.8733L10.5675 21.6088C9.98725 21.0693 9.98725 20.1764 10.5675 19.6369C11.1478 19.0975 12.1083 19.0975 12.6886 19.6369L17.2909 23.9155L27.576 14.3538C28.1563 13.8144 29.1168 13.8144 29.6971 14.3538C30.2774 14.8933 30.2774 15.7862 29.6971 16.3257L18.3514 26.8733C18.0713 27.1337 17.6911 27.2826 17.2909 27.2826Z" fill="white"/>
</svg>
