<svg width="20" height="20" viewBox="0 0 20 20" fill="none" xmlns="http://www.w3.org/2000/svg">
<path fill-rule="evenodd" clip-rule="evenodd" d="M1.4 7.92586C1.4 4.32173 4.32173 1.4 7.92586 1.4C11.53 1.4 14.4517 4.32173 14.4517 7.92586C14.4517 11.53 11.53 14.4517 7.92586 14.4517C4.32173 14.4517 1.4 11.53 1.4 7.92586ZM7.92586 0C3.54853 0 0 3.54853 0 7.92586C0 12.3032 3.54853 15.8517 7.92586 15.8517C9.79034 15.8517 11.5045 15.2079 12.858 14.1305L18.1285 19.401C18.48 19.7525 19.0498 19.7525 19.4013 19.401C19.7528 19.0495 19.7528 18.4797 19.4013 18.1282L14.1308 12.8577C15.208 11.5042 15.8517 9.79018 15.8517 7.92586C15.8517 3.54853 12.3032 0 7.92586 0Z" fill="#8264FF"/>
</svg>
