<svg width="20" height="20" viewBox="0 0 20 20" fill="none" xmlns="http://www.w3.org/2000/svg">
<path fill-rule="evenodd" clip-rule="evenodd" d="M6.42857 4C4.53502 4 3 5.53502 3 7.42857V12.5714C3 14.465 4.53502 16 6.42857 16H13.2857C15.1793 16 16.7143 14.465 16.7143 12.5714V12.5714H10.7143C9.76748 12.5714 8.99997 11.8039 8.99997 10.8571V9.14284C8.99997 8.19607 9.76748 7.42856 10.7143 7.42856H16.7143C16.7143 5.53502 15.1793 4 13.2857 4H6.42857ZM9.85711 9.14284C9.85711 8.66946 10.2409 8.2857 10.7143 8.2857H16.7143V11.7143H10.7143C10.2409 11.7143 9.85711 11.3305 9.85711 10.8571V9.14284Z" fill="#1D4ED8"/>
<path d="M9.85712 9.14285C9.85712 8.66946 10.2409 8.28571 10.7143 8.28571H16.7143V11.7143H10.7143C10.2409 11.7143 9.85712 11.3305 9.85712 10.8571V9.14285Z" fill="#93C5FD"/>
</svg>
