<?xml version="1.0" encoding="UTF-8"?><svg id="b" xmlns="http://www.w3.org/2000/svg" xmlns:xlink="http://www.w3.org/1999/xlink" viewBox="0 0 159.765 166.186"><defs><linearGradient id="d" x1="14550.713" y1="-931.656" x2="14425.56" y2="-1040.944" gradientTransform="translate(14568.796 -1073.706) rotate(171.57) scale(1 -1)" gradientUnits="userSpaceOnUse"><stop offset="0" stop-color="#0abec6"/><stop offset=".019" stop-color="#1ec2c8"/><stop offset=".064" stop-color="#47cbcd"/><stop offset=".114" stop-color="#6cd4d2"/><stop offset=".169" stop-color="#8ddbd6"/><stop offset=".23" stop-color="#a8e1d9"/><stop offset=".298" stop-color="#bee6dc"/><stop offset=".378" stop-color="#cfeade"/><stop offset=".477" stop-color="#dbeddf"/><stop offset=".615" stop-color="#e2eee0"/><stop offset="1" stop-color="#e4efe1"/></linearGradient><linearGradient id="e" x1="14469.622" y1="-895.56" x2="14596.362" y2="-971.343" xlink:href="#d"/></defs><g id="c"><path d="M.09,27.542l9.232,62.292c1.231,4.963,3.018,9.688,5.318,14.086,1.667,3.767,3.552,7.406,5.629,10.898.296.503.599.998.901,1.493,1.147,1.856,2.348,3.674,3.609,5.446.291.415.589.829.893,1.235.262.368.538.734.805,1.093.065.087.137.179.202.266.195.267.404.532.605.79.632.823,1.285,1.636,1.944,2.44.081.099.162.198.244.297.003.022.025.018.025.018,2.063,2.496,4.237,4.895,6.514,7.189.296.304.607.605.911.907.562.552,1.131,1.097,1.698,1.633.369.345.738.689,1.113,1.025.403.376.813.745,1.228,1.104,1.32,1.172,2.678,2.309,4.054,3.413.335.268.678.535,1.021.802.435.342.869.677,1.309,1.004.333.254.658.501.989.741.34.253.688.504,1.035.749.762.552,1.529,1.089,2.309,1.61.347.244.699.48,1.06.715.41.272.82.544,1.236.807.123.078.237.15.359.228.319.204.644.407.97.61,1.099.68,2.203,1.344,3.325,1.984.339.194.686.386,1.032.579.307.176.612.338.917.5.451.251.9.488,1.349.724.586.312,1.178.616,1.768.906.368.189.743.371,1.11.553.016.005.031.01.039.016.478.232.963.463,1.447.687.485.231.977.454,1.467.67,1.578.72,3.178,1.392,4.794,2.017.408.161.816.315,1.23.468.509.191,1.018.381,1.533.564.492.178.991.356,1.49.526.412.139.817.278,1.229.409.412.139.824.27,1.234.394,1.846.584,3.706,1.114,5.587,1.582.478.129.953.243,1.435.356.529.129,1.065.256,1.6.369.535.12,1.078.239,1.611.345,1.617.337,3.242.628,4.877.881,1.09.171,2.184.32,3.284.46.55.066,1.098.126,1.654.184.346.037.684.076,1.029.106.346.037.697.067,1.049.096.906.08,1.818.145,2.735.201.611.035,1.23.069,1.854.088.536.024,1.078.04,1.612.049,2.264.064,4.546.043,6.838-.052.383-.012.764-.032,1.146-.051.403-.023.814-.047,1.223-.078.506-.031,1.004-.06,1.507-.105.468-.032.928-.071,1.394-.118.466-.047.94-.095,1.406-.142.073-.003.146-.014.218-.025.553-.06,1.098-.126,1.65-.193l29.724-4.405c4.507-.668,7.643-4.896,6.975-9.402L138.258,7.065c-.668-4.507-4.896-7.643-9.402-6.975L7.065,18.139C2.558,18.807-.578,23.035.09,27.542Z" fill="url(#d)" stroke-width="0"/><path d="M14.64,103.92c1.667,3.767,3.552,7.406,5.629,10.898.296.503.599.998.901,1.493,1.147,1.856,2.348,3.674,3.609,5.446.291.415.589.829.893,1.235.262.368.538.734.805,1.093.065.087.137.179.202.266.195.267.404.532.605.79.632.823,1.285,1.636,1.944,2.44.081.099.162.198.244.297.003.022.025.018.025.018,2.063,2.496,4.237,4.895,6.514,7.189.296.304.607.605.911.907.562.552,1.131,1.097,1.698,1.633.369.345.738.689,1.113,1.025.403.376.813.745,1.228,1.104,1.32,1.172,2.678,2.309,4.054,3.413.335.268.678.535,1.021.802.435.342.869.677,1.309,1.004.333.254.658.501.989.741.34.253.688.504,1.035.749.762.552,1.529,1.089,2.309,1.61.347.244.699.48,1.06.715.41.272.82.544,1.236.807.123.078.237.15.359.228.319.204.644.407.97.61,1.099.68,2.203,1.344,3.325,1.984.339.194.686.386,1.032.579.307.176.612.338.917.5.451.251.9.488,1.349.724.586.312,1.178.616,1.768.906.368.189.743.371,1.11.553.016.005.031.01.039.016.478.232.963.463,1.447.687.485.231.977.454,1.467.67,1.578.72,3.178,1.392,4.794,2.017.408.161.816.315,1.23.468.509.191,1.018.381,1.533.564.492.178.991.356,1.49.526.412.139.817.278,1.229.409.412.139.824.27,1.234.394,1.846.584,3.706,1.114,5.587,1.582.478.129.953.243,1.435.356.529.129,1.065.256,1.6.369.535.12,1.078.239,1.611.345,1.617.337,3.242.628,4.877.881,1.09.171,2.184.32,3.284.46.55.066,1.098.126,1.654.184.346.037.684.076,1.029.106.346.037.697.067,1.049.096.906.08,1.818.145,2.735.201.611.035,1.23.069,1.854.088.536.024,1.078.04,1.612.049,2.264.064,4.546.043,6.838-.052.383-.012.764-.032,1.146-.051.403-.023.814-.047,1.223-.078.506-.031,1.004-.06,1.507-.105.468-.032.928-.071,1.394-.118.466-.047.94-.095,1.406-.142.073-.003.146-.014.218-.025.553-.06,1.098-.126,1.65-.193.487-.057.973-.122,1.457-.194.29-.036.587-.08.876-.123,2.604-.386,5.369-.788,8.094-1.207-.008-.006-.009-.013-.018-.02-3.965-4.809-7.516-10.611-9.996-16.764-2.58-6.382-10.261-10.271-16.923-8.537-25.406,6.604-45.769.248-53.69-2.319-.017.032-.022.003-.047-.015-16.325-5.247-30.158-16.829-38.09-32.288Z" fill="url(#e)" stroke-width="0"/><path d="M38.527,43.576h0c-.857.157-1.736-.129-2.337-.76l-5.398-5.756.937,5.07c.259,1.439-.695,2.816-2.133,3.079h0c-1.428.255-2.792-.694-3.05-2.121l-2.682-14.706c-.271-1.464.697-2.871,2.161-3.142.006,0,.012-.002.018-.003l5.408-1c.985-.202,1.999-.213,2.988-.032.83.143,1.617.474,2.299.969.653.475,1.2,1.081,1.606,1.778.425.703.732,1.472.909,2.274.298,1.31.148,2.683-.427,3.897-.645,1.146-1.667,2.034-2.893,2.511l3.854,3.59c1.025.957,1.081,2.564.124,3.589-.369.395-.854.662-1.385.762ZM30.198,33.692l.972-.171c.839-.109,1.623-.481,2.237-1.063.472-.545.654-1.284.489-1.986-.097-.708-.524-1.328-1.151-1.67-.785-.357-1.67-.431-2.504-.21l-.972.171.929,4.928Z" fill="#6060b2" stroke-width="0"/><path d="M50.843,38.364c-1.429.418-2.927-.401-3.346-1.83-.072-.246-.109-.501-.109-.758l7.987-1.449c1.086-.204,1.801-1.249,1.597-2.334-.015-.081-.035-.161-.061-.24-.145-.489-.335-.965-.567-1.419-.472-.843-1.119-1.574-1.898-2.145-.776-.548-1.666-.913-2.603-1.065-1.061-.174-2.145-.159-3.201.045-1.057.22-2.067.623-2.984,1.192-.83.472-1.545,1.122-2.095,1.902-.558.769-.932,1.655-1.094,2.591-.195,1.045-.185,2.118.028,3.159.176,1.015.562,1.981,1.134,2.838.513.795,1.188,1.474,1.981,1.991.861.525,1.821.867,2.821,1.002,1.076.164,2.173.143,3.242-.061,1.509-.222,2.932-.84,4.123-1.793.831-.727.916-1.991.189-2.822-.459-.524-1.157-.773-1.844-.654h0c-.506.091-.956.375-1.256.792-.483.649-1.237,1.04-2.045,1.059ZM47.583,31.173c.445-.5,1.056-.821,1.72-.905.647-.146,1.325-.046,1.903.28.572.32,1.02.823,1.272,1.428l-5.479,1.004c-.027-.653.181-1.293.585-1.807Z" fill="#6060b2" stroke-width="0"/><path d="M74.833,27.06c-.96-1.571-2.506-2.695-4.297-3.123-.923-.223-1.882-.252-2.817-.084-1.601.263-2.992,1.247-3.773,2.669h0c-.151-.787-.909-1.305-1.698-1.161l-1.761.316c-.879.16-1.462,1.003-1.302,1.882.001.005.002.011.003.016l3.032,16.672c.27,1.113,1.334,1.845,2.47,1.699l.634-.108c1.113-.27,1.845-1.334,1.699-2.47l-1.1-6.022c1.311.95,2.964,1.301,4.548.966,1.845-.313,3.471-1.393,4.474-2.974.506-.769.852-1.632,1.019-2.537.365-1.942-.007-3.95-1.041-5.634l-.092-.108ZM70.825,31.928c-.092.395-.253.771-.476,1.11-.219.337-.512.619-.856.826-.338.232-.722.386-1.127.45-.42.077-.852.069-1.269-.025-.389-.095-.758-.259-1.089-.484-.339-.219-.628-.508-.847-.847-.234-.345-.391-.737-.459-1.148-.079-.413-.067-.839.034-1.248.076-.4.239-.779.476-1.11.227-.333.514-.62.847-.847.35-.225.739-.38,1.148-.459.421-.071.851-.063,1.269.025.399.099.778.267,1.118.497.337.23.622.529.834.877.227.357.386.753.467,1.169.074.405.05.821-.071,1.214Z" fill="#6060b2" stroke-width="0"/><path d="M78.075,29.298c-.182-.967-.151-1.963.093-2.917.267-.963.733-1.858,1.37-2.628.63-.807,1.413-1.481,2.304-1.985.961-.6,2.021-1.023,3.13-1.251,1.107-.198,2.24-.209,3.351-.032,1,.177,1.961.531,2.837,1.044.843.499,1.568,1.176,2.123,1.983.585.858.975,1.834,1.142,2.859.207,1.013.178,2.059-.085,3.059-.255.972-.72,1.876-1.361,2.649-.644.801-1.436,1.471-2.333,1.973-1,.547-2.085.923-3.209,1.113-1.092.217-2.214.239-3.313.066-1.005-.16-1.968-.515-2.837-1.044-.841-.522-1.563-1.214-2.119-2.033-.548-.871-.92-1.841-1.092-2.855ZM83.128,28.44c.076.432.241.844.484,1.21.229.34.519.634.855.868.323.239.695.405,1.089.484.41.092.833.104,1.248.034.412-.092.807-.25,1.169-.467.336-.223.624-.511.847-.847.237-.337.406-.717.497-1.118.088-.417.097-.848.025-1.269-.07-.419-.229-.817-.467-1.169-.221-.341-.504-.639-.834-.877-.331-.226-.7-.39-1.089-.484-.416-.077-.843-.078-1.26-.005-.408.078-.798.234-1.148.459-.342.226-.637.516-.868.855-.212.339-.375.705-.484,1.089-.109.381-.138.78-.088,1.173l.025.063Z" fill="#6060b2" stroke-width="0"/><path d="M98.112,18.702l.334-.133c1.221-.221,2.39.59,2.611,1.811,0,0,0,0,0,.001h0c.456-1.226,1.358-2.235,2.526-2.824,1.001-.468,2.191-.036,2.659.965.077.166.132.341.162.522h0c.198,1.099-.532,2.151-1.631,2.35-.006,0-.012.002-.018.003-1.854.272-3.136,1.996-2.864,3.851.034.234.093.463.175.685l.641,3.422c.237,1.319-.64,2.581-1.959,2.818l-.011.002h0c-1.303.257-2.567-.591-2.824-1.894-.003-.016-.006-.031-.009-.047l-1.645-9.022c-.157-1.198.662-2.306,1.854-2.507Z" fill="#6060b2" stroke-width="0"/><path d="M109.296,16.652l-.304-1.669c-.24-1.321.635-2.586,1.956-2.826s2.586.635,2.826,1.956l.312,1.69.718-.142c1.103-.2,2.159.532,2.359,1.635.2,1.103-.532,2.159-1.635,2.359h0l-.726.121,1.324,7.19c.136,1.346-.845,2.547-2.191,2.683-1.196.121-2.302-.644-2.613-1.805l-1.304-7.199" fill="#6060b2" stroke-width="0"/></g></svg>