<svg width="20" height="20" viewBox="0 0 20 20" fill="none" xmlns="http://www.w3.org/2000/svg">
<g clip-path="url(#clip0_318_135)">
<path fill-rule="evenodd" clip-rule="evenodd" d="M7.26155 4C5.46025 4 4 5.46025 4 7.26155V12.7384C4 14.5398 5.46025 16 7.26155 16H12.7384C14.5398 16 16 14.5398 16 12.7384V7.26155C16 5.46025 14.5398 4 12.7384 4H7.26155ZM6.17692 12.6637C6.31416 12.8009 6.47984 12.8696 6.67398 12.8696C6.86812 12.8696 7.0338 12.8009 7.17104 12.6637C7.30827 12.5265 7.37689 12.3608 7.37689 12.1667C7.37689 12.1332 7.37521 12.0997 7.37187 12.0662C7.36852 12.0328 7.36015 11.9893 7.34676 11.9357L9.35507 9.92739C9.49566 9.94747 9.57264 9.95751 9.58603 9.95751C9.6195 9.95751 9.65297 9.95584 9.68645 9.95249C9.71992 9.94914 9.76343 9.94078 9.81699 9.92739L10.9216 11.032C10.9082 11.0855 10.8998 11.129 10.8965 11.1625C10.8931 11.196 10.8914 11.2294 10.8914 11.2629C10.8914 11.4571 10.9601 11.6227 11.0973 11.76C11.2345 11.8972 11.4002 11.9658 11.5943 11.9658C11.7885 11.9658 11.9542 11.8972 12.0914 11.76C12.2286 11.6227 12.2973 11.4571 12.2973 11.2629C12.2973 11.2294 12.2956 11.196 12.2922 11.1625C12.2889 11.129 12.2805 11.0855 12.2671 11.032L13.8738 9.42531C13.9273 9.4387 13.9708 9.44707 14.0043 9.45041C14.0378 9.45376 14.0713 9.45543 14.1047 9.45543C14.2989 9.45543 14.4646 9.38682 14.6018 9.24958C14.739 9.11235 14.8076 8.94666 14.8076 8.75253C14.8076 8.55839 14.739 8.3927 14.6018 8.25547C14.4646 8.11823 14.2989 8.04962 14.1047 8.04962C13.9106 8.04962 13.7449 8.11823 13.6077 8.25547C13.4704 8.3927 13.4018 8.55839 13.4018 8.75253C13.4018 8.786 13.4035 8.81947 13.4068 8.85294C13.4102 8.88641 13.4186 8.92993 13.4319 8.98348L11.8253 10.5901C11.7717 10.5767 11.7282 10.5684 11.6948 10.565C11.6613 10.5617 11.6278 10.56 11.5943 10.56C11.5609 10.56 11.5274 10.5617 11.4939 10.565C11.4605 10.5684 11.4169 10.5767 11.3634 10.5901L10.2588 9.48556C10.2789 9.34498 10.2889 9.26799 10.2889 9.2546C10.2889 9.06047 10.2203 8.89478 10.0831 8.75755C9.94585 8.62031 9.78017 8.55169 9.58603 8.55169C9.39189 8.55169 9.22621 8.62031 9.08897 8.75755C8.95174 8.89478 8.88312 9.06047 8.88312 9.2546C8.88312 9.28808 8.88479 9.32155 8.88814 9.35502C8.89149 9.38849 8.89986 9.432 8.91325 9.48556L6.90493 11.4939C6.85138 11.4805 6.80787 11.4721 6.77439 11.4688C6.74092 11.4654 6.70745 11.4637 6.67398 11.4637C6.47984 11.4637 6.31416 11.5324 6.17692 11.6696C6.03969 11.8068 5.97107 11.9725 5.97107 12.1667C5.97107 12.3608 6.03969 12.5265 6.17692 12.6637ZM6.97523 7.98937L7.17606 8.4312L7.37689 7.98937L7.81872 7.78854L7.37689 7.5877L7.17606 7.14588L6.97523 7.5877L6.5334 7.78854L6.97523 7.98937ZM11.2831 7.25633L11.5943 7.91908L11.9056 7.25633L12.5684 6.94505L11.9056 6.63376L11.5943 5.97101L11.2831 6.63376L10.6203 6.94505L11.2831 7.25633Z" fill="#93C5FD"/>
<circle cx="15" cy="5" r="2" fill="#1D4ED8"/>
</g>
<defs>
<clipPath id="clip0_318_135">
<rect width="20" height="20" fill="white"/>
</clipPath>
</defs>
</svg>
