<svg width="41" height="41" viewBox="0 0 41 41" fill="none" xmlns="http://www.w3.org/2000/svg">
<path d="M20.1323 40.0488C31.178 40.0488 40.1323 31.0945 40.1323 20.0488C40.1323 9.00313 31.178 0.0488281 20.1323 0.0488281C9.08663 0.0488281 0.132324 9.00313 0.132324 20.0488C0.132324 31.0945 9.08663 40.0488 20.1323 40.0488Z" fill="#E9619B"/>
<path d="M17.2909 26.7161C16.8907 26.7161 16.5105 26.5673 16.2304 26.3069L10.5675 21.0424C9.98725 20.5029 9.98725 19.61 10.5675 19.0705C11.1478 18.5311 12.1083 18.5311 12.6886 19.0705L17.2909 23.3491L27.576 13.7874C28.1563 13.2479 29.1168 13.2479 29.6971 13.7874C30.2774 14.3269 30.2774 15.2198 29.6971 15.7593L18.3514 26.3069C18.0713 26.5673 17.6911 26.7161 17.2909 26.7161Z" fill="white"/>
</svg>
