<svg xmlns="http://www.w3.org/2000/svg" xml:space="preserve" width="170.362" height="275.208"><g fill-rule="evenodd" clip-rule="evenodd"><path fill="#02CDD2" d="M57.079 201.492c-2.004-3.979-3.284-8.412-7.195-11.176-1.594-1.127-.469-3.15-1.371-4.524-.944-1.356-.828-3.784-3.464-3.442a.536.536 0 0 0-.326-.556c-.424-1.995 1.106-5.061-2.811-5.155-.053-.357-.255-.582-.598-.673.101-1.058 1.215-2.821-1.388-2.011-5.898-9.892-13.036-19.279-17.332-29.824-3.978-9.765-9.57-18.727-12.963-28.819-2.187-6.505-6.049-12.495-6.866-19.56L2.643 68.17l.509-5.289c1.634.133 1.703-1.136 2.113-2.228 1.386-3.693 2.021-7.549 2.64-11.414 6.892-15.295 19.37-25.819 31.37-36.739 2.16 2.279 2.521.848 2.562-1.243.201.053.351-.011.447-.193 2.153.23 3.938.036 3.303-2.908.499-.321.997-.643 1.494-.965 1.824 2.87 4.924 1.849 6.612.925 5.341-2.925 10.719-5.294 16.886-5.406 1.827-.034 3.374-.212 3.159-2.619C81.201.062 88.667.031 96.129 0c1.699 3.355 6.799 3.918 9.747 1.075l11.237 4.934c.229.588.322 1.572.71 1.706 4.287 1.482 8.083 3.881 11.945 6.167 1.345.796 1.64-.273 2.001-1.186 5.909 5.168 12.128 10.035 17.58 15.647 2.328 2.396 3.329 6.167 5.896 8.683-1.191 3.116 2.32 3.431 3.359 5.26 5.104 8.978 7.497 18.651 8.714 28.72.218 1.803.692 2.832 2.626 2.736-.005 1.317-.092 2.64-.001 3.95.733 10.526-2.122 20.437-5.146 30.32-1.129 3.807-3.396 7.271-3.457 11.404l-.799 2.477c-2.432-.146-1.756 1.558-1.714 2.884-.118.578-.235 1.156-.351 1.735-2.528.411-2.906 2.142-2.621 4.279l-.26 1.882c-2.092.635-6.011-.204-3.416 4.224-3.605 6.397-7.227 12.787-10.813 19.194-2.54 4.539-4.253 9.479-7.292 13.819-1.235 1.764-2.484 3.256-4.122 4.53-2.946 2.914-5.302 6.157-5.772 10.441-5.484 10.41-12.061 20.154-18.854 29.707-3.473 4.883-8.321 8.793-9.787 14.977-1.998-.1-2.177 1.207-2.096 2.715 0 0-.18.256-.176.258-4.047.518-4.332 5.67-8.076 6.564l-2.308-1.412c-.659-3.088-3.263-4.277-5.604-5.724-.789-5.523-5.138-9.11-7.813-13.539-2.232-3.694-5.938-6.601-8.028-10.61-.163-2.993-.852-5.632-4.359-6.325zm67.531-90.754c-1.893-.172-2.951.716-3.258 2.563l-13.084.271c-1.451-2.521-3.861-2.394-6.27-2.269l-5.168-1.283c-.45-1.081-1.023-2.244-2.393-1.874-1.482.401-1.28 1.608-.777 2.747l-.269 1.561c-4.29 1.452-2.649 5.045-2.79 7.932-.107 2.218 1.276 2.81 3.258 2.395l5.637 2.179c-.4 2.617 1.476 2.508 3.123 2.533 5.289.081 10.645-.391 15.85.294 5.234.689 9.15-2.391 13.73-3.458 1.604-.374 1.365-2.06 1.631-3.309 3.718.124 2.795-3.46 4.165-5.212 3.45-.024 4.098-1.953 3.302-4.861 1.652-11.358-1.279-17.495-10.516-22.012-.864-2.5-.055-7.127 1.421-10.042.558-1.103.44-2.547.63-3.836 5.641-3.296 7.09-6.619 5.899-12.781-.362-1.876-1.245-2.516-2.997-2.483-13.951.261-27.914-.519-41.857.422-3.041-.463-3.291 1.808-3.134 3.71.214 2.585-1.459 5.6 1.353 7.665.266.195 1.146-.447 1.742-.7 7.137.11 14.275.17 21.41.373 1.32.038 3.571-.658 3.632 1.375.04 1.345.238 4.012-2.686 3.836-1.368-.082-1.95.632-2.425 1.914-1.021 2.759-2.906 4.921-4.927 7.098-2.487 2.68-1.679 6.393-.994 9.489.621 2.811 3.63 1.262 5.581 1.541 2.449.35 4.932.464 7.398.68-.082 2.032 1.287 2.141 2.775 2.092l1.247 1.13c-.024 2.093-.499 4.389 2.329 5.206l-.018 1.669c-2.031.228-2.619 1.511-2.448 3.348l-.102.097zM47.873 59.201c-3.407 1.469-7.663 1.566-9.371 5.788-3.27 3.102-5.265 7.239-6.394 11.256-2.438 8.669-1.687 17.717-1.27 26.655.463 9.93 12.177 23.606 23.665 22.664 5.945-.488 12.081.662 17.507-2.861 5.843-.135 8.604-3.124 10.758-11.644-.47-4.365 2.06-8.194 2.351-12.323.394-5.601-.09-11.263-.196-16.899.183-2.194.743-4.514-1.911-5.768-1.568-6.467-4.979-11.384-11.508-13.679-2.854-5.635-16.55-7.745-22.405-3.451-.409.086-.817.174-1.226.262z"/><path fill="#D3D2D0" d="M84.47 244.054c4.434 0 7.601-.121 10.756.021 10.524.477 20.351 3.667 29.931 7.819 4.21 1.824 5.387 5.166 4.729 9.282-.538 3.369-3.26 4.377-6 6.131-6.248 3.998-13.844 3.475-19.993 7.23-.886.54-2.267.357-3.418.361-9.319.029-18.733.826-27.921-.27-5.637-.672-11.645-1.719-16.941-4.899-2.074-1.245-4.774-1.899-7.141-2.946-3.169-1.401-6.716-2.541-6.506-6.994.196-4.143 4.644-9.451 8.18-10.705 4.385-1.553 9.675-.7 13.265-2.534 7.458-3.808 14.941-1.603 21.059-2.496zM169.946 73.742c-1.934.095-2.408-.934-2.626-2.736-1.217-10.069-3.609-19.742-8.714-28.72-1.039-1.829-4.551-2.144-3.359-5.26 4.138-.791 4.549 3.05 6.148 5.172 3.675 4.873 5.367 10.877 7.905 16.308 1.988 4.25.558 10.098.646 15.236zM73.736.093c.215 2.407-1.332 2.585-3.159 2.619-6.167.112-11.544 2.481-16.886 5.406-1.688.924-4.788 1.945-6.612-.925 8.604-3.434 16.613-9.086 26.657-7.1zM2.643 68.17l.121 27.582c-1.927.362-2.752-.505-2.75-2.393C.023 85.79.025 78.22 0 70.65c-.006-1.83.639-2.849 2.643-2.48zM131.77 12.696c-.361.912-.656 1.982-2.001 1.186-3.862-2.286-7.658-4.685-11.945-6.167-.388-.134-.481-1.118-.71-1.706 6.348-.974 10.888 2.01 14.656 6.687zM85.194 239.103c3.744-.895 4.029-6.047 8.076-6.564.99 4.646-1.971 6.973-5.415 8.801-2.181 1.156-2.949-.085-2.661-2.237zM124.182 184.882c.471-4.284 2.826-7.527 5.772-10.441-.607 4.209-.338 8.902-5.772 10.441zM7.904 49.241c-.619 3.864-1.254 7.72-2.64 11.414-.41 1.092-.479 2.36-2.113 2.228-.999-3.367 1.881-11.632 4.753-13.642zM105.876 1.075c-2.948 2.843-8.048 2.28-9.747-1.075 3.324-.302 6.604-.233 9.747 1.075zM161.342 119.416c.062-4.133 2.328-7.597 3.457-11.404 1.725 1.471 3.303 3.159.81 5.079-2.192 1.687.35 6.417-4.267 6.325zM57.079 201.492c3.508.693 4.196 3.332 4.362 6.326-3.132-.955-3.362-3.906-4.362-6.326zM41.911 176.638c3.917.095 2.387 3.16 2.811 5.155-4.496.22-2.196-3.262-2.811-5.155zM77.282 231.967c2.34 1.446 4.944 2.636 5.604 5.724-4.48.646-5.151-2.432-5.604-5.724zM152.182 136.897c-2.595-4.428 1.324-3.589 3.416-4.224.699 2.895-.308 4.408-3.416 4.224zM155.858 130.791c-.285-2.137.093-3.868 2.621-4.279.533 2.288 1.137 4.618-2.621 4.279zM45.048 182.349c2.637-.342 2.521 2.086 3.464 3.442-2.71.416-3.777-.819-3.464-3.442zM45.586 8.158c.635 2.943-1.149 3.138-3.303 2.908-.238-2.492 1.592-2.633 3.303-2.908zM158.83 124.777c-.042-1.327-.718-3.031 1.714-2.884 1.075.462 1.498 1.332.918 2.299-.574.956-1.676.708-2.632.585zM39.925 173.955c2.604-.811 1.489.953 1.388 2.011-1.367-.052-1.53-.927-1.388-2.011zM41.836 11.259c-.041 2.091-.402 3.522-2.562 1.243.858-.419 1.71-.831 2.562-1.243zM93.446 232.281c-.081-1.508.098-2.814 2.096-2.715.21 1.607.845 3.541-2.096 2.715z"/><path fill="#FDFEFE" d="M71.504 62.388c6.528 2.295 9.939 7.212 11.507 13.678-1.226 2.54-2.94 5.243 1.912 5.77.106 5.636.59 11.299.196 16.899-.292 4.129-2.821 7.958-2.351 12.321-3.666-.474-3.329 3.031-4.636 4.81-1.831 2.491-5.525 3.284-6.123 6.836-5.426 3.523-11.562 2.374-17.507 2.861-11.488.942-23.202-12.734-23.665-22.664-.417-8.938-1.168-17.985 1.27-26.655 1.129-4.017 3.125-8.154 6.392-11.255 3.999-.51 7.964-1.079 9.373-5.788l1.225-.264c7.459 1.212 15.089 1.32 22.407 3.451zm-3.213 16.629c-2.473-4.136-5.013-8.351-10.708-7.958-4.842.334-11.532 5.184-11.852 9.534-.794 10.811-3.29 22.115 5.373 31.377.041 1.745.899 2.082 2.364 1.373l8.102.192c2.196.676 3.629.315 3.307-2.432.369-2.242 2.832-3.094 3.436-5.181 2.672-.267 2.82-2.002 2.377-4.083l.009-18.733c.227-1.967 1.036-4.28-2.408-4.089zM137.996 115.806c-1.37 1.752-.447 5.336-4.163 5.212-2.197-2.159-4.157-.046-5.075 1.075-2.765 3.375-6.317 2.809-9.821 2.833-6.48.046-12.96.025-19.439.032l-5.635-2.179-.47-10.327.269-1.56c1.123-.047 2.396.445 3.17-.874l5.166 1.282c.668 4.682 3.938 2.185 6.271 2.27 4.361-.09 8.723-.18 13.085-.267 2.433.853 3.47-.065 3.257-2.566 0 0 .104-.1.104-.098 2.597.185 3.497-.87 2.448-3.35.006-.557.012-1.113.024-1.671 1.325-1.825.271-3.543-.334-5.209-.53-1.463-1.333-1.157-2.002.006l-1.246-1.129c.354-2.395-1.127-2.354-2.776-2.093-2.467-.216-4.949-.33-7.398-.68-1.951-.279-4.96 1.27-5.581-1.541-.685-3.096-1.493-6.809.994-9.489 2.021-2.176 3.906-4.339 4.927-7.098.475-1.282 1.057-1.996 2.425-1.914 2.924.175 2.726-2.492 2.686-3.836-.061-2.033-2.312-1.338-3.632-1.375-7.135-.203-14.273-.263-21.409-.373l.037-10.676c13.944-.941 27.907-.162 41.858-.422 1.752-.033 2.635.607 2.997 2.483 1.19 6.163-.259 9.485-5.897 12.781-3.54.308-3.376 4.312-5.828 5.831-2.158 1.337-2.855 3.787-1.792 6.021 1.02 2.142 3.335 2.354 5.567 2.027 9.236 4.517 12.168 10.654 10.517 22.01-3.078.278-2.788 2.846-3.304 4.864z"/><path fill="#D3D2D0" d="M99.497 124.958c6.479-.007 12.959.014 19.439-.032 3.504-.025 7.057.541 9.821-2.833.918-1.121 2.878-3.234 5.075-1.075-.268 1.25-.029 2.936-1.633 3.31-4.58 1.068-8.496 4.147-13.73 3.458-5.205-.685-10.561-.213-15.85-.294-1.647-.026-3.523.084-3.122-2.534zM71.504 62.388c-7.318-2.131-14.948-2.239-22.407-3.451 5.858-4.293 19.553-2.184 22.407 3.451zM130.782 88.933c-2.232.327-4.548.115-5.567-2.027-1.063-2.234-.366-4.685 1.792-6.021 2.452-1.519 2.288-5.522 5.828-5.831-.191 1.29-.074 2.734-.632 3.837-1.476 2.915-2.286 7.543-1.421 10.042zM72.01 122.702c.598-3.552 4.292-4.345 6.123-6.836 1.308-1.779.97-5.284 4.636-4.81-2.155 8.522-4.916 11.511-10.759 11.646zM93.876 60.213l-.037 10.676c-.597.253-1.478.895-1.743.7-2.812-2.065-1.139-5.08-1.353-7.665-.157-1.903.093-4.174 3.133-3.711zM47.873 59.201c-1.409 4.709-5.375 5.278-9.373 5.788 1.709-4.222 5.965-4.319 9.373-5.788zM93.392 112.453l.47 10.327c-1.983.415-3.367-.177-3.26-2.395.141-2.887-1.5-6.481 2.79-7.932zM108.268 113.571c-2.334-.085-5.604 2.412-6.271-2.27 2.41-.123 4.82-.25 6.271 2.27zM137.996 115.806c.517-2.018.227-4.585 3.303-4.862.794 2.909.147 4.838-3.303 4.862zM84.923 81.835c-4.852-.527-3.138-3.23-1.912-5.77 2.656 1.257 2.095 3.577 1.912 5.77zM124.851 100.417c.669-1.163 1.472-1.469 2.002-.006.604 1.666 1.659 3.384.334 5.209-2.835-.815-2.36-3.11-2.336-5.203zM96.831 110.019c-.773 1.319-2.047.827-3.17.874-.503-1.14-.705-2.347.777-2.748 1.369-.37 1.942.793 2.393 1.874zM127.163 107.291c1.049 2.479.148 3.535-2.448 3.35-.172-1.839.416-3.122 2.448-3.35zM124.61 110.738c.213 2.501-.824 3.419-3.257 2.566.306-1.849 1.364-2.738 3.257-2.566zM120.829 97.194c1.649-.262 3.131-.302 2.776 2.093-1.489.048-2.858-.06-2.776-2.093z"/><path fill="#02CDD2" d="M51.104 111.971c-8.662-9.262-6.167-20.566-5.373-31.377.32-4.35 7.01-9.2 11.852-9.534 5.695-.394 8.234 3.821 10.707 7.956-.385 2.062-.043 3.697 2.408 4.092l-.008 18.731c-2.672.266-2.524 2.175-2.378 4.084-.604 2.086-3.066 2.939-3.435 5.179-1.86-.22-2.716.927-3.308 2.434-2.7-.064-5.401-.128-8.102-.19-.495-.958-1.225-1.517-2.363-1.375z"/><path fill="#D3D2D0" d="M70.698 83.108c-2.451-.395-2.793-2.031-2.408-4.092 3.445-.19 2.636 2.123 2.408 4.092zM68.313 105.923c-.146-1.909-.294-3.819 2.378-4.084.442 2.082.293 3.818-2.378 4.084zM61.57 113.536c.591-1.506 1.447-2.654 3.308-2.434.321 2.749-1.112 3.11-3.308 2.434zM51.104 111.971c1.138-.142 1.868.417 2.364 1.375-1.465.706-2.323.37-2.364-1.375z"/></g><path fill="#02CDD2" fill-rule="evenodd" d="M30.394 43.082h121.789v93.815H30.394z" clip-rule="evenodd"/></svg>