<svg width="32" height="32" viewBox="0 0 32 32" fill="none" xmlns="http://www.w3.org/2000/svg">
<path d="M16.0013 2.66504C13.3642 2.66504 10.7864 3.44703 8.5937 4.91211C6.40105 6.3772 4.69208 8.45958 3.68291 10.8959C2.67375 13.3323 2.4097 16.0132 2.92417 18.5996C3.43864 21.186 4.70852 23.5618 6.57322 25.4265C8.43792 27.2912 10.8137 28.561 13.4001 29.0755C15.9865 29.59 18.6674 29.3259 21.1038 28.3168C23.5401 27.3076 25.6225 25.5986 27.0876 23.406C28.5527 21.2133 29.3346 18.6355 29.3346 15.9984C29.3346 14.2474 28.9898 12.5136 28.3197 10.8959C27.6496 9.27825 26.6675 7.8084 25.4294 6.57028C24.1913 5.33217 22.7214 4.35004 21.1038 3.67998C19.4861 3.00992 17.7523 2.66504 16.0013 2.66504Z" fill="#8264FF"/>
<path d="M20.1042 15.8958H16.1042V11.8958C16.1042 11.5422 15.9637 11.2031 15.7136 10.953C15.4636 10.703 15.1245 10.5625 14.7708 10.5625C14.4172 10.5625 14.0781 10.703 13.828 10.953C13.578 11.2031 13.4375 11.5422 13.4375 11.8958V17.2292C13.4375 17.5828 13.578 17.9219 13.828 18.172C14.0781 18.422 14.4172 18.5625 14.7708 18.5625H20.1042C20.4578 18.5625 20.7969 18.422 21.047 18.172C21.297 17.9219 21.4375 17.5828 21.4375 17.2292C21.4375 16.8755 21.297 16.5364 21.047 16.2864C20.7969 16.0363 20.4578 15.8958 20.1042 15.8958Z" fill="white"/>
</svg>
