<svg width="27" height="27" viewBox="0 0 27 27" fill="none" xmlns="http://www.w3.org/2000/svg">
<circle cx="13.5" cy="13.5" r="13.5" fill="url(#paint0_linear_135_1338)"/>
<path d="M2.84837 18V9.27273H8.72905V10.794H4.69354V12.8736H8.42649V14.3949H4.69354V16.4787H8.74609V18H2.84837ZM12.5739 18.1065C12.0767 18.1065 11.6264 17.9787 11.223 17.723C10.8224 17.4645 10.5043 17.0852 10.2685 16.5852C10.0355 16.0824 9.91903 15.4659 9.91903 14.7358C9.91903 13.9858 10.0398 13.3622 10.2812 12.8651C10.5227 12.3651 10.8438 11.9915 11.2443 11.7443C11.6477 11.4943 12.0895 11.3693 12.5696 11.3693C12.9361 11.3693 13.2415 11.4318 13.4858 11.5568C13.733 11.679 13.9318 11.8324 14.0824 12.017C14.2358 12.1989 14.3523 12.3778 14.4318 12.554H14.4872V9.27273H16.2983V18H14.5085V16.9517H14.4318C14.3466 17.1335 14.2259 17.3139 14.0696 17.4929C13.9162 17.669 13.7159 17.8153 13.4688 17.9318C13.2244 18.0483 12.9261 18.1065 12.5739 18.1065ZM13.1491 16.6619C13.4418 16.6619 13.6889 16.5824 13.8906 16.4233C14.0952 16.2614 14.2514 16.0355 14.3594 15.7457C14.4702 15.456 14.5256 15.1165 14.5256 14.7273C14.5256 14.3381 14.4716 14 14.3636 13.7131C14.2557 13.4261 14.0994 13.2045 13.8949 13.0483C13.6903 12.892 13.4418 12.8139 13.1491 12.8139C12.8509 12.8139 12.5994 12.8949 12.3949 13.0568C12.1903 13.2187 12.0355 13.4432 11.9304 13.7301C11.8253 14.017 11.7727 14.3494 11.7727 14.7273C11.7727 15.108 11.8253 15.4446 11.9304 15.7372C12.0384 16.027 12.1932 16.2543 12.3949 16.419C12.5994 16.581 12.8509 16.6619 13.1491 16.6619ZM17.7908 18V11.4545H19.6062V18H17.7908ZM18.7028 10.6108C18.4329 10.6108 18.2013 10.5213 18.0082 10.3423C17.8178 10.1605 17.7227 9.94318 17.7227 9.69034C17.7227 9.44034 17.8178 9.22585 18.0082 9.04688C18.2013 8.86506 18.4329 8.77415 18.7028 8.77415C18.9727 8.77415 19.2028 8.86506 19.3931 9.04688C19.5863 9.22585 19.6829 9.44034 19.6829 9.69034C19.6829 9.94318 19.5863 10.1605 19.3931 10.3423C19.2028 10.5213 18.9727 10.6108 18.7028 10.6108ZM24.5419 11.4545V12.8182H20.6001V11.4545H24.5419ZM21.495 9.88636H23.3104V15.9886C23.3104 16.1562 23.3359 16.2869 23.3871 16.3807C23.4382 16.4716 23.5092 16.5355 23.6001 16.5724C23.6939 16.6094 23.8018 16.6278 23.924 16.6278C24.0092 16.6278 24.0945 16.6207 24.1797 16.6065C24.2649 16.5895 24.3303 16.5767 24.3757 16.5682L24.6612 17.919C24.5703 17.9474 24.4425 17.9801 24.2777 18.017C24.1129 18.0568 23.9126 18.081 23.6768 18.0895C23.2393 18.1065 22.8558 18.0483 22.5263 17.9148C22.1996 17.7812 21.9453 17.5739 21.7635 17.2926C21.5817 17.0114 21.4922 16.6562 21.495 16.2273V9.88636Z" fill="#565656"/>
<defs>
<linearGradient id="paint0_linear_135_1338" x1="13.5" y1="0" x2="13.5" y2="27" gradientUnits="userSpaceOnUse">
<stop stop-color="#D1CFFF"/>
<stop offset="1" stop-color="#FFD5E5"/>
</linearGradient>
</defs>
</svg>
