<?xml version="1.0" encoding="UTF-8"?><svg id="b" xmlns="http://www.w3.org/2000/svg" xmlns:xlink="http://www.w3.org/1999/xlink" viewBox="0 0 164.399 164.399"><defs><linearGradient id="d" x1="15.01" y1="-3.456" x2="176.542" y2="204.973" gradientUnits="userSpaceOnUse"><stop offset="0" stop-color="#caedc2"/><stop offset=".208" stop-color="#c7ecc2"/><stop offset=".356" stop-color="#bdeac2"/><stop offset=".485" stop-color="#aee6c2"/><stop offset=".604" stop-color="#98e0c3"/><stop offset=".716" stop-color="#7bd9c3"/><stop offset=".822" stop-color="#58d1c4"/><stop offset=".922" stop-color="#2fc7c5"/><stop offset="1" stop-color="#0abec6"/></linearGradient><filter id="e" filterUnits="userSpaceOnUse"><feOffset dx="0" dy="0"/><feGaussianBlur result="f" stdDeviation="5.668"/><feFlood flood-color="#40c0c6" flood-opacity=".75"/><feComposite in2="f" operator="in"/><feComposite in="SourceGraphic"/></filter></defs><g id="c"><circle cx="85.785" cy="85.785" r="78.614" fill="#28a3a3" stroke-width="0"/><circle cx="78.614" cy="78.614" r="78.614" fill="url(#d)" stroke-width="0"/><g filter="url(#e)"><path d="M69.464,90.251v-18.3c.751.125,1.438.234,2.065.328.624.094,1.219.14,1.782.14,1.69,0,3.284-.234,4.786-.703,1.502-.471,2.801-1.11,3.895-1.925,1.095-.812,1.955-1.797,2.582-2.956.624-1.158.937-2.424.937-3.801,0-1.876-.624-3.503-1.876-4.881-1.253-1.375-2.941-2.065-5.066-2.065-1.943,0-3.49.657-4.646,1.971-1.158,1.314-1.736,3.035-1.736,5.163h-18.677c0-3.193.642-6.115,1.925-8.776,1.281-2.658,3.063-4.975,5.349-6.945,2.284-1.971,4.975-3.503,8.071-4.598,3.098-1.095,6.459-1.645,10.09-1.645,3.692,0,7.055.611,10.09,1.831,3.035,1.219,5.644,2.864,7.836,4.929,2.189,2.065,3.88,4.443,5.069,7.131,1.186,2.691,1.782,5.476,1.782,8.353,0,9.387-5.662,16.05-16.986,19.991v6.757h-17.269ZM67.585,104.987c0-1.502.283-2.923.845-4.27.563-1.344,1.344-2.518,2.347-3.521,1.001-.998,2.172-1.782,3.518-2.345,1.344-.563,2.77-.845,4.272-.845s2.923.283,4.27.845c1.344.563,2.518,1.347,3.518,2.345,1.001,1.003,1.785,2.177,2.347,3.521.563,1.347.845,2.767.845,4.27s-.283,2.925-.845,4.27c-.563,1.347-1.347,2.52-2.347,3.521s-2.174,1.782-3.518,2.345c-1.347.565-2.77.845-4.27.845s-2.928-.28-4.272-.845c-1.347-.563-2.518-1.344-3.518-2.345-1.003-1.001-1.785-2.174-2.347-3.521-.563-1.344-.845-2.767-.845-4.27Z" fill="#fff" stroke-width="0"/></g></g></svg>