<svg width="62" height="62" viewBox="0 0 62 62" fill="none" xmlns="http://www.w3.org/2000/svg">
<rect width="62" height="62" rx="8" fill="#8264FF" fill-opacity="0.1"/>
<path d="M43.3333 39.6265L41.1333 40.1465C40.64 40.2665 40.2533 40.6398 40.1466 41.1332L39.68 43.0932C39.4266 44.1598 38.0666 44.4932 37.36 43.6532L33.3733 39.0665C33.0533 38.6932 33.2266 38.1065 33.7066 37.9865C36.0666 37.4132 38.1866 36.0932 39.7466 34.2132C40 33.9065 40.4533 33.8665 40.7333 34.1465L43.6933 37.1065C44.7066 38.1198 44.3466 39.3865 43.3333 39.6265Z" fill="#8264FF"/>
<path d="M18.6 39.6265L20.8 40.1465C21.2933 40.2665 21.68 40.6398 21.7866 41.1332L22.2533 43.0932C22.5066 44.1598 23.8666 44.4932 24.5733 43.6532L28.56 39.0665C28.88 38.6932 28.7066 38.1065 28.2266 37.9865C25.8666 37.4132 23.7466 36.0932 22.1866 34.2132C21.9333 33.9065 21.48 33.8665 21.2 34.1465L18.24 37.1065C17.2266 38.1198 17.5866 39.3865 18.6 39.6265Z" fill="#8264FF"/>
<path d="M31 17.667C25.84 17.667 21.6666 21.8403 21.6666 27.0003C21.6666 28.9337 22.24 30.707 23.2266 32.187C24.6666 34.3203 26.9466 35.827 29.6 36.2137C30.0533 36.2937 30.52 36.3337 31 36.3337C31.48 36.3337 31.9466 36.2937 32.4 36.2137C35.0533 35.827 37.3333 34.3203 38.7733 32.187C39.76 30.707 40.3333 28.9337 40.3333 27.0003C40.3333 21.8403 36.16 17.667 31 17.667ZM35.08 26.707L33.9733 27.8137C33.7866 28.0003 33.68 28.3603 33.7466 28.627L34.0666 30.0003C34.32 31.0803 33.7466 31.507 32.7866 30.9337L31.4533 30.147C31.2133 30.0003 30.8133 30.0003 30.5733 30.147L29.24 30.9337C28.28 31.4937 27.7066 31.0803 27.96 30.0003L28.28 28.627C28.3333 28.3737 28.24 28.0003 28.0533 27.8137L26.92 26.707C26.2666 26.0537 26.48 25.4003 27.3866 25.2537L28.8133 25.0137C29.0533 24.9737 29.3333 24.7603 29.44 24.547L30.2266 22.9737C30.6533 22.1203 31.3466 22.1203 31.7733 22.9737L32.56 24.547C32.6666 24.7603 32.9466 24.9737 33.2 25.0137L34.6266 25.2537C35.52 25.4003 35.7333 26.0537 35.08 26.707Z" fill="#8264FF"/>
</svg>
