<svg width="41" height="41" viewBox="0 0 41 41" fill="none" xmlns="http://www.w3.org/2000/svg">
<path d="M20.1323 40.332C31.178 40.332 40.1323 31.3777 40.1323 20.332C40.1323 9.28634 31.178 0.332031 20.1323 0.332031C9.08663 0.332031 0.132324 9.28634 0.132324 20.332C0.132324 31.3777 9.08663 40.332 20.1323 40.332Z" fill="#EF8C20"/>
<path d="M17.2909 26.9993C16.8907 26.9993 16.5105 26.8505 16.2304 26.5901L10.5675 21.3256C9.98725 20.7861 9.98725 19.8932 10.5675 19.3537C11.1478 18.8143 12.1083 18.8143 12.6886 19.3537L17.2909 23.6323L27.576 14.0706C28.1563 13.5311 29.1168 13.5311 29.6971 14.0706C30.2774 14.6101 30.2774 15.503 29.6971 16.0425L18.3514 26.5901C18.0713 26.8505 17.6911 26.9993 17.2909 26.9993Z" fill="white"/>
</svg>
