<svg width="62" height="62" viewBox="0 0 62 62" fill="none" xmlns="http://www.w3.org/2000/svg">
<rect width="62" height="62" rx="8" fill="#FF64A0" fill-opacity="0.1"/>
<path d="M39.0267 31.4403L37.4 29.8137C37.0134 29.4803 36.7867 28.987 36.7734 28.4403C36.7467 27.8403 36.9867 27.2403 37.4267 26.8003L39.0267 25.2003C40.4134 23.8137 40.9334 22.4803 40.4934 21.427C40.0667 20.387 38.7467 19.8137 36.8 19.8137H22.8667V18.667C22.8667 18.1203 22.4134 17.667 21.8667 17.667C21.32 17.667 20.8667 18.1203 20.8667 18.667V43.3337C20.8667 43.8803 21.32 44.3337 21.8667 44.3337C22.4134 44.3337 22.8667 43.8803 22.8667 43.3337V36.827H36.8C38.72 36.827 40.0134 36.2403 40.4534 35.187C40.8934 34.1337 40.3867 32.8137 39.0267 31.4403Z" fill="#FF64A0"/>
</svg>
