<svg width="41" height="41" viewBox="0 0 41 41" fill="none" xmlns="http://www.w3.org/2000/svg">
<path d="M20.1323 40.1826C31.178 40.1826 40.1323 31.2283 40.1323 20.1826C40.1323 9.13692 31.178 0.182617 20.1323 0.182617C9.08663 0.182617 0.132324 9.13692 0.132324 20.1826C0.132324 31.2283 9.08663 40.1826 20.1323 40.1826Z" fill="#FF5000"/>
<path d="M17.2909 26.8499C16.8907 26.8499 16.5105 26.7011 16.2304 26.4407L10.5675 21.1762C9.98725 20.6367 9.98725 19.7438 10.5675 19.2043C11.1478 18.6648 12.1083 18.6648 12.6886 19.2043L17.2909 23.4829L27.576 13.9212C28.1563 13.3817 29.1168 13.3817 29.6971 13.9212C30.2774 14.4607 30.2774 15.3536 29.6971 15.8931L18.3514 26.4407C18.0713 26.7011 17.6911 26.8499 17.2909 26.8499Z" fill="white"/>
</svg>
