<svg width="62" height="62" viewBox="0 0 62 62" fill="none" xmlns="http://www.w3.org/2000/svg">
<rect width="62" height="62" rx="8" fill="#FF8F00" fill-opacity="0.1"/>
<path d="M31 17.667C23.6533 17.667 17.6666 23.6537 17.6666 31.0003C17.6666 38.347 23.6533 44.3337 31 44.3337C38.3466 44.3337 44.3333 38.347 44.3333 31.0003C44.3333 23.6537 38.3466 17.667 31 17.667ZM37.3733 27.9337L29.8133 35.4937C29.6266 35.6803 29.3733 35.787 29.1066 35.787C28.84 35.787 28.5866 35.6803 28.4 35.4937L24.6266 31.7203C24.24 31.3337 24.24 30.6937 24.6266 30.307C25.0133 29.9203 25.6533 29.9203 26.04 30.307L29.1066 33.3737L35.96 26.5203C36.3466 26.1337 36.9866 26.1337 37.3733 26.5203C37.76 26.907 37.76 27.5337 37.3733 27.9337Z" fill="#FF8F00"/>
</svg>
