<?xml version="1.0" encoding="UTF-8"?><svg id="b" xmlns="http://www.w3.org/2000/svg" xmlns:xlink="http://www.w3.org/1999/xlink" viewBox="0 0 443.259 443.259"><defs><clipPath id="d"><rect width="443.259" height="443.259" fill="none" stroke-width="0"/></clipPath><linearGradient id="e" x1="56.677" y1="254.926" x2="76.741" y2="254.926" gradientUnits="userSpaceOnUse"><stop offset="0" stop-color="#f0c400"/><stop offset="1" stop-color="#ffac00"/></linearGradient><linearGradient id="f" x1="31.74" y1="475.279" x2="51.803" y2="475.279" xlink:href="#e"/><linearGradient id="g" x1="15.64" y1="151.494" x2="255.188" y2="151.494" gradientUnits="userSpaceOnUse"><stop offset="0" stop-color="#ffc400"/><stop offset="1" stop-color="#ffac00"/></linearGradient><linearGradient id="h" x1="15.817" y1="451.675" x2="337.455" y2="451.675" xlink:href="#e"/><linearGradient id="i" x1="345.727" y1="-.593" x2="157.469" y2="557.262" gradientUnits="userSpaceOnUse"><stop offset="0" stop-color="#ff4e93"/><stop offset=".029" stop-color="#ea51a4"/><stop offset=".083" stop-color="#ca57c0"/><stop offset=".141" stop-color="#af5bd7"/><stop offset=".205" stop-color="#9b5fe9"/><stop offset=".277" stop-color="#8c62f5"/><stop offset=".363" stop-color="#8463fc"/><stop offset=".506" stop-color="#8264ff"/><stop offset="1" stop-color="#5047bf"/></linearGradient><linearGradient id="j" x1="123.878" y1="539.683" x2="143.945" y2="539.683" gradientUnits="userSpaceOnUse"><stop offset="0" stop-color="#ffd600"/><stop offset=".3" stop-color="#ffd100"/><stop offset=".625" stop-color="#ffc400"/><stop offset=".962" stop-color="#ffae00"/><stop offset="1" stop-color="#ffac00"/></linearGradient><linearGradient id="k" x1="236.296" y1="342.171" x2="237.665" y2="342.171" gradientUnits="userSpaceOnUse"><stop offset="0" stop-color="#f05724"/><stop offset="1" stop-color="#f69021"/></linearGradient><linearGradient id="l" x1="66.157" y1="382.543" x2="497.509" y2="382.543" xlink:href="#j"/><linearGradient id="m" x1="303.517" y1="402.919" x2="302.352" y2="555.557" gradientUnits="userSpaceOnUse"><stop offset="0" stop-color="#ff9500"/><stop offset="1" stop-color="#f0c400"/></linearGradient><linearGradient id="n" x1="51.068" y1="393.597" x2="176.732" y2="495.57" gradientUnits="userSpaceOnUse"><stop offset="0" stop-color="#ff9500"/><stop offset=".359" stop-color="#fe9700"/><stop offset=".606" stop-color="#fba000"/><stop offset=".819" stop-color="#f6b000"/><stop offset="1" stop-color="#f0c400"/></linearGradient><linearGradient id="o" x1="154.823" y1="259.362" x2="334.385" y2="259.362" gradientUnits="userSpaceOnUse"><stop offset="0" stop-color="#8264ff"/><stop offset="1" stop-color="#5f4dd2"/></linearGradient><linearGradient id="p" x1="145.059" y1="193.879" x2="173.21" y2="193.879" gradientUnits="userSpaceOnUse"><stop offset="0" stop-color="#e68abf"/><stop offset="1" stop-color="#8264ff"/></linearGradient><linearGradient id="q" x1="321.182" y1="193.879" x2="349.333" y2="193.879" gradientUnits="userSpaceOnUse"><stop offset="0" stop-color="#8264ff"/><stop offset="1" stop-color="#e68abf"/></linearGradient><linearGradient id="r" x1="148.728" y1="159.317" x2="213.423" y2="159.317" gradientUnits="userSpaceOnUse"><stop offset="0" stop-color="#fef"/><stop offset=".656" stop-color="#ffeaff"/><stop offset="1" stop-color="#ffe5ff"/></linearGradient><linearGradient id="s" x1="280.969" y1="159.317" x2="345.664" y2="159.317" xlink:href="#r"/><linearGradient id="t" x1="187.186" y1="197.132" x2="312.829" y2="197.132" gradientUnits="userSpaceOnUse"><stop offset="0" stop-color="#ffac00"/><stop offset="1" stop-color="#f03c00"/></linearGradient><linearGradient id="u" x1="262.396" y1="309.285" x2="284.738" y2="309.285" gradientUnits="userSpaceOnUse"><stop offset="0" stop-color="#ff4e93"/><stop offset=".184" stop-color="#ff5391"/><stop offset=".425" stop-color="#ff648d"/><stop offset=".7" stop-color="#ff7f86"/><stop offset=".996" stop-color="#ffa57d"/><stop offset="1" stop-color="#ffa67d"/></linearGradient><linearGradient id="v" x1="261.389" y1="320.456" x2="282.878" y2="320.456" xlink:href="#u"/><linearGradient id="w" x1="268.993" y1="332.579" x2="293.378" y2="332.579" xlink:href="#u"/><linearGradient id="x" x1="427.031" y1="287.053" x2="252.742" y2="317.965" gradientUnits="userSpaceOnUse"><stop offset="0" stop-color="#8264ff"/><stop offset=".242" stop-color="#7e62fa"/><stop offset=".499" stop-color="#745ced"/><stop offset=".762" stop-color="#6452d8"/><stop offset="1" stop-color="#5047bf"/></linearGradient><linearGradient id="y" x1="173.782" y1="318.468" x2="249.645" y2="318.468" xlink:href="#t"/><linearGradient id="z" x1="243.123" y1="384.023" x2="250.149" y2="384.023" xlink:href="#t"/><linearGradient id="aa" x1="6156.888" y1="-495.821" x2="6182.849" y2="-495.821" gradientTransform="translate(-5952.93 694.38) rotate(1.104)" xlink:href="#u"/><linearGradient id="ab" x1="6158.029" y1="-482.83" x2="6183.214" y2="-482.83" gradientTransform="translate(-5952.93 694.38) rotate(1.104)" xlink:href="#u"/><linearGradient id="ac" x1="6145.198" y1="-468.863" x2="6173.618" y2="-468.863" gradientTransform="translate(-5952.93 694.38) rotate(1.104)" xlink:href="#u"/><linearGradient id="ad" x1="5884.202" y1="-843.461" x2="6229.984" y2="-261.297" gradientTransform="translate(-5952.93 694.38) rotate(1.104)" gradientUnits="userSpaceOnUse"><stop offset="0" stop-color="#00cdd2"/><stop offset=".028" stop-color="#19b8da"/><stop offset=".07" stop-color="#399ee6"/><stop offset=".116" stop-color="#5488ef"/><stop offset=".166" stop-color="#6878f6"/><stop offset=".222" stop-color="#776cfb"/><stop offset=".29" stop-color="#7f66fe"/><stop offset=".402" stop-color="#8264ff"/><stop offset=".641" stop-color="#5047bf"/></linearGradient></defs><g id="c"><g clip-path="url(#d)"><rect x="56.677" y="188.023" width="20.064" height="133.805" rx="5.989" ry="5.989" fill="#fff" stroke-width="0"/><rect x="31.74" y="398.285" width="20.064" height="153.988" rx="10.032" ry="10.032" fill="#fff" stroke-width="0"/><rect x="15.64" y="84.388" width="239.548" height="134.21" rx="17.886" ry="17.886" fill="#fff" stroke-width="0"/><path d="M337.455,518.78H97.907l-79.452-111.869c-6.654-9.368.045-22.341,11.535-22.341h212.146l95.319,134.21Z" fill="#fff" stroke-width="0"/><path d="M408.873,445.099c-8.099,0-14.666-6.567-14.666-14.666v-5.266c0-3.317,1.119-6.464,3.078-8.989.418-1.014.832-1.938,1.205-2.773.332-.746.768-1.72.978-2.284.464-7.681,6.841-13.768,14.639-13.768,8.099,0,14.666,6.567,14.666,14.666,0,4.89,0,13.075-5.299,19.808-.702,7.446-6.971,13.273-14.601,13.273Z" fill="#fff" stroke-width="0"/><path d="M409.787,424.662c4.32-2.775,4.32-7.693,4.32-12.644,0,3.878-2.807,7.725-4.32,12.644ZM408.872,430.432c0-2.113.379-4.004.914-5.77-.284.158-.599.347-.914.505v5.266Z" fill="#fff" stroke-width="0"/><path d="M414.737,330.45c-.978-7.662-.659-6.504-2.362-15.743-.063-.473-.158-.946-.252-1.419,10.531-30.427-16.367-52.645-35.474-67.716-.032-.189-1.755-13.821-1.755-14.01-1.797-14.22.336-28.998.494-44.542.441-40.39-12.045-80.307-37.237-113.792-8.04-10.657-17.152-20.526-27.368-28.944,10.058-9.05,22.229-27.652-44.268-29.922,1.103-3.689.883-7.63-1.072-11.855-7.157-6.212-22.67-2.302-37.394,5.297-3.311-14.63-35.724,9.018-47.169,17.909-47.705,14.662-71.919,55.39-85.13,100.1-12.391,37.521-12.583,68.334-17.313,106.486-8.939,18.072-11.727,22.629-28.692,67.349-23.27,50.543-30.742,110.639,12.045,153.898,1.261,1.671,2.585,3.31,3.941,4.919,17.372,17.184,40.484,31.057,68.798,40.138,18.414,5.865,39.035,9.743,61.736,11.13,7.567.441,15.356.662,23.364.536,71.037,4.225,170.831-1.04,189.244-85.1,13.117-28.882,7.883-63.029,5.865-94.717ZM381.883,468.489c2.018-2.018,3.972-4.067,5.769-6.117-1.797,2.05-3.72,4.099-5.769,6.117Z" fill="#fff" stroke-width="0"/><path d="M375.322,476.848c-4.026,0-8.034-1.647-10.931-4.881-5.392-6.021-4.897-15.271,1.107-20.68,2.057-1.853,3.823-3.542,5.401-5.163,2.875-2.955,6.692-4.439,10.513-4.439,3.687,0,7.376,1.381,10.226,4.155,5.805,5.649,5.932,14.934.284,20.739-2.2,2.262-4.506,4.467-6.853,6.557-2.794,2.488-6.278,3.712-9.747,3.712Z" fill="#fff" stroke-width="0"/><path d="M403.654,441.021c-1.939,0-3.907-.387-5.796-1.2-7.186-3.095-10.676-11.288-7.93-18.615l.014-.036c.327-.874.656-1.745.961-2.661.228-.696.526-1.406.891-2.12.51-1.097,1-2.19,1.47-3.243,2.426-5.433,7.771-8.688,13.396-8.688,1.786,0,3.599.328,5.357,1.018,7.297,2.866,11.05,10.961,8.522,18.382-.438,1.285-.877,2.541-1.343,3.796-.109.294-.228.583-.355.869-.619,1.385-1.298,2.832-2.005,4.277-2.535,5.181-7.74,8.221-13.18,8.221Z" fill="#fff" stroke-width="0"/><path d="M406.655,419.128c-.394,1.156-.788,2.285-1.208,3.415-.552,1.235-1.156,2.522-1.786,3.809.394-1.051.788-2.101,1.156-3.205.026-.079.079-.157.105-.21.604-1.287,1.182-2.574,1.733-3.809Z" fill="#fff" stroke-width="0"/><path d="M404.862,437.711c-1.885,0-3.798-.365-5.642-1.134-7.244-3.022-10.824-11.212-8.124-18.581,1.934-5.275,3.306-9.373,4.45-13.284,1.869-6.386,7.711-10.55,14.068-10.55,1.263,0,2.547.163,3.823.507,7.701,2.074,12.335,9.924,10.427,17.668-.888,3.606-1.948,7.292-3.15,10.96-.162.546-.355,1.081-.579,1.604-.617,1.441-1.29,2.88-1.995,4.38-2.489,5.295-7.757,8.43-13.279,8.43Z" fill="#fff" stroke-width="0"/><path d="M409.623,408.83c-.867,3.52-1.865,6.935-2.969,10.271v.026c-.552,1.287-1.156,2.574-1.786,3.914,1.655-4.518,3.31-9.272,4.755-14.211Z" fill="#fff" stroke-width="0"/><path d="M404.862,437.711c-1.885,0-3.798-.365-5.642-1.134-7.244-3.022-10.824-11.212-8.124-18.581,1.934-5.275,3.306-9.373,4.45-13.284,1.869-6.386,7.711-10.55,14.068-10.55,1.263,0,2.547.163,3.823.507,7.701,2.074,12.335,9.924,10.427,17.668-.888,3.606-1.948,7.292-3.15,10.96-.162.546-.355,1.081-.579,1.604-.617,1.441-1.29,2.88-1.995,4.38-2.489,5.295-7.757,8.43-13.279,8.43Z" fill="#fff" stroke-width="0"/><path d="M409.623,408.83c-.867,3.52-1.865,6.935-2.969,10.271v.026c-.552,1.287-1.156,2.574-1.786,3.914,1.655-4.518,3.31-9.272,4.755-14.211Z" fill="#fff" stroke-width="0"/><path d="M375.322,476.848c-4.026,0-8.034-1.647-10.931-4.881-5.392-6.021-4.897-15.271,1.107-20.68,2.057-1.853,3.823-3.542,5.401-5.163,2.875-2.955,6.692-4.439,10.513-4.439,3.687,0,7.376,1.381,10.226,4.155,5.805,5.649,5.932,14.934.284,20.739-2.2,2.262-4.506,4.467-6.853,6.557-2.794,2.488-6.278,3.712-9.747,3.712Z" fill="#fff" stroke-width="0"/><path d="M403.654,441.021c-1.939,0-3.907-.387-5.796-1.2-7.186-3.095-10.676-11.288-7.93-18.615l.014-.036c.327-.874.656-1.745.961-2.661.228-.696.526-1.406.891-2.12.51-1.097,1-2.19,1.47-3.243,2.426-5.433,7.771-8.688,13.396-8.688,1.786,0,3.599.328,5.357,1.018,7.297,2.866,11.05,10.961,8.522,18.382-.438,1.285-.877,2.541-1.343,3.796-.109.294-.228.583-.355.869-.619,1.385-1.298,2.832-2.005,4.277-2.535,5.181-7.74,8.221-13.18,8.221Z" fill="#fff" stroke-width="0"/><path d="M406.655,419.128c-.394,1.156-.788,2.285-1.208,3.415-.552,1.235-1.156,2.522-1.786,3.809.394-1.051.788-2.101,1.156-3.205.026-.079.079-.157.105-.21.604-1.287,1.182-2.574,1.733-3.809Z" fill="#fff" stroke-width="0"/><path d="M190.923,453.86c-1.438,0-2.9-.213-4.344-.662-1.409-.437-2.777-.977-4.065-1.606-7.23-3.535-10.262-12.234-6.795-19.497,2.515-5.265,7.767-8.349,13.246-8.349,2.075,0,4.184.443,6.189,1.378.039.017.158.069.402.15,7.627,2.542,11.786,10.751,9.324,18.403-1.997,6.213-7.753,10.182-13.957,10.182Z" fill="#fff" stroke-width="0"/><path d="M188.955,438.416c.639.297,1.294.55,1.964.774-.67-.208-1.324-.461-1.964-.774Z" fill="#fff" stroke-width="0"/><path d="M323.213,453.86c-6.205,0-11.961-3.967-13.957-10.182-2.462-7.653,1.697-15.861,9.324-18.403.1-.033.199-.064.294-.106,2.037-.971,4.185-1.432,6.299-1.432,5.43,0,10.642,3.034,13.184,8.237,3.532,7.23.567,15.961-6.631,19.56-1.302.652-2.704,1.212-4.166,1.664-1.445.448-2.908.662-4.345.662Z" fill="#fff" stroke-width="0"/><path d="M323.218,439.19c.67-.223,1.324-.476,1.949-.774-.625.312-1.279.565-1.949.774Z" fill="#fff" stroke-width="0"/><path d="M190.923,453.86c-1.438,0-2.9-.213-4.344-.662-1.409-.437-2.777-.977-4.065-1.606-7.23-3.535-10.262-12.234-6.795-19.497,2.515-5.265,7.767-8.349,13.246-8.349,2.075,0,4.184.443,6.189,1.378.039.017.158.069.402.15,7.627,2.542,11.786,10.751,9.324,18.403-1.997,6.213-7.753,10.182-13.957,10.182Z" fill="#fff" stroke-width="0"/><path d="M188.955,438.416c.639.297,1.294.55,1.964.774-.67-.208-1.324-.461-1.964-.774Z" fill="#fff" stroke-width="0"/><path d="M323.213,453.86c-6.205,0-11.961-3.967-13.957-10.182-2.462-7.653,1.697-15.861,9.324-18.403.1-.033.199-.064.294-.106,2.037-.971,4.185-1.432,6.299-1.432,5.43,0,10.642,3.034,13.184,8.237,3.532,7.23.567,15.961-6.631,19.56-1.302.652-2.704,1.212-4.166,1.664-1.445.448-2.908.662-4.345.662Z" fill="#fff" stroke-width="0"/><path d="M323.218,439.19c.67-.223,1.324-.476,1.949-.774-.625.312-1.279.565-1.949.774Z" fill="#fff" stroke-width="0"/><path d="M323.213,453.86c-6.205,0-11.961-3.967-13.957-10.182-2.462-7.653,1.697-15.861,9.324-18.403.1-.033.199-.064.294-.106,2.037-.971,4.185-1.432,6.299-1.432,5.43,0,10.642,3.034,13.184,8.237,3.532,7.23.567,15.961-6.631,19.56-1.302.652-2.704,1.212-4.166,1.664-1.445.448-2.908.662-4.345.662Z" fill="#fff" stroke-width="0"/><path d="M323.218,439.19c.67-.223,1.324-.476,1.949-.774-.625.312-1.279.565-1.949.774Z" fill="#fff" stroke-width="0"/><path d="M132.235,409.389h3.353c4.612,0,8.357,3.745,8.357,8.357v243.875c0,4.612-3.745,8.357-8.357,8.357h-3.352c-4.613,0-8.358-3.745-8.358-8.358v-243.874c0-4.612,3.745-8.357,8.357-8.357Z" fill="#fff" stroke-width="0"/><path d="M237.124,356.847c-.597,0-1.235-.011-1.835-.053-7.885-.543-13.922-7.236-13.651-15.136.272-7.899,6.753-14.162,14.658-14.162.322,0,1.369.019,1.369.019,8.099,0,14.666,6.567,14.666,14.666s-6.567,14.666-14.666,14.666h-.541Z" fill="#fff" stroke-width="0"/><path d="M236.296,342.162c.45,0,.901.018,1.369.018h-.541c-.27,0-.558,0-.828-.018Z" fill="#fff" stroke-width="0"/><path d="M222.73,445.032c-24.297,0-56.831-4.834-73.846-27.858-4.42-5.978-5.093-13.81-1.753-20.433,3.36-6.664,10.04-10.805,17.432-10.805,2.09,0,4.169.337,6.18,1,7.602,2.504,23.403,5.569,55.499,5.95,1.326.014,2.633.023,3.909.023,27.03,0,40.665-3.367,47.344-6.193,2.469-1.044,5.062-1.575,7.707-1.575,7.349,0,14.242,4.28,17.561,10.901,3.306,6.597,2.601,14.387-1.839,20.328-13.584,18.178-38.325,27.805-73.537,28.608-1.583.037-3.138.054-4.656.054Z" fill="#fff" stroke-width="0"/><path d="M227.051,430.315c-40.703.93-58.551-11.275-66.372-21.857-2.845-3.85.926-9.09,5.473-7.593,9.675,3.187,27.416,6.3,59.917,6.686,30.255.352,47.411-3.212,57.138-7.327,4.607-1.949,8.962,3.359,5.967,7.366-7.916,10.594-25.055,21.879-62.123,22.726Z" fill="#fff" stroke-width="0"/><path d="M84.345,349.518h3.352c4.613,0,8.358,3.745,8.358,8.358v243.873c0,4.613-3.745,8.357-8.357,8.357h-3.352c-4.613,0-8.358-3.745-8.358-8.358v-243.873c0-4.613,3.745-8.357,8.357-8.357Z" fill="#fff" stroke-width="0"/><rect x="414.242" y="349.517" width="20.064" height="260.596" rx="8.357" ry="8.357" fill="#fff" stroke-width="0"/><path d="M496.988,423.113c-1.744,6.794-7.787,12.356-15.889,12.356H135.648c-4.48,0-8.719-1.819-11.77-4.991-.542-.541-1.038-1.127-1.488-1.759l-26.335-36.272-2.164-2.976-17.903-24.667-6.674-9.184c-7.862-10.823-.135-26.004,13.258-26.004h330.666c5.246,0,10.176,2.51,13.258,6.749l67.863,73.099c3.097,4.269,3.773,9.215,2.631,13.648Z" fill="#fff" stroke-width="0"/><rect x="143.945" y="435.469" width="318.19" height="59.856" fill="#fff" stroke-width="0"/><path d="M123.882,505.001c-3.81,0-7.555-1.485-10.36-4.282-1.113-1.11-2.146-2.327-3.068-3.618l-26.268-36.179c-1.819-2.505-2.799-5.521-2.799-8.617v-59.856c0-6.355,4.092-11.987,10.136-13.949,1.491-.484,3.019-.719,4.529-.719,4.608,0,9.058,2.177,11.869,6.051l26.335,36.271c2.759,2.751,4.288,6.478,4.288,10.375v59.856c0,5.928-3.569,11.273-9.045,13.546-1.818.753-3.725,1.12-5.619,1.12Z" fill="#fff" stroke-width="0"/><path d="M123.878,430.478v59.856c-.542-.541-1.038-1.127-1.488-1.759l-26.335-36.272v-59.856l26.335,36.272c.451.631.947,1.217,1.488,1.759Z" fill="#fff" stroke-width="0"/><path d="M227.195,435.135c-4.616,0-8.963-2.173-11.732-5.865l-58.534-78.031c-3.334-4.444-3.871-10.391-1.386-15.36,2.484-4.969,7.562-8.108,13.118-8.108h182.943c4.616,0,8.963,2.173,11.732,5.865l58.534,78.031c3.334,4.444,3.871,10.391,1.386,15.36-2.484,4.969-7.562,8.108-13.118,8.108h-182.943Z" fill="#fff" stroke-width="0"/><polygon points="410.138 420.468 227.195 420.468 168.662 342.438 351.605 342.438 410.138 420.468" fill="#fff" stroke-width="0"/><path d="M241.574,289.502c-45.896,0-78.107-8.902-95.743-26.458-5.543-5.521-7.18-13.322-4.274-20.358,3.177-7.688,11.013-12.657,19.966-12.657,1.889,0,3.787.228,5.645.677,11.064,2.683,33.776,5.964,79.136,6.359,1.865.017,3.695.024,5.487.024,38.743,0,58.726-3.69,68.666-6.783,2.312-.72,4.702-1.084,7.103-1.084,8.914,0,17.001,5.117,20.123,12.737,2.875,7.015,1.203,14.778-4.361,20.259-17.57,17.299-49.715,26.46-95.546,27.232-2.108.034-4.176.052-6.2.052Z" fill="#fff" stroke-width="0"/><path d="M247.528,274.785c-56.019.942-80.584-11.418-91.347-22.136-3.916-3.899,1.275-9.206,7.532-7.69,13.316,3.228,37.733,6.381,82.463,6.771,41.64.357,65.252-3.253,78.639-7.421,6.341-1.974,12.334,3.401,8.213,7.46-10.895,10.729-34.484,22.158-85.501,23.016Z" fill="#fff" stroke-width="0"/><path d="M223.513,303.707c-9.881,0-17.86-6.627-19.128-15.461-2.302-10.128-2.388-19.692-.258-28.466.543-3.72,2.28-7.189,5.034-9.971,3.821-3.863,9.283-6.079,14.986-6.079,3.35,0,6.584.778,9.449,2.262,5.385,2.325,12.174,6.838,22.458,14.116,3.529,2.498,5.776,6.427,6.142,10.735.364,4.308-1.192,8.558-4.251,11.614-7.365,7.355-14.729,13.13-22.491,17.634-3.457,2.34-7.647,3.616-11.941,3.616Z" fill="#fff" stroke-width="0"/><path d="M227.21,259.22c4.429,1.736,12.18,7.06,20.37,12.858-6.286,6.279-12.931,11.598-20.05,15.651-3.158,2.465-8.619,1.251-8.654-1.924-1.946-8.087-2.258-16.071-.265-23.468-.035-3.175,5.389-5.141,8.598-3.116Z" fill="#fff" stroke-width="0"/><path d="M267.988,303.707c-4.294,0-8.483-1.276-11.941-3.616-7.763-4.506-15.128-10.281-22.491-17.635-3.058-3.055-4.613-7.305-4.25-11.613.365-4.308,2.612-8.236,6.14-10.735,10.284-7.279,17.071-11.79,22.458-14.116,2.866-1.484,6.1-2.262,9.45-2.262,5.703,0,11.165,2.216,14.986,6.079,2.754,2.783,4.492,6.253,5.034,9.973,2.128,8.774,2.042,18.339-.259,28.465-1.268,8.834-9.248,15.461-19.128,15.461h0Z" fill="#fff" stroke-width="0"/><path d="M264.292,259.22c-4.429,1.736-12.18,7.06-20.37,12.858,6.286,6.279,12.931,11.598,20.05,15.651,3.158,2.465,8.619,1.251,8.654-1.924,1.946-8.087,2.258-16.071.265-23.468.035-3.175-5.389-5.141-8.598-3.116Z" fill="#fff" stroke-width="0"/><path d="M242.379,293.118c-8.187,0-15.022-5.739-16.627-13.499-1.217-4.179-1.376-8.443-.467-12.507.473-3.387,1.959-6.548,4.325-9.118,3.072-3.337,7.26-5.278,11.792-5.466l7.693-.315c.199-.009.497-.014.698-.014,8.314,0,15.231,5.917,16.694,13.859.828,3.27,1.001,6.836.527,10.834-.238,3.881-1.789,7.534-4.46,10.433-3.072,3.336-7.259,5.275-11.789,5.463l-7.688.317c-.201.009-.497.014-.698.014Z" fill="#fff" stroke-width="0"/><path d="M250.158,278.134l-7.685.316c-1.279.053-2.358-.941-2.41-2.22-.821-2.312-.929-4.527-.273-6.637-.053-1.279.941-2.358,2.22-2.41l7.685-.316c1.279-.053,2.358.941,2.41,2.22.643,1.986.605,4.252.274,6.636.053,1.279-.941,2.358-2.22,2.41Z" fill="#fff" stroke-width="0"/><path d="M159.134,216.445c-16.385,0-28.741-9.701-28.741-22.565s12.356-22.567,28.741-22.567,28.743,9.702,28.743,22.567-12.356,22.565-28.743,22.565Z" fill="#fff" stroke-width="0"/><ellipse cx="159.135" cy="193.879" rx="14.076" ry="7.9" fill="#fff" stroke-width="0"/><path d="M335.257,216.445c-16.385,0-28.741-9.701-28.741-22.565s12.356-22.567,28.741-22.567,28.743,9.702,28.743,22.567-12.356,22.565-28.743,22.565Z" fill="#fff" stroke-width="0"/><ellipse cx="335.258" cy="193.879" rx="14.076" ry="7.9" fill="#fff" stroke-width="0"/><path d="M181.075,206.001c-25.924,0-47.014-20.94-47.014-46.678s21.09-46.69,47.014-46.69,47.014,20.945,47.014,46.69-21.09,46.678-47.014,46.678Z" fill="#fff" stroke-width="0"/><path d="M213.423,159.323c0,17.679-14.484,32.012-32.348,32.012s-32.348-14.333-32.348-32.012,14.483-32.024,32.348-32.024,32.348,14.345,32.348,32.024Z" fill="#fff" stroke-width="0"/><path d="M313.316,206.001c-25.924,0-47.014-20.94-47.014-46.678s21.09-46.69,47.014-46.69,47.014,20.945,47.014,46.69-21.09,46.678-47.014,46.678Z" fill="#fff" stroke-width="0"/><path d="M280.969,159.323c0,17.679,14.484,32.012,32.348,32.012,17.864,0,32.348-14.333,32.348-32.012,0-17.679-14.483-32.024-32.348-32.024-17.864,0-32.348,14.345-32.348,32.024Z" fill="#fff" stroke-width="0"/><path d="M181.526,209.854c-27.293,0-49.498-22.204-49.498-49.498s22.204-49.498,49.498-49.498,49.498,22.204,49.498,49.498-22.204,49.498-49.498,49.498ZM181.526,144.257c-8.877,0-16.099,7.221-16.099,16.099s7.221,16.099,16.099,16.099,16.099-7.221,16.099-16.099-7.221-16.099-16.099-16.099Z" fill="#fff" stroke-width="0"/><path d="M181.526,195.188c-19.207,0-34.832-15.625-34.832-34.832s15.625-34.832,34.832-34.832,34.832,15.625,34.832,34.832-15.625,34.832-34.832,34.832ZM181.526,129.591c-16.964,0-30.765,13.801-30.765,30.765s13.801,30.765,30.765,30.765,30.765-13.801,30.765-30.765-13.801-30.765-30.765-30.765Z" fill="#fff" stroke-width="0"/><path d="M312.526,209.854c-27.293,0-49.498-22.204-49.498-49.498s22.204-49.498,49.498-49.498,49.499,22.204,49.499,49.498-22.206,49.498-49.499,49.498ZM312.526,144.257c-8.877,0-16.099,7.221-16.099,16.099s7.221,16.099,16.099,16.099,16.1-7.221,16.1-16.099-7.223-16.099-16.1-16.099Z" fill="#fff" stroke-width="0"/><path d="M312.526,195.188c-19.207,0-34.832-15.625-34.832-34.832s15.625-34.832,34.832-34.832,34.832,15.625,34.832,34.832-15.625,34.832-34.832,34.832ZM312.526,129.591c-16.964,0-30.765,13.801-30.765,30.765s13.801,30.765,30.765,30.765,30.765-13.801,30.765-30.765-13.801-30.765-30.765-30.765Z" fill="#fff" stroke-width="0"/><path d="M279.671,176.214c-3.115,0-6.172-.993-8.708-2.865-7.313-5.397-15.022-8.134-22.912-8.134-13.326,0-23.479,7.66-23.579,7.737-2.675,2.05-5.848,3.046-8.993,3.046-4.364,0-8.68-1.916-11.558-5.6l-2.504-3.204c-4.979-6.372-3.861-15.57,2.498-20.564.762-.599,18.962-14.662,44.429-14.662,15.125,0,29.407,4.88,42.451,14.505,6.518,4.81,7.902,13.992,3.094,20.51l-2.415,3.273c-2.31,3.13-5.768,5.213-9.615,5.794-.728.11-1.459.165-2.187.165Z" fill="#fff" stroke-width="0"/><path d="M279.671,161.548c-32.706-24.133-62.924-1.169-64.195-.179l-2.503-3.205c.334-.262,33.886-25.883,69.112.111l-2.414,3.272Z" fill="#fff" stroke-width="0"/><path d="M256.013,237.071c-6.724,0-12.635-.113-18.072-.345-2.565-.109-5.403-.183-8.37-.261l-1.845-.05c-6.318-.169-14.188-.378-21.263-.889-7.729-.553-13.326-1.398-17.604-2.66-1.958-.574-3.77-1.305-5.382-2.173-6.345-2.991-10.514-9.148-10.924-16.189-.421-7.243,3.205-14.022,9.463-17.691,1.096-.643,2.213-1.272,3.194-1.823,2.723-1.515,6.056-3.37,8.854-5.431,3.578-2.637,7.456-6.07,11.209-9.391l.317-.279c3.016-2.698,5.798-5.166,8.727-7.548,12.524-10.192,23.786-15.146,34.429-15.146,5.93,0,11.495,1.528,16.541,4.545.337.201.665.414.983.642l31.262,22.252c1.087.779,2.038,1.424,2.908,1.971.05.032.1.064.15.096,3.808,2.462,8.28,4.858,14.071,7.539,7.959,3.667,12.767,10.441,12.837,18.112v.15c0,8.511-5.685,16.163-15.597,20.993-1.164.573-2.488,1.146-3.886,1.679-1.521.58-3.13.902-4.757.955l-.819.024c-2.581.064-5.176.13-7.771.212l-5.192.12c-1.091.017-2.058.049-2.996.077-.043.001-4.751.113-4.751.113-4.356.103-8.688.205-12.955.281-4.665.077-8.833.116-12.759.116Z" fill="#fff" stroke-width="0"/><path d="M312.829,212.484v.017c0,2.654-2.738,5.559-7.356,7.809-.856.42-1.763.806-2.686,1.159l-.538.017c-2.67.067-5.357.134-8.044.218l-5.071.117c-1.075.017-2.15.05-3.191.084-5.861.134-11.705.285-17.432.386-12.159.202-21.664.134-29.943-.218-3.173-.134-6.734-.218-10.445-.319-6.919-.185-14.09-.386-20.606-.856-6.584-.47-11.319-1.159-14.51-2.099-1.142-.336-2.066-.722-2.771-1.125l-.219-.118c-.057-.025-.114-.05-.17-.074-3.362-1.479-3.58-6.159-.413-8.018,1.018-.597,2.048-1.175,2.951-1.682,3.258-1.814,6.936-3.879,10.379-6.415,4.215-3.107,8.447-6.869,12.545-10.496,2.854-2.553,5.558-4.954,8.262-7.154,9.74-7.927,18.053-11.856,25.173-11.856,3.258,0,6.264.823,9.018,2.469l30.766,21.899.521.369c1.192.856,2.402,1.679,3.577,2.418,4.467,2.888,9.523,5.592,15.87,8.531,2.771,1.276,4.316,3.04,4.333,4.937Z" fill="#fff" stroke-width="0"/><path d="M227.637,228.914c-3.283,0-6.444-.988-9.142-2.859l-4.996-3.462c-3.523-2.443-5.884-6.11-6.65-10.327-.766-4.222.158-8.488,2.601-12.012,2.998-4.323,7.929-6.904,13.194-6.904,3.283,0,6.444.988,9.142,2.859l4.996,3.462c3.523,2.443,5.884,6.11,6.65,10.327.766,4.222-.158,8.488-2.601,12.012-2.983,4.315-7.919,6.904-13.194,6.904Z" fill="#fff" stroke-width="0"/><rect x="223.756" y="206.706" width="2.769" height="8.852" rx="1.384" ry="1.384" transform="translate(-76.631 275.932) rotate(-55.28)" fill="#fff" stroke-width="0"/><path d="M264.901,229.64c-4.257,0-8.261-1.654-11.275-4.659l-.13-.13c-3.003-2.996-4.669-7.002-4.676-11.268-.007-4.268,1.647-8.281,4.659-11.302l3.644-3.657c3.008-3.025,7.03-4.696,11.313-4.696,4.257,0,8.261,1.654,11.275,4.659l.13.13c2.999,2.983,4.672,6.997,4.678,11.271.006,4.275-1.654,8.293-4.675,11.313l-3.629,3.642c-3.008,3.025-7.03,4.696-11.313,4.696Z" fill="#fff" stroke-width="0"/><rect x="265.284" y="207.897" width="2.769" height="7.774" rx="1.303" ry="1.303" transform="translate(227.274 -126.465) rotate(44.901)" fill="#fff" stroke-width="0"/><path d="M187.956,197.28c-13.273,0-24.071-10.799-24.071-24.072s10.798-24.072,24.071-24.072,24.072,10.799,24.072,24.072-10.799,24.072-24.072,24.072Z" fill="#fff" stroke-width="0"/><circle cx="187.956" cy="173.208" r="9.405" fill="#fff" stroke-width="0"/><path d="M306.259,197.28c-13.273,0-24.072-10.799-24.072-24.072s10.799-24.072,24.072-24.072,24.072,10.799,24.072,24.072-10.799,24.072-24.072,24.072Z" fill="#fff" stroke-width="0"/><circle cx="306.26" cy="173.208" r="9.405" fill="#fff" stroke-width="0"/><path d="M243.115,398.398c-2.71,0-5.445-.751-7.883-2.306l-8.681-5.543c-1.716-1.096-3.155-2.516-4.26-4.151-.239-.352-.465-.716-.669-1.078-.09-.162-.178-.322-.262-.483-.102-.186-.201-.375-.294-.566-5.274-10.713-1.248-23.662,9.164-29.479l1.883-1.06c3.362-1.878,7.131-2.859,10.937-2.859,7.615,0,14.616,3.783,18.777,10.132.212.315.411.639.597.97l.206.357c1.186,2.118,1.828,4.497,1.868,6.925l.17,10.355c.113,6.909-4.595,12.88-11.17,14.487-2.806,2.812-6.57,4.298-10.384,4.298Z" fill="#fff" stroke-width="0"/><path d="M234.224,377.795c.066.118.124.234.19.352l.024.032,7.688-4.334-7.682,4.344,8.681,5.543c.588-.76,1.332-1.402,2.216-1.896l1.916-1.071c.865-.483,1.811-.786,2.748-.91l-.171-10.356c-.06-.108-.128-.218-.189-.326-.013-.012-.024-.032-.035-.051-2.191-3.425-6.72-4.608-10.307-2.603l-1.918,1.078c-3.587,2.004-4.967,6.527-3.16,10.199Z" fill="#fff" stroke-width="0"/><path d="M234.42,392.811c-5.13,0-10.109-2.697-12.797-7.489-.006-.011-59.664-106.781-59.664-106.781-2.915-5.218-3.624-11.265-1.998-17.031,1.63-5.778,5.401-10.564,10.62-13.479l1.954-1.086c3.278-1.838,7.052-2.822,10.865-2.822,8.13,0,15.642,4.401,19.602,11.49l59.446,106.406c3.493,6.25,1.961,14.109-3.622,18.591-2.688,2.157-5.937,3.228-9.179,3.228-.561,0-1.123-.032-1.683-.096-1.215,2.946-3.393,5.519-6.388,7.196-2.269,1.27-4.729,1.873-7.156,1.873Z" fill="#fff" stroke-width="0"/><path d="M174.762,271.386l59.652,106.761c-.066-.118-.124-.234-.19-.352-1.806-3.672-.427-8.195,3.16-10.199l1.918-1.078c3.587-2.004,8.116-.821,10.307,2.603.011.02.022.039.035.051l-59.447-106.405c-2.081-3.724-6.825-5.084-10.542-3.001l-1.924,1.069c-3.705,2.07-5.051,6.826-2.97,10.551Z" fill="#fff" stroke-width="0"/><path d="M250.149,402.854c-2.736,0-5.467-.765-7.86-2.284l-7.025-4.46c-3.483-2.211-5.874-5.785-6.586-9.848-.713-4.063.318-8.237,2.84-11.501,1.809-2.342,4.053-4.27,6.67-5.73l1.915-1.07c2.485-1.389,5.182-2.28,8.015-2.647.629-.082,1.259-.122,1.885-.122,3.499,0,6.905,1.252,9.585,3.565,3.158,2.727,5.006,6.671,5.079,10.844l.146,8.33c.095,5.395-2.78,10.408-7.486,13.048-2.233,1.253-4.706,1.876-7.177,1.876Z" fill="#fff" stroke-width="0"/><path d="M243.123,383.727l7.026,4.461-.146-8.33c-.939.122-1.881.421-2.744.904l-1.919,1.072c-.883.493-1.631,1.138-2.216,1.893Z" fill="#fff" stroke-width="0"/><path d="M134.826,134.879c-2.267,0-4.593-.119-6.914-.354-9.033-.917-15.637-9.01-14.724-18.042.856-8.443,7.9-14.807,16.384-14.807.544,0,1.093.027,1.646.082,1.233.125,2.441.188,3.606.188,15.36,0,22.107-10.998,22.826-12.252l-.014.026c2.435-4.427,6.773-7.522,11.697-8.363.925-.156,1.849-.233,2.767-.233,2.633,0,5.259.642,7.597,1.856,8.078,4.229,11.199,14.197,6.995,22.239-.636,1.216-15.933,29.659-51.867,29.661Z" fill="#fff" stroke-width="0"/><path d="M171.801,95.814c.373-.063.77-.009,1.132.179.88.461,1.223,1.547.762,2.429-.129.247-13.257,24.652-44.306,21.51-.989-.1-1.708-.982-1.609-1.973.1-.989.988-1.708,1.973-1.609,28.645,2.902,40.634-19.369,40.75-19.596.272-.519.76-.851,1.297-.942Z" fill="#fff" stroke-width="0"/><path d="M347.155,114.8c-.595.101-1.226-.099-1.654-.587-18.956-21.564-42.209-13.733-43.19-13.392-.938.325-1.965-.161-2.295-1.1-.331-.935.158-1.963,1.095-2.294.257-.093,26.486-9.033,47.094,14.411.656.747.583,1.884-.164,2.54-.259.229-.567.369-.886.423Z" fill="#fff" stroke-width="0"/><rect x="56.677" y="188.023" width="20.064" height="133.805" rx="5.989" ry="5.989" fill="url(#e)" stroke-width="0"/><rect x="31.74" y="398.285" width="20.064" height="153.988" rx="10.032" ry="10.032" fill="url(#f)" stroke-width="0"/><rect x="15.64" y="84.388" width="239.548" height="134.21" rx="17.886" ry="17.886" fill="url(#g)" stroke-width="0"/><path d="M337.455,518.78H97.907l-79.452-111.869c-6.654-9.368.045-22.341,11.535-22.341h212.146l95.319,134.21Z" fill="url(#h)" stroke-width="0"/><path d="M409.787,424.662c4.32-2.775,4.32-7.693,4.32-12.644,0,3.878-2.807,7.725-4.32,12.644ZM408.872,430.432c0-2.113.379-4.004.914-5.77-.284.158-.599.347-.914.505v5.266Z" fill="#473f93" stroke-width="0"/><path d="M414.737,330.45c-.978-7.662-.659-6.504-2.362-15.743-.063-.473-.158-.946-.252-1.419,10.531-30.427-16.367-52.645-35.474-67.716-.032-.189-1.755-13.821-1.755-14.01-1.797-14.22.336-28.998.494-44.542.441-40.39-12.045-80.307-37.237-113.792-8.04-10.657-17.152-20.526-27.368-28.944,10.058-9.05,22.229-27.652-44.268-29.922,1.103-3.689.883-7.63-1.072-11.855-7.157-6.212-22.67-2.302-37.394,5.297-3.311-14.63-35.724,9.018-47.169,17.909-47.705,14.662-71.919,55.39-85.13,100.1-12.391,37.521-12.583,68.334-17.313,106.486-8.939,18.072-11.727,22.629-28.692,67.349-23.27,50.543-30.742,110.639,12.045,153.898,1.261,1.671,2.585,3.31,3.941,4.919,17.372,17.184,40.484,31.057,68.798,40.138,18.414,5.865,39.035,9.743,61.736,11.13,7.567.441,15.356.662,23.364.536,71.037,4.225,170.831-1.04,189.244-85.1,13.117-28.882,7.883-63.029,5.865-94.717ZM381.883,468.489c2.018-2.018,3.972-4.067,5.769-6.117-1.797,2.05-3.72,4.099-5.769,6.117Z" fill="url(#i)" stroke-width="0"/><path d="M406.655,419.128c-.394,1.156-.788,2.285-1.208,3.415-.552,1.235-1.156,2.522-1.786,3.809.394-1.051.788-2.101,1.156-3.205.026-.079.079-.157.105-.21.604-1.287,1.182-2.574,1.733-3.809Z" fill="#473f93" stroke-width="0"/><path d="M409.623,408.83c-.867,3.52-1.865,6.935-2.969,10.271v.026c-.552,1.287-1.156,2.574-1.786,3.914,1.655-4.518,3.31-9.272,4.755-14.211Z" fill="#473f93" stroke-width="0"/><path d="M409.623,408.83c-.867,3.52-1.865,6.935-2.969,10.271v.026c-.552,1.287-1.156,2.574-1.786,3.914,1.655-4.518,3.31-9.272,4.755-14.211Z" fill="#34316d" stroke-width="0"/><path d="M406.655,419.128c-.394,1.156-.788,2.285-1.208,3.415-.552,1.235-1.156,2.522-1.786,3.809.394-1.051.788-2.101,1.156-3.205.026-.079.079-.157.105-.21.604-1.287,1.182-2.574,1.733-3.809Z" fill="#34316d" stroke-width="0"/><path d="M188.955,438.416c.639.297,1.294.55,1.964.774-.67-.208-1.324-.461-1.964-.774Z" fill="#473f93" stroke-width="0"/><path d="M323.218,439.19c.67-.223,1.324-.476,1.949-.774-.625.312-1.279.565-1.949.774Z" fill="#473f93" stroke-width="0"/><path d="M188.955,438.416c.639.297,1.294.55,1.964.774-.67-.208-1.324-.461-1.964-.774Z" fill="#473f93" stroke-width="0"/><path d="M323.218,439.19c.67-.223,1.324-.476,1.949-.774-.625.312-1.279.565-1.949.774Z" fill="#473f93" stroke-width="0"/><path d="M323.218,439.19c.67-.223,1.324-.476,1.949-.774-.625.312-1.279.565-1.949.774Z" fill="#473f93" stroke-width="0"/><path d="M132.235,409.389h3.353c4.612,0,8.357,3.745,8.357,8.357v243.875c0,4.612-3.745,8.357-8.357,8.357h-3.352c-4.613,0-8.358-3.745-8.358-8.358v-243.874c0-4.612,3.745-8.357,8.357-8.357Z" fill="url(#j)" stroke-width="0"/><path d="M236.296,342.162c.45,0,.901.018,1.369.018h-.541c-.27,0-.558,0-.828-.018Z" fill="url(#k)" stroke-width="0"/><path d="M227.051,430.315c-40.703.93-58.551-11.275-66.372-21.857-2.845-3.85.926-9.09,5.473-7.593,9.675,3.187,27.416,6.3,59.917,6.686,30.255.352,47.411-3.212,57.138-7.327,4.607-1.949,8.962,3.359,5.967,7.366-7.916,10.594-25.055,21.879-62.123,22.726Z" fill="#34316d" stroke-width="0"/><path d="M496.988,423.113c-1.744,6.794-7.787,12.356-15.889,12.356H135.648c-4.48,0-8.719-1.819-11.77-4.991-.542-.541-1.038-1.127-1.488-1.759l-26.335-36.272-2.164-2.976-17.903-24.667-6.674-9.184c-7.862-10.823-.135-26.004,13.258-26.004h330.666c5.246,0,10.176,2.51,13.258,6.749l67.863,73.099c3.097,4.269,3.773,9.215,2.631,13.648Z" fill="url(#l)" stroke-width="0"/><rect x="143.945" y="435.469" width="318.19" height="59.856" fill="url(#m)" stroke-width="0"/><path d="M123.878,430.478v59.856c-.542-.541-1.038-1.127-1.488-1.759l-26.335-36.272v-59.856l26.335,36.272c.451.631.947,1.217,1.488,1.759Z" fill="url(#n)" stroke-width="0"/><polygon points="410.138 420.468 227.195 420.468 168.662 342.438 351.605 342.438 410.138 420.468" fill="#fff" stroke-width="0"/><path d="M247.528,274.785c-56.019.942-80.584-11.418-91.347-22.136-3.916-3.899,1.275-9.206,7.532-7.69,13.316,3.228,37.733,6.381,82.463,6.771,41.64.357,65.252-3.253,78.639-7.421,6.341-1.974,12.334,3.401,8.213,7.46-10.895,10.729-34.484,22.158-85.501,23.016Z" fill="url(#o)" stroke-width="0"/><path d="M227.21,259.22c4.429,1.736,12.18,7.06,20.37,12.858-6.286,6.279-12.931,11.598-20.05,15.651-3.158,2.465-8.619,1.251-8.654-1.924-1.946-8.087-2.258-16.071-.265-23.468-.035-3.175,5.389-5.141,8.598-3.116Z" fill="#4be0e0" stroke-width="0"/><path d="M264.292,259.22c-4.429,1.736-12.18,7.06-20.37,12.858,6.286,6.279,12.931,11.598,20.05,15.651,3.158,2.465,8.619,1.251,8.654-1.924,1.946-8.087,2.258-16.071.265-23.468.035-3.175-5.389-5.141-8.598-3.116Z" fill="#4be0e0" stroke-width="0"/><path d="M250.158,278.134l-7.685.316c-1.279.053-2.358-.941-2.41-2.22-.821-2.312-.929-4.527-.273-6.637-.053-1.279.941-2.358,2.22-2.41l7.685-.316c1.279-.053,2.358.941,2.41,2.22.643,1.986.605,4.252.274,6.636.053,1.279-.941,2.358-2.22,2.41Z" fill="#40c0c6" stroke-width="0"/><ellipse cx="159.135" cy="193.879" rx="14.076" ry="7.9" fill="url(#p)" stroke-width="0"/><ellipse cx="335.258" cy="193.879" rx="14.076" ry="7.9" fill="url(#q)" stroke-width="0"/><path d="M213.423,159.323c0,17.679-14.484,32.012-32.348,32.012s-32.348-14.333-32.348-32.012,14.483-32.024,32.348-32.024,32.348,14.345,32.348,32.024Z" fill="url(#r)" stroke-width="0"/><path d="M280.969,159.323c0,17.679,14.484,32.012,32.348,32.012,17.864,0,32.348-14.333,32.348-32.012,0-17.679-14.483-32.024-32.348-32.024-17.864,0-32.348,14.345-32.348,32.024Z" fill="url(#s)" stroke-width="0"/><path d="M181.526,195.188c-19.207,0-34.832-15.625-34.832-34.832s15.625-34.832,34.832-34.832,34.832,15.625,34.832,34.832-15.625,34.832-34.832,34.832ZM181.526,129.591c-16.964,0-30.765,13.801-30.765,30.765s13.801,30.765,30.765,30.765,30.765-13.801,30.765-30.765-13.801-30.765-30.765-30.765Z" fill="#473f93" stroke-width="0"/><path d="M312.526,195.188c-19.207,0-34.832-15.625-34.832-34.832s15.625-34.832,34.832-34.832,34.832,15.625,34.832,34.832-15.625,34.832-34.832,34.832ZM312.526,129.591c-16.964,0-30.765,13.801-30.765,30.765s13.801,30.765,30.765,30.765,30.765-13.801,30.765-30.765-13.801-30.765-30.765-30.765Z" fill="#473f93" stroke-width="0"/><path d="M279.671,161.548c-32.706-24.133-62.924-1.169-64.195-.179l-2.503-3.205c.334-.262,33.886-25.883,69.112.111l-2.414,3.272Z" fill="#473f93" stroke-width="0"/><path d="M312.829,212.484v.017c0,2.654-2.738,5.559-7.356,7.809-.856.42-1.763.806-2.686,1.159l-.538.017c-2.67.067-5.357.134-8.044.218l-5.071.117c-1.075.017-2.15.05-3.191.084-5.861.134-11.705.285-17.432.386-12.159.202-21.664.134-29.943-.218-3.173-.134-6.734-.218-10.445-.319-6.919-.185-14.09-.386-20.606-.856-6.584-.47-11.319-1.159-14.51-2.099-1.142-.336-2.066-.722-2.771-1.125l-.219-.118c-.057-.025-.114-.05-.17-.074-3.362-1.479-3.58-6.159-.413-8.018,1.018-.597,2.048-1.175,2.951-1.682,3.258-1.814,6.936-3.879,10.379-6.415,4.215-3.107,8.447-6.869,12.545-10.496,2.854-2.553,5.558-4.954,8.262-7.154,9.74-7.927,18.053-11.856,25.173-11.856,3.258,0,6.264.823,9.018,2.469l30.766,21.899.521.369c1.192.856,2.402,1.679,3.577,2.418,4.467,2.888,9.523,5.592,15.87,8.531,2.771,1.276,4.316,3.04,4.333,4.937Z" fill="url(#t)" stroke-width="0"/><rect x="223.756" y="206.706" width="2.769" height="8.852" rx="1.384" ry="1.384" transform="translate(-76.631 275.932) rotate(-55.28)" fill="#473f93" stroke-width="0"/><rect x="265.284" y="207.897" width="2.769" height="7.774" rx="1.303" ry="1.303" transform="translate(227.274 -126.465) rotate(44.901)" fill="#473f93" stroke-width="0"/><circle cx="187.956" cy="173.208" r="9.405" fill="#37294f" stroke-width="0"/><circle cx="306.26" cy="173.208" r="9.405" fill="#37294f" stroke-width="0"/><path d="M284.738,306.362c-1.703,1.766-2.996,3.563-3.847,5.328-.505.063-.978.158-1.451.221-4.445.725-8.26,1.703-11.161,3.027-11.256-2.775-2.901-8.324-2.901-8.324,5.045-4.95,13.495-2.586,17.405-1.072.978.378,1.671.694,1.955.82Z" fill="url(#u)" stroke-width="0"/><path d="M282.878,324.46c-.315.032-.662.063-.978.095-.977.095-1.954.221-2.964.347-.126.032-.252.032-.378.063-4.541.662-9.176,1.86-14.032,4.256-1.166-.567-1.986-1.261-2.522-2.175-1.009-1.734-.788-4.131.725-7.315.788-1.671,2.27-3.058,4.351-4.194.379-.189.788-.41,1.199-.599,2.901-1.324,6.716-2.302,11.161-3.027.473-.063.946-.158,1.451-.221-1.356,2.901-1.514,5.833-.379,8.734.504,1.356,1.292,2.712,2.365,4.036Z" fill="url(#v)" stroke-width="0"/><path d="M293.378,333.698c-.725-.094-1.45-.157-2.176-.189-2.112-.063-4.161.189-6.117.599-8.009,1.702-14.22,6.59-14.22,6.59-5.612-6.243,2.712-12.675,7.694-15.734.126-.032.252-.032.378-.063,1.009-.126,1.987-.252,2.964-.347.316-.032.663-.063.978-.095,1.45,1.797,3.406,3.626,5.865,5.423,1.513,1.356,3.058,2.649,4.635,3.815Z" fill="url(#w)" stroke-width="0"/><path d="M410.417,317.871c.095.473.189.946.252,1.419-7.347,7.221-16.427,14.883-27.463,22.986-34.936,14.693-66.15,14.062-92.005-8.765.726.032,1.451.095,2.176.189-1.577-1.166-3.121-2.459-4.635-3.815-2.459-1.797-4.415-3.626-5.865-5.423-1.072-1.324-1.861-2.68-2.365-4.036-1.135-2.901-.978-5.833.379-8.734.851-1.765,2.144-3.563,3.847-5.328-.284-.126-.978-.441-1.955-.82,4.95-6.527,14.473-12.99,27.904-19.454,7.725-3.721,15.135-8.103,22.071-13.148l26.99-19.58c5.171-3.752,10.878-6.558,16.837-8.355,0,.189.032.378.063.567,19.107,15.071,30.246,52.969,33.769,72.299Z" fill="url(#x)" stroke-width="0"/><path d="M171.801,95.814c.373-.063.77-.009,1.132.179.88.461,1.223,1.547.762,2.429-.129.247-13.257,24.652-44.306,21.51-.989-.1-1.708-.982-1.609-1.973.1-.989.988-1.708,1.973-1.609,28.645,2.902,40.634-19.369,40.75-19.596.272-.519.76-.851,1.297-.942Z" fill="#473f93" stroke-width="0"/><path d="M347.155,114.8c-.595.101-1.226-.099-1.654-.587-18.956-21.564-42.209-13.733-43.19-13.392-.938.325-1.965-.161-2.295-1.1-.331-.935.158-1.963,1.095-2.294.257-.093,26.486-9.033,47.094,14.411.656.747.583,1.884-.164,2.54-.259.229-.567.369-.886.423Z" fill="#473f93" stroke-width="0"/><text transform="translate(382.364 394.162) rotate(178.835) scale(.644 .805) skewX(42.654)" fill="#000" font-family="MyriadPro-Regular, &apos;Myriad Pro&apos;" font-size="19.104"><tspan x="0" y="0">10 apples </tspan><tspan x="80.292" y="0" letter-spacing="-.004em">a</tspan><tspan x="89.423" y="0" letter-spacing="0em">t s</tspan><tspan x="107.361" y="0" letter-spacing="-.006em">t</tspan><tspan x="113.57" y="0">o</tspan><tspan x="124.058" y="0" letter-spacing="-.01em">r</tspan><tspan x="130.114" y="0" letter-spacing="-.012em">e</tspan><tspan x="139.456" y="0" letter-spacing="0em">, $3 each</tspan><tspan x="0" y="22.925">and </tspan><tspan x="34.635" y="22.925" letter-spacing="-.01em">y</tspan><tspan x="43.442" y="22.925">ou h</tspan><tspan x="79.108" y="22.925" letter-spacing="-.008em">a</tspan><tspan x="88.163" y="22.925" letter-spacing="-.01em">v</tspan><tspan x="97.161" y="22.925">e $55</tspan><tspan x="0" y="45.85">H</tspan><tspan x="12.456" y="45.85" letter-spacing="-.007em">o</tspan><tspan x="22.81" y="45.85" letter-spacing="0em">w ma</tspan><tspan x="66.061" y="45.85" letter-spacing="-.013em">n</tspan><tspan x="76.415" y="45.85">y apples </tspan><tspan x="146.105" y="45.85" letter-spacing="-.01em">y</tspan><tspan x="154.912" y="45.85">ou can h</tspan><tspan x="222.997" y="45.85" letter-spacing="-.008em">a</tspan><tspan x="232.052" y="45.85" letter-spacing="-.01em">v</tspan><tspan x="241.05" y="45.85">e?</tspan></text><path d="M234.224,377.795c.066.118.124.234.19.352l.024.032,7.688-4.334-7.682,4.344,8.681,5.543c.588-.76,1.332-1.402,2.216-1.896l1.916-1.071c.865-.483,1.811-.786,2.748-.91l-.171-10.356c-.06-.108-.128-.218-.189-.326-.013-.012-.024-.032-.035-.051-2.191-3.425-6.72-4.608-10.307-2.603l-1.918,1.078c-3.587,2.004-4.967,6.527-3.16,10.199Z" fill="#fffff3" stroke-width="0"/><path d="M174.762,271.386l59.652,106.761c-.066-.118-.124-.234-.19-.352-1.806-3.672-.427-8.195,3.16-10.199l1.918-1.078c3.587-2.004,8.116-.821,10.307,2.603.011.02.022.039.035.051l-59.447-106.405c-2.081-3.724-6.825-5.084-10.542-3.001l-1.924,1.069c-3.705,2.07-5.051,6.826-2.97,10.551Z" fill="url(#y)" stroke-width="0"/><path d="M243.123,383.727l7.026,4.461-.146-8.33c-.939.122-1.881.421-2.744.904l-1.919,1.072c-.883.493-1.631,1.138-2.216,1.893Z" fill="url(#z)" stroke-width="0"/><path d="M231.045,324.439l-.011-.011c-3.639-2.007-8.616-3.558-14.512-4.815-.838-2.144-2.21-4.346-4.073-6.562,1.691-.663,15.776-5.887,22.673,1.873,0,0,9.334,7.184-4.077,9.515Z" fill="url(#aa)" stroke-width="0"/><path d="M234.283,341.44c-5.506-3.177-10.832-4.956-16.091-6.101-.145-.031-.291-.062-.436-.093-1.541-.33-3.059-.616-4.576-.857,1.355-1.469,2.397-2.978,3.094-4.514,1.568-3.32,1.621-6.748.248-10.262,5.896,1.257,10.873,2.808,14.512,4.815l.011.011c.472.259.933.53,1.349.8,2.351,1.507,3.961,3.237,4.74,5.26,1.545,3.834,1.582,6.671.258,8.629-.673,1.013-1.717,1.776-3.109,2.311Z" fill="url(#ab)" stroke-width="0"/><path d="M225.937,354.377s-6.87-6.203-16.128-8.871c-3.008-.872-6.276-1.362-9.655-1.149,1.937-1.234,3.828-2.602,5.705-4.069,3.06-1.921,5.497-3.898,7.32-5.899,1.517.241,3.035.527,4.576.857.145.031.291.062.436.093,5.574,3.966,14.804,12.187,7.745,19.038Z" fill="url(#ac)" stroke-width="0"/><path d="M138.443,252.476l27.07,22.665c6.966,5.833,14.477,10.992,22.373,15.485,32.692,18.601,42.002,35.765,18.009,50.882-29.212,22.933-62.556,21.465-98.74,3.225-62.762-53.189-60.551-86.216-30.727-100.618,20.354-9.829,44.684-6.15,62.015,8.361Z" fill="url(#ad)" stroke-width="0"/></g></g></svg>