<?xml version="1.0" encoding="UTF-8"?><svg id="b" xmlns="http://www.w3.org/2000/svg" xmlns:xlink="http://www.w3.org/1999/xlink" viewBox="0 0 443.259 443.259"><defs><clipPath id="d"><rect width="443.259" height="443.259" fill="none" stroke-width="0"/></clipPath><linearGradient id="e" x1="118.382" y1="207.801" x2="69.116" y2="165.573" gradientUnits="userSpaceOnUse"><stop offset="0" stop-color="#a84e93"/><stop offset=".185" stop-color="#ad5191"/><stop offset=".428" stop-color="#be5c8d"/><stop offset=".705" stop-color="#d96d86"/><stop offset="1" stop-color="#ff867d"/></linearGradient><linearGradient id="f" x1="34.776" y1="424.223" x2="627.077" y2="413.229" gradientUnits="userSpaceOnUse"><stop offset="0" stop-color="#6982c6"/><stop offset=".032" stop-color="#618dc6"/><stop offset=".112" stop-color="#52a3c6"/><stop offset=".2" stop-color="#48b3c6"/><stop offset=".298" stop-color="#41bdc6"/><stop offset=".432" stop-color="#40c0c6"/><stop offset="1" stop-color="#fcff80"/></linearGradient><linearGradient id="g" x1="326.262" y1="406.267" x2="463.126" y2="273.313" gradientUnits="userSpaceOnUse"><stop offset="0" stop-color="#78cd9e"/><stop offset=".183" stop-color="#91d6a8"/><stop offset=".571" stop-color="#d1efc2"/><stop offset=".805" stop-color="#fcffd3"/></linearGradient><linearGradient id="h" x1="274.724" y1="398.674" x2="274.835" y2="398.674" gradientUnits="userSpaceOnUse"><stop offset="0" stop-color="#f05724"/><stop offset="1" stop-color="#f69021"/></linearGradient><linearGradient id="i" x1="274.945" y1="398.638" x2="275.043" y2="398.638" xlink:href="#h"/><linearGradient id="j" x1="365.438" y1="336.337" x2="365.585" y2="336.337" xlink:href="#g"/><linearGradient id="k" x1="54.471" y1="422.67" x2="290.574" y2="422.67" gradientUnits="userSpaceOnUse"><stop offset="0" stop-color="#3e95a4"/><stop offset="1" stop-color="#40c0c6"/></linearGradient><linearGradient id="l" x1="8659.756" y1="269.4" x2="8539.082" y2="79.059" gradientTransform="translate(-8478.916 183.893)" gradientUnits="userSpaceOnUse"><stop offset=".274" stop-color="#4db8c6"/><stop offset=".545" stop-color="#95d5cb"/><stop offset=".91" stop-color="#fcffd3"/></linearGradient><linearGradient id="m" x1="121.441" y1="132.437" x2="362.777" y2="328.753" gradientUnits="userSpaceOnUse"><stop offset="0" stop-color="#fcffd3"/><stop offset=".422" stop-color="#fafed2"/><stop offset=".576" stop-color="#f3fad2"/><stop offset=".686" stop-color="#e7f5d0"/><stop offset=".775" stop-color="#d6edcf"/><stop offset=".851" stop-color="#c0e2cd"/><stop offset=".919" stop-color="#a5d5ca"/><stop offset=".978" stop-color="#85c6c7"/><stop offset="1" stop-color="#78c0c6"/></linearGradient><radialGradient id="n" cx="-5081.258" cy="-21014.007" fx="-5081.258" fy="-21014.007" r="456.06" gradientTransform="translate(1365.278 3058.502) scale(.219 .137)" gradientUnits="userSpaceOnUse"><stop offset="0" stop-color="#ff6714"/><stop offset=".151" stop-color="#fe782a"/><stop offset=".467" stop-color="#fda764"/><stop offset=".919" stop-color="#fcf1c1"/><stop offset="1" stop-color="#fcffd3"/></radialGradient><linearGradient id="o" x1="212.535" y1="255.434" x2="314.621" y2="255.434" gradientUnits="userSpaceOnUse"><stop offset="0" stop-color="#a0175f"/><stop offset="1" stop-color="#ab2fba"/></linearGradient><linearGradient id="p" x1="225.971" y1="271.251" x2="301.185" y2="271.251" gradientUnits="userSpaceOnUse"><stop offset="0" stop-color="#ff4e93"/><stop offset=".184" stop-color="#ff5391"/><stop offset=".425" stop-color="#ff648d"/><stop offset=".7" stop-color="#ff7f86"/><stop offset=".996" stop-color="#ffa57d"/><stop offset="1" stop-color="#ffa67d"/></linearGradient><linearGradient id="q" x1="242.731" y1="218.575" x2="283.248" y2="218.575" gradientUnits="userSpaceOnUse"><stop offset="0" stop-color="#4092c6"/><stop offset="1" stop-color="#40c0a8"/></linearGradient><linearGradient id="r" x1="323.873" y1="204.617" x2="163.934" y2="67.526" xlink:href="#p"/></defs><g id="c"><g clip-path="url(#d)"><path d="M181.482,313.43c.208.955.221,1.898.098,2.841-.049-.943-.086-1.886-.098-2.841Z" fill="#e4efe1" stroke-width="0"/><path d="M103.266,225.437s-154.326-12.603,25.767-72.43l-5.594,41.523-20.173,30.907Z" fill="url(#e)" stroke-width="0"/><path d="M454.726,505.124c-14.561,21.657-34.296,40.925-58.584,51.667-.343-.526-.735-1.041-1.261-1.506-68.585,36.114-152.135,40.999-229.894,34.049,1.041-2.241,1.996-4.8,2.424-7.554-.661,2.706-1.689,5.265-2.804,7.542-8.629,1.058-15.062-4.051-23.348-5.461.049,0,.098.012.147.012-20.377-3.231-40.05-10.052-60.568-12.611.098-.845.196-1.604.245-2.118h.012c.334-3.344.618-6.184.881-9.44-11.252-19.908-15.329-39.399-15.133-62.184,1.277-24.938,6.693-50.108,7.236-75.039,3.083-54.452,6.403-124.492,33.632-171.002,16.725,27.902,43.365,51.048,73.767,61.951.398,20.63,6.646,40.8,18.659,57.483v.025c11.778,16.488,29.353,29.081,49.304,33.302-.008-.012.723-5.627.722-5.644,8.113,1.205,16.255,1.178,24.376.11.122-.012.245-.021.355-.049.049,0,.086-.012.123-.012.032-.028.055.001.085-.025,2.453-.349,4.64-2.022,7.056-2.648h0c33.249-15.466,41.447-48.782,39.453-85.104,3.919-2.234,26.147-14.821,30.364-18.463,1.34,10.518,10.976,25.824,12.895,36.318-.575.416-1.151.845-1.702,1.298-1.706,1.267-3.329,2.664-4.885,4.126-.31.257-.596.565-.881.833-.086.086-.184.171-.257.257-.154.119-.271.27-.416.416-.012,0-.012.012-.025.012-1.533,1.489-2.947,3.081-4.322,4.714v.012c-.73.82-1.057,2.011-.624,3.036.021,0,.014.05.037.049.025.061.061.147.11.196.126.197.296.404.478.563.145.136.339.277.514.355.826.486,1.875.586,2.792.367.027-.003.05.008.074-.012.012,0,.025,0,.037-.012.056-.004.11-.016.159-.037.082-.012.168-.043.245-.073.037,0,.061-.012.098-.037.012.012.012,0,.025-.012.267-.069.533-.207.783-.331.553-.286,1.046-.686,1.469-1.139v-.012c1.225-1.324,2.421-2.686,3.709-3.955,7.857-7.667,17.878-12.952,28.784-13.835,21.829-1.286-3.101,42.941-6.807,52.892-1.003,1.654-2.262,4.062-.282,5.522h.012c.235.188.473.349.735.453,2.081,1.001,4.403.282,6.146-1.09,42.456,17.774,81.062,79.75,63.849,121.846Z" fill="url(#f)" stroke-width="0"/><path d="M346.576,340.089c-1.627,1.98-2.571,4.443-2.759,6.998-1.668,22.694,6.045,39.729,23.493,52.004,5.751,4.045,13.753,2.975,18.587-2.475,16.794-18.906,29.008-46.187,36.383-81.194,1.486-7.051-3.255-14.009-10.401-14.938-21.451-2.789-43.266,12.787-65.303,39.603Z" fill="url(#g)" stroke-width="0"/><path d="M250.164,398.595l-.722,5.62v.025c-.074-.012-.147-.037-.22-.049s-.147-.037-.22-.061c-1.555-.343-3.11-.722-4.64-1.175-1.8-.514-3.588-1.09-5.338-1.763-.71-.245-1.408-.514-2.081-.796-.208-.086-.416-.171-.612-.257-.612-.245-1.224-.514-1.837-.784-.6-.269-1.2-.539-1.812-.832-.269-.122-.539-.245-.808-.38-.282-.135-.551-.282-.82-.416-.171-.086-.355-.172-.551-.282-.49-.233-.98-.502-1.457-.771-.306-.159-.612-.318-.931-.502-.453-.257-.918-.514-1.371-.784-.612-.355-1.237-.722-1.837-1.114-.416-.257-.82-.502-1.212-.771-.379-.233-.747-.478-1.114-.71-.526-.343-1.041-.698-1.555-1.053-.502-.367-1.004-.735-1.506-1.102-.184-.147-.38-.282-.575-.429-.196-.147-.392-.294-.575-.441-1.261-.943-2.51-1.959-3.722-2.987-.404-.343-.796-.686-1.188-1.041-1.837-1.641-3.612-3.342-5.314-5.13-.563-.6-1.126-1.212-1.677-1.824-.428-.478-.845-.943-1.261-1.42-.416-.477-.833-.967-1.224-1.457-.147-.171-.282-.343-.416-.514-1.041-1.273-2.045-2.571-3.012-3.906-.135-.171-.282-.355-.416-.551v-.025c-.306-.404-.6-.832-.894-1.249.955.931,1.91,1.849,2.902,2.767.171.159.367.331.563.514.539.49,1.041.943,1.616,1.445.563.502,1.004.881,1.653,1.42.649.539,1.432,1.212,2.167,1.788,2.179,1.739,4.444,3.428,6.746,5.032.49.343.992.686,1.506,1.028,1.555,1.016,3.122,1.996,4.738,2.951.233.147.441.269.734.441.282.184.331.22.771.465.441.245,1.31.759,1.885,1.09.576.318,1.396.759,1.959,1.065.563.294.906.453,1.432.735.539.282.955.478,1.567.759.6.294,1.641.771,2.253,1.041.624.269,1.212.526,1.726.747.502.22.71.282,1.188.49.49.196,1.347.563,1.776.734.416.172.392.172.747.306.343.147.637.269,1.029.429.392.159.514.208,1.053.416.551.208,1.518.575,2.216.82.686.257,1.518.563,2.253.796.245.074.514.184.759.269.808.245,1.739.612,2.534.796,1.004.22,2.081.416,3.147.588Z" fill="#e4efe1" stroke-width="0"/><path d="M291.216,394.505c-.845.527-1.69,1.016-2.547,1.506-.82.453-1.665.918-2.51,1.347-.061.037-.135.073-.208.098-.661.343-1.335.686-2.008.992-.331.172-.673.331-1.016.478-.11.049-.208.098-.318.147l-.245-1.898c.661-.159,1.383-.343,1.861-.465.698-.184,1.371-.392,1.812-.502.428-.122.477-.135.71-.208.735-.233,1.408-.441,2.094-.661.673-.233,1.408-.49,2.02-.698.123-.049.233-.086.355-.135Z" fill="#e4efe1" stroke-width="0"/><path d="M81.441,493.958c-.049.624-.073,1.249-.086,1.861,0-.612.025-1.237.074-1.861.196-2.804.416-5.607.649-8.436-.22,2.828-.441,5.632-.637,8.436ZM83.205,522.204c.343,2.032.747,4.053,1.187,6.06-.453-2.008-.845-4.028-1.187-6.06ZM86.78,421.38c-.294,11.839-1.212,24.021-2.265,36.228,1.041-12.207,1.947-24.389,2.253-36.24.245-9.966.734-19.81,1.445-29.568-.698,9.758-1.175,19.602-1.432,29.58ZM91.077,548.784c-.832-1.886-1.604-3.795-2.314-5.73.722,1.934,1.494,3.844,2.314,5.73.832,1.886,1.714,3.747,2.644,5.595-.943-1.849-1.824-3.71-2.644-5.595ZM92.779,348.262c.637-4.628,1.31-9.256,2.033-13.884-.71,4.628-1.396,9.256-2.033,13.884ZM103.577,286.752c0-.012,0-.025.012-.037.012-.073.037-.147.049-.22.049-.196.11-.367.196-.612.049.037.098.074.147.11-.245.49-.392.771-.404.771v-.012ZM96.354,563.305c.123-1.151.233-2.302.331-3.477-.208-.343-.404-.698-.588-1.053.196.355.392.698.6,1.053-.098,1.175-.22,2.326-.343,3.477ZM365.084,336.692c-.123.098-.245.208-.355.318.061-.049.122-.098.184-.147.074-.073.147-.147.233-.22-.025.025-.049.037-.061.049ZM360.412,332.258c-.389.334-.773.673-1.156,1.018.383-.343.767-.683,1.156-1.018ZM360.412,332.258c.365-.312.728-.627,1.097-.928.074-.073.147-.135.233-.196-.208.159-.429.343-.637.514-.236.196-.46.41-.693.61ZM358.252,334.17c.012-.012.025-.024.037-.024s.037-.012.049-.037c.302-.284.612-.556.919-.833-.304.273-.618.532-.919.809-.024.037-.049.061-.085.086ZM357.578,334.831c.22-.233.453-.453.673-.661-.38.355-.759.722-1.126,1.078.147-.147.306-.294.453-.416ZM355.803,344.932c-.012.012-.025.012-.037.012-.025,0-.049,0-.074.012-.147.025-.282.049-.428.061-.172.025-.331.037-.502.037-.147,0-.306-.012-.453-.025.367.049.734.049,1.102-.012.11-.012.208-.025.318-.061.03-.006.061-.018.092-.025h.019c.086-.025.171-.049.257-.073-.074.024-.135.049-.208.049-.024.012-.061.012-.085.025ZM352.84,344.565v-.012h-.013l.013.012ZM352.277,344.112q-.012,0-.024-.012c.049.061.098.11.159.159-.012-.012-.037-.037-.037-.049-.037-.037-.061-.061-.098-.098ZM352.203,344.051c.012.025.025.037.049.049-.013-.012-.025-.025-.037-.049h-.012Z" fill="#40c0c6" stroke-width="0"/><path d="M212.551,399.724c2.272,5.774,4.119,11.607,5.066,17.727.14.909.158,1.628.227,2.52-.07-.893-.099-1.609-.239-2.518-.947-6.121-2.781-11.954-5.053-17.729Z" fill="#40c0c6" stroke-width="0"/><path d="M274.835,398.668c-.037.012-.073.012-.11.012q.013,0,.025-.012h.086Z" fill="url(#h)" stroke-width="0"/><path d="M275.043,398.632s-.013,0-.025.012h-.074c.037,0,.061,0,.098-.012Z" fill="url(#i)" stroke-width="0"/><path d="M290.861,394.64c-.612.208-1.347.465-2.02.698-.686.22-1.359.428-2.094.661-.233.074-.282.086-.71.208-.441.11-1.114.318-1.812.502-.478.122-1.2.306-1.861.465l.245,1.898c.11-.049.208-.098.318-.147.343-.147.686-.306,1.016-.478.673-.306,1.347-.649,2.008-.992.074-.025.147-.061.208-.098.845-.429,1.69-.894,2.51-1.347.857-.49,1.702-.979,2.547-1.506-.123.049-.233.086-.355.135ZM247.018,398.007c-.796-.184-1.726-.551-2.534-.796-.245-.086-.514-.196-.759-.269-.735-.233-1.567-.539-2.253-.796-.698-.245-1.665-.612-2.216-.82-.539-.208-.661-.257-1.053-.416-.392-.159-.686-.282-1.029-.429-.355-.135-.331-.135-.747-.306-.429-.171-1.286-.539-1.776-.734-.477-.208-.685-.269-1.188-.49-.514-.22-1.102-.477-1.726-.747-.612-.269-1.653-.747-2.253-1.041-.612-.282-1.028-.477-1.567-.759-.526-.282-.869-.441-1.432-.735-.563-.306-1.383-.747-1.959-1.065-.575-.331-1.445-.845-1.885-1.09-.441-.245-.49-.282-.771-.465-.294-.171-.502-.294-.734-.441-1.616-.955-3.183-1.935-4.738-2.951-.514-.343-1.016-.686-1.506-1.028-2.302-1.604-4.567-3.293-6.746-5.032-.735-.576-1.518-1.249-2.167-1.788-.649-.539-1.09-.918-1.653-1.42-.575-.502-1.077-.955-1.616-1.445-.196-.184-.392-.355-.563-.514-.992-.918-1.947-1.837-2.902-2.767.294.416.588.845.894,1.249v.025c.135.196.282.38.416.551.967,1.334,1.971,2.632,3.012,3.906.135.171.269.343.416.514.392.49.808.98,1.224,1.457.416.478.832.943,1.261,1.42.551.612,1.114,1.224,1.677,1.824,1.702,1.788,3.477,3.489,5.314,5.13.392.355.783.698,1.188,1.041,1.212,1.028,2.461,2.045,3.722,2.987.184.147.38.294.575.441.196.147.392.282.575.429.502.367,1.004.735,1.506,1.102.514.355,1.029.71,1.555,1.053.367.233.735.477,1.114.71.392.269.796.514,1.212.771.6.392,1.224.759,1.837,1.114.453.269.918.527,1.371.784.318.184.624.343.931.502.477.269.967.539,1.457.771.196.11.38.196.551.282.269.135.539.282.82.416.27.135.539.257.808.38.612.294,1.212.563,1.812.832.612.269,1.224.539,1.837.784.196.086.404.171.612.257.673.282,1.371.551,2.081.796,1.751.673,3.538,1.249,5.338,1.763,1.53.453,3.085.833,4.64,1.175.073.025.147.049.22.061s.147.037.22.049v-.025l.722-5.62c-1.065-.171-2.143-.367-3.147-.588ZM181.479,313.43c.012.955.049,1.898.098,2.841.122-.943.11-1.886-.098-2.841ZM103.832,285.882c-.086.245-.147.416-.196.612-.013.074-.037.147-.049.22-.012.012-.012.025-.012.037v.012c.012,0,.159-.282.404-.771-.049-.037-.098-.074-.147-.11ZM234.052,483.502c.698.159,1.383.269,2.094.343-.71-.086-1.396-.196-2.094-.343ZM166.959,579.772c.233.404.392.845.453,1.31-.037-.478-.196-.918-.453-1.31Z" fill="#40c0c6" stroke-width="0"/><path d="M351.787,343.463c-.012-.012-.012-.037-.025-.037-.012-.037-.025-.074-.037-.11.012.049.037.098.061.147Z" fill="#40c0c6" stroke-width="0"/><path d="M352.412,344.259c-.061-.049-.11-.098-.159-.159q.012.012.024.012c.037.037.061.061.098.098,0,.012.025.037.037.049Z" fill="#40c0c6" stroke-width="0"/><path d="M355.693,344.957c.012.012.025,0,.037,0-.11.037-.208.049-.318.061.098-.012.184-.037.282-.061Z" fill="#40c0c6" stroke-width="0"/><path d="M355.821,344.932c.092-.019.184-.037.276-.073-.086.024-.171.049-.257.073h-.019Z" fill="#40c0c6" stroke-width="0"/><path d="M355.803,344.932h.018c-.031.007-.061.018-.092.025.012,0,.025,0,.037-.012.012,0,.025,0,.037-.012Z" fill="#40c0c6" stroke-width="0"/><path d="M363.173,330.02c-.147.11-.282.22-.416.343-.428.318-.832.661-1.249,1.004-1.077.881-2.143,1.8-3.171,2.743-.012.025-.036.037-.049.037l-.012.024c-.233.22-.465.441-.698.661-.282.257-.563.539-.845.82.135-.147.257-.269.392-.404.367-.355.747-.722,1.126-1.078.037-.024.061-.049.085-.086.301-.276.615-.536.919-.809.383-.345.767-.684,1.156-1.018.233-.2.457-.414.693-.61.135-.11.269-.22.404-.318.074-.073.147-.135.233-.196.184-.147.379-.306.575-.453.159-.147.331-.269.502-.404.11-.086.22-.159.331-.245q.012-.012.025-.012Z" fill="#40c0c6" stroke-width="0"/><path d="M365.585,336.276c-.049.037-.098.086-.147.122l.074-.074c.025-.012.049-.025.074-.049Z" fill="url(#j)" stroke-width="0"/><path d="M383.62,383.56c-.526-.563-.796-1.286-.698-2.069.012-.086.025-.172.037-.257.012-.098.037-.171.074-.257-.061.233-.098.465-.11.698v.025c0,.208.025.416.061.612.012.025.012.061.025.098.049.171.11.343.196.502l.037.11c.11.184.233.367.38.539Z" fill="#40c0c6" stroke-width="0"/><path d="M383.314,380.266c-.061.147-.123.294-.184.441-.036.086-.061.172-.098.257.025-.086.049-.171.086-.257.061-.147.122-.294.196-.441Z" fill="#40c0c6" stroke-width="0"/><path d="M227.135,389.988c-.196-.086-.404-.184-.649-.318-.563-.306-1.383-.747-1.959-1.065-.575-.331-1.445-.845-1.885-1.09-.441-.245-.49-.282-.771-.465-.294-.171-.502-.294-.734-.441-1.616-.955-3.183-1.935-4.738-2.951-.514-.343-1.016-.686-1.506-1.028-2.302-1.604-4.567-3.293-6.746-5.032-.735-.576-1.518-1.249-2.167-1.788-.649-.539-1.09-.918-1.653-1.42-.575-.502-1.077-.955-1.616-1.445-.196-.184-.392-.355-.563-.514-.992-.918-1.947-1.837-2.902-2.767-.074-.11-.147-.22-.22-.33-.306-.428-.6-.882-.881-1.322-.404-.588-.796-1.188-1.175-1.775-.355-.575-.71-1.163-1.065-1.751-.331-.539-.637-1.065-.943-1.604-.38-.637-.747-1.285-1.09-1.934-.11-.184-.208-.38-.306-.563-.257-.441-.49-.882-.722-1.335-.233-.478-.49-.967-.722-1.457-1.396-2.767-2.657-5.632-3.783-8.583-1.2-3.147-2.265-6.379-3.159-9.697-.245-.881-.477-1.775-.686-2.669-1.616-6.513-2.608-13.345-2.914-20.348v-.025c.098-.784.11-1.567-.012-2.351,2.498,1.237,5.032,2.4,7.615,3.514.857.38,1.714.735,2.583,1.09.624.257,1.249.514,1.886.771.514.196,1.028.404,1.542.6.539.208,1.078.416,1.616.612.735.282,1.457.539,2.192.808.012.955.049,1.898.098,2.841v.025c.306,7.003,1.298,13.835,2.914,20.348,1.016,4.261,2.326,8.374,3.844,12.366,1.127,2.951,2.388,5.816,3.783,8.583.233.49.49.98.722,1.457.331.637.673,1.261,1.028,1.898.343.649.71,1.298,1.09,1.935.306.539.612,1.065.943,1.604.355.588.71,1.175,1.065,1.751.38.588.771,1.188,1.176,1.775.282.441.575.894.881,1.322.073.11.147.22.22.33.294.416.588.845.894,1.249v.025c.135.196.282.379.416.551.967,1.334,1.971,2.632,3.012,3.906.135.171.269.343.416.514.392.49.808.98,1.224,1.457.416.478.832.943,1.261,1.42.551.612,1.114,1.224,1.677,1.824.49.514.98,1.016,1.469,1.494Z" fill="#c3d1bf" stroke-width="0"/><path d="M290.574,586.219c-29.636,9.271-63.986,10.214-94.455,2.593-60.121-4.808-106.508-15.274-125.522-36.99-38.781-65.008-.377-247.9,39.049-300.4l-1.068,45.051c-.739,31.962-6.946,63.562-18.322,93.434-5.437,14.252-8.187,29.322-8.187,44.454,0,8.061.786,16.138,2.357,24.121,2.923,14.834,6.395,32.48,12.414,48.288,6.018,15.808,14.598,29.777,27.751,37.242,11.235,6.396,25.865,12.162,40.778,17.301,14.896,5.123,30.076,9.633,42.411,13.514l82.796,11.392Z" fill="url(#k)" stroke-width="0"/><path d="M109.883,424.576c-22.011-34.656-31.574-59.549-31.013-80.727.28-10.323,5.222-19.776,13.548-25.96,8.061-5.992,18.161-7.941,27.665-5.337,18.048,4.915,35.337,19.647,52.825,45.024,5.477,53.032-14.877,76.124-63.025,67Z" fill="url(#l)" stroke-width="0"/><path d="M366.553,162.366c-1.555-.802-3.136-1.454-4.716-2.031l.075.15-.1-.15h.025c-25.837-41.565-77.109-65.671-125.221-62.962,7.174.176,14.398.978,21.547,2.383-41.239-7.525-85.488,8.027-118.248,32.133-11.012,9.557-19.666,19.742-26.138,30.277-4.264,1.756-8.554,4.365-12.492,7.801-13.545,11.84-17.96,28.947-9.858,38.254,1.982,2.283,4.54,3.863,7.45,4.792.1,42.743,30.728,82.954,82.527,101.215.326,19.064,6.196,38.028,17.359,53.48v.05c13.671,19.741,37.2,32.81,61.155,32.81,5.469,0,10.962-.677,16.38-2.132,37.853-8.905,49.491-56.817,47.987-88.372,36.949-7.4,61.633-60.303,48.764-95.044,5.067-1.505,9.457-4.54,12.392-8.955,2.408-3.412,3.512-7.4,3.512-11.564,0-12.266-9.432-26.213-22.401-32.133ZM259.117,99.956c3.988.753,7.926,1.731,11.84,2.935-3.913-1.154-7.852-2.132-11.84-2.935Z" fill="url(#m)" stroke-width="0"/><polygon points="241.74 160.493 241.627 160.338 241.641 160.338 241.74 160.493" fill="#e4efe1" stroke-width="0"/><polygon points="241.74 160.493 241.627 160.338 241.641 160.338 241.74 160.493" fill="#e4efe1" stroke-width="0"/><polygon points="361.919 160.493 361.806 160.338 361.82 160.338 361.919 160.493" fill="#e4efe1" stroke-width="0"/><ellipse cx="253.992" cy="183.952" rx="119.966" ry="46.407" fill="url(#n)" stroke-width="0"/><rect x="187.001" y="190.793" width="33.13" height="11.151" rx="5.576" ry="5.576" transform="translate(2.479 -2.537) rotate(.719)" fill="#37294f" stroke-width="0"/><rect x="302.339" y="192.266" width="33.13" height="11.151" rx="5.576" ry="5.576" transform="translate(2.506 -3.984) rotate(.719)" fill="#37294f" stroke-width="0"/><path d="M222.285,179.744c-.322,0-.649-.047-.971-.153l-34.685-11.149c-1.667-.535-2.584-2.32-2.049-3.988.538-1.666,2.33-2.589,3.989-2.048l34.685,11.149c1.667.535,2.584,2.32,2.049,3.988-.432,1.344-1.678,2.201-3.018,2.201Z" fill="#37294f" stroke-width="0"/><path d="M297.553,179.744c-1.34,0-2.586-.857-3.018-2.201-.536-1.668.382-3.454,2.049-3.988l34.684-11.149c1.662-.541,3.453.382,3.989,2.048.536,1.668-.382,3.454-2.049,3.988l-34.684,11.149c-.322.105-.649.153-.971.153Z" fill="#37294f" stroke-width="0"/><polygon points="361.919 160.493 361.806 160.338 361.82 160.338 361.919 160.493" fill="#e4efe1" stroke-width="0"/><path d="M263.316,244.535c-1.077,0-1.948-.871-1.948-1.948v-17.766c0-1.077.871-1.948,1.948-1.948s1.948.871,1.948,1.948v17.766c0,1.077-.871,1.948-1.948,1.948Z" fill="#37294f" stroke-width="0"/><path d="M301.062,276.064c.087-.544.123-1.088.123-1.65,0-11.796-16.833-21.362-37.598-21.362s-37.615,9.567-37.615,21.362c0,.562.034,1.106.123,1.65-14.744-12.234-18.027-28.155-7.056-36.37,10.093-7.618,28.909-6.091,44.549,2.879,15.622-8.97,34.439-10.497,44.532-2.879,10.971,8.215,7.688,24.135-7.056,36.37Z" fill="url(#o)" stroke-width="0"/><path d="M301.185,274.414c0,.562-.035,1.106-.123,1.65-.667.562-1.369,1.106-2.089,1.65-10.778,8.109-24.206,12.217-35.387,11.69-11.199.526-24.626-3.581-35.404-11.69-.72-.544-1.422-1.088-2.089-1.65-.088-.544-.123-1.088-.123-1.65,0-11.796,16.833-21.362,37.615-21.362s37.598,9.567,37.598,21.362Z" fill="url(#p)" stroke-width="0"/><path d="M267.889,230.359h-9.269c-5.462,0-15.889-8.176-15.889-13.638h0c0-5.462,4.469-9.931,9.931-9.931h20.656c5.462,0,9.931,4.469,9.931,9.931h0c0,5.462-9.898,13.638-15.359,13.638Z" fill="url(#q)" stroke-width="0"/><path d="M195.527,272.521c1.736,2.663,2.451,5.987,1.732,9.338-1.426,6.677-7.998,10.933-14.675,9.503-1.15-.245-28.358-6.317-46.321-31.968-.08-.117-.158-.232-.233-.346-3.627-5.563-2.209-13.038,3.267-16.875,5.593-3.917,13.305-2.556,17.221,3.035,12.25,17.496,31.053,21.935,31.238,21.976,3.325.711,6.05,2.697,7.771,5.336Z" fill="#ff4e93" stroke-width="0"/><path d="M176.332,269.177l-3.369,11.893c-.569-.159-14.047-4.048-23.772-15.288l9.347-8.091c7.234,8.36,17.691,11.455,17.794,11.485Z" fill="#fff" stroke-width="0"/><path d="M350.521,117.135c-1.002-13.507-14.156-33.168-24.361-42.074-13.536-11.828-37.205-23.839-76.993-22.357-41.65,1.567-73.379,15.088-93.576,27.014-15.878,9.386-16.754,29.301-25.547,44.968l-13.274,33.935s193.751-56.814,245.056,1.717l-11.306-43.203ZM218.85,126.691l4.799-10.626c2.78-4.956,3.663-9.103,8.692-12.065,6.395-3.784,16.441-8.063,29.63-8.559,12.596-.472,20.091,3.337,24.383,7.072,3.228,2.829,9.151,9.248,10.916,13.044l5.947,10.07c-26.339-9.734-84.367,1.063-84.367,1.063Z" fill="url(#r)" stroke-width="0"/><path d="M120.09,77.196c2.27,0,4.543-.223,6.8-.679,8.824-1.783,24.615-8.717,33.918-34.93.694-1.956-.353-4.112-2.335-4.728l-10.422-3.241c-1.836-.571-3.815.392-4.47,2.199-4.692,12.942-11.98,21.22-20.284,22.898-6.122,1.231-12.543-1.071-17.993-6.364-1.336-1.297-3.433-1.388-4.857-.188l-8.366,7.048c-1.624,1.368-1.735,3.842-.244,5.353,8.055,8.169,18.114,12.631,28.252,12.631Z" fill="#f04205" stroke-width="0"/><path d="M195.361,113.322l4.075-10.127c.718-1.784-.081-3.834-1.831-4.634-12.52-5.723-20.179-13.655-21.179-22.069-.738-6.198,2.08-12.413,7.798-17.419,1.401-1.227,1.661-3.309.58-4.826l-6.349-8.909c-1.236-1.734-3.697-2.035-5.329-.667-10.755,9.018-16.221,21.47-14.735,33.964,1.062,8.94,6.696,25.24,32.068,36.631,1.893.85,4.126-.019,4.901-1.944Z" fill="#f04205" stroke-width="0"/><path d="M151.898,138.498c2.122.172,3.938-1.517,3.943-3.646.031-14.036-5.971-26.236-16.485-33.15-7.521-4.945-23.617-11.135-48.678.938-1.87.901-2.644,3.169-1.669,5.002l5.123,9.64c.903,1.698,2.986,2.407,4.724,1.584,12.442-5.894,23.444-6.644,30.522-1.986,5.216,3.429,8.155,9.587,8.301,17.183.036,1.861,1.461,3.401,3.317,3.552l10.902.885Z" fill="#f04205" stroke-width="0"/></g></g></svg>