<?xml version="1.0" encoding="UTF-8"?><svg id="b" xmlns="http://www.w3.org/2000/svg" xmlns:xlink="http://www.w3.org/1999/xlink" viewBox="0 0 443.259 443.259"><defs><clipPath id="d"><rect width="443.259" height="443.259" fill="none" stroke-width="0"/></clipPath><linearGradient id="e" x1="75.048" y1="159.197" x2="75.454" y2="159.197" gradientUnits="userSpaceOnUse"><stop offset="0" stop-color="#40c0c6"/><stop offset="1" stop-color="#fcff80"/></linearGradient><linearGradient id="f" x1="75.048" y1="159.197" x2="75.454" y2="159.197" gradientUnits="userSpaceOnUse"><stop offset="0" stop-color="#b23300"/><stop offset=".499" stop-color="#ff5000"/><stop offset="1" stop-color="#ff8f00"/></linearGradient><linearGradient id="g" x1="162.769" y1="55.601" x2="274.371" y2="560.298" gradientUnits="userSpaceOnUse"><stop offset="0" stop-color="#ff4e93"/><stop offset=".029" stop-color="#ea51a4"/><stop offset=".083" stop-color="#ca57c0"/><stop offset=".141" stop-color="#af5bd7"/><stop offset=".205" stop-color="#9b5fe9"/><stop offset=".277" stop-color="#8c62f5"/><stop offset=".363" stop-color="#8463fc"/><stop offset=".506" stop-color="#8264ff"/><stop offset="1" stop-color="#5047bf"/></linearGradient><linearGradient id="h" x1="265.33" y1="38.437" x2="264.708" y2="74.156" gradientUnits="userSpaceOnUse"><stop offset="0" stop-color="#00cdd2"/><stop offset=".035" stop-color="#19b8da"/><stop offset=".088" stop-color="#399ee6"/><stop offset=".146" stop-color="#5488ef"/><stop offset=".209" stop-color="#6878f6"/><stop offset=".28" stop-color="#776cfb"/><stop offset=".365" stop-color="#7f66fe"/><stop offset=".506" stop-color="#8264ff"/><stop offset="1" stop-color="#5047bf"/></linearGradient><linearGradient id="i" x1="196.123" y1="-18.378" x2="-96.195" y2="567.419" gradientUnits="userSpaceOnUse"><stop offset="0" stop-color="#00cdd2"/><stop offset=".033" stop-color="#19b8da"/><stop offset=".084" stop-color="#399ee6"/><stop offset=".138" stop-color="#5488ef"/><stop offset=".198" stop-color="#6878f6"/><stop offset=".266" stop-color="#776cfb"/><stop offset=".347" stop-color="#7f66fe"/><stop offset=".481" stop-color="#8264ff"/><stop offset=".686" stop-color="#5449c4"/><stop offset=".939" stop-color="#5047bf"/></linearGradient><linearGradient id="j" x1="16.695" y1="229.527" x2="27.265" y2="229.527" gradientUnits="userSpaceOnUse"><stop offset="0" stop-color="#0abec6"/><stop offset="1" stop-color="#caedc2"/></linearGradient><linearGradient id="k" x1="33.868" y1="237.181" x2="36.973" y2="237.181" xlink:href="#j"/><linearGradient id="l" x1="15716.02" y1="-1959.098" x2="15739.83" y2="-1959.098" gradientTransform="translate(15841.195 -2444.226) rotate(162.453) scale(1 -1)" gradientUnits="userSpaceOnUse"><stop offset="0" stop-color="#ff4e93"/><stop offset=".184" stop-color="#ff5391"/><stop offset=".425" stop-color="#ff648d"/><stop offset=".7" stop-color="#ff7f86"/><stop offset=".996" stop-color="#ffa57d"/><stop offset="1" stop-color="#ffa67d"/></linearGradient><linearGradient id="m" x1="15717.067" y1="-1947.183" x2="15740.166" y2="-1947.183" xlink:href="#l"/><linearGradient id="n" x1="15705.298" y1="-1934.373" x2="15731.364" y2="-1934.373" xlink:href="#l"/><linearGradient id="o" x1="15437.551" y1="-2312.777" x2="15788.885" y2="-1721.266" gradientTransform="translate(15841.195 -2444.226) rotate(162.453) scale(1 -1)" gradientUnits="userSpaceOnUse"><stop offset="0" stop-color="#00cdd2"/><stop offset=".028" stop-color="#19b8da"/><stop offset=".07" stop-color="#399ee6"/><stop offset=".116" stop-color="#5488ef"/><stop offset=".166" stop-color="#6878f6"/><stop offset=".222" stop-color="#776cfb"/><stop offset=".29" stop-color="#7f66fe"/><stop offset=".402" stop-color="#8264ff"/><stop offset=".641" stop-color="#5047bf"/></linearGradient><linearGradient id="p" x1="-28.789" y1="1018.613" x2="159.014" y2="1018.613" gradientTransform="translate(274.263 -746.015) rotate(5.153)" gradientUnits="userSpaceOnUse"><stop offset="0" stop-color="#8264ff"/><stop offset="1" stop-color="#5f4dd2"/></linearGradient><linearGradient id="q" x1="-619.935" y1="1345.896" x2="-456.473" y2="1345.896" gradientTransform="translate(944.366 -1067.627) rotate(7.925) scale(.94 1)" gradientUnits="userSpaceOnUse"><stop offset="0" stop-color="#ffac00"/><stop offset="1" stop-color="#f03c00"/></linearGradient><linearGradient id="r" x1="-118.602" y1="1449.933" x2="-91.476" y2="1449.933" gradientTransform="translate(1614.99 274.145) rotate(90)" gradientUnits="userSpaceOnUse"><stop offset="0" stop-color="#d072bf"/><stop offset="1" stop-color="#8264ff"/></linearGradient><linearGradient id="s" x1="63.111" y1="1445.176" x2="90.236" y2="1445.176" gradientTransform="translate(1790.637 114.716) rotate(90)" gradientUnits="userSpaceOnUse"><stop offset="0" stop-color="#8264ff"/><stop offset="1" stop-color="#d072bf"/></linearGradient><linearGradient id="t" x1="-105.696" y1="1426.392" x2="-43.359" y2="1426.392" gradientTransform="translate(484.268 -1249.147) rotate(8.541)" gradientUnits="userSpaceOnUse"><stop offset="0" stop-color="#fef"/><stop offset=".656" stop-color="#ffeaff"/><stop offset="1" stop-color="#ffe5ff"/></linearGradient><linearGradient id="u" x1="18.854" y1="1427.393" x2="74.801" y2="1427.393" xlink:href="#t"/><linearGradient id="v" x1="17.095" y1="245.835" x2="44.28" y2="245.835" gradientTransform="matrix(1,0,0,1,0,0)" xlink:href="#l"/><linearGradient id="w" x1="13.167" y1="263.062" x2="33.286" y2="263.062" gradientTransform="matrix(1,0,0,1,0,0)" xlink:href="#l"/><linearGradient id="x" x1="27.104" y1="230.438" x2="44.464" y2="230.438" gradientTransform="matrix(1,0,0,1,0,0)" xlink:href="#l"/><linearGradient id="y" x1="24.815" y1="206.058" x2="-26.244" y2="296.676" gradientUnits="userSpaceOnUse"><stop offset=".061" stop-color="#5047bf"/><stop offset=".114" stop-color="#5449c4"/><stop offset=".481" stop-color="#6d57e4"/><stop offset=".79" stop-color="#7c60f7"/><stop offset="1" stop-color="#8264ff"/></linearGradient></defs><g id="c"><g clip-path="url(#d)"><path d="M75.454,159.216c-.012,0-.025,0-.038.013-.126-.025-.24-.051-.367-.063.139,0,.279.025.406.051Z" fill="url(#e)" stroke-width="0"/><path d="M75.454,159.216c-.012,0-.025,0-.038.013-.126-.025-.24-.051-.367-.063.139,0,.279.025.406.051Z" fill="url(#f)" stroke-width="0"/><path d="M405.062,512.518c-16.058,19.291-38.935,26.033-61.967,32.48-32.099,7.972-65.698,10.663-99.733,11.679-36.807,1.723-73.214,1.296-109.062-2.198-18.917-5.053-37.539-13.484-55.986-24.196-14.332-18.504-22.684-40.682-22.684-64.534,0-6.84.697-13.566,2.022-20.095-.679-22.752,23.103-89.156,40.277-168.535,2.703-52.919,6.835-100.803,16.024-130.707,3.836-17.52,12.24-33.661,24.132-47.473,4.045-4.757,8.526-9.219,13.373-13.369,11.42-9.826,24.898-17.913,39.823-23.786,8.526-8.629,17.82-15.321,21.673-8.776,10.793-9.629,23.224-16.453,30.949-13.09,2.807,2.936,3.958,6.102,3.94,9.367,42.841-10.236,50.843-3.084,49.501,5.266,0,.033-.018.082-.018.115-.226,1.279-.644,2.575-1.203,3.855,5.771,1.837,11.351,4.002,16.704,6.48,2.755,1.247,5.44,2.592,8.056,4.003,13.652,7.333,25.683,16.683,35.517,27.559,11.525,12.746,20.051,27.575,24.637,43.717.627,2.165,1.186,4.347,1.656,6.562,9.102,29.937,13.183,77.607,15.902,130.281,4.638,21.44,9.764,41.945,14.751,60.892-1.621,13.664,11.507,59.206,9.676,70.852,2.114,37.786-3.358,37.354-4.943,58.733-7.927,24.362-6.006,24.448-13.015,44.92Z" fill="url(#g)" stroke-width="0"/><path d="M447.554,465.2c0,64.599-61.2,116.977-136.715,116.977-4.359,0-8.683-.164-12.937-.525h-92.393c-4.253.361-8.578.525-12.937.525-44.915,0-84.756-18.537-109.672-47.145-1.516-1.739-2.964-3.494-4.359-5.298,18.447,10.712,37.069,19.143,55.986,24.196,35.848,3.494,72.255,3.92,109.062,2.198,34.035-1.017,67.634-3.707,99.733-11.679,23.033-6.447,37.327-18.993,53.385-38.285,12.751-19.086,20.579-36.616,20.09-62.485.14-22.95.013-15.018,1.861-42.38,1.831-11.647-6.708-50.171-5.087-63.836,4.621,17.585,9.154,33.809,13.06,48.244,4.045,14.911,9.137,29.527,14.524,44.045.767,2.083,1.464,4.183,2.11,6.299,2.79,9.318,4.289,19.094,4.289,29.15Z" fill="#5943b2" stroke-width="0"/><path d="M265.313,40.932c-.018.052-.018.087-.035.139,0-.035,0-.087-.018-.122.018,0,.035-.017.053-.017Z" fill="url(#h)" stroke-width="0"/><path d="M265.313,40.932c-.018.052-.018.087-.035.139,0-.035,0-.087-.018-.122.018,0,.035-.017.053-.017Z" fill="url(#h)" stroke-width="0"/><path d="M106.124,272.912l-15.474-1.997c-18.208-2.349-35.584-9.199-50.313-20.158-1.687-1.255-3.151-2.425-4.277-3.451-27.438-25-59.192-16.264-65.878,10.66-12.25,33.902,71.078,128.928,98.9,156.73" fill="url(#i)" stroke-width="0"/><path d="M27.104,224.898c.192,2.702.209,5.789.07,9.258l-10.479-3.941c.942-.627,5.353-3.505,10.409-5.318Z" fill="url(#j)" stroke-width="0"/><path d="M36.973,237.469c-.157.07-.296.139-.454.209h-.017l-2.633-.994c.994.192,1.936.401,2.79.68h.018c.104.035.192.07.296.105Z" fill="url(#k)" stroke-width="0"/><path d="M251.234,437.213l.007-.013c2.68-2.71,6.656-5.367,11.516-8.003.18-2.103.816-4.397,1.879-6.829-1.66-.144-15.406-1.083-19.458,7.534,0,0-6.346,8.743,6.057,7.311Z" fill="url(#l)" stroke-width="0"/><path d="M252.799,453.009c4.018-4.224,8.242-7.171,12.571-9.544.12-.065.24-.13.359-.195,1.27-.69,2.531-1.336,3.803-1.942-1.573-.941-2.882-1.997-3.894-3.167-2.241-2.514-3.178-5.515-2.882-8.963-4.86,2.636-8.836,5.293-11.516,8.003l-.007.013c-.348.35-.683.708-.979,1.054-1.677,1.936-2.643,3.876-2.804,5.858-.364,3.774.34,6.279,2.013,7.658.855.716,1.971,1.117,3.335,1.226Z" fill="url(#m)" stroke-width="0"/><path d="M263.5,462.222s4.433-7.24,11.884-11.99c2.419-1.548,5.167-2.827,8.195-3.517-2.024-.583-4.043-1.295-6.075-2.098-3.191-.895-5.847-2.002-7.971-3.288-1.272.606-2.533,1.252-3.803,1.942-.12.065-.24.13-.359.195-3.874,4.936-9.859,14.564-1.87,18.758Z" fill="url(#n)" stroke-width="0"/><path d="M320.407,340.795l-19.861,29.873c-5.111,7.688-10.946,14.875-17.349,21.525-26.509,27.529-30.645,46.933-2.916,54.764,35.063,13.947,67.134,2.926,97.15-25.256,45.864-69.883,34.211-101.432,1.005-106.89-22.662-3.724-45.314,6.859-58.029,25.984Z" fill="url(#o)" stroke-width="0"/><path d="M249.215,290.669c-58.442-4.282-82.868-19.465-93.074-31.639-3.713-4.429,2.193-9.47,8.569-7.303,13.568,4.613,38.706,10.191,85.263,14.8,43.342,4.283,68.276,2.741,82.613-.342,6.79-1.46,12.528,4.702,7.854,8.542-12.356,10.152-38.002,19.842-91.225,15.942Z" fill="url(#p)" stroke-width="0"/><path d="M331.913,221.02l-.003.018c-.477,2.847-4.325,5.579-10.339,7.346-1.115.33-2.286.617-3.471.866l-.656-.057c-3.255-.303-6.53-.608-9.809-.895l-6.18-.586c-1.309-.133-2.62-.248-3.891-.358-7.142-.678-14.267-1.336-21.241-2.032-14.804-1.49-26.335-2.896-36.328-4.436-3.83-.589-8.139-1.179-12.629-1.808-8.37-1.169-17.043-2.392-24.872-3.81-7.912-1.428-13.539-2.831-17.245-4.288-1.327-.521-2.379-1.064-3.163-1.596l-.245-.157c-.065-.035-.129-.069-.193-.103-3.817-2.058-3.24-7.11.941-8.659,1.344-.498,2.698-.973,3.886-1.39,4.283-1.489,9.121-3.188,13.76-5.426,5.678-2.742,11.495-6.184,17.125-9.5,3.926-2.338,7.642-4.535,11.322-6.516,13.256-7.137,24.059-10.186,32.707-9.187,3.957.457,7.46,1.762,10.509,3.914l33.426,27.811.566.469c1.294,1.086,2.615,2.139,3.909,3.096,4.906,3.726,10.559,7.336,17.74,11.379,3.136,1.758,4.695,3.867,4.374,5.905Z" fill="url(#q)" stroke-width="0"/><path d="M232.864,210.855h0c-.673.607-1.822.646-2.553.087l-5.84-4.464c-.731-.559-.778-1.512-.105-2.119h0c.673-.607,1.822-.646,2.553-.087l5.84,4.464c.731.559.778,1.512.105,2.119Z" fill="#473f93" stroke-width="0"/><path d="M278.196,217.123l-.129-.141c-.565-.618-.418-1.508.327-1.977l5.375-3.383c.745-.469,1.817-.347,2.382.272l.129.141c.565.618.418,1.508-.327,1.977l-5.375,3.383c-.745.469-1.817.347-2.382-.272Z" fill="#473f93" stroke-width="0"/><ellipse cx="165.057" cy="169.106" rx="7.612" ry="13.563" transform="translate(-26.686 307.218) rotate(-81.459)" fill="url(#r)" stroke-width="0"/><ellipse cx="345.461" cy="191.389" rx="7.612" ry="13.563" transform="translate(104.888 504.595) rotate(-81.459)" fill="url(#s)" stroke-width="0"/><path d="M229.549,154.992c-2.53,16.846-18.382,28.43-35.404,25.874-17.022-2.556-28.772-18.286-26.242-35.132,2.53-16.846,18.383-28.441,35.405-25.885,17.022,2.556,28.77,18.297,26.24,35.143Z" fill="url(#t)" stroke-width="0"/><path d="M290.923,165.221c-2.271,15.119,8.275,29.236,23.552,31.53,15.277,2.294,29.504-8.103,31.775-23.222,2.271-15.119-8.273-29.246-23.55-31.541-15.277-2.294-29.505,8.113-31.776,23.232Z" fill="url(#u)" stroke-width="0"/><path d="M194.023,184.602c-18.546-2.785-31.367-20.138-28.582-38.684,2.785-18.546,20.138-31.367,38.684-28.582,18.546,2.785,31.367,20.138,28.582,38.684-2.785,18.546-20.138,31.367-38.684,28.582ZM203.536,121.262c-16.381-2.46-31.708,8.865-34.168,25.245-2.46,16.381,8.865,31.708,25.245,34.168,16.381,2.46,31.708-8.865,34.168-25.245,2.46-16.381-8.865-31.708-25.245-34.168Z" fill="#473f93" stroke-width="0"/><path d="M314.268,200.09c-16.957-2.547-28.679-18.412-26.133-35.369,2.547-16.957,18.412-28.679,35.369-26.133,16.957,2.547,28.679,18.412,26.133,35.369s-18.412,28.679-35.369,26.133ZM322.965,142.179c-14.977-2.249-28.991,8.105-31.24,23.082-2.249,14.977,8.105,28.991,23.082,31.24,14.977,2.249,28.991-8.105,31.24-23.082,2.249-14.977-8.105-28.991-23.082-31.24Z" fill="#473f93" stroke-width="0"/><path d="M291.381,159.975c-26.828-27.543-58.093-9.863-59.411-9.096l-1.859-3.402c.346-.203,35.079-19.951,63.974,9.716l-2.704,2.782Z" fill="#473f93" stroke-width="0"/><circle cx="310.955" cy="168.123" r="3.332" fill="#fff" stroke-width="0"/><circle cx="196.889" cy="160.345" r="10.361" fill="#37294f" stroke-width="0"/><circle cx="313.82" cy="175.901" r="10.361" fill="#37294f" stroke-width="0"/><path d="M234.094,278.058c4.376,2.367,11.743,8.883,19.505,15.947-7.326,5.715-14.904,10.389-22.811,13.687-3.593,2.156-9.107.198-8.738-3.102-.987-8.643-.293-16.971,2.721-24.395.369-3.3,6.251-4.649,9.323-2.137Z" fill="#4be0e0" stroke-width="0"/><path d="M272.587,282.791c-4.819,1.236-13.545,5.774-22.787,10.747,5.724,7.32,11.943,13.69,18.815,18.806,2.964,2.962,8.787,2.399,9.229-.893,3.052-8.146,4.396-16.395,3.271-24.328.441-3.292-4.938-6.025-8.528-4.332Z" fill="#4be0e0" stroke-width="0"/><path d="M255.501,300.621l-8.018-.653c-1.334-.109-2.327-1.278-2.219-2.612-.557-2.505-.386-4.817.563-6.924.109-1.334,1.278-2.327,2.612-2.219l8.018.653c1.334.109,2.327,1.278,2.219,2.612.414,2.144.085,4.491-.563,6.924-.109,1.334-1.278,2.327-2.612,2.219Z" fill="#40c0c6" stroke-width="0"/><path d="M43.162,252.133c-.749,1.343-1.9,2.511-3.417,3.505-5.266-1.778-10.409-2.337-15.483-2.249-.593,0-1.186.017-1.761.035-.157.017-.313.017-.471.035-1.656.07-3.295.192-4.935.349l3.993-17.663c2.128-.105,4.133-.139,6.016-.087,2.494.07,4.76.261,6.765.628.994.192,1.936.401,2.79.68h.018c.104.035.192.07.296.105.401.122.784.262,1.133.418,2.511,1.011,4.202,2.493,5.004,4.568,1.569,3.871,1.534,7.079.052,9.677Z" fill="url(#v)" stroke-width="0"/><path d="M17.097,253.812c1.635-.169,3.269-.287,4.927-.362l.469-.022c5.927,2.862,15.699,9.471,7.888,19.269,0,0-7.271-5.014-17.215-5.338l3.931-13.547Z" fill="url(#w)" stroke-width="0"/><path d="M36.973,237.469c-.105-.035-.192-.07-.296-.105h-.018c-.854-.279-1.796-.488-2.79-.68-2.005-.366-4.271-.558-6.765-.628.017-.645.053-1.273.07-1.901.14-3.47.122-6.556-.07-9.258,4.935-1.761,10.496-2.493,14.071.837,0,0,9.694,5.283-4.202,11.734Z" fill="url(#x)" stroke-width="0"/><path d="M27.173,234.156c-.017.628-.053,1.255-.07,1.901-.209,3.783-.576,8.003-1.151,12.676-.54,1.604-1.098,3.156-1.691,4.655-5.214,13.408-12.536,23.364-22.771,28.595l-31.315-24.009c3.138-15.884,22.266-32.448,44.479-47.495,7.219-2.65,11.578,1.674,12.449,14.42.192,2.702.209,5.789.07,9.258Z" fill="url(#y)" stroke-width="0"/><path d="M237.37,131.916c-.625,0-1.251-.234-1.734-.706l-19.4-18.934c-.981-.957-1-2.529-.042-3.51.958-.979,2.529-.999,3.51-.042l19.4,18.934c.981.957,1,2.529.042,3.51-.486.498-1.131.748-1.776.748Z" fill="#473f93" stroke-width="0"/><path d="M290.039,144.559c-.761,0-1.514-.349-2-1.01-.813-1.104-.577-2.658.527-3.471l21.828-16.073c1.102-.811,2.658-.577,3.471.527.813,1.104.577,2.658-.527,3.471l-21.828,16.073c-.443.326-.96.483-1.47.483Z" fill="#473f93" stroke-width="0"/><path d="M106.563,86.131c1.809,0,3.62-.178,5.419-.541,7.031-1.421,19.615-6.947,27.029-27.836.553-1.559-.281-3.277-1.861-3.768l-8.305-2.582c-1.463-.455-3.04.312-3.562,1.753-3.739,10.314-9.547,16.91-16.164,18.247-4.879.981-9.995-.854-14.338-5.071-1.065-1.034-2.735-1.106-3.87-.15l-6.667,5.616c-1.294,1.09-1.383,3.061-.195,4.266,6.419,6.51,14.435,10.066,22.514,10.066Z" fill="#f04205" stroke-width="0"/><path d="M166.546,114.92l3.248-8.071c.572-1.422-.065-3.056-1.459-3.693-9.977-4.56-16.081-10.882-16.878-17.587-.588-4.939,1.657-9.892,6.214-13.881,1.117-.977,1.323-2.637.462-3.846l-5.059-7.1c-.985-1.382-2.946-1.621-4.246-.531-8.571,7.186-12.927,17.109-11.742,27.066.847,7.124,5.336,20.114,25.555,29.192,1.509.677,3.288-.015,3.906-1.549Z" fill="#f04205" stroke-width="0"/><path d="M131.911,134.983c1.691.137,3.139-1.209,3.142-2.906.025-11.185-4.758-20.908-13.137-26.417-5.994-3.941-18.82-8.874-38.791.747-1.49.718-2.107,2.525-1.33,3.986l4.082,7.682c.719,1.353,2.38,1.918,3.765,1.262,9.915-4.697,18.683-5.295,24.323-1.583,4.156,2.733,6.499,7.64,6.615,13.693.029,1.483,1.164,2.71,2.643,2.83l8.688.705Z" fill="#f04205" stroke-width="0"/></g></g></svg>