<svg width="1106" height="874" viewBox="0 0 1106 874" fill="none" xmlns="http://www.w3.org/2000/svg">
<path d="M188.062 215.638C250.096 105.162 307.544 53.882 393.716 23.248C480.129 -7.14474 595.267 -16.8914 728.025 52.3365C861.024 121.564 1007.78 177.526 1069.82 284.142C1131.85 390.517 1109.16 547.305 1037.23 660.192C965.3 773.08 843.886 842.308 731.404 864.499C618.922 886.932 515.129 862.087 393.716 857.504C272.544 852.68 133.752 867.635 62.7865 808.297C-8.42012 748.959 -12.2822 615.085 21.2694 509.434C55.0623 403.783 125.786 326.113 188.062 215.638Z" fill="url(#paint0_linear_166_2148)" fill-opacity="0.2"/>
<path d="M188.497 215.883L188.498 215.882C250.49 105.482 307.855 54.3022 393.883 23.7192C480.186 -6.6343 595.177 -16.3744 727.793 52.7799L728.025 52.3365L727.794 52.7801C751.521 65.1302 775.673 77.0526 799.699 88.9125C843.052 110.313 885.993 131.51 925.279 154.649C986.323 190.606 1038.43 231.197 1069.38 284.393L1069.82 284.142L1069.38 284.394C1131.29 390.554 1108.68 547.135 1036.81 659.924C964.962 772.678 843.677 841.839 731.307 864.009L731.306 864.009C675.129 875.213 621.112 874.613 565.945 870.634C545.34 869.148 524.565 867.189 503.456 865.199C468.076 861.864 431.759 858.44 393.735 857.005C368.251 855.99 341.988 855.85 315.75 855.71C310.788 855.684 305.826 855.657 300.872 855.625C269.711 855.421 238.8 854.984 209.46 852.845C150.76 848.564 98.4606 837.474 63.1072 807.913L63.1065 807.913C27.6424 778.36 8.90613 730.205 3.24088 676.181C-2.42347 622.166 4.98833 562.354 21.7459 509.586C38.6225 456.823 64.7238 411.036 94.4058 364.614C103.187 350.881 112.283 337.09 121.546 323.046C143.585 289.631 166.568 254.785 188.497 215.883Z" stroke="white" stroke-opacity="0.8"/>
<defs>
<linearGradient id="paint0_linear_166_2148" x1="709" y1="52.1719" x2="-181.716" y2="21.9118" gradientUnits="userSpaceOnUse">
<stop stop-color="#5E3EFF" stop-opacity="0"/>
<stop offset="1" stop-color="#5E3EFF"/>
</linearGradient>
</defs>
</svg>
