<?xml version="1.0" encoding="UTF-8"?><svg id="b" xmlns="http://www.w3.org/2000/svg" xmlns:xlink="http://www.w3.org/1999/xlink" viewBox="0 0 443.259 443.259"><defs><clipPath id="d"><rect width="443.259" height="443.259" fill="none" stroke-width="0"/></clipPath><filter id="e" filterUnits="userSpaceOnUse"><feOffset dx="0" dy="0"/><feGaussianBlur result="f" stdDeviation="29.652"/><feFlood flood-color="#afafaf" flood-opacity=".75"/><feComposite in2="f" operator="in"/><feComposite in="SourceGraphic"/></filter><linearGradient id="g" x1="400.516" y1="-99.631" x2="614.717" y2="262.334" gradientTransform="translate(-191.327 269.683) rotate(16.152)" gradientUnits="userSpaceOnUse"><stop offset="0" stop-color="#3e95a4"/><stop offset=".663" stop-color="#3fb4bc"/><stop offset=".885" stop-color="#40c0c6"/></linearGradient><linearGradient id="h" x1="459.557" y1="-164.404" x2="457.546" y2="-161.543" gradientTransform="translate(-191.327 269.683) rotate(16.152)" gradientUnits="userSpaceOnUse"><stop offset="0" stop-color="#fcff80"/><stop offset=".568" stop-color="#40c0c6"/><stop offset="1" stop-color="#6982c6"/></linearGradient><linearGradient id="i" x1="334.727" y1="112.375" x2="705.034" y2="-237.069" gradientTransform="translate(-191.327 269.683) rotate(16.152)" gradientUnits="userSpaceOnUse"><stop offset="0" stop-color="#40c0c6"/><stop offset=".11" stop-color="#46c2c3"/><stop offset=".265" stop-color="#58c8bc"/><stop offset=".444" stop-color="#76d2b1"/><stop offset=".643" stop-color="#9fe0a2"/><stop offset=".856" stop-color="#d4f18e"/><stop offset="1" stop-color="#fcff80"/></linearGradient><linearGradient id="j" x1="570.886" y1="-101.371" x2="568.763" y2="-98.351" xlink:href="#h"/><linearGradient id="k" x1="4209.871" y1="-2684.42" x2="4211.03" y2="-2684.42" gradientTransform="translate(-2532.633 4498.693) rotate(-23.329)" gradientUnits="userSpaceOnUse"><stop offset="0" stop-color="#f05724"/><stop offset="1" stop-color="#f69021"/></linearGradient><linearGradient id="l" x1="480.751" y1="-53.346" x2="480.94" y2="-53.346" gradientTransform="translate(-191.327 269.683) rotate(16.152)" xlink:href="#k"/><linearGradient id="m" x1="164.604" y1="-214.472" x2="550.322" y2="-118.043" gradientTransform="translate(-191.327 269.683) rotate(16.152)" gradientUnits="userSpaceOnUse"><stop offset="0" stop-color="#fcffd3"/><stop offset=".422" stop-color="#fafed2"/><stop offset=".576" stop-color="#f3fad2"/><stop offset=".686" stop-color="#e7f5d0"/><stop offset=".775" stop-color="#d6edcf"/><stop offset=".851" stop-color="#c0e2cd"/><stop offset=".919" stop-color="#a5d5ca"/><stop offset=".978" stop-color="#85c6c7"/><stop offset="1" stop-color="#78c0c6"/></linearGradient><linearGradient id="n" x1="4481.642" y1="-3728.168" x2="4520.421" y2="-3728.168" gradientTransform="translate(-2560.651 5347.217) rotate(-22.242)" gradientUnits="userSpaceOnUse"><stop offset="0" stop-color="#4092c6"/><stop offset="1" stop-color="#40c0a8"/></linearGradient><linearGradient id="o" x1="4437.455" y1="-3703.943" x2="4473.187" y2="-3703.943" gradientTransform="translate(-2560.651 5347.217) rotate(-22.242)" gradientUnits="userSpaceOnUse"><stop offset="0" stop-color="#a0175f"/><stop offset="1" stop-color="#ab2fba"/></linearGradient><linearGradient id="p" x1="4523.784" y1="-3703.444" x2="4557.947" y2="-3703.444" xlink:href="#o"/><linearGradient id="q" x1="4454.604" y1="-3693.563" x2="4540.669" y2="-3693.563" gradientTransform="translate(-2560.651 5347.217) rotate(-22.242)" gradientUnits="userSpaceOnUse"><stop offset="0" stop-color="#ff4e93"/><stop offset=".184" stop-color="#ff5391"/><stop offset=".425" stop-color="#ff648d"/><stop offset=".7" stop-color="#ff7f86"/><stop offset=".996" stop-color="#ffa57d"/><stop offset="1" stop-color="#ffa67d"/></linearGradient><linearGradient id="r" x1="11004.779" y1="10968.259" x2="10897.048" y2="10875.919" gradientTransform="translate(-10687.451 -10581.299)" gradientUnits="userSpaceOnUse"><stop offset="0" stop-color="#a84e93"/><stop offset=".185" stop-color="#ad5191"/><stop offset=".428" stop-color="#be5c8d"/><stop offset=".705" stop-color="#d96d86"/><stop offset="1" stop-color="#ff867d"/></linearGradient><linearGradient id="s" x1="11010.994" y1="10916.124" x2="10891.823" y2="10813.978" gradientTransform="translate(14344.16 6739.887) rotate(159.515)" xlink:href="#q"/><linearGradient id="t" x1="425.808" y1="435.178" x2="334.587" y2="356.988" gradientTransform="translate(696.287 8.881) rotate(90)" gradientUnits="userSpaceOnUse"><stop offset="0" stop-color="#ffc57d"/><stop offset=".299" stop-color="#ff9e86"/><stop offset=".581" stop-color="#ff818d"/><stop offset=".824" stop-color="#ff6f91"/><stop offset="1" stop-color="#ff6993"/></linearGradient><linearGradient id="u" x1="13450.854" y1="5636.953" x2="13646.993" y2="5694.442" gradientTransform="translate(8305.335 11797.607) rotate(-145.9) scale(.991 .866) skewX(-2.07)" gradientUnits="userSpaceOnUse"><stop offset=".274" stop-color="#4db8c6"/><stop offset=".425" stop-color="#8ed2ca"/><stop offset=".576" stop-color="#c9eacf"/><stop offset=".688" stop-color="#eef9d1"/><stop offset=".747" stop-color="#fcffd3"/></linearGradient><linearGradient id="v" x1="955.066" y1="40.801" x2="859.907" y2="178.936" gradientTransform="translate(23.128 -608.874) rotate(76.132) scale(1 -1)" gradientUnits="userSpaceOnUse"><stop offset="0" stop-color="#78cd9e"/><stop offset=".114" stop-color="#91d6a8"/><stop offset=".354" stop-color="#d1efc2"/><stop offset=".5" stop-color="#fcffd3"/></linearGradient><linearGradient id="w" x1="984.911" y1="61.361" x2="889.752" y2="199.496" xlink:href="#v"/><linearGradient id="x" x1="197.625" y1="-271.455" x2="342.494" y2="-271.455" gradientTransform="translate(-191.327 269.683) rotate(16.152)" gradientUnits="userSpaceOnUse"><stop offset="0" stop-color="#f05724"/><stop offset="0" stop-color="#fbffa8"/><stop offset=".034" stop-color="#fbda81"/></linearGradient></defs><g id="c"><g clip-path="url(#d)"><g filter="url(#e)"><rect x="-57.847" y="-11.45" width="583.127" height="519.481" fill="#b4e1ff" stroke-width="0"/><path d="M340.799,105.986c-.709-.205-1.349-.66-1.777-1.33-18.065-28.31-45.405-50.216-76.986-61.684-1.635-.593-2.478-2.399-1.884-4.034.594-1.636,2.432-2.461,4.034-1.884,32.876,11.938,61.339,34.743,80.146,64.215.935,1.466.505,3.413-.961,4.348-.795.507-1.731.613-2.571.369Z" fill="#fcffff" stroke-width="0"/><path d="M474.614,481.682l-.004.012c-.41,1.009-.916,2.029-1.544,3.067-3.381,4.252-7.117,7.733-11.16,10.509-2.149,1.488-4.393,2.766-6.726,3.847-8.561,4.024-18.25,5.518-28.843,5.06-20.631-5.32-35.492-24.047-46.572-51.526,0,0-46.404-28.151-83.387-70.724l120.698,1.116c14.639,19.581,15.791,58.882,15.791,58.882,24.709,9.936,42.664,20.696,42.934,33.571.061,2.01-.324,4.063-1.188,6.185Z" fill="#40c0c6" stroke-width="0"/><path d="M423.508,459.079c-.561,1.936-1.17,3.857-1.827,5.765-4.021,11.619-10.753,22.099-19.123,31.122-16.133,17.355-30.532,36.694-51.063,48.96.374-.206.752-.425,1.115-.634-18.415,14.19-40.92,21.95-63.543,26.176-.514.1-1.04.197-1.567.294,26.283,11.428,42.542,24.056,32.986,39.802-1.465,1.844-3.007,3.548-4.615,5.115-1.653,1.632-3.392,3.108-5.192,4.436-6.489,4.795-13.847,7.699-21.908,9.048-2.411.403-4.876.673-7.417.802-2.478.135-5.009.136-7.6.028-20.631-5.32-35.479-24.043-46.572-51.526,0,0-26.811-16.262-55.911-42.771-21.242-14.531-38.855-33.753-51.602-56.156-33.756-59.286-54.948-126.591-44.082-182.355,1.098.554,2.197,1.108,3.306,1.626-.862,49.47,18.608,104.842,46.923,154.568,12.314,21.634,29.168,40.31,49.442,54.651,28.963,22.003,64.953,8.433,100.385,12.675,27.837,6.355,60.555,13.284,83.113-2.575-.363.21-.74.428-1.115.634,20.532-12.266,34.931-31.605,51.064-48.96,8.064-8.692,14.606-18.741,18.666-29.864-.751,6.443-2.042,12.848-3.864,19.138Z" fill="url(#g)" stroke-width="0"/><path d="M295.449,240.518l-.665,1.399c-.633-2.133-.527-4.181.665-1.399Z" fill="url(#h)" stroke-width="0"/><path d="M344.917,293.96c9.77,9.89,29.263,29.624,36.525,36.243,2.484,2.247,4.338,3.644,5.22,3.738,30.842,26.445,45.356,66.972,40.714,105.997-4.05,11.124-10.598,21.168-18.657,29.865-16.138,17.355-30.542,36.689-51.071,48.954.383-.198.754-.415,1.111-.637-22.509,15.85-50.19,24.371-81.52,24.069-35.703-.35-72.979-12.153-101.969-34.163-20.28-14.337-37.128-33.009-49.443-54.657-28.312-49.706-47.773-105.069-46.915-154.53q-.01-.019-.006-.034c23.534,11.348,49.885,15.439,75.969,13.831l-.004.015c41.6,87.345,151.997,76.48,143.14-24.303-.914-10.304-6.243-20.344-10.674-30.79l7.456-15.645c.612,2.094,1.958,4.287,3.693,1.947,1.131,1.984,1.847,4.253,3.522,5.845,10.859,10.319,32.345,33.559,42.911,44.255Z" fill="url(#i)" stroke-width="0"/><path d="M386.655,333.945c-.883-.093-2.736-1.491-5.22-3.738.186-.027.362-.074.534-.105,1.605,1.245,3.172,2.511,4.686,3.843Z" fill="url(#j)" stroke-width="0"/><polygon points="250.707 73.108 250.529 73.018 250.54 73.012 250.707 73.108" fill="#e4efe1" stroke-width="0"/><path d="M78.898,298.809c6.021,2.881,12.221,5.31,18.578,7.314-6.455-1.999-12.656-4.429-18.572-7.279q-.01-.019-.006-.034Z" fill="#e4efe1" stroke-width="0"/><path d="M137.151,312.838c5.801.218,11.7.156,17.716-.197l-.004.015c-5.971.366-11.889.439-17.711.182Z" fill="#e4efe1" stroke-width="0"/><path d="M285.506,352.085c-.09.088-.147.169-.237.256l-.021-.039c.101-.068.172-.145.258-.218Z" fill="#e4efe1" stroke-width="0"/><polygon points="250.707 73.108 250.529 73.018 250.54 73.012 250.707 73.108" fill="#e4efe1" stroke-width="0"/><path d="M269.968,366.551c.35-.151.706-.288,1.07-.445-.336.142-.728.323-1.07.445Z" fill="url(#k)" stroke-width="0"/><line x1="174.103" y1="345.948" x2="173.238" y2="347.665" fill="none" stroke-width="0"/><line x1="330.026" y1="291.197" x2="327.001" y2="287.715" fill="none" stroke-width="0"/><path d="M78.895,298.852c-1.117-.533-2.216-1.088-3.311-1.654l.004-.012c1.098.554,2.197,1.108,3.306,1.626-.004.012.005.027.001.04Z" fill="#2fa8a8" stroke-width="0"/><path d="M155.009,312.977c-.048-.106-.105-.227-.153-.333l.012.004c.048.106.092.223.14.329Z" fill="#40c0c6" stroke-width="0"/><path d="M285.512,352.085c-.089.079-.169.174-.245.257l-.017-.031c.085-.067.174-.146.263-.226Z" fill="#40c0c6" stroke-width="0"/><path d="M285.512,352.085c-.089.079-.169.174-.245.257l-.017-.031c.085-.067.174-.146.263-.226Z" fill="url(#l)" stroke-width="0"/><line x1="174.103" y1="345.948" x2="173.238" y2="347.665" fill="none" stroke-width="0"/><polygon points="250.706 73.11 250.53 73.024 250.545 73.014 250.706 73.11" fill="#e4efe1" stroke-width="0"/><path d="M154.975,312.914c-.04-.09-.079-.18-.119-.271l.012.004c.039.09.079.18.106.267Z" fill="#e4efe1" stroke-width="0"/><path d="M285.512,352.085c-.089.079-.169.174-.245.257l-.017-.031c.085-.067.174-.146.263-.226Z" fill="#e4efe1" stroke-width="0"/><polygon points="250.706 73.11 250.53 73.024 250.545 73.014 250.706 73.11" fill="#e4efe1" stroke-width="0"/><polygon points="152.577 145.918 152.409 145.814 152.422 145.808 152.577 145.918" fill="#e4efe1" stroke-width="0"/><polygon points="152.577 145.918 152.409 145.814 152.422 145.808 152.577 145.918" fill="#e4efe1" stroke-width="0"/><polygon points="267.001 99.125 266.833 99.021 266.846 99.015 267.001 99.125" fill="#e4efe1" stroke-width="0"/><polygon points="267.001 99.125 266.833 99.021 266.846 99.015 267.001 99.125" fill="#e4efe1" stroke-width="0"/><path d="M277.776,358.856c-18.406,13.968-42.806,16.941-64.568,10.638-7.359-2.131-14.425-5.331-20.849-9.515l-.006-.034c-16.671-10.368-29.63-26.143-37.36-44.155-25.294,1.122-51.121-3.71-73.488-15.777-7.939-4.281-15.214-9.394-21.72-15.258-7.054-6.381-13.177-13.677-18.14-21.84-4.608,2.223-9.329,2.708-13.511.993-10.733-4.392-13.861-21.527-7.017-38.259,2.381-5.808,5.663-10.804,9.366-14.67.336-8.285,1.539-16.53,3.561-24.636,1.264-5.092,2.845-10.158,4.751-15.113,1.653-4.362,3.566-8.666,5.703-12.904,1.248-2.124,2.57-4.275,3.948-6.394,4.267-6.546,9.162-12.958,14.625-19.141,10.283-11.61,22.603-22.402,36.661-31.847,7.469-5.033,15.285-9.414,23.378-13.129,11.265-4.064,22.952-6.836,34.861-8.13-12.02,1.23-23.799,3.926-34.861,8.13,24.702-11.869,53.655-16.089,81.333-12.654,7.235.877,14.378,2.296,21.35,4.25,6.826,1.896,13.481,4.327,19.869,7.233,4.804,2.204,9.446,4.685,13.918,7.475,2.481,1.531,4.912,3.177,7.257,4.896l.015.004c1.745-.08,3.498-.075,5.292.071l-.004.015c19.626.778,38.831,17.761,34.995,34.259-1.057,5.331-4.068,9.95-8.313,13.334,25.787,28.084,22.888,88.066-9.393,109.501,13.697,29.439,13.376,77.269-11.652,102.657Z" fill="url(#m)" stroke-width="0"/><path d="M151.237,269.745c21.87,26.457-26.123,31.971-60.821,10.16-13.239-8.833.58-29.65,13.873-20.788,27.653,16.047,34.188,4.002,46.948,10.628Z" fill="#ff4e93" stroke-width="0"/><path d="M131.998,273.961l1.398,12.417c-.593.069-14.692,1.588-28.091-5.209l5.65-11.146c9.967,5.054,20.935,3.949,21.043,3.938Z" fill="#fff" stroke-width="0"/><path d="M138.885,185.343l-21.031,8.294c-2.935,1.157-4.389,4.505-3.231,7.44,1.157,2.935,4.505,4.389,7.44,3.231l21.031-8.294c2.935-1.157,4.389-4.505,3.231-7.44h0c-1.157-2.935-4.505-4.389-7.44-3.231Z" fill="#37294f" stroke-width="0"/><rect x="225.897" y="144.737" width="34.079" height="11.471" rx="5.735" ry="5.735" transform="translate(-38.265 99.62) rotate(-21.523)" fill="#37294f" stroke-width="0"/><path d="M202.655,216.139c-.663-.192-1.236-.674-1.517-1.363l-6.437-15.741c-.489-1.197.084-2.563,1.281-3.053,1.196-.491,2.565.083,3.053,1.281l6.437,15.741c.489,1.197-.084,2.563-1.281,3.053-.508.208-1.047.224-1.536.082Z" fill="#37294f" stroke-width="0"/><path d="M202.925,201.4l-8.211,3.358c-4.839,1.979-17.038-1.487-19.017-6.326h0c-1.979-4.839.361-10.416,5.2-12.395l18.299-7.483c4.839-1.979,10.416.361,12.395,5.2h0c1.979,4.839-3.827,15.668-8.666,17.646Z" fill="url(#n)" stroke-width="0"/><path d="M158.7,219.363c5.256,1.27,11.079,1.775,17.059,1.557-8.23,8.259-12.1,17.857-9.469,25.942-30.077,1.642-30.704-29.214-7.59-27.499Z" fill="url(#o)" stroke-width="0"/><path d="M255.025,201.681c-2.219,4.892-5.106,9.492-8.595,13.773l-.011-.027c-3.22-7.875-12.211-12.371-23.526-12.92,3.522-3.432,6.382-7.331,8.341-11.63,2.991-6.572,10.744-9.476,17.31-6.498,6.572,2.99,9.476,10.744,6.48,17.302Z" fill="url(#p)" stroke-width="0"/><path d="M246.419,215.427l.011.027c-8.103,9.949-19.45,18.103-33.184,23.719-14.748,6.011-31.178,8.809-46.955,7.689-2.631-8.084,1.239-17.682,9.469-25.942.836-.028,1.666-.069,2.504-.13,8.267-.573,16.767-2.496,24.582-5.629,7.655-3.068,14.638-7.319,20.048-12.653,11.315.549,20.305,5.045,23.526,12.92Z" fill="url(#q)" stroke-width="0"/><path d="M242.228,656.496c-.547-.159-1.07-.442-1.522-.848-11.761-10.593-21.632-24.92-30.155-43.776-4.602-3.051-11.497-7.773-19.662-13.852-1.728-1.287-2.086-3.731-.8-5.459,1.288-1.729,3.732-2.079,5.459-.8,8.599,6.403,15.754,11.269,20.244,14.222.622.41,1.115.991,1.418,1.672,8.177,18.353,17.571,32.155,28.717,42.196,1.602,1.443,1.73,3.909.289,5.509-1.035,1.149-2.597,1.54-3.988,1.137ZM441.391,673.667c-20.04-5.804-49.605-17.435-76.674-39.892-1.658-1.375-1.888-3.835-.511-5.493,1.374-1.656,3.833-1.887,5.493-.511,26.036,21.6,54.535,32.805,73.859,38.401,7.633,2.211,15.288,3.966,22.758,5.219,2.141.336,3.558,2.368,3.203,4.492-.357,2.126-2.368,3.559-4.492,3.203-7.766-1.304-15.717-3.126-23.634-5.419ZM495.658,681.284c-1.579-.457-2.756-1.888-2.813-3.62-.071-2.153,1.617-3.956,3.77-4.028,4.584-.151,8.971-.559,13.04-1.209.591-.097,1.121-.205,1.646-.336,2.09-.518,4.207.755,4.727,2.846s-.755,4.206-2.846,4.727c-.737.183-1.479.335-2.227.454-4.457.714-9.172,1.154-14.081,1.316-.421.014-.831-.039-1.215-.15ZM143.511,559.531c-.509-.148-.996-.401-1.427-.765-4.025-3.39-7.978-6.994-11.754-10.71-1.536-1.511-1.555-3.982-.044-5.516,1.51-1.538,3.981-1.557,5.516-.044,3.633,3.576,7.438,7.042,11.309,10.305,1.648,1.388,1.858,3.849.469,5.496-1.025,1.217-2.635,1.65-4.07,1.234ZM111.5,525.516c-.789-.228-1.512-.706-2.041-1.416-5.027-6.751-9.667-13.851-13.793-21.104-2.842-4.997-5.61-10.055-8.242-15.067-9.766-.324-19.418-2.989-28.043-7.752-11.174-6.127-20.117-15.328-25.851-26.605-.976-1.92-.212-4.269,1.709-5.245,1.92-.978,4.27-.21,5.245,1.709,5.019,9.871,12.854,17.93,22.658,23.304,8.194,4.531,17.38,6.874,26.641,6.82,1.462-.01,2.81.804,3.484,2.104,2.906,5.598,5.994,11.275,9.18,16.875,3.968,6.976,8.434,13.808,13.27,20.303,1.286,1.729.929,4.172-.799,5.459-1.019.758-2.285.945-3.418.617ZM533.727,629.631c-1.041-.301-1.951-1.031-2.447-2.089-6.095-12.975-20.209-25.044-38.077-40.323-4.772-4.081-10.183-8.706-15.565-13.479-1.612-1.43-1.759-3.895-.329-5.507,1.428-1.611,3.893-1.764,5.507-.329,5.328,4.725,10.711,9.326,15.457,13.385,18.582,15.89,33.259,28.44,40.069,42.937.915,1.95.078,4.273-1.873,5.189-.892.419-1.864.471-2.742.216ZM512.755,474.494c-1.105-.32-2.058-1.123-2.527-2.268-5.31-12.954-18.485-23.915-41.465-34.5-1.233-.568-2.083-1.736-2.241-3.084-1.027-8.686-3.103-21.605-7.159-33.827-.042-.125-.077-.249-.105-.376-1.112-4.959-2.495-9.915-4.113-14.73-.686-2.042.413-4.253,2.456-4.94,2.038-.687,4.255.411,4.94,2.456,1.683,5.007,3.126,10.159,4.289,15.317,3.897,11.802,6.032,24.117,7.173,33.021,23.674,11.197,37.504,23.212,43.445,37.704.817,1.994-.136,4.272-2.129,5.09-.848.348-1.747.374-2.562.138ZM40.291,306.432c-.544-.158-1.064-.438-1.516-.842l-.612-.549c-4.374-3.945-8.49-8.184-12.263-12.628-3.086.061-6.084-.323-8.937-1.149-13.694-3.966-24.094-17.893-30.074-40.272-.555-2.082.681-4.219,2.762-4.776,2.08-.553,4.219.678,4.776,2.762,5.16,19.316,13.935,31.673,24.706,34.793,2.569.744,5.323.999,8.188.761,1.274-.105,2.522.419,3.336,1.409,3.868,4.699,8.147,9.173,12.722,13.298l.604.54c1.603,1.438,1.739,3.905.302,5.51-1.033,1.152-2.599,1.547-3.994,1.143ZM444.85,359.859c-.926-.268-1.754-.878-2.28-1.774-2.558-4.363-5.369-8.631-8.352-12.686-1.277-1.736-.906-4.178.83-5.455,1.734-1.275,4.175-.907,5.455.831,3.144,4.274,6.105,8.769,8.799,13.365,1.09,1.858.467,4.249-1.392,5.338-.961.564-2.066.669-3.058.382Z" fill="#fff" stroke-width="0"/><path d="M376.92,274.113c-.432-.125-.848-.326-1.229-.608-10.475-7.725-20.785-14.417-29.031-18.844-.095-.05-.185-.104-.275-.162-5.05-3.268-8.591-5.816-11.482-8.264-1.382-1.17-1.778-3.136-.955-4.749,2.727-5.353,5.001-11.142,6.758-17.209,3.6-12.423,5.017-26.048,4.1-39.398-.148-2.15,1.474-4.012,3.624-4.159,2.149-.145,4.013,1.475,4.159,3.624.98,14.253-.538,28.813-4.389,42.104-1.586,5.477-3.568,10.752-5.902,15.724,2.181,1.676,4.817,3.504,8.194,5.692,8.54,4.596,19.126,11.466,29.83,19.361,1.735,1.28,2.103,3.722.825,5.455-.997,1.351-2.702,1.875-4.226,1.433ZM341.33,157.89c-1.161-.336-2.15-1.205-2.589-2.428-1.721-4.79-3.79-9.376-6.153-13.631-1.044-1.884-.364-4.259,1.519-5.305,1.883-1.044,4.259-.364,5.303,1.518,2.567,4.624,4.811,9.595,6.673,14.778.729,2.029-.324,4.263-2.351,4.991-.804.289-1.639.298-2.402.077Z" fill="#fff" stroke-width="0"/><rect x="196.657" y="267.504" width="133.607" height="146.574" rx="66.803" ry="66.803" transform="translate(629.524 567.832) rotate(159.515)" fill="url(#r)" stroke-width="0"/><circle cx="282.958" cy="394.395" r="78.478" fill="url(#s)" stroke-width="0"/><ellipse cx="300.204" cy="389.078" rx="55.982" ry="62.904" transform="translate(-176.393 508.911) rotate(-66.461)" fill="url(#t)" stroke-width="0"/><path d="M88.38,358.811c-20.488-14.81-32.518-29.021-36.808-43.414-1.041-3.522-1.411-7.069-1.093-10.466.501-5.281,2.589-10.232,6.197-14.343,6.058-6.951,15.39-10.511,25.605-9.782,17.377,1.25,37.216,9.961,64.342,28.27,2,1.336,13.333,11.216,12.084,12.909-.343.475-.801.834-1.319,1.071-9.855,22.004-31.254,39.299-69.008,35.756-1.332,1.653,1.958,1.42,0,0Z" fill="url(#u)" stroke-width="0"/><path d="M323.238,273.968c-.583.104-1.115.073-1.602-.045l-.068-.073c.531.141,1.092.191,1.67.118Z" fill="url(#v)" stroke-width="0"/><path d="M371.4,323.549c-.076.206-.249.302-.513.259-.883-.091-2.74-1.485-5.229-3.726-7.276-6.602-19.929-20.545-29.288-30.749-6.198-6.796-10.954-11.945-11.697-12.24l-.03-.009-3.003-3.168c-3.836-2.303-4.13-4.498-1.94-6.417,11.974-10.491,98.168-12.883,87.762,20.3-3.839,18.119-17.409,30.944-36.062,35.75Z" fill="url(#w)" stroke-width="0"/><path d="M110.32,55.492c-1.324.188-2.673-.488-3.283-1.758-.751-1.569-.088-3.448,1.479-4.201,17.362-8.32,35.534-13.805,54.045-16.319,4.132-.784,10.815-1.385,21.04-1.906,11.691-.595,23.463.098,34.992,2.063,1.715.293,2.867,1.919,2.575,3.632-.291,1.715-1.924,2.866-3.632,2.575-11.075-1.887-22.384-2.554-33.614-1.98-10.004.508-16.442,1.089-20.264,1.817l-.17.028c-17.855,2.413-35.455,7.722-52.251,15.77-.298.143-.608.236-.918.28Z" fill="#fcffff" stroke-width="0"/><path d="M97.161,173.18c-.907-.263-1.602-1.064-1.681-2.061-.104-1.288.856-2.417,2.145-2.52l42.098-3.388c1.288-.108,2.417.856,2.52,2.145.104,1.288-.856,2.417-2.145,2.52l-42.098,3.388c-.291.024-.574-.008-.839-.084Z" fill="#000" stroke-width="0"/><path d="M217.981,144.167c-.443-.128-.854-.388-1.167-.776-.813-1.005-.658-2.478.347-3.291l30.064-24.334c1.003-.814,2.478-.661,3.291.347.813,1.005.658,2.478-.347,3.291l-30.064,24.334c-.618.502-1.415.634-2.125.429Z" fill="#000" stroke-width="0"/><path d="M74.844,315.566l-10.005,6.09L-11.582,196.121l-.186-.844c3.543-.43,7.052-1.601,10.299-3.578l.042-.025-17.327-28.462L-1.315,191.605l76.159,123.961Z" fill="#40c0c6" stroke-width="0"/><path d="M7.096,184.751l76.422,125.535-9.294,5.658L-18.755,163.212-1.315,191.605c3.173-1.964,5.774-4.505,7.75-7.402l.66.547Z" fill="#338c8a" stroke-width="0"/><path d="M6.435,184.204c-1.976,2.896-4.577,5.437-7.75,7.402l-10.632-17.303c1.238-.762,2.39-1.611,3.455-2.537l14.927,12.438Z" fill="#f69021" stroke-width="0"/><path d="M196.173,60.054c-.201-.625-.412-1.247-.637-1.875-11.659-32.493-47.455-49.375-79.938-37.72-32.493,11.659-49.379,47.445-37.72,79.937.225.628.458,1.242.7,1.852l-17.482,6.273,7.817,21.785,152.549-54.737-7.817-21.785-17.472,6.269ZM167.86,70.213l-60.97,21.877c-.263-.603-.505-1.213-.73-1.841-6.055-16.874,2.712-35.453,19.586-41.508,16.864-6.051,35.453,2.712,41.508,19.586.225.628.426,1.253.607,1.886Z" fill="url(#x)" stroke-width="0"/><rect x="65.631" y="102.677" width="162.072" height="8.772" transform="translate(-27.541 55.825) rotate(-19.739)" fill="#f69021" stroke-width="0"/><rect x="79.495" y="94.669" width="6.18" height="3.522" transform="translate(-27.715 33.558) rotate(-19.739)" fill="#f69021" stroke-width="0"/><polygon points="83.526 87.539 84.32 90.985 78.297 92.367 77.506 88.932 83.526 87.539" fill="#f69021" stroke-width="0"/><polygon points="82.895 81.246 83.269 84.75 77.139 85.415 76.755 81.915 82.895 81.246" fill="#f69021" stroke-width="0"/><polygon points="83.003 74.909 82.969 78.442 76.799 78.378 76.836 74.855 83.003 74.909" fill="#f69021" stroke-width="0"/><rect x="78.813" y="66.903" width="3.527" height="6.179" transform="translate(.812 140.908) rotate(-82.618)" fill="#f69021" stroke-width="0"/><polygon points="85.454 62.501 84.591 65.926 78.613 64.422 79.465 61.001 85.454 62.501" fill="#f69021" stroke-width="0"/><polygon points="87.755 56.609 86.499 59.907 80.736 57.71 81.983 54.415 87.755 56.609" fill="#f69021" stroke-width="0"/><polygon points="90.735 51.019 89.101 54.139 83.628 51.291 85.259 48.161 90.735 51.019" fill="#f69021" stroke-width="0"/><rect x="89.049" y="42.444" width="3.525" height="6.172" transform="translate(1.98 94.81) rotate(-55.648)" fill="#f69021" stroke-width="0"/><polygon points="98.557 41.077 96.233 43.735 91.584 39.686 93.904 37.017 98.557 41.077" fill="#f69021" stroke-width="0"/><rect x="98.146" y="32.676" width="3.526" height="6.175" transform="translate(1.849 76.322) rotate(-42.165)" fill="#f69021" stroke-width="0"/><polygon points="108.485 33.25 105.604 35.294 102.03 30.255 104.9 28.214 108.485 33.25" fill="#f69021" stroke-width="0"/><polygon points="114.07 30.258 110.971 31.951 108.014 26.528 111.107 24.848 114.07 30.258" fill="#f69021" stroke-width="0"/><rect x="115.414" y="22.663" width="3.525" height="6.173" transform="translate(-1.159 45.503) rotate(-21.871)" fill="#f69021" stroke-width="0"/><rect x="121.823" y="20.751" width="3.523" height="6.167" transform="translate(-1.932 33.152) rotate(-15.161)" fill="#f69021" stroke-width="0"/><polygon points="131.468 19.378 132.368 25.482 128.872 26.004 127.978 19.887 131.468 19.378" fill="#f69021" stroke-width="0"/><polygon points="138.525 19.194 138.693 25.362 135.174 25.463 135.005 19.294 138.525 19.194" fill="#f69021" stroke-width="0"/><polygon points="145.557 19.843 144.998 25.994 141.489 25.672 142.038 19.525 145.557 19.843" fill="#f69021" stroke-width="0"/><polygon points="152.461 21.305 151.18 27.355 147.735 26.627 149.006 20.581 152.461 21.305" fill="#f69021" stroke-width="0"/><polygon points="159.146 23.579 157.165 29.426 153.821 28.301 155.802 22.454 159.146 23.579" fill="#f69021" stroke-width="0"/><polygon points="165.515 26.627 162.868 32.202 159.674 30.687 162.332 25.108 165.515 26.627" fill="#f69021" stroke-width="0"/><rect x="165.262" y="30.308" width="6.171" height="3.529" transform="translate(51.56 157.492) rotate(-57.828)" fill="#f69021" stroke-width="0"/><polygon points="176.961 34.85 173.081 39.647 170.342 37.423 174.222 32.626 176.961 34.85" fill="#f69021" stroke-width="0"/><polygon points="181.878 39.907 177.465 44.222 174.999 41.69 179.416 37.386 181.878 39.907" fill="#f69021" stroke-width="0"/><polygon points="186.179 45.511 181.275 49.27 179.132 46.471 184.025 42.716 186.179 45.511" fill="#f69021" stroke-width="0"/><rect x="183.133" y="49.883" width="6.174" height="3.533" transform="translate(-.209 102.542) rotate(-30.771)" fill="#f69021" stroke-width="0"/><rect x="186.011" y="55.922" width="6.175" height="3.521" transform="translate(-7.111 81.92) rotate(-24.006)" fill="#f69021" stroke-width="0"/><path d="M467.06,198.288l-23.57,12.515-80.851,42.96,1.03,1.947.012.022,2.72,5.092,5.141,9.694,22.037,41.475,11.166,21.019,53.776-101.756,13.694-25.907,7.207-13.627-12.36,6.567ZM393.125,265.871l-2.136-4.007,40.107-21.297.005-.017.017.005-22.843,43.203-.01.034-2.801,5.306-.017-.005.005-.017-12.328-23.205Z" fill="#f05724" stroke-width="0"/><polygon points="405.455 289.089 390.99 261.858 431.109 240.548 405.455 289.089" fill="none" stroke="#f05724" stroke-miterlimit="10" stroke-width="3.487"/><rect x="442.516" y="245.639" width="6.771" height="1.354" transform="translate(165.319 -178.858) rotate(27.662)" fill="#f69021" stroke-width="0"/><rect x="438.141" y="253.985" width="6.771" height="1.354" transform="translate(168.693 -175.873) rotate(27.662)" fill="#f69021" stroke-width="0"/><rect x="439.092" y="258.806" width="3.504" height="1.354" transform="translate(170.853 -175.005) rotate(27.662)" fill="#f69021" stroke-width="0"/><rect x="433.767" y="262.331" width="6.771" height="1.354" transform="translate(172.068 -172.888) rotate(27.662)" fill="#f69021" stroke-width="0"/><rect x="434.717" y="267.151" width="3.504" height="1.354" transform="translate(174.228 -172.021) rotate(27.662)" fill="#f69021" stroke-width="0"/><rect x="429.392" y="270.677" width="6.771" height="1.354" transform="translate(175.443 -169.904) rotate(27.662)" fill="#f69021" stroke-width="0"/><rect x="430.343" y="275.497" width="3.504" height="1.354" transform="translate(177.603 -169.036) rotate(27.662)" fill="#f69021" stroke-width="0"/><rect x="425.018" y="279.022" width="6.771" height="1.354" transform="translate(178.817 -166.919) rotate(27.662)" fill="#f69021" stroke-width="0"/><rect x="425.968" y="283.843" width="3.504" height="1.354" transform="translate(180.977 -166.051) rotate(27.662)" fill="#f69021" stroke-width="0"/><rect x="420.643" y="287.368" width="6.771" height="1.354" transform="translate(182.192 -163.934) rotate(27.662)" fill="#f69021" stroke-width="0"/><rect x="421.594" y="292.189" width="3.504" height="1.354" transform="translate(184.352 -163.066) rotate(27.662)" fill="#f69021" stroke-width="0"/><rect x="416.269" y="295.714" width="6.771" height="1.354" transform="translate(185.566 -160.949) rotate(27.662)" fill="#f69021" stroke-width="0"/><rect x="417.219" y="300.534" width="3.504" height="1.354" transform="translate(187.726 -160.081) rotate(27.662)" fill="#f69021" stroke-width="0"/><rect x="411.894" y="304.059" width="6.771" height="1.354" transform="translate(188.941 -157.964) rotate(27.662)" fill="#f69021" stroke-width="0"/><rect x="412.845" y="308.88" width="3.504" height="1.354" transform="translate(191.101 -157.097) rotate(27.662)" fill="#f69021" stroke-width="0"/><rect x="407.52" y="312.405" width="6.771" height="1.354" transform="translate(192.315 -154.98) rotate(27.662)" fill="#f69021" stroke-width="0"/><rect x="408.47" y="317.226" width="3.504" height="1.354" transform="translate(194.475 -154.112) rotate(27.662)" fill="#f69021" stroke-width="0"/><rect x="403.145" y="320.751" width="6.771" height="1.354" transform="translate(195.69 -151.995) rotate(27.662)" fill="#f69021" stroke-width="0"/></g></g></g></svg>