<?xml version="1.0" encoding="UTF-8"?><svg id="b" xmlns="http://www.w3.org/2000/svg" xmlns:xlink="http://www.w3.org/1999/xlink" viewBox="0 0 443.259 443.259"><defs><clipPath id="d"><rect width="443.259" height="443.259" fill="none" stroke-width="0"/></clipPath><linearGradient id="e" x1="-85.528" y1="277.225" x2="450.314" y2="234.922" gradientUnits="userSpaceOnUse"><stop offset=".002" stop-color="#fef9c2"/><stop offset=".386" stop-color="#fefce1"/><stop offset=".701" stop-color="#fff"/></linearGradient><filter id="f" filterUnits="userSpaceOnUse"><feOffset dx="0" dy="0"/><feGaussianBlur result="g" stdDeviation="7.651"/><feFlood flood-color="#fff" flood-opacity=".75"/><feComposite in2="g" operator="in"/><feComposite in="SourceGraphic"/></filter><filter id="h" filterUnits="userSpaceOnUse"><feOffset dx="0" dy="0"/><feGaussianBlur result="i" stdDeviation="5.956"/><feFlood flood-color="#fff" flood-opacity=".75"/><feComposite in2="i" operator="in"/><feComposite in="SourceGraphic"/></filter><linearGradient id="j" x1="142.463" y1="-.173" x2="145.482" y2="2.248" gradientUnits="userSpaceOnUse"><stop offset="0" stop-color="#338c8a"/><stop offset=".033" stop-color="rgba(68,149,147,.924)" stop-opacity=".924"/><stop offset=".18" stop-color="rgba(135,187,186,.629)" stop-opacity=".629"/><stop offset=".326" stop-color="rgba(187,216,216,.398)" stop-opacity=".398"/><stop offset=".47" stop-color="rgba(224,238,237,.233)" stop-opacity=".233"/><stop offset=".611" stop-color="rgba(247,250,250,.133)" stop-opacity=".133"/><stop offset=".745" stop-color="#fff" stop-opacity=".1"/></linearGradient><linearGradient id="k" x1="139.866" y1="224.092" x2="139.629" y2="237.693" gradientUnits="userSpaceOnUse"><stop offset="0" stop-color="#00cdd2"/><stop offset=".035" stop-color="#19b8da"/><stop offset=".088" stop-color="#399ee6"/><stop offset=".146" stop-color="#5488ef"/><stop offset=".209" stop-color="#6878f6"/><stop offset=".28" stop-color="#776cfb"/><stop offset=".365" stop-color="#7f66fe"/><stop offset=".506" stop-color="#8264ff"/><stop offset="1" stop-color="#5047bf"/></linearGradient><linearGradient id="l" x1="100.944" y1="230.465" x2="143.44" y2="422.646" gradientUnits="userSpaceOnUse"><stop offset="0" stop-color="#ff4e93"/><stop offset=".029" stop-color="#ea51a4"/><stop offset=".083" stop-color="#ca57c0"/><stop offset=".141" stop-color="#af5bd7"/><stop offset=".205" stop-color="#9b5fe9"/><stop offset=".277" stop-color="#8c62f5"/><stop offset=".363" stop-color="#8463fc"/><stop offset=".506" stop-color="#8264ff"/><stop offset="1" stop-color="#5047bf"/></linearGradient><linearGradient id="m" x1="139.818" y1="378.443" x2="140.37" y2="378.443" gradientUnits="userSpaceOnUse"><stop offset="0" stop-color="#f05724"/><stop offset="1" stop-color="#f69021"/></linearGradient><linearGradient id="n" x1="95.969" y1="395.018" x2="176.861" y2="395.018" gradientUnits="userSpaceOnUse"><stop offset="0" stop-color="#ff4e93"/><stop offset=".184" stop-color="#ff5391"/><stop offset=".425" stop-color="#ff648d"/><stop offset=".7" stop-color="#ff7f86"/><stop offset=".996" stop-color="#ffa57d"/><stop offset="1" stop-color="#ffa67d"/></linearGradient><linearGradient id="o" x1="-132.482" y1="948.8" x2="-60.97" y2="948.8" gradientTransform="translate(314.811 -622.524) rotate(5.153)" gradientUnits="userSpaceOnUse"><stop offset="0" stop-color="#8264ff"/><stop offset="1" stop-color="#5f4dd2"/></linearGradient><linearGradient id="p" x1="-685.764" y1="1268.336" x2="-623.52" y2="1268.336" gradientTransform="translate(921.309 -887.604) rotate(7.925) scale(.94 1)" gradientUnits="userSpaceOnUse"><stop offset="0" stop-color="#ffac00"/><stop offset="1" stop-color="#f03c00"/></linearGradient><linearGradient id="q" x1="-248.282" y1="1367.664" x2="-237.953" y2="1367.664" gradientTransform="translate(1469.479 516.804) rotate(90)" gradientUnits="userSpaceOnUse"><stop offset="0" stop-color="#d072bf"/><stop offset="1" stop-color="#8264ff"/></linearGradient><linearGradient id="r" x1="-179.089" y1="1365.853" x2="-168.76" y2="1365.853" gradientTransform="translate(1536.363 456.095) rotate(90)" gradientUnits="userSpaceOnUse"><stop offset="0" stop-color="#8264ff"/><stop offset="1" stop-color="#d072bf"/></linearGradient><linearGradient id="s" x1="-243.368" y1="1358.7" x2="-219.631" y2="1358.7" gradientTransform="translate(545.355 -1042.705) rotate(8.541)" gradientUnits="userSpaceOnUse"><stop offset="0" stop-color="#fef"/><stop offset=".656" stop-color="#ffeaff"/><stop offset="1" stop-color="#ffe5ff"/></linearGradient><linearGradient id="t" x1="-195.941" y1="1359.082" x2="-174.637" y2="1359.082" xlink:href="#s"/><linearGradient id="u" x1="780.133" y1="-1245.007" x2="760.59" y2="-1261.758" gradientTransform="translate(528.191 1655.169) rotate(-151.905) scale(1 -1)" gradientUnits="userSpaceOnUse"><stop offset="0" stop-color="#a84e93"/><stop offset=".185" stop-color="#ad5191"/><stop offset=".428" stop-color="#be5c8d"/><stop offset=".705" stop-color="#d96d86"/><stop offset="1" stop-color="#ff867d"/></linearGradient><linearGradient id="v" x1="711.916" y1="-1178.81" x2="770.849" y2="-1111.763" gradientTransform="translate(528.191 1655.169) rotate(-151.905) scale(1 -1)" gradientUnits="userSpaceOnUse"><stop offset="0" stop-color="#40c0c6"/><stop offset="1" stop-color="#6982c6"/></linearGradient><linearGradient id="w" x1="707.729" y1="-1188.593" x2="827.142" y2="-1052.739" gradientTransform="translate(528.191 1655.169) rotate(-151.905) scale(1 -1)" gradientUnits="userSpaceOnUse"><stop offset="0" stop-color="#6982c6"/><stop offset=".324" stop-color="#40c0c6"/><stop offset="1" stop-color="#fcff80"/></linearGradient><linearGradient id="x" x1="747.106" y1="-1159.165" x2="972.053" y2="-1163.341" gradientTransform="translate(528.191 1655.169) rotate(-151.905) scale(1 -1)" gradientUnits="userSpaceOnUse"><stop offset="0" stop-color="#6982c6"/><stop offset=".032" stop-color="#618dc6"/><stop offset=".112" stop-color="#52a3c6"/><stop offset=".2" stop-color="#48b3c6"/><stop offset=".298" stop-color="#41bdc6"/><stop offset=".432" stop-color="#40c0c6"/><stop offset="1" stop-color="#fcff80"/></linearGradient><linearGradient id="y" x1="863.646" y1="-1170.926" x2="917.937" y2="-1223.667" gradientTransform="translate(528.191 1655.169) rotate(-151.905) scale(1 -1)" gradientUnits="userSpaceOnUse"><stop offset="0" stop-color="#78cd9e"/><stop offset=".183" stop-color="#91d6a8"/><stop offset=".571" stop-color="#d1efc2"/><stop offset=".805" stop-color="#fcffd3"/></linearGradient><linearGradient id="z" x1="841.772" y1="-1169.29" x2="841.815" y2="-1169.29" gradientTransform="translate(528.191 1655.169) rotate(-151.905) scale(1 -1)" gradientUnits="userSpaceOnUse"><stop offset="0" stop-color="#e45627"/><stop offset="1" stop-color="#ec8c28"/></linearGradient><linearGradient id="aa" x1="841.859" y1="-1169.305" x2="841.898" y2="-1169.305" xlink:href="#z"/><linearGradient id="ab" x1="877.756" y1="-1194.018" x2="877.815" y2="-1194.018" gradientTransform="translate(528.191 1655.169) rotate(-151.905) scale(1 -1)" gradientUnits="userSpaceOnUse"><stop offset="0" stop-color="#75c398"/><stop offset=".186" stop-color="#8ecda3"/><stop offset=".579" stop-color="#cee7c0"/><stop offset=".805" stop-color="#f7f8d2"/></linearGradient><linearGradient id="ac" x1="9996.136" y1="-3056.26" x2="10045.829" y2="-3056.26" gradientTransform="translate(-8578.41 -5380.011) rotate(49.448)" xlink:href="#n"/><linearGradient id="ad" x1="3137.325" y1="-3055.418" x2="3165.587" y2="-3055.418" gradientTransform="translate(-30.273 4610.34) rotate(-130.552) scale(1 -1)" gradientUnits="userSpaceOnUse"><stop offset="0" stop-color="#f3a17c"/><stop offset=".044" stop-color="#f4ab8a"/><stop offset=".171" stop-color="#f7c4ad"/><stop offset=".306" stop-color="#fad9cb"/><stop offset=".448" stop-color="#fceae2"/><stop offset=".601" stop-color="#fdf5f2"/><stop offset=".772" stop-color="#fefcfb"/><stop offset="1" stop-color="#fff"/></linearGradient><linearGradient id="ae" x1="9983.008" y1="-3043.531" x2="9992.092" y2="-3043.531" gradientTransform="translate(-8578.41 -5380.011) rotate(49.448)" gradientUnits="userSpaceOnUse"><stop offset="0" stop-color="#fff"/><stop offset="1" stop-color="#fff"/></linearGradient><linearGradient id="af" x1="9992.092" y1="-3043.539" x2="10001.537" y2="-3043.539" xlink:href="#ae"/><linearGradient id="ag" x1="10001.537" y1="-3043.489" x2="10010.982" y2="-3043.489" xlink:href="#ae"/><linearGradient id="ah" x1="10016.397" y1="-3043.135" x2="10020.427" y2="-3043.135" xlink:href="#ae"/><linearGradient id="ai" x1="10010.982" y1="-3043.32" x2="10016.397" y2="-3043.32" xlink:href="#ae"/><linearGradient id="aj" x1="10020.427" y1="-3043.256" x2="10029.872" y2="-3043.256" xlink:href="#ae"/><linearGradient id="ak" x1="10029.872" y1="-3044.092" x2="10039.316" y2="-3044.092" xlink:href="#ae"/><linearGradient id="al" x1="10039.316" y1="-3045.923" x2="10045.902" y2="-3045.923" xlink:href="#ae"/><linearGradient id="am" x1="754.401" y1="-1159.772" x2="848.059" y2="-1159.772" gradientTransform="translate(528.191 1655.169) rotate(-151.905) scale(1 -1)" gradientUnits="userSpaceOnUse"><stop offset="0" stop-color="#3e95a4"/><stop offset="1" stop-color="#40c0c6"/></linearGradient><linearGradient id="an" x1="773.759" y1="-1276.637" x2="883.063" y2="-1194.415" gradientTransform="translate(528.191 1655.169) rotate(-151.905) scale(1 -1)" gradientUnits="userSpaceOnUse"><stop offset="0" stop-color="#fcffd3"/><stop offset=".422" stop-color="#fafed2"/><stop offset=".576" stop-color="#f3fad2"/><stop offset=".686" stop-color="#e7f5d0"/><stop offset=".775" stop-color="#d6edcf"/><stop offset=".851" stop-color="#c0e2cd"/><stop offset=".919" stop-color="#a5d5ca"/><stop offset=".978" stop-color="#85c6c7"/><stop offset="1" stop-color="#78c0c6"/></linearGradient><linearGradient id="ao" x1="860.569" y1="-1247.13" x2="798.17" y2="-1300.614" gradientTransform="translate(528.191 1655.169) rotate(-151.905) scale(1 -1)" xlink:href="#n"/><linearGradient id="ap" x1="817.102" y1="-1226.111" x2="857.598" y2="-1226.111" gradientTransform="translate(528.191 1655.169) rotate(-151.905) scale(1 -1)" gradientUnits="userSpaceOnUse"><stop offset="0" stop-color="#a0175f"/><stop offset="1" stop-color="#ab2fba"/></linearGradient><linearGradient id="aq" x1="822.432" y1="-1219.837" x2="852.268" y2="-1219.837" gradientTransform="translate(528.191 1655.169) rotate(-151.905) scale(1 -1)" xlink:href="#n"/><linearGradient id="ar" x1="829.08" y1="-1240.733" x2="845.153" y2="-1240.733" gradientTransform="translate(528.191 1655.169) rotate(-151.905) scale(1 -1)" gradientUnits="userSpaceOnUse"><stop offset="0" stop-color="#4092c6"/><stop offset="1" stop-color="#40c0a8"/></linearGradient><linearGradient id="as" x1="7345.972" y1="2025.143" x2="7395.665" y2="2025.143" gradientTransform="translate(-7233.915 1299.029) rotate(-22.723)" xlink:href="#n"/><linearGradient id="at" x1="7332.548" y1="2025.985" x2="7360.81" y2="2025.985" gradientTransform="translate(-7233.915 1299.029) rotate(-22.723)" gradientUnits="userSpaceOnUse"><stop offset="0" stop-color="#fff"/><stop offset=".228" stop-color="#fefcfb"/><stop offset=".399" stop-color="#fdf5f2"/><stop offset=".552" stop-color="#fceae2"/><stop offset=".694" stop-color="#fad9cb"/><stop offset=".829" stop-color="#f7c4ad"/><stop offset=".956" stop-color="#f4ab8a"/><stop offset="1" stop-color="#f3a17c"/></linearGradient><linearGradient id="au" x1="7332.844" y1="2037.872" x2="7341.928" y2="2037.872" gradientTransform="translate(-7233.915 1299.029) rotate(-22.723)" xlink:href="#ae"/><linearGradient id="av" x1="7341.928" y1="2037.864" x2="7351.373" y2="2037.864" gradientTransform="translate(-7233.915 1299.029) rotate(-22.723)" xlink:href="#ae"/><linearGradient id="aw" x1="7351.373" y1="2037.913" x2="7360.818" y2="2037.913" gradientTransform="translate(-7233.915 1299.029) rotate(-22.723)" xlink:href="#ae"/><linearGradient id="ax" x1="7366.233" y1="2038.267" x2="7370.263" y2="2038.267" gradientTransform="translate(-7233.915 1299.029) rotate(-22.723)" xlink:href="#ae"/><linearGradient id="ay" x1="7360.818" y1="2038.083" x2="7366.233" y2="2038.083" gradientTransform="translate(-7233.915 1299.029) rotate(-22.723)" xlink:href="#ae"/><linearGradient id="az" x1="7370.263" y1="2038.146" x2="7379.708" y2="2038.146" gradientTransform="translate(-7233.915 1299.029) rotate(-22.723)" xlink:href="#ae"/><linearGradient id="ba" x1="7379.708" y1="2037.31" x2="7389.152" y2="2037.31" gradientTransform="translate(-7233.915 1299.029) rotate(-22.723)" xlink:href="#ae"/><linearGradient id="bb" x1="7389.152" y1="2035.48" x2="7395.738" y2="2035.48" gradientTransform="translate(-7233.915 1299.029) rotate(-22.723)" xlink:href="#ae"/><linearGradient id="bc" x1="-132.223" y1="372.857" x2="-149.344" y2="439.33" gradientTransform="translate(25.033) rotate(-180) scale(1 -1)" gradientUnits="userSpaceOnUse"><stop offset="0" stop-color="#dcae87"/><stop offset=".155" stop-color="#d3a584"/><stop offset=".403" stop-color="#bd8d7e"/><stop offset=".713" stop-color="#996775"/><stop offset="1" stop-color="#733e6b"/></linearGradient><linearGradient id="bd" x1="-161.369" y1="411.803" x2="-72.666" y2="419.407" gradientTransform="translate(25.033) rotate(-180) scale(1 -1)" gradientUnits="userSpaceOnUse"><stop offset="0" stop-color="#bd869e"/><stop offset="1" stop-color="#fae1a4"/></linearGradient><linearGradient id="be" x1="-161.963" y1="418.733" x2="-73.26" y2="426.336" xlink:href="#bd"/><linearGradient id="bf" x1="-160.376" y1="400.22" x2="-71.674" y2="407.823" xlink:href="#bd"/><linearGradient id="bg" x1="-159.434" y1="389.221" x2="-70.731" y2="396.824" xlink:href="#bd"/><linearGradient id="bh" x1="-158.961" y1="383.702" x2="-70.258" y2="391.305" xlink:href="#bd"/><linearGradient id="bi" x1="-160.75" y1="404.575" x2="-72.047" y2="412.178" xlink:href="#bd"/><linearGradient id="bj" x1="-161.85" y1="417.417" x2="-73.148" y2="425.02" xlink:href="#bd"/><linearGradient id="bk" x1="-161.133" y1="409.045" x2="-72.43" y2="416.648" xlink:href="#bd"/><linearGradient id="bl" x1="-160.649" y1="403.396" x2="-71.946" y2="410.999" xlink:href="#bd"/><linearGradient id="bm" x1="-160.199" y1="398.146" x2="-71.496" y2="405.749" xlink:href="#bd"/><linearGradient id="bn" x1="-159.764" y1="393.078" x2="-71.061" y2="400.681" xlink:href="#bd"/><linearGradient id="bo" x1="-159.237" y1="386.922" x2="-70.534" y2="394.525" xlink:href="#bd"/><linearGradient id="bp" x1="-162.098" y1="420.305" x2="-73.395" y2="427.908" xlink:href="#bd"/><linearGradient id="bq" x1="-161.559" y1="414.016" x2="-72.856" y2="421.619" xlink:href="#bd"/><linearGradient id="br" x1="-161.604" y1="414.54" x2="-72.901" y2="422.143" xlink:href="#bd"/><linearGradient id="bs" x1="-160.981" y1="407.278" x2="-72.279" y2="414.881" xlink:href="#bd"/><linearGradient id="bt" x1="-160.49" y1="401.548" x2="-71.787" y2="409.151" xlink:href="#bd"/><linearGradient id="bu" x1="-160.059" y1="396.512" x2="-71.356" y2="404.115" xlink:href="#bd"/><linearGradient id="bv" x1="-159.582" y1="390.951" x2="-70.879" y2="398.554" xlink:href="#bd"/><linearGradient id="bw" x1="-162.026" y1="419.465" x2="-73.323" y2="427.068" xlink:href="#bd"/><linearGradient id="bx" x1="-161.404" y1="412.205" x2="-72.701" y2="419.808" xlink:href="#bd"/><linearGradient id="by" x1="-160.821" y1="405.409" x2="-72.118" y2="413.012" xlink:href="#bd"/><linearGradient id="bz" x1="-160.147" y1="397.549" x2="-71.445" y2="405.152" xlink:href="#bd"/><linearGradient id="ca" x1="-161.346" y1="411.536" x2="-72.643" y2="419.139" xlink:href="#bd"/><linearGradient id="cb" x1="-160.654" y1="403.458" x2="-71.951" y2="411.061" xlink:href="#bd"/><linearGradient id="cc" x1="-161.905" y1="418.058" x2="-73.203" y2="425.662" xlink:href="#bd"/><linearGradient id="cd" x1="-161.239" y1="410.284" x2="-72.536" y2="417.887" xlink:href="#bd"/><linearGradient id="ce" x1="-160.296" y1="399.278" x2="-71.593" y2="406.881" xlink:href="#bd"/><linearGradient id="cf" x1="-159.823" y1="393.761" x2="-71.12" y2="401.364" xlink:href="#bd"/><linearGradient id="cg" x1="-159.359" y1="388.35" x2="-70.656" y2="395.953" xlink:href="#bd"/><linearGradient id="ch" x1="-158.892" y1="382.906" x2="-70.19" y2="390.509" xlink:href="#bd"/><linearGradient id="ci" x1="99.865" y1="260.35" x2="-83.924" y2="420.071" gradientTransform="translate(25.033) rotate(-180) scale(1 -1)" gradientUnits="userSpaceOnUse"><stop offset="0" stop-color="#fef9c2"/><stop offset=".504" stop-color="#f7c88f"/><stop offset="1" stop-color="#f0a87c"/></linearGradient><linearGradient id="cj" x1="80.008" y1="266.494" x2="-59.471" y2="417.373" gradientTransform="translate(25.033) rotate(-180) scale(1 -1)" gradientUnits="userSpaceOnUse"><stop offset="0" stop-color="#fef9c2"/><stop offset="1" stop-color="#efc59a"/></linearGradient><linearGradient id="ck" x1="-81.116" y1="365.623" x2="-54.209" y2="365.623" gradientTransform="translate(25.033) rotate(-180) scale(1 -1)" gradientUnits="userSpaceOnUse"><stop offset="0" stop-color="#ed795e"/><stop offset="1" stop-color="#febf7e"/></linearGradient><linearGradient id="cl" x1="-180.35" y1="408.237" x2="-106.003" y2="383.097" gradientTransform="translate(25.033) rotate(-180) scale(1 -1)" gradientUnits="userSpaceOnUse"><stop offset="0" stop-color="#ce5d6c"/><stop offset=".364" stop-color="#f17b73"/><stop offset=".368" stop-color="#f17b73"/><stop offset=".512" stop-color="#f79480"/><stop offset=".661" stop-color="#fba689"/><stop offset=".82" stop-color="#feb18f"/><stop offset="1" stop-color="#ffb591"/></linearGradient><linearGradient id="cm" x1="-131.617" y1="374.05" x2="-102.85" y2="388.613" gradientTransform="translate(25.033) rotate(-180) scale(1 -1)" gradientUnits="userSpaceOnUse"><stop offset="0" stop-color="#f16c5f"/><stop offset="1" stop-color="#f98b71"/></linearGradient><linearGradient id="cn" x1="-108.503" y1="402.258" x2="-139.282" y2="391.801" gradientTransform="translate(25.033) rotate(-180) scale(1 -1)" gradientUnits="userSpaceOnUse"><stop offset=".001" stop-color="#f89a81"/><stop offset="1" stop-color="#f1786e"/></linearGradient><linearGradient id="co" x1="-214.993" y1="306.313" x2="-61.053" y2="377.49" gradientTransform="translate(25.033) rotate(-180) scale(1 -1)" gradientUnits="userSpaceOnUse"><stop offset="0" stop-color="#0054d6"/><stop offset="1" stop-color="#00a9e4"/></linearGradient><radialGradient id="cp" cx="300.851" cy="196.364" fx="300.851" fy="196.364" r="290.369" gradientUnits="userSpaceOnUse"><stop offset=".242" stop-color="#2c70d7"/><stop offset=".628" stop-color="#47c1ff"/><stop offset=".867" stop-color="#47c1ff"/><stop offset=".898" stop-color="#47c1ff"/><stop offset=".917" stop-color="rgba(71,193,255,.989)" stop-opacity=".989"/><stop offset=".93" stop-color="rgba(71,193,255,.952)" stop-opacity=".952"/><stop offset=".942" stop-color="rgba(71,193,255,.891)" stop-opacity=".891"/><stop offset=".953" stop-color="rgba(71,193,255,.803)" stop-opacity=".803"/><stop offset=".963" stop-color="rgba(71,193,255,.69)" stop-opacity=".69"/><stop offset=".973" stop-color="rgba(71,193,255,.552)" stop-opacity=".552"/><stop offset=".983" stop-color="rgba(71,193,255,.387)" stop-opacity=".387"/><stop offset=".992" stop-color="rgba(71,193,255,.202)" stop-opacity=".202"/><stop offset="1" stop-color="#47c1ff" stop-opacity="0"/></radialGradient><radialGradient id="cq" cx="391.346" cy="278.957" fx="391.346" fy="278.957" r="214.942" gradientUnits="userSpaceOnUse"><stop offset=".43" stop-color="#74d0ff"/><stop offset=".924" stop-color="#43a4f7"/><stop offset="1" stop-color="#43a4f7" stop-opacity="0"/></radialGradient><radialGradient id="cr" cx="-238.24" cy="311.9" fx="-238.24" fy="311.9" r="117.423" gradientTransform="translate(25.033) rotate(-180) scale(1 -1)" gradientUnits="userSpaceOnUse"><stop offset=".001" stop-color="#e8ffff"/><stop offset=".094" stop-color="#dcfaff"/><stop offset=".259" stop-color="#beecff"/><stop offset=".476" stop-color="#8ed7ff"/><stop offset=".736" stop-color="#4bb9ff"/><stop offset="1" stop-color="#0098ff"/></radialGradient><linearGradient id="cs" x1="279.053" y1="339.45" x2="313.913" y2="385.465" gradientUnits="userSpaceOnUse"><stop offset="0" stop-color="#abd9ff"/><stop offset=".928" stop-color="#1ea4ff"/><stop offset="1" stop-color="#13a0ff"/></linearGradient><linearGradient id="ct" x1="269.461" y1="354.382" x2="293.726" y2="383.002" gradientUnits="userSpaceOnUse"><stop offset=".001" stop-color="#99e0ff"/><stop offset=".999" stop-color="#15a1ff"/></linearGradient><linearGradient id="cu" x1="-80.187" y1="363.063" x2="-53.28" y2="363.063" xlink:href="#ck"/><linearGradient id="cv" x1="-179.421" y1="405.678" x2="-105.074" y2="380.537" xlink:href="#cl"/><linearGradient id="cw" x1="-130.688" y1="371.49" x2="-101.921" y2="386.054" xlink:href="#cm"/><linearGradient id="cx" x1="-107.574" y1="399.698" x2="-138.353" y2="389.241" xlink:href="#cn"/><linearGradient id="cy" x1="-250.561" y1="281.394" x2="-189.749" y2="281.394" gradientTransform="translate(25.033) rotate(-180) scale(1 -1)" gradientUnits="userSpaceOnUse"><stop offset="0" stop-color="#1e4fb6"/><stop offset=".813" stop-color="#3fabf0"/><stop offset="1" stop-color="#47c1ff"/></linearGradient><linearGradient id="cz" x1="199.329" y1="248.581" x2="188.876" y2="331.712" gradientUnits="userSpaceOnUse"><stop offset=".002" stop-color="#42101a"/><stop offset=".504" stop-color="#6c2639"/><stop offset="1" stop-color="#963f4e"/></linearGradient><linearGradient id="da" x1="12999.066" y1="-1667.449" x2="13007.509" y2="-1667.449" gradientTransform="translate(13098.276 -1668.665) rotate(163.914) scale(1 -1)" xlink:href="#n"/><linearGradient id="db" x1="12999.437" y1="-1663.224" x2="13007.628" y2="-1663.224" gradientTransform="translate(13098.276 -1668.665) rotate(163.914) scale(1 -1)" xlink:href="#n"/><linearGradient id="dc" x1="12995.264" y1="-1658.682" x2="13004.507" y2="-1658.682" gradientTransform="translate(13098.276 -1668.665) rotate(163.914) scale(1 -1)" xlink:href="#n"/><linearGradient id="dd" x1="12900.319" y1="-1792.867" x2="13024.904" y2="-1583.112" gradientTransform="translate(13098.276 -1668.665) rotate(163.914) scale(1 -1)" gradientUnits="userSpaceOnUse"><stop offset="0" stop-color="#00cdd2"/><stop offset=".028" stop-color="#19b8da"/><stop offset=".07" stop-color="#399ee6"/><stop offset=".116" stop-color="#5488ef"/><stop offset=".166" stop-color="#6878f6"/><stop offset=".222" stop-color="#776cfb"/><stop offset=".29" stop-color="#7f66fe"/><stop offset=".402" stop-color="#8264ff"/><stop offset=".641" stop-color="#5047bf"/></linearGradient><linearGradient id="de" x1="379.95" y1="2321.708" x2="388.394" y2="2321.708" gradientTransform="translate(707.114 -1922.156) rotate(23.704)" xlink:href="#n"/><linearGradient id="df" x1="380.321" y1="2325.933" x2="388.512" y2="2325.933" gradientTransform="translate(707.114 -1922.156) rotate(23.704)" xlink:href="#n"/><linearGradient id="dg" x1="376.148" y1="2330.476" x2="385.391" y2="2330.476" gradientTransform="translate(707.114 -1922.156) rotate(23.704)" xlink:href="#n"/><linearGradient id="dh" x1="281.203" y1="2196.291" x2="405.789" y2="2406.045" gradientTransform="translate(707.114 -1922.156) rotate(23.704)" xlink:href="#dd"/><linearGradient id="di" x1="2202.977" y1="6884.759" x2="2157.2" y2="6812.554" gradientTransform="translate(-6648.358 1806.888) rotate(59.657) scale(1 -1)" gradientUnits="userSpaceOnUse"><stop offset=".274" stop-color="#4db8c6"/><stop offset=".545" stop-color="#95d5cb"/><stop offset=".91" stop-color="#fcffd3"/></linearGradient><linearGradient id="dj" x1="-223.334" y1="150.802" x2="-104.494" y2="150.802" gradientTransform="translate(25.033) rotate(-180) scale(1 -1)" gradientUnits="userSpaceOnUse"><stop offset=".001" stop-color="#710828"/><stop offset=".487" stop-color="#b32d1c"/><stop offset="1" stop-color="#f5830f"/></linearGradient><radialGradient id="dk" cx="-236.178" cy="83.164" fx="-236.178" fy="83.164" r="200.376" gradientTransform="translate(25.033) rotate(-180) scale(1 -1)" gradientUnits="userSpaceOnUse"><stop offset=".001" stop-color="#710828"/><stop offset=".487" stop-color="#b32d1c"/><stop offset=".888" stop-color="#f5830f"/><stop offset="1" stop-color="#ffc622"/></radialGradient><radialGradient id="dl" cx="-244.611" cy="171.764" fx="-244.611" fy="171.764" r="27.348" gradientTransform="translate(25.033) rotate(-180) scale(1 -1)" gradientUnits="userSpaceOnUse"><stop offset=".002" stop-color="#a32320"/><stop offset=".163" stop-color="#b1362d"/><stop offset="1" stop-color="#f99671"/></radialGradient><linearGradient id="dm" x1="-241.78" y1="195.845" x2="-246.075" y2="297.42" gradientTransform="translate(25.033) rotate(-180) scale(1 -1)" gradientUnits="userSpaceOnUse"><stop offset=".001" stop-color="#912236"/><stop offset=".003" stop-color="#912236"/><stop offset=".316" stop-color="#bc4541"/><stop offset=".598" stop-color="#db5e4a"/><stop offset=".836" stop-color="#ef6e4f"/><stop offset="1" stop-color="#f67451"/></linearGradient><radialGradient id="dn" cx="180.047" cy="209.395" fx="180.047" fy="209.395" r="126.286" gradientUnits="userSpaceOnUse"><stop offset=".001" stop-color="#fcdca5"/><stop offset=".139" stop-color="#fbd59f"/><stop offset=".337" stop-color="#fac191"/><stop offset=".572" stop-color="#f9a27a"/><stop offset=".655" stop-color="#f99671"/></radialGradient><radialGradient id="do" cx="180.047" cy="209.395" fx="180.047" fy="209.395" r="126.286" xlink:href="#dn"/><radialGradient id="dp" cx="-183.221" cy="185.528" fx="-183.221" fy="185.528" r="24.135" gradientTransform="translate(25.033) rotate(-180) scale(1 -1)" gradientUnits="userSpaceOnUse"><stop offset="0" stop-color="#f2e1de"/><stop offset=".425" stop-color="#efdfde"/><stop offset=".644" stop-color="#e7d9e1"/><stop offset=".817" stop-color="#dacee6"/><stop offset=".964" stop-color="#c7c0ec"/><stop offset=".999" stop-color="#c2bcef"/></radialGradient><linearGradient id="dq" x1="-188.627" y1="179.817" x2="-170.103" y2="200.557" gradientTransform="translate(25.033) rotate(-180) scale(1 -1)" gradientUnits="userSpaceOnUse"><stop offset="0" stop-color="#000"/><stop offset="1" stop-color="#580b17"/></linearGradient><linearGradient id="dr" x1="433.246" y1="-698.026" x2="439.522" y2="-698.026" gradientTransform="translate(1017.9 120.573) rotate(116.645) scale(1 -1)" gradientUnits="userSpaceOnUse"><stop offset="0" stop-color="#f5f7f9" stop-opacity=".5"/><stop offset=".206" stop-color="rgba(248,249,250,.651)" stop-opacity=".651"/><stop offset=".447" stop-color="rgba(251,251,252,.801)" stop-opacity=".801"/><stop offset=".668" stop-color="rgba(253,253,253,.91)" stop-opacity=".91"/><stop offset=".859" stop-color="rgba(254,254,254,.976)" stop-opacity=".976"/><stop offset=".999" stop-color="#fff"/></linearGradient><linearGradient id="ds" x1="-153.966" y1="222.753" x2="-140.979" y2="216.684" gradientTransform="translate(25.033) rotate(-180) scale(1 -1)" gradientUnits="userSpaceOnUse"><stop offset="0" stop-color="#f99671"/><stop offset=".335" stop-color="#f99872"/><stop offset=".539" stop-color="#f9a178"/><stop offset=".708" stop-color="#faaf83"/><stop offset=".857" stop-color="#fcc391"/><stop offset=".993" stop-color="#fddda4"/><stop offset=".999" stop-color="#fedfa5"/></linearGradient><linearGradient id="dt" x1="-150.483" y1="225.101" x2="-144.463" y2="225.101" gradientTransform="translate(25.033) rotate(-180) scale(1 -1)" gradientUnits="userSpaceOnUse"><stop offset="0" stop-color="#e85a41"/><stop offset=".351" stop-color="#e85c43"/><stop offset=".566" stop-color="#ea6449"/><stop offset=".744" stop-color="#ee7355"/><stop offset=".9" stop-color="#f48765"/><stop offset="1" stop-color="#f99974"/></linearGradient><radialGradient id="du" cx="-212.877" cy="201.454" fx="-212.877" fy="201.454" r="10.033" gradientTransform="translate(25.033) rotate(-180) scale(1 -1)" gradientUnits="userSpaceOnUse"><stop offset=".33" stop-color="#f99f78"/><stop offset=".4" stop-color="rgba(249,159,120,.98)" stop-opacity=".98"/><stop offset=".484" stop-color="rgba(249,159,120,.921)" stop-opacity=".921"/><stop offset=".575" stop-color="rgba(249,159,120,.824)" stop-opacity=".824"/><stop offset=".671" stop-color="rgba(249,159,120,.688)" stop-opacity=".688"/><stop offset=".771" stop-color="rgba(249,159,120,.514)" stop-opacity=".514"/><stop offset=".875" stop-color="rgba(249,160,120,.301)" stop-opacity=".301"/><stop offset=".979" stop-color="rgba(249,160,120,.053)" stop-opacity=".053"/><stop offset="1" stop-color="#f9a179" stop-opacity="0"/></radialGradient><radialGradient id="dv" cx="-126.018" cy="226.703" fx="-126.018" fy="226.703" r="6.524" gradientTransform="translate(25.033) rotate(-180) scale(1 -1)" gradientUnits="userSpaceOnUse"><stop offset="0" stop-color="#fab487"/><stop offset=".105" stop-color="rgba(249,179,134,.98)" stop-opacity=".98"/><stop offset=".23" stop-color="rgba(249,178,133,.922)" stop-opacity=".922"/><stop offset=".365" stop-color="rgba(249,176,132,.825)" stop-opacity=".825"/><stop offset=".508" stop-color="rgba(249,174,130,.69)" stop-opacity=".69"/><stop offset=".657" stop-color="rgba(249,170,128,.516)" stop-opacity=".516"/><stop offset=".811" stop-color="rgba(249,166,125,.303)" stop-opacity=".303"/><stop offset=".967" stop-color="rgba(249,162,121,.057)" stop-opacity=".057"/><stop offset="1" stop-color="#f9a179" stop-opacity="0"/></radialGradient><radialGradient id="dw" cx="-322.431" cy="203.512" fx="-322.431" fy="203.512" r="13.966" gradientTransform="translate(-189.982) rotate(-180) scale(1.064 -1)" gradientUnits="userSpaceOnUse"><stop offset=".588" stop-color="#f2e5e6"/><stop offset=".806" stop-color="#f2e2e3"/><stop offset=".919" stop-color="#f2dadc"/><stop offset="1" stop-color="#f2cfd2"/></radialGradient><linearGradient id="dx" x1="-130.667" y1="197.121" x2="-119.649" y2="211.287" xlink:href="#dq"/><linearGradient id="dy" x1="438.315" y1="-725.188" x2="443.131" y2="-725.188" gradientTransform="translate(336.041 -617.353) rotate(46.855) scale(.901 -.97) skewX(-6.65)" xlink:href="#dr"/><radialGradient id="dz" cx="190.532" cy="199.577" fx="190.532" fy="199.577" r="143.854" gradientUnits="userSpaceOnUse"><stop offset="0" stop-color="#963f4e"/><stop offset=".496" stop-color="#763048"/><stop offset=".998" stop-color="#42101a"/></radialGradient><linearGradient id="ea" x1="280.09" y1="178.021" x2="306.473" y2="316.406" gradientUnits="userSpaceOnUse"><stop offset=".003" stop-color="#4f1826"/><stop offset="1" stop-color="#632233"/></linearGradient><linearGradient id="eb" x1="177.202" y1="100.122" x2="162.118" y2="168.687" gradientUnits="userSpaceOnUse"><stop offset=".001" stop-color="#652639"/><stop offset=".235" stop-color="#6d2c3f"/><stop offset=".614" stop-color="#853d50"/><stop offset="1" stop-color="#a55367"/></linearGradient><linearGradient id="ec" x1="224.488" y1="117.176" x2="229.446" y2="165.11" gradientUnits="userSpaceOnUse"><stop offset="0" stop-color="#68273b"/><stop offset=".247" stop-color="#712d41"/><stop offset=".658" stop-color="#8a4054"/><stop offset="1" stop-color="#a55367"/></linearGradient><radialGradient id="ed" cx="-239.224" cy="186.058" fx="-239.224" fy="186.058" r="27.348" gradientTransform="translate(25.033) rotate(-180) scale(1 -1)" gradientUnits="userSpaceOnUse"><stop offset=".002" stop-color="#e5664d"/><stop offset="1" stop-color="#f99671"/></radialGradient></defs><g id="c"><g clip-path="url(#d)"><polygon points="499.943 -37.356 511.36 514.157 160.867 508.915 46.896 284.234 -78.739 261.248 185.443 -28.223 499.943 -37.356" fill="url(#e)" stroke-width="0"/><g filter="url(#f)"><path d="M24.422,228.2c-1.333,0-2.551-.295-3.621-.879-8.67-4.731-5.07-27.473,8.188-51.773,11.497-21.067,26.088-35.778,35.489-35.778,1.33,0,2.548.295,3.618.878,4.342,2.37,5.773,9.195,4.038,19.219-1.664,9.592-6.004,21.154-12.225,32.553-11.495,21.067-26.089,35.78-35.487,35.78ZM64.478,142.232c-8.267,0-22.596,14.83-33.326,34.497-13.439,24.628-15.591,44.925-9.17,48.429.704.384,1.527.58,2.441.58,8.266,0,22.597-14.831,33.324-34.498,6.095-11.171,10.345-22.462,11.961-31.797,1.519-8.774.505-14.834-2.79-16.631-.705-.384-1.525-.58-2.439-.58Z" fill="#e3a14c" stroke-width="0"/><path d="M64.631,228.111c-9.399,0-24.042-14.648-35.604-35.623-13.364-24.243-17.06-46.966-8.415-51.736,1.08-.594,2.307-.894,3.657-.894,9.398,0,24.038,14.646,35.601,35.623,6.274,11.376,10.664,22.918,12.369,32.502,1.779,10.016.378,16.848-3.954,19.233-1.078.595-2.308.895-3.654.895ZM24.269,142.319c-.928,0-1.756.2-2.466.591-6.407,3.531-4.166,23.82,9.38,48.389,10.798,19.581,25.178,34.352,33.449,34.352.927,0,1.754-.199,2.465-.591,3.285-1.81,4.279-7.878,2.72-16.644-1.661-9.327-5.953-20.601-12.101-31.747-10.796-19.582-25.177-34.35-33.446-34.35Z" fill="#e3a14c" stroke-width="0"/><path d="M43.957,201.597c-27.37,0-48.838-7.654-48.872-17.423-.023-4.944,5.265-9.49,14.881-12.804,9.206-3.171,21.427-4.944,34.42-4.996h.548c27.376,0,48.845,7.654,48.884,17.424.036,9.875-21.618,17.695-49.302,17.798l-.558.002ZM44.934,168.835h-.543c-12.729.05-24.666,1.775-33.621,4.862-8.419,2.901-13.24,6.715-13.226,10.467.029,7.23,18.684,14.969,46.413,14.969h.55c28.057-.107,46.873-8.011,46.844-15.329-.025-7.229-18.683-14.969-46.418-14.969Z" fill="#e3a14c" stroke-width="0"/><path d="M55.383,183.983c0,6.04-4.898,10.935-10.933,10.935s-10.935-4.895-10.935-10.935,4.897-10.932,10.935-10.932,10.933,4.895,10.933,10.932Z" fill="#f12400" stroke-width="0"/><path d="M42.638,180.525c0,1.457-1.185,2.638-2.641,2.638s-2.637-1.181-2.637-2.638,1.181-2.641,2.637-2.641,2.641,1.183,2.641,2.641Z" fill="#fff3dc" stroke-width="0"/><path d="M44.469,173.052c-.008,0-.015,0-.019,0-6.038,0-10.935,4.895-10.935,10.932s4.897,10.935,10.935,10.935c.004,0,.011-.002.019-.002v-21.865Z" fill="#fff" opacity=".2" stroke-width="0"/><path d="M4.822,195.963c-2.393,1.147-5.265.142-6.412-2.252-1.15-2.394-.143-5.262,2.252-6.412,2.391-1.15,5.263-.141,6.411,2.251,1.15,2.394.142,5.263-2.251,6.413Z" fill="#e331dd" stroke-width="0"/><path d="M7.073,189.55c-1.148-2.392-4.02-3.402-6.411-2.251-2.396,1.15-3.402,4.018-2.252,6.412l8.663-4.16Z" fill="#fff" opacity=".2" stroke-width="0"/><path d="M33.32,228.39c-2.392,1.147-5.263.14-6.412-2.253-1.149-2.393-.141-5.263,2.254-6.413,2.394-1.149,5.262-.141,6.411,2.252,1.15,2.394.142,5.264-2.253,6.414Z" fill="#e331dd" stroke-width="0"/><path d="M35.573,221.977c-1.149-2.393-4.017-3.401-6.411-2.252-2.395,1.15-3.403,4.02-2.254,6.413l8.665-4.16Z" fill="#fff" opacity=".2" stroke-width="0"/><path d="M86.738,179.069c-2.391,1.148-5.263.141-6.412-2.252-1.149-2.396-.141-5.263,2.253-6.414,2.393-1.149,5.261-.14,6.41,2.253,1.15,2.391.141,5.263-2.251,6.413Z" fill="#e331dd" stroke-width="0"/><path d="M88.99,172.656c-1.149-2.393-4.017-3.402-6.41-2.253-2.395,1.15-3.402,4.018-2.253,6.414l8.663-4.16Z" fill="#fff" opacity=".2" stroke-width="0"/><path d="M36.566,171.902c-2.395,1.149-5.265.141-6.415-2.252-1.149-2.394-.141-5.264,2.253-6.414,2.392-1.147,5.263-.141,6.412,2.253,1.15,2.393.14,5.263-2.25,6.413Z" fill="#e331dd" stroke-width="0"/><path d="M38.816,165.489c-1.149-2.394-4.02-3.4-6.412-2.253-2.394,1.15-3.402,4.02-2.253,6.414l8.665-4.16Z" fill="#fff" opacity=".2" stroke-width="0"/><path d="M38.341,147.544c-1.565,2.193-4.611,2.701-6.805,1.138-2.193-1.566-2.701-4.611-1.137-6.805,1.566-2.196,4.611-2.704,6.804-1.14,2.194,1.564,2.7,4.612,1.138,6.806Z" fill="#49d3f3" stroke-width="0"/><path d="M37.203,140.738c-2.193-1.564-5.238-1.056-6.804,1.14-1.564,2.194-1.056,5.238,1.137,6.805l5.667-7.944Z" fill="#fff" opacity=".2" stroke-width="0"/><path d="M67.697,186.454c-1.567,2.194-4.612,2.702-6.807,1.138-2.194-1.566-2.7-4.612-1.135-6.805,1.565-2.194,4.609-2.702,6.805-1.14,2.192,1.565,2.7,4.612,1.137,6.806Z" fill="#49d3f3" stroke-width="0"/><path d="M66.559,179.648c-2.196-1.562-5.24-1.054-6.805,1.14-1.565,2.193-1.059,5.238,1.135,6.805l5.67-7.944Z" fill="#fff" opacity=".2" stroke-width="0"/><path d="M89.37,196.695c-1.565,2.192-4.61,2.701-6.806,1.137-2.196-1.565-2.704-4.612-1.137-6.805,1.563-2.193,4.611-2.703,6.805-1.139,2.194,1.564,2.7,4.611,1.137,6.806Z" fill="#49d3f3" stroke-width="0"/><path d="M88.233,189.889c-2.194-1.564-5.242-1.054-6.805,1.139-1.567,2.193-1.059,5.239,1.137,6.805l5.668-7.943Z" fill="#fff" opacity=".2" stroke-width="0"/><path d="M19.471,212.157c-1.056,1.48-3.11,1.824-4.591.767-1.48-1.056-1.822-3.111-.766-4.591,1.055-1.481,3.111-1.824,4.591-.768,1.48,1.055,1.822,3.111.766,4.592Z" fill="#49d3f3" stroke-width="0"/><path d="M18.705,207.564c-1.48-1.056-3.536-.713-4.591.768-1.056,1.48-.714,3.535.766,4.591l3.825-5.36Z" fill="#fff" opacity=".2" stroke-width="0"/></g><g filter="url(#h)"><path d="M323.502,39.687l9.125-5.106c.815-.489.815-1.684-.109-2.064-8.148-3.476-17.544-4.943-26.181-6.084M307.207,55.982l-5.106,9.125c-.489.815-1.684.815-2.064-.109-3.476-8.148-4.943-17.544-6.084-26.181" fill="#f77539" stroke-width="0"/><path d="M313.019,62.989l17.599-17.599c-3.205-6.029-7.767-11.244-13.525-14.937-6.572-4.182-14.231-6.735-22.161-7.278l-.815-.054c-1.901-.163-3.476,1.412-3.313,3.313l.054.815c.489,7.985,3.096,15.589,7.278,22.161,3.639,5.812,8.854,10.375,14.883,13.579h0Z" fill="#00c8ff" stroke-width="0"/><path d="M322.199,50.008c2.716-2.716,3.042-7.061.76-10.103-2.77-3.639-6.084-6.735-9.886-9.234-6.192-3.911-13.253-6.409-20.64-7.17.543-.326,1.141-.489,1.738-.435l.815.054c7.876.597,15.48,3.096,22.107,7.333,5.758,3.694,10.32,8.908,13.525,14.937l-17.599,17.599c-.869-.435-1.63-.869-2.444-1.358l11.624-11.624h0Z" fill="#1ddaff" stroke-width="0"/><path d="M329.206,47.889l-12.547,12.547,2.987,2.987,12.547-12.547-2.987-2.987Z" fill="#00c8ff" stroke-width="0"/><path d="M325.891,61.088l6.631-6.631,9.258,15.89-15.89-9.258Z" fill="#fb8f3b" stroke-width="0"/><path d="M311.009,34.799c2.34,2.34,2.316,6.158-.054,8.528-2.37,2.37-6.188,2.394-8.528.054-2.341-2.339-2.318-6.157.05-8.528,2.369-2.371,6.187-2.397,8.528-.058l.004.004h0Z" fill="#e9fbfa" stroke-width="0"/></g><path d="M142.24-.454l1.535,1.434c-.523-.457-1.036-.935-1.535-1.434Z" fill="url(#j)" stroke-width="0"/><path d="M139.859,225.042c-.007.02-.007.033-.013.053,0-.013,0-.033-.007-.046.007,0,.013-.007.02-.007Z" fill="url(#k)" stroke-width="0"/><path d="M139.859,225.042c-.007.02-.007.033-.013.053,0-.013,0-.033-.007-.046.007,0,.013-.007.02-.007Z" fill="url(#k)" stroke-width="0"/><path d="M193.205,404.452c-6.115,7.346-14.826,9.913-23.596,12.368-12.223,3.036-25.017,4.06-37.977,4.447-14.016.656-27.879.493-41.529-.837-7.203-1.924-14.294-5.135-21.319-9.213-5.457-7.046-8.638-15.491-8.638-24.573,0-2.605.266-5.166.77-7.652-.259-8.664,8.797-33.949,15.337-64.176,1.029-20.151,2.603-38.384,6.102-49.771,1.461-6.671,4.661-12.818,9.189-18.077,1.54-1.811,3.246-3.51,5.092-5.091,4.349-3.742,9.481-6.821,15.164-9.057,3.247-3.286,6.786-5.834,8.253-3.342,4.11-3.667,8.843-6.265,11.785-4.985,1.069,1.118,1.507,2.324,1.5,3.567,16.313-3.898,19.36-1.174,18.849,2.005,0,.013-.007.031-.007.044-.086.487-.245.981-.458,1.468,2.198.7,4.322,1.524,6.361,2.467,1.049.475,2.072.987,3.067,1.524,5.199,2.792,9.78,6.353,13.524,10.494,4.389,4.853,7.635,10.5,9.381,16.647.239.824.452,1.655.631,2.499,3.466,11.4,5.02,29.552,6.055,49.609,1.766,8.164,3.718,15.972,5.617,23.187-.617,5.203,4.382,22.545,3.685,26.98.805,14.388-1.279,14.224-1.882,22.365-3.018,9.277-2.287,9.31-4.956,17.105Z" fill="url(#l)" stroke-width="0"/><path d="M209.385,386.434c0,24.598-23.304,44.543-52.059,44.543-1.66,0-3.306-.063-4.926-.2h-35.182c-1.62.137-3.266.2-4.926.2-17.103,0-32.274-7.058-41.761-17.952-.577-.662-1.128-1.331-1.66-2.018,7.024,4.079,14.115,7.29,21.319,9.213,13.651,1.33,27.514,1.493,41.529.837,12.96-.387,25.754-1.412,37.977-4.447,8.771-2.455,14.214-7.232,20.328-14.578,4.856-7.268,7.836-13.943,7.65-23.794.053-8.739.005-5.719.709-16.138.697-4.435-2.554-19.104-1.937-24.308,1.76,6.696,3.486,12.874,4.973,18.371,1.54,5.678,3.479,11.244,5.531,16.772.292.793.558,1.593.803,2.399,1.062,3.548,1.633,7.271,1.633,11.1Z" fill="#5943b2" stroke-width="0"/><path d="M183.372,417.575c.27-.09.534-.192.786-.312-.252.126-.516.228-.786.312Z" fill="#473f93" stroke-width="0"/><path d="M183.372,417.575c.27-.09.534-.192.786-.312-.252.126-.516.228-.786.312Z" fill="#473f93" stroke-width="0"/><path d="M183.372,417.575c.27-.09.534-.192.786-.312-.252.126-.516.228-.786.312Z" fill="#473f93" stroke-width="0"/><path d="M139.818,378.44c.182,0,.363.007.552.007h-.218c-.109,0-.225,0-.334-.007Z" fill="url(#m)" stroke-width="0"/><path d="M174.226,380.996l-.04.04c-1.069,1.062-2.516,2.317-4.461,3.778-.1.073-.179.159-.232.259-.405.359-.478.983-.153,1.428.219.285.538.438.876.438,0,0,1.301,28.33-36.038,27.274-34.704-3.147-38.21-29.943-38.21-29.943.066.027.332.126.81.266l.006.007c2.503,1.242,10.676,4.687,24.386,4.687,5.65,0,12.236-.591,19.759-2.151,6.062-1.261,12.103-3.107,18.045-5.517,1.295-.531,2.59-1.082,3.878-1.66.963-.432,1.919-.876,2.868-1.341.737-.352,1.474-.717,2.204-1.089,4.083-2.078,8.173-2.012,8.83-.956.332.538-.027,1.979-2.53,4.482Z" fill="url(#n)" stroke-width="0"/><path d="M170.92,386.407c-.445.325-1.069.239-1.394-.199-.259-.345-.266-.803-.033-1.135.053-.1.133-.186.232-.259,1.945-1.461,3.393-2.716,4.461-3.778l.04-.04c2.503-2.503,2.862-3.944,2.53-4.482-.657-1.056-4.747-1.122-8.83.956-.73.372-1.467.737-2.204,1.089-.949.465-1.906.91-2.868,1.341-1.288.578-2.583,1.129-3.878,1.66-5.942,2.41-11.984,4.256-18.045,5.517-7.522,1.56-14.109,2.151-19.759,2.151-13.71,0-21.883-3.446-24.386-4.687l-.006-.007c-.465-.232-.737-.385-.81-.425-.471-.279-.631-.89-.352-1.368.279-.471.89-.631,1.361-.352.08.046,4.302,2.443,12.429,3.831,3.339.571,7.336.976,11.977.976,5.491,0,11.878-.564,19.134-2.071,6.971-1.447,13.916-3.692,20.715-6.686,1.945-.85,3.877-1.766,5.789-2.742,4.243-2.158,9.846-2.769,11.426-.239,1.494,2.404-1.042,6.082-7.529,10.948Z" fill="#473f93" stroke-width="0"/><path d="M133.861,319.975c-22.254-1.63-31.555-7.412-35.441-12.048-1.414-1.687.835-3.606,3.263-2.781,5.166,1.757,14.739,3.881,32.467,5.636,16.504,1.631,25.999,1.044,31.458-.13,2.586-.556,4.771,1.79,2.991,3.253-4.705,3.866-14.471,7.555-34.737,6.071Z" fill="url(#o)" stroke-width="0"/><path d="M165.351,293.454v.007c-.183,1.084-1.648,2.125-3.938,2.797-.425.126-.871.235-1.322.33l-.25-.022c-1.239-.115-2.487-.231-3.735-.341l-2.353-.223c-.498-.051-.998-.094-1.482-.136-2.72-.258-5.433-.509-8.088-.774-5.637-.567-10.028-1.103-13.833-1.689-1.458-.224-3.099-.449-4.809-.689-3.187-.445-6.49-.911-9.471-1.451-3.013-.544-5.156-1.078-6.567-1.633-.505-.198-.906-.405-1.204-.608l-.093-.06c-.025-.013-.049-.026-.073-.039-1.453-.784-1.234-2.707.358-3.297.512-.19,1.027-.371,1.48-.529,1.631-.567,3.473-1.214,5.239-2.066,2.162-1.044,4.377-2.355,6.521-3.617,1.495-.89,2.91-1.727,4.311-2.481,5.048-2.718,9.161-3.879,12.454-3.498,1.507.174,2.841.671,4.002,1.49l12.728,10.59.216.179c.493.414.996.814,1.489,1.179,1.868,1.419,4.021,2.793,6.755,4.333,1.194.669,1.788,1.472,1.666,2.249Z" fill="url(#p)" stroke-width="0"/><path d="M127.634,289.584h0c-.256.231-.694.246-.972.033l-2.224-1.7c-.278-.213-.296-.576-.04-.807h0c.256-.231.694-.246.972-.033l2.224,1.7c.278.213.296.576.04.807Z" fill="#473f93" stroke-width="0"/><path d="M144.896,291.97l-.049-.054c-.215-.235-.159-.574.125-.753l2.047-1.288c.284-.179.692-.132.907.103l.049.054c.215.235.159.574-.125.753l-2.047,1.288c-.284.179-.692.132-.907-.103Z" fill="#473f93" stroke-width="0"/><ellipse cx="101.815" cy="273.686" rx="2.898" ry="5.164" transform="translate(-183.957 333.725) rotate(-81.459)" fill="url(#q)" stroke-width="0"/><ellipse cx="170.51" cy="282.171" rx="2.898" ry="5.164" transform="translate(-133.855 408.883) rotate(-81.459)" fill="url(#r)" stroke-width="0"/><path d="M126.372,268.312c-.963,6.415-6.999,10.826-13.481,9.852-6.482-.973-10.956-6.963-9.992-13.378.963-6.415,7-10.83,13.482-9.857,6.482.973,10.955,6.967,9.992,13.382Z" fill="url(#s)" stroke-width="0"/><path d="M149.742,272.207c-.865,5.757,3.151,11.133,8.968,12.006,5.817.874,11.235-3.085,12.099-8.842.865-5.757-3.15-11.136-8.968-12.01-5.817-.874-11.235,3.089-12.1,8.846Z" fill="url(#t)" stroke-width="0"/><path d="M112.845,279.586c-7.062-1.061-11.944-7.668-10.884-14.73,1.061-7.062,7.668-11.944,14.73-10.884,7.062,1.061,11.944,7.668,10.884,14.73-1.061,7.062-7.668,11.944-14.73,10.884ZM116.467,255.468c-6.238-.937-12.074,3.376-13.011,9.613-.937,6.238,3.376,12.074,9.613,13.011,6.238.937,12.074-3.376,13.011-9.613.937-6.238-3.376-12.074-9.613-13.011Z" fill="#473f93" stroke-width="0"/><path d="M158.632,285.484c-6.457-.97-10.921-7.011-9.951-13.468.97-6.457,7.011-10.921,13.468-9.951,6.457.97,10.921,7.011,9.951,13.468-.97,6.457-7.011,10.921-13.468,9.951ZM161.943,263.432c-5.703-.856-11.039,3.086-11.896,8.789-.856,5.703,3.086,11.039,8.789,11.896,5.703.856,11.039-3.086,11.896-8.789.856-5.703-3.086-11.039-8.789-11.896Z" fill="#473f93" stroke-width="0"/><path d="M149.917,270.209c-10.216-10.488-22.121-3.756-22.623-3.464l-.708-1.295c.132-.077,13.357-7.597,24.36,3.7l-1.03,1.059Z" fill="#473f93" stroke-width="0"/><circle cx="157.37" cy="273.312" r="1.269" fill="#fff" stroke-width="0"/><circle cx="113.936" cy="270.35" r="3.945" fill="#37294f" stroke-width="0"/><circle cx="158.462" cy="276.273" r="3.945" fill="#37294f" stroke-width="0"/><path d="M100.164,250.609c-.132,0-.266-.042-.38-.128-.277-.21-.332-.605-.121-.883.059-.078,6.014-7.733,16.546-4.836.335.092.532.439.44.775-.092.335-.441.532-.775.44-9.716-2.674-15.154,4.312-15.207,4.383-.124.163-.312.249-.503.249Z" fill="#473f93" stroke-width="0"/><path d="M175.449,260.898c-.211,0-.417-.106-.537-.299-5.283-8.549-13.764-7.204-14.123-7.143-.343.057-.669-.17-.728-.514-.06-.342.169-.668.512-.728.094-.017,9.668-1.571,15.411,7.723.183.296.091.684-.205.867-.103.064-.217.094-.33.094Z" fill="#473f93" stroke-width="0"/><path d="M128.103,315.173c1.666.901,4.471,3.383,7.427,6.073-2.79,2.176-5.675,3.956-8.686,5.212-1.368.821-3.468.076-3.327-1.181-.376-3.291-.111-6.462,1.036-9.289.141-1.257,2.38-1.77,3.55-.814Z" fill="#4be0e0" stroke-width="0"/><path d="M142.76,316.976c-1.835.471-5.158,2.199-8.677,4.092,2.179,2.787,4.548,5.213,7.165,7.161,1.129,1.128,3.346.913,3.514-.34,1.162-3.102,1.674-6.243,1.245-9.264.168-1.253-1.88-2.294-3.247-1.65Z" fill="#4be0e0" stroke-width="0"/><path d="M136.254,323.765l-3.053-.249c-.508-.041-.886-.487-.845-.995-.212-.954-.147-1.834.214-2.637.041-.508.487-.886.995-.845l3.053.249c.508.041.886.487.845.995.158.816.032,1.71-.214,2.637-.041.508-.487.886-.995.845Z" fill="#40c0c6" stroke-width="0"/><path d="M428.292,198.468s56.36,24.42,4.514-30.16l-5.8,15.576,1.286,14.584Z" fill="url(#u)" stroke-width="0"/><path d="M368.576,294.394c-4.37,18.499,19.304,28.634,46.074,21.036,21.79-6.178,39.616-25.515,40.337-36.269-4.8,10.896-20.398,25.549-38.838,30.78-25.335,7.184-47.888-1.5-46.543-18.127-.462.763-.802,1.618-1.03,2.581Z" fill="url(#v)" stroke-width="0"/><path d="M369.609,291.807s-.008.002-.003.005c-1.346,16.628,21.207,25.311,46.543,18.127,18.44-5.231,34.038-19.884,38.838-30.78l.006-.011c.044-.631.027-1.227-.051-1.794-1.42-10.233-21.484,2.078-45.248,5.373-21.478,2.975-35.789,1.89-40.084,9.078Z" fill="url(#w)" stroke-width="0"/><path d="M256.365,240.004c1.05,10.299,1.378,11.589,7.87,19.885.218-.12.452-.227.723-.291,17.254,25.45,45.579,42.768,74.089,54.862.054-.979.198-2.052.563-3.096-.274,1.07-.392,2.158-.428,3.163,2.822,1.982,6.027,1.396,9.191,2.451-.017-.009-.036-.014-.054-.023,7.734,2.676,15.893,3.964,23.551,6.902.124-.314.231-.598.31-.787l-.004-.002c.508-1.233.939-2.28,1.455-3.468,7.656-4.865,12.724-10.924,16.912-18.934,4.212-8.965,7.018-18.785,11.486-27.611,9.093-19.631,21.016-44.761,20.176-66.124-11.065,6.64-24.712,9.763-37.387,7.899-3.993,7.145-9.948,13.036-17.268,16.63l-.005.009c-7.202,3.569-15.704,4.693-23.475,2.443.005-.003.798-2.104.802-2.11-3.064-1.094-5.908-2.624-8.551-4.515-.04-.027-.082-.053-.115-.083-.017-.009-.028-.02-.041-.027-.006-.016-.019-.01-.025-.025-.793-.58-1.246-1.574-1.975-2.245h0c-8.746-11.623-5.391-24.814,2.092-37.152-.954-1.514-6.381-10.071-7.176-12.133-2.434,3.43-8.665,6.987-11.297,10.3.124.253.245.511.353.772.361.762.667,1.554.939,2.357.06.148.103.309.153.456.014.046.032.094.042.138.032.07.044.145.068.223.004.002.002.007.006.009.258.807.456,1.629.632,2.457l-.002.004c.102.423-.006.901-.349,1.179-.007-.004-.014.015-.022.01-.02.017-.049.04-.075.048-.081.045-.179.086-.272.108-.076.02-.17.034-.246.028-.38.016-.766-.145-1.045-.393-.009-.006-.019-.006-.023-.018-.004-.002-.009-.005-.011-.011-.019-.012-.036-.026-.049-.043-.026-.02-.051-.046-.072-.071-.013-.007-.019-.016-.027-.031-.007.002-.004-.002-.006-.009-.081-.074-.148-.172-.212-.262-.14-.203-.238-.435-.301-.673l.002-.004c-.181-.692-.345-1.392-.559-2.077-1.317-4.151-3.837-7.872-7.488-10.219-7.399-4.528-6.937,15.606-7.499,19.781.042.766.033,1.844-.933,1.985l-.004-.002c-.117.022-.231.034-.342.021-.915-.038-1.129-1.852-1.947-1.529-20.015,7.883-40.286,21.904-42.127,39.851Z" fill="url(#x)" stroke-width="0"/><path d="M322.99,188.542c.2.997.07,2.035-.342,2.964-3.656,8.253-9.537,12.773-17.936,13.81-2.768.341-5.369-1.528-6.042-4.338-2.345-9.753-1.523-21.582,2.436-35.21.797-2.745,3.756-4.294,6.43-3.285,8.028,3.031,12.752,12.557,15.454,26.058Z" fill="url(#y)" stroke-width="0"/><path d="M384.817,214.828c-.251.295-.432.623-.565.976.193-.321.382-.644.565-.976Z" fill="#e2eddf" stroke-width="0"/><path d="M344.872,231.8l-.797,2.102-.005.009c.028.009.058.015.086.024s.058.015.089.02c.608.171,1.223.328,1.843.456.726.156,1.459.289,2.197.38.294.047.589.083.877.11.089.009.178.018.262.024.26.029.525.049.789.069.26.018.52.036.79.047.117.007.234.015.354.018.124.006.245.004.365.008.076.002.156.006.245.004.215.01.437.007.654.002.137.001.274.003.419-.002.207-.005.417-.008.626-.018.281-.01.568-.022.851-.047.194-.012.381-.022.568-.043.176-.011.35-.028.522-.04.248-.022.495-.05.741-.078.244-.035.489-.069.733-.104.092-.017.185-.028.281-.043.096-.015.192-.03.284-.047.617-.094,1.244-.217,1.861-.35.205-.044.407-.091.61-.142.949-.231,1.888-.495,2.818-.803.309-.105.621-.214.928-.325.239-.087.472-.172.707-.261.235-.089.472-.183.701-.281.083-.033.163-.067.242-.102.602-.251,1.196-.518,1.784-.804.079-.035.165-.072.249-.115l.005-.009c.183-.084.365-.179.546-.27-.508.147-1.014.29-1.532.426-.09.024-.19.047-.293.075-.28.071-.54.135-.835.204-.291.07-.516.121-.844.188-.328.067-.728.157-1.092.221-1.087.201-2.196.369-3.301.501-.235.028-.475.055-.719.079-.734.065-1.465.115-2.209.147-.109.008-.204.012-.339.017-.133.012-.157.015-.357.019-.2.003-.6.021-.863.029-.261.004-.63.005-.885.007-.252-.002-.402-.011-.638-.011-.241-.002-.423-.011-.69-.027-.265-.009-.718-.037-.983-.057-.269-.022-.522-.042-.744-.061-.217-.017-.301-.034-.507-.05-.208-.023-.577-.055-.759-.075-.178-.018-.169-.013-.318-.032-.147-.013-.273-.025-.44-.042-.167-.018-.219-.023-.446-.051-.232-.03-.639-.082-.929-.127-.288-.038-.636-.087-.937-.142-.099-.02-.214-.032-.316-.048-.329-.065-.723-.111-1.036-.195-.393-.11-.806-.243-1.211-.382Z" fill="#e2eddf" stroke-width="0"/><path d="M331.27,222.7c.197.342.401.671.61,1.003.202.312.411.632.627.94.015.024.033.051.055.073.167.243.339.489.517.722.084.122.174.241.266.357.029.038.055.073.084.111l.44-.618c-.202-.179-.42-.378-.564-.51-.21-.195-.407-.393-.54-.514-.127-.123-.142-.136-.21-.205-.214-.219-.41-.417-.609-.622-.192-.207-.401-.434-.577-.622-.034-.04-.065-.073-.099-.114Z" fill="#e2eddf" stroke-width="0"/><path d="M387.454,293.62c-.447,1.033-.894,2.055-1.349,3.073-.099.228-.208.451-.322.665.11-.217.218-.44.318-.667.455-1.018.902-2.04,1.353-3.071ZM378.659,308.145c.529-.62,1.048-1.252,1.548-1.899-.5.647-1.014,1.281-1.548,1.899ZM402.816,259.676c-1.574,3.547-3.242,7.084-5.018,10.617-2.107,4.205-4.066,8.637-5.982,13.103,1.912-4.468,3.866-8.903,5.975-13.101,1.774-3.54,3.446-7.074,5.025-10.619ZM370.516,315.541c.671-.473,1.327-.96,1.971-1.464.639-.507,1.266-1.031,1.88-1.573-.61.544-1.237,1.068-1.88,1.573-.639.507-1.295.993-1.971,1.464ZM411.233,238.349c-.612,1.755-1.241,3.5-1.882,5.238.642-1.738,1.266-3.486,1.882-5.238ZM417.06,220.049s-.003-.128.003-.345c.024-.004.048-.007.072-.011-.016.102-.026.173-.046.251-.009.028-.015.058-.024.086.002.007,0,.011-.003.015l-.002.004ZM368.457,316.891c.139-.085.272-.169.407-.256-.131.09-.265.178-.402.259-.185.43-.362.853-.534,1.279.172-.426.344-.851.53-1.281ZM316.209,188.641c.016.042.028.081.04.121.012.029.025.057.037.086-.018-.059-.04-.121-.065-.178-.002-.007-.008-.015-.012-.029ZM318.899,188.562c-.069-.192-.14-.383-.214-.572.074.19.145.38.214.572ZM318.556,187.647c-.041-.099-.084-.204-.127-.299.019.037.033.073.045.112.073.174.141.352.21.53-.044-.114-.083-.23-.129-.343ZM319.069,189.017c-.054-.153-.115-.302-.17-.455.056.154.113.308.166.463,0,.011.006.02.01.022s.006.009.008.015c-.008-.015-.012-.029-.014-.046ZM319.276,189.65c-.062-.193-.126-.392-.193-.587.038.114.079.235.112.357.028.07.057.151.081.23ZM317.904,193.262c-.026-.014-.043-.034-.064-.056.025.025.051.049.076.074l.006.003c.01.008.018.018.028.026.032.033.064.056.1.081.117.09.246.159.383.21-.054-.023-.112-.049-.163-.076-.06-.032-.113-.066-.169-.107-.049-.032-.092-.065-.138-.101-.006-.009-.015-.013-.023-.018-.004-.002-.009-.005-.011-.011-.006-.009-.019-.016-.025-.025ZM319.042,193.709l-.004-.002-.002.004.007-.002ZM319.264,193.674s-.015.008-.022.01c.031-.006.057-.014.085-.026q-.006.002-.011,0c-.02.006-.033.01-.053.016ZM319.35,193.648c-.009.006-.015.008-.022.01.011,0,.018-.002.026-.008l-.004-.002Z" fill="#43b6bb" stroke-width="0"/><path d="M339.43,263.93c-.199.146-.406.272-.623.39.218-.115.425-.243.623-.39Z" fill="#43b6bb" stroke-width="0"/><path d="M333.851,264.251c.262.107.523.197.797.271-.272-.079-.532-.168-.797-.271Z" fill="#43b6bb" stroke-width="0"/><path d="M357.824,239.221c-1.874,1.596-3.61,3.292-5.084,5.257-.219.292-.359.54-.55.839.191-.299.335-.545.554-.837,1.475-1.965,3.206-3.664,5.08-5.26Z" fill="#43b6bb" stroke-width="0"/><path d="M295.531,231.346c-.097-.107-.179-.2-.255-.285.069.087.154.176.255.285Z" fill="#43b6bb" stroke-width="0"/><path d="M294.591,230.081c-.114-.214-.204-.438-.286-.666.077.23.168.453.286.666Z" fill="#43b6bb" stroke-width="0"/><path d="M336.225,227.217c.011.011.023.018.036.025t-.006-.009l-.009-.005-.021-.011Z" fill="url(#z)" stroke-width="0"/><path d="M336.159,227.165s.004.002.006.009l.026.014c-.013-.007-.021-.011-.032-.023Z" fill="url(#aa)" stroke-width="0"/><path d="M348.372,316.976c.271.09.545.186.818.293-.232-.096-.49-.185-.723-.265-.032-.012-.067-.019-.095-.029ZM333.851,264.251c.262.107.523.197.797.271-.272-.079-.532-.168-.797-.271Z" fill="#43b6bb" stroke-width="0"/><path d="M331.27,222.7c.197.342.401.671.61,1.003.202.312.411.632.627.94.015.024.033.051.055.073.167.243.339.489.517.722.084.122.174.241.266.357.029.038.055.073.084.111l.44-.618c-.202-.179-.42-.378-.564-.51-.21-.195-.407-.393-.54-.514-.127-.123-.142-.136-.21-.205-.214-.219-.41-.417-.609-.622-.192-.207-.401-.434-.577-.622-.034-.04-.065-.073-.099-.114ZM344.872,231.8l-.797,2.102-.005.009c.028.009.058.015.086.024s.058.015.089.02c.608.171,1.223.328,1.843.456.726.156,1.459.289,2.197.38.294.047.589.083.877.11.089.009.178.018.262.024.26.029.525.049.789.069.26.018.52.036.79.047.117.007.234.015.354.018.124.006.245.004.365.008.076.002.156.006.245.004.215.01.437.007.654.002.137.001.274.003.419-.002.207-.005.417-.008.626-.018.281-.01.568-.022.851-.047.194-.012.381-.022.568-.043.176-.011.35-.028.522-.04.248-.022.495-.05.741-.078.244-.035.489-.069.733-.104.092-.017.185-.028.281-.043.096-.015.192-.03.284-.047.617-.094,1.244-.217,1.861-.35.205-.044.407-.091.61-.142.949-.231,1.888-.495,2.818-.803.309-.105.621-.214.928-.325.239-.087.472-.172.707-.261.235-.089.472-.183.701-.281.083-.033.163-.067.242-.102.602-.251,1.196-.518,1.784-.804.079-.035.165-.072.249-.115l.005-.009c.183-.084.365-.179.546-.27-.508.147-1.014.29-1.532.426-.09.024-.19.047-.293.075-.28.071-.54.135-.835.204-.291.07-.516.121-.844.188-.328.067-.728.157-1.092.221-1.087.201-2.196.369-3.301.501-.235.028-.475.055-.719.079-.734.065-1.465.115-2.209.147-.109.008-.204.012-.339.017-.133.012-.157.015-.357.019-.2.003-.6.021-.863.029-.261.004-.63.005-.885.007-.252-.002-.402-.011-.638-.011-.241-.002-.423-.011-.69-.027-.265-.009-.718-.037-.983-.057-.269-.022-.522-.042-.744-.061-.217-.017-.301-.034-.507-.05-.208-.023-.577-.055-.759-.075-.178-.018-.169-.013-.318-.032-.147-.013-.273-.025-.44-.042-.167-.018-.219-.023-.446-.051-.232-.03-.639-.082-.929-.127-.288-.038-.636-.087-.937-.142-.099-.02-.214-.032-.316-.048-.329-.065-.723-.111-1.036-.195-.393-.11-.806-.243-1.211-.382ZM384.253,215.804c.193-.321.382-.644.565-.976-.251.295-.432.623-.565.976ZM417.064,219.705c-.006.217-.007.343-.003.345l.002-.004s.005-.009.003-.015c.009-.028.015-.058.024-.086.02-.078.03-.149.046-.251-.024.004-.048.007-.072.011ZM333.852,264.251c.262.107.523.197.797.271-.272-.079-.532-.168-.797-.271ZM339.74,311.119c.108-.151.246-.276.403-.374-.163.089-.301.214-.403.374Z" fill="#43b6bb" stroke-width="0"/><path d="M333.851,264.251c.262.107.523.197.797.271-.272-.079-.532-.168-.797-.271Z" fill="#43b6bb" stroke-width="0"/><path d="M295.531,231.346c-.097-.107-.179-.2-.255-.285.069.087.154.176.255.285Z" fill="#43b6bb" stroke-width="0"/><path d="M333.851,264.251c.262.107.523.197.797.271-.272-.079-.532-.168-.797-.271Z" fill="#43b6bb" stroke-width="0"/><path d="M319.61,193.523c.007-.002.011-.011.015-.008.011-.011.022-.021.033-.032-.013.015-.031.027-.049.04Z" fill="#43b6bb" stroke-width="0"/><path d="M319.242,193.684c.031-.006.057-.014.085-.026q-.006.002-.011,0c-.02.006-.033.01-.053.016-.002.004-.015.008-.022.01Z" fill="#43b6bb" stroke-width="0"/><path d="M317.964,193.316c-.007.002-.009-.005-.013-.007.032.033.064.056.1.081-.032-.023-.057-.047-.087-.074Z" fill="#43b6bb" stroke-width="0"/><path d="M317.923,193.283c-.028-.024-.057-.047-.083-.077.025.025.051.049.076.074l.006.003Z" fill="#43b6bb" stroke-width="0"/><path d="M317.93,193.286l-.006-.003c.01.008.018.018.028.026-.004-.002-.009-.005-.011-.011-.004-.002-.009-.005-.011-.011Z" fill="#43b6bb" stroke-width="0"/><path d="M295.531,231.346c-.097-.107-.179-.2-.255-.285.069.087.154.176.255.285Z" fill="#43b6bb" stroke-width="0"/><path d="M318.136,186.691c.031.066.057.13.082.198.09.191.168.387.249.585.212.51.414,1.03.597,1.552,0,.011.006.02.01.022v.011c.04.121.08.241.12.362.051.143.096.294.142.445-.02-.077-.04-.142-.062-.215-.062-.193-.126-.392-.193-.587-.008-.015-.012-.029-.014-.046-.054-.153-.115-.302-.17-.455-.069-.192-.14-.383-.214-.572-.044-.114-.083-.23-.129-.343-.026-.064-.053-.127-.082-.187-.012-.039-.026-.075-.045-.112-.037-.086-.076-.178-.117-.266-.028-.081-.065-.156-.1-.235-.022-.051-.047-.097-.07-.147q-.002-.007-.006-.009Z" fill="#43b6bb" stroke-width="0"/><path d="M316.124,188.43c.01.022.018.048.029.07l-.012-.039c-.006-.009-.013-.018-.017-.031Z" fill="url(#ab)" stroke-width="0"/><path d="M300.979,201.607c.289-.099.519-.301.631-.594.012-.032.023-.065.035-.097.014-.037.019-.067.022-.104-.022.093-.053.181-.092.265l-.005.009c-.039.073-.086.141-.136.203-.009.006-.016.019-.027.03-.049.051-.103.099-.162.139l-.033.032c-.073.044-.15.085-.233.118Z" fill="#43b6bb" stroke-width="0"/><path d="M301.702,200.512c-.006.063-.012.126-.018.189-.003.037-.011.071-.014.108.007-.035.015-.069.018-.106.006-.063.012-.126.014-.191Z" fill="#43b6bb" stroke-width="0"/><path d="M301.717,199.546c.003.035.002.067,0,.104.002.007.002.017.001.028.005-.009.003-.015.003-.026-.003-.035,0-.072-.004-.107Z" fill="#43b6bb" stroke-width="0"/><path d="M301.785,198.272c-.02.275-.039.547-.059.822-.004.059-.005.113-.005.174.004-.059.005-.113.009-.171.02-.275.037-.553.055-.824Z" fill="#43b6bb" stroke-width="0"/><path d="M299.277,201.227c.027.031.064.056.1.081.013.007.028.02.045.029-.049-.032-.1-.07-.145-.11Z" fill="#43b6bb" stroke-width="0"/><path d="M298.948,200.886c.036.047.073.1.109.146.006.009.011.011.017.02.017.02.036.036.059.054.027.031.057.058.089.081.015.013.034.029.055.041-.123-.099-.227-.215-.33-.341Z" fill="#43b6bb" stroke-width="0"/><path d="M298.803,200.693c.01.022.019.037.029.049.006.009.017.02.023.029.008.015.023.029.031.044.021.022.04.049.061.071-.017-.02-.036-.047-.053-.067-.027-.042-.067-.08-.092-.126Z" fill="#43b6bb" stroke-width="0"/><path d="M304.893,180.612c-.229.511-.442,1.025-.636,1.543.198-.516.408-1.032.641-1.541.12-.266.259-.495.414-.693-.155.198-.298.424-.418.691Z" fill="#43b6bb" stroke-width="0"/><path d="M233.175,239.431c.307.401.661.774,1.059,1.113l12.604,10.762c5.996.783,9.483-1.798,9.722-1.988.901-.692,1.066-1.981.373-2.882-.692-.892-1.965-1.067-2.867-.391-.351.257-7.705,5.311-20.525-6.347-.112-.104-.236-.194-.367-.267Z" fill="#348885" stroke-width="0"/><path d="M235.015,227.731l-1.64,1.921c-2.327,2.726-2.415,6.636-.444,9.45.078.111.158.218.239.326l.004.003c.13.072.257.162.369.264,7.941,7.222,13.782,8.032,17.168,7.545,2.074-.305,3.224-1.098,3.358-1.195.901-.674,2.172-.502,2.866.391.694.899.527,2.187-.372,2.882-.24.191-3.726,2.77-9.723,1.986l12.886,11.003c.894.763,2.253.66,3.02-.238l7.768-9.097-14.147-12.968-14.962-12.776c-1.895-1.618-4.771-1.391-6.389.504Z" fill="#43b6bb" stroke-width="0"/><path d="M354.539,233.09c.085.007.176.011.287.01.254-.002.624-.003.885-.007.263-.008.663-.026.863-.029.2-.003.224-.007.357-.019.135-.005.231-.009.339-.017.744-.032,1.475-.082,2.209-.147.244-.024.484-.05.719-.079,1.105-.131,2.213-.299,3.301-.501.365-.064.765-.153,1.092-.221.328-.067.553-.118.844-.188.295-.068.555-.133.835-.204.103-.028.203-.051.293-.075.519-.136,1.024-.279,1.532-.426.046-.025.093-.05.139-.074.187-.093.375-.196.555-.298.251-.13.5-.267.743-.402.232-.135.466-.274.7-.414.216-.127.422-.254.63-.385.252-.152.501-.31.743-.473.073-.044.144-.094.212-.14.172-.106.336-.217.502-.332.171-.124.352-.247.525-.375,1.005-.708,1.982-1.475,2.927-2.297,1.008-.877,1.984-1.809,2.917-2.803.25-.263.499-.532.739-.806,1.782-1.977,3.406-4.183,4.821-6.576l.005-.009c.112-.293.254-.569.443-.82-1.105-.034-2.209-.1-3.321-.193-.371-.027-.737-.063-1.108-.101-.266-.027-.533-.053-.804-.082-.216-.028-.435-.051-.652-.078-.227-.028-.455-.056-.68-.088-.31-.039-.61-.084-.918-.127-.183.332-.372.655-.565.976l-.005.009c-1.415,2.394-3.039,4.599-4.821,6.576-1.152,1.301-2.379,2.496-3.655,3.609-.945.822-1.922,1.589-2.927,2.297-.173.128-.354.251-.525.375-.235.161-.471.316-.714.472-.241.163-.491.322-.743.473-.208.131-.413.258-.63.385-.234.139-.468.279-.7.414-.243.135-.492.271-.743.402-.181.102-.368.205-.556.298-.046.025-.093.05-.139.074-.181.091-.363.186-.546.27l-.005.009c-.084.043-.169.08-.249.115-.588.286-1.181.553-1.784.804-.079.035-.158.07-.242.102-.229.098-.466.192-.701.281-.235.089-.467.174-.707.261-.307.111-.619.22-.928.325-.267.088-.533.173-.793.248Z" fill="#c2cfbd" stroke-width="0"/><path d="M269.605,270.546c-.069-.103.064.108,0,0-8.685-2.243-17.088-13.119-22.25-19.65l.011-.009c-.129-.184-.276-.4-.462-.64l.011-.009c-.648-.891-1.645-2.156-2.86-3.654,10.63-10.901,6.301-22.335,5.485-24.222,1.22.704,2.452,1.522,3.691,2.458,2.409,1.816,4.71,3.972,6.818,6.435,9.755,11.401,14.969,30.356,9.557,39.292Z" fill="url(#ac)" stroke-width="0"/><path d="M244.054,246.582c-5.295-6.522-14.804-17.468-18.094-21.325,5.715-6.971,14.46-8.124,23.579-2.898.816,1.887,5.145,13.321-5.485,24.222Z" fill="url(#ad)" stroke-width="0"/><path d="M247.875,241.695s17.365,9.5,23.64,23.341" fill="none" stroke-width="0"/><path d="M244.054,246.582c-.016.014-.034.038-.05.052" fill="none" stroke-width="0"/><path d="M231.8,232.216l-2.968,2.54c-1.977-2.3-3.602-4.188-4.451-5.191.19-1.388.557-2.548,1.061-3.503l.005-.005c.133-.266.286-.51.442-.739l.178.208c1.235,1.443,3.325,3.874,5.733,6.689Z" fill="url(#ae)" stroke-width="0"/><path d="M237.941,239.393l-2.968,2.54c-2.12-2.5-4.285-5.019-6.14-7.176l2.968-2.54c1.935,2.25,4.071,4.747,6.14,7.176Z" fill="url(#af)" stroke-width="0"/><path d="M244.004,246.635l-2.963,2.535c-1.731-2.112-3.878-4.665-6.069-7.238l2.968-2.54c2.219,2.616,4.357,5.158,6.064,7.242Z" fill="url(#ag)" stroke-width="0"/><path d="M247.344,250.905c.78.967,1.64,2.017,2.565,3.108l-3.007,2.573c-.897-1.104-1.742-2.159-2.526-3.141" fill="url(#ah)" stroke-width="0"/><path d="M244.381,253.44c-.622-.893-1.815-2.41-3.34-4.27l2.963-2.535c1.22,1.493,2.224,2.744,2.883,3.625l-.005.005c.186.24.339.451.468.636" fill="url(#ai)" stroke-width="0"/><path d="M256.324,260.955l-3.21,2.746c-2.241-2.341-4.337-4.824-6.212-7.115l3.007-2.573c1.9,2.232,4.083,4.65,6.415,6.942Z" fill="url(#aj)" stroke-width="0"/><path d="M263.627,267.136l-3.385,2.897c-2.461-1.743-4.864-3.963-7.128-6.331l3.21-2.746c2.331,2.291,4.81,4.456,7.303,6.181Z" fill="url(#ak)" stroke-width="0"/><path d="M266.647,273.219c-2.138-.566-4.287-1.701-6.405-3.187l3.385-2.897c1.929,1.343,3.872,2.427,5.766,3.106.069.103.143.201.212.303l-2.958,2.674Z" fill="url(#al)" stroke-width="0"/><path d="M295.681,289.908c8.639,8.781,20.483,15.528,32.569,18.553,21.937,9.549,40.125,14.552,50.836,10.505,25.715-15.504,46.442-86.68,42.453-112.417l-8.042,15.965c-5.712,11.323-9.443,23.541-11.043,36.119-.76,6.003-2.613,11.79-5.44,17.086-1.506,2.821-3.29,5.501-5.331,8-3.794,4.645-8.306,10.171-13.365,14.579-5.059,4.408-10.671,7.693-16.668,7.848-5.126.139-11.323-.576-17.502-1.563-6.17-.99-12.324-2.248-17.366-3.194l-31.102-11.48Z" fill="url(#am)" stroke-width="0"/><path d="M333.499,139.157c.2,2.092,1.173,3.975,2.665,5.447-10.991,9.753-12.238,32.879-.696,42.37-6.417,10.756-11.297,29.698.289,39.887,1.621,1.513,3.42,2.781,5.336,3.804,8.376,4.472,19.05,4.296,27.527-.059l.006-.011c6.8-3.321,12.394-8.867,16.067-15.467,21.39,3.261,39.53-4.961,47.623-19.712,2.046.499,4.126.334,5.971-.619,4.845-2.509,6.205-9.491,3.049-15.589-1.167-2.26-2.791-4.075-4.619-5.351-.359-4.694-1.473-9.647-3.447-14.793-6.955-14.545-19.535-28.265-35.374-33.338,2.766.849,5.443,1.917,7.996,3.191-16.339-9.936-38.787-11.074-55.586-1.353l.005.003-.071.03.065-.033c-.665-.096-1.344-.165-2.033-.178l-.003.005c-7.557-.474-15.59,5.285-14.773,11.765ZM392.839,124.431c1.706.331,3.388.758,5.029,1.286-1.647-.504-3.329-.931-5.029-1.286Z" fill="url(#an)" stroke-width="0"/><polygon points="343.783 104.531 343.842 104.483 343.837 104.482 343.783 104.531" fill="#e2eddf" stroke-width="0"/><polygon points="343.783 104.531 343.842 104.483 343.837 104.482 343.783 104.531" fill="#e2eddf" stroke-width="0"/><path d="M351.311,127.057c28.888-10.898,85.346,45.471,85.346,45.471l1.084-14.32c-.15-7.125,3.264-14.258-.539-20.508-4.84-7.947-13.417-18.606-27.7-26.935-13.647-7.952-24.173-8.17-31.119-6.56-5.235,1.21-13.511,5.633-16.385,10.173l-10.687,12.678ZM376.966,126.188l3.962-2.413c1.327-.999,4.599-2.138,6.257-2.525,2.2-.505,5.534-.438,9.854,2.08,4.523,2.637,7.239,6.012,8.77,8.53,1.207,1.976.741,3.592.788,5.846l-.305,4.615s-18.289-14.619-29.325-16.133Z" fill="url(#ao)" stroke-width="0"/><polygon points="392.3 150.052 392.369 150.019 392.364 150.016 392.3 150.052" fill="#e2eddf" stroke-width="0"/><polygon points="392.3 150.052 392.369 150.019 392.364 150.016 392.3 150.052" fill="#e2eddf" stroke-width="0"/><path d="M415.349,173.301c.19.101.415.135.64.08.484-.119.78-.606.662-1.09-.089-.365-2.277-8.941-10.939-10.53-.49-.09-.961.235-1.05.725-.09.489.233.962.725,1.05,7.491,1.376,9.432,8.865,9.511,9.184.064.259.234.464.452.58Z" fill="#36294e" stroke-width="0"/><path d="M370.565,149.394c.19.101.415.135.64.08.484-.119.78-.606.662-1.09-.089-.365-2.277-8.941-10.939-10.53-.49-.09-.961.235-1.05.725-.09.489.233.962.725,1.05,7.491,1.376,9.431,8.865,9.511,9.184.064.259.234.464.452.58Z" fill="#36294e" stroke-width="0"/><rect x="393.919" y="168.284" width="13.142" height="4.424" rx="2.212" ry="2.212" transform="translate(677.728 506.055) rotate(-152.624)" fill="#36294e" stroke-width="0"/><rect x="349.629" y="145.303" width="13.142" height="4.424" rx="2.212" ry="2.212" transform="translate(604.675 442.3) rotate(-152.624)" fill="#36294e" stroke-width="0"/><path d="M387.945,197.608c-1.086.597-1.942,1.609-2.31,2.893-.735,2.558.743,5.228,3.302,5.962.44.127,10.911,3.034,21.798-2.49.049-.026.097-.051.143-.076,2.268-1.247,3.153-4.078,1.974-6.403-1.204-2.374-4.106-3.322-6.479-2.118-7.425,3.768-14.705,1.842-14.777,1.823-1.274-.366-2.575-.183-3.652.409Z" fill="#ff4e93" stroke-width="0"/><path d="M395.159,199.982l-1.025,4.708c.225.05,5.574,1.187,10.981-.893l-1.729-4.498c-4.022,1.547-8.187.692-8.227.683Z" fill="#fff" stroke-width="0"/><path d="M368.989,175.546c.44.235.987.068,1.221-.371l3.319-6.217c.235-.44.068-.987-.371-1.221s-.987-.068-1.221.371l-3.319,6.217c-.235.44-.068.987.371,1.221Z" fill="#36294e" stroke-width="0"/><path d="M349.951,179.413c.071-.207.16-.404.265-.6,2.204-4.128,9.881-4.331,17.148-.452,7.273,3.882,11.376,10.375,9.173,14.502-.105.197-.219.381-.351.554,7.445-1.527,11.568-6.485,9.264-11.409-2.109-4.551-8.979-7.532-16.127-7.315-3.791-6.057-10.091-10.107-15.046-9.326-5.374.825-7.199,7.01-4.325,14.045Z" fill="url(#ap)" stroke-width="0"/><path d="M350.216,178.812c-.105.197-.194.394-.265.6.128.321.272.643.423.968,2.257,4.851,6.188,8.797,10.2,10.702,3.821,2.276,9.287,3.347,14.573,2.523.354-.056.701-.115,1.039-.187.133-.174.246-.358.351-.554,2.204-4.128-1.9-10.62-9.173-14.502-7.267-3.879-14.944-3.676-17.148.452Z" fill="url(#aq)" stroke-width="0"/><path d="M370.098,169.616l3.243,1.731c1.911,1.02,7.088.107,8.108-1.804h0c1.02-1.911.291-4.31-1.62-5.33l-7.228-3.859c-1.911-1.02-4.31-.291-5.33,1.62h0c-1.02,1.911.916,6.622,2.827,7.642Z" fill="url(#ar)" stroke-width="0"/><path d="M372.647,316.684c-.119.034.122-.028,0,0-4.794,7.582-17.721,12.251-25.519,15.165l-.006-.013c-.215.066-.466.14-.751.244l-.006-.013c-1.046.344-2.556.906-4.354,1.604-7.123-13.457-19.334-12.837-21.38-12.638,1.044-.946,2.2-1.869,3.47-2.761,2.466-1.738,5.223-3.268,8.214-4.52,13.84-5.796,33.481-4.956,40.331,2.932Z" fill="url(#as)" stroke-width="0"/><path d="M342.012,333.67c-7.83,3.044-21.162,8.745-25.84,10.696-4.887-7.575-3.307-16.253,4.461-23.334,2.046-.199,14.257-.819,21.38,12.638Z" fill="url(#at)" stroke-width="0"/><path d="M338.529,328.536s14.36-13.622,29.458-15.358" fill="none" stroke-width="0"/><path d="M342.046,333.734c-.008-.02-.026-.044-.035-.064" fill="none" stroke-width="0"/><path d="M324.584,340.937l1.509,3.603c-2.795,1.178-5.09,2.147-6.304,2.648-1.264-.606-2.255-1.31-3.01-2.082l-.003-.007c-.212-.208-.398-.428-.568-.647l.253-.106c1.752-.734,4.706-1.979,8.123-3.41Z" fill="url(#au)" stroke-width="0"/><path d="M333.295,337.289l1.509,3.603c-3.029,1.253-6.09,2.543-8.712,3.648l-1.509-3.603c2.735-1.153,5.765-2.422,8.712-3.648Z" fill="url(#av)" stroke-width="0"/><path d="M342.046,333.734l1.506,3.597c-2.54,1.001-5.628,2.263-8.748,3.562l-1.509-3.603c3.169-1.312,6.244-2.568,8.751-3.555Z" fill="url(#aw)" stroke-width="0"/><path d="M347.134,331.862c1.159-.446,2.423-.944,3.744-1.49l1.529,3.65c-1.326.516-2.589.998-3.764,1.443" fill="url(#ax)" stroke-width="0"/><path d="M348.64,335.458c-1.041.318-2.85.99-5.087,1.872l-1.506-3.597c1.795-.705,3.293-1.277,4.334-1.635l.003.007c.285-.104.533-.184.748-.251" fill="url(#ay)" stroke-width="0"/><path d="M359.451,326.391l1.632,3.896c-2.914,1.416-5.92,2.651-8.676,3.735l-1.529-3.65c2.707-1.126,5.677-2.464,8.572-3.981Z" fill="url(#az)" stroke-width="0"/><path d="M367.571,321.33l1.721,4.109c-2.413,1.809-5.262,3.417-8.209,4.847l-1.632-3.896c2.895-1.518,5.715-3.215,8.12-5.06Z" fill="url(#ba)" stroke-width="0"/><path d="M374.287,320.318c-1.193,1.862-2.932,3.561-4.995,5.121l-1.721-4.109c1.869-1.425,3.496-2.944,4.723-4.538.119-.034.235-.075.354-.109l1.639,3.635Z" fill="url(#bb)" stroke-width="0"/><path d="M232.454,416.95s1.563,4.689-2.995,5.365c0,0-82.37,10.334-107.049,9.28-2.37-.101-4.643-.917-6.523-2.363l-3.943-3.033-15.365-41.029,13.845-.169s13.102,1.604,22.76,4.517l99.27,27.433Z" fill="url(#bc)" stroke-width="0"/><polygon points="178.813 410.323 191.284 414.033 202.928 412.509 189.925 408.853 178.813 410.323" fill="url(#bd)" stroke-width="0"/><path d="M195.582,415.319l15.318,4.574,10.065-.955c.735-.074.826-1.102.129-1.304l-13.702-3.857-11.81,1.543Z" fill="url(#be)" stroke-width="0"/><polygon points="134.697 397.136 174.479 409.019 185.443 407.586 144.027 395.905 134.697 397.136" fill="url(#bf)" stroke-width="0"/><polygon points="119.728 392.673 131.629 396.236 131.648 396.236 140.886 395.024 128.507 391.534 128.47 391.534 119.728 392.673" fill="url(#bg)" stroke-width="0"/><path d="M104.704,388.191l12.03,3.582h.018s8.595-1.139,8.595-1.139l-3.985-1.12c-3.82-1.084-7.769-1.561-11.718-1.469l-4.941.147Z" fill="url(#bh)" stroke-width="0"/><polygon points="147.847 406.246 157.012 409.313 164.432 407.917 154.569 404.978 147.847 406.246" fill="url(#bi)" stroke-width="0"/><polygon points="166.269 414.602 158.132 415.797 177.215 423.088 189.043 421.967 166.232 414.345 166.269 414.602" fill="url(#bj)" stroke-width="0"/><polygon points="144.89 410.746 154.624 414.455 162.944 413.243 151.245 409.331 151.263 409.423 144.89 410.746" fill="url(#bk)" stroke-width="0"/><polygon points="132.75 406.117 134.88 406.944 134.899 406.944 135.468 407.145 141.694 409.533 147.957 408.229 144.137 406.944 143.825 406.852 138.535 405.07 132.75 406.117" fill="url(#bl)" stroke-width="0"/><polygon points="122.207 402.095 129.462 404.85 134.917 403.858 127.001 401.213 122.207 402.095" fill="url(#bm)" stroke-width="0"/><polygon points="110.618 397.668 118.901 400.827 123.383 400.001 114.438 397.007 110.618 397.668" fill="url(#bn)" stroke-width="0"/><polygon points="96.733 391.093 97.486 392.654 108.267 396.768 111.848 396.144 96.733 391.093" fill="url(#bo)" stroke-width="0"/><polygon points="151.153 421.6 158.261 424.888 173.046 423.474 164.34 420.149 164.34 420.168 151.153 421.6" fill="url(#bp)" stroke-width="0"/><polygon points="138.627 415.833 143.788 418.202 143.825 418.202 143.825 418.221 148.343 420.315 148.324 420.076 160.63 418.735 148.82 414.235 148.802 414.235 138.627 415.833" fill="url(#bq)" stroke-width="0"/><polygon points="143.825 418.202 143.788 418.202 143.825 418.221 143.825 418.202" fill="url(#br)" stroke-width="0"/><polygon points="126.432 410.195 135.633 414.437 145.386 412.913 141.529 411.443 141.437 411.462 141.419 411.407 134.697 408.835 126.432 410.195" fill="url(#bs)" stroke-width="0"/><polygon points="116.789 405.731 119.011 406.76 123.419 408.817 123.456 408.817 131.28 407.532 124.283 404.85 124.264 404.85 116.789 405.731" fill="url(#bt)" stroke-width="0"/><polygon points="108.303 401.819 113.538 404.262 113.575 404.262 120.554 403.435 114.144 400.975 114.126 400.975 108.303 401.819" fill="url(#bu)" stroke-width="0"/><polygon points="98.661 395.078 100.075 397.999 100.075 398.017 106.32 400.901 106.302 400.791 111.646 400.038 98.661 395.078" fill="url(#bv)" stroke-width="0"/><polygon points="133.723 421.398 142.649 426.357 154.606 425.237 143.513 420.112 133.723 421.398" fill="url(#bw)" stroke-width="0"/><polygon points="122.373 415.098 131.005 419.892 131.023 419.892 140.372 418.661 130.417 414.07 130.399 414.07 122.373 415.098" fill="url(#bx)" stroke-width="0"/><polygon points="112.454 409.588 119.673 413.592 127.295 412.619 118.754 408.652 118.736 408.652 112.454 409.588" fill="url(#by)" stroke-width="0"/><polygon points="101.343 400.625 103.198 404.446 109.81 408.119 115.687 407.256 101.343 400.625" fill="url(#bz)" stroke-width="0"/><path d="M104.594,407.311l6.318,13.058,6.41,5.161c2.277,1.855,5.216,2.737,8.136,2.461l13.959-1.322-29.938-16.64-.129.018-.018-.092-4.739-2.645Z" fill="url(#ca)" stroke-width="0"/><polygon points="109.332 409.956 109.35 410.048 109.479 410.029 109.332 409.956" fill="url(#cb)" stroke-width="0"/><polygon points="175.434 415.466 193.543 421.527 193.562 421.527 206.033 420.351 185.315 414.162 175.434 415.466" fill="url(#cc)" stroke-width="0"/><polygon points="172.091 414.345 172.054 414.051 180.999 412.876 168.05 409.001 168.069 409.111 160.612 410.525 172.091 414.345" fill="url(#cd)" stroke-width="0"/><polygon points="134.715 401.856 144.21 405.052 144.247 405.052 150.694 403.839 140.776 400.846 140.758 400.846 134.715 401.856" fill="url(#ce)" stroke-width="0"/><polygon points="121.803 397.54 127.093 399.321 130.968 400.607 130.986 400.607 136.735 399.652 126.34 396.548 126.358 396.621 121.803 397.54" fill="url(#cf)" stroke-width="0"/><polygon points="119.434 396.75 119.434 396.713 123.86 395.813 110.581 391.846 110.563 391.846 106.871 392.544 119.434 396.75" fill="url(#cg)" stroke-width="0"/><polygon points="95.447 388.448 95.612 388.779 104.52 391.754 104.502 391.681 107.918 391.038 101.251 389.055 101.471 388.283 95.447 388.448" fill="url(#ch)" stroke-width="0"/><path d="M50.379,291.341l63.183,127.269c.984,1.983-.73,4.235-2.904,3.812l-116.485-22.621-72.913-138.552,116.446,20.617c5.435,1.09,10.089,4.571,12.671,9.475Z" fill="url(#ci)" stroke-width="0"/><path d="M39.372,287.853l71.657,136.115c1.183,2.246-.849,4.834-3.312,4.218l-113.543-28.386c-.782-.195-1.449-.703-1.845-1.405l-74.203-132.823c-1.237-2.189.67-4.82,3.135-4.325l116.089,25.093c.867.174,1.61.729,2.022,1.512Z" fill="url(#cj)" stroke-width="0"/><path d="M79.242,351.495s17.924,0,26.678,13.339c0,0,2.918,17.507-12.088,14.59l-14.59-27.928Z" fill="url(#ck)" stroke-width="0"/><path d="M133.743,394.122c-1.151,7.965-.554,13.123-.554,13.123,3.573,5.543,7.919,7.392,7.919,7.392,1.543,4.077,13.169,5.234,13.169,5.234,2.902,6.777,19.156-2.516,19.156-2.516,5.234-7.549,25.934-9.294,25.934-9.294,13.555,0,9.293-19.359,9.293-19.359-.386-12.967-9.091-12.195-9.091-12.195l-27.109-8.908c-6.19-4.059-16.362-1.692-17.228-.955-.928.79-13.997,3.343-13.997,3.343-7.584-.41-10.78,12.526-10.78,12.526-2.516,7.732,3.288,11.607,3.288,11.607ZM139.253,384.461l.973-1.671c1.01-1.69,2.829-2.718,4.794-2.681l2.498.037-8.265,4.316Z" fill="url(#cl)" stroke-width="0"/><path d="M129.847,385.501c-.019-1.329.533-3.049,1.196-4.786,1.764-2.695,3.968-5.013,8.291-5.686,8.953-1.395,22.721.032,22.721.032l-10.878,4.154-12.164,6.23-5.269,8.677s-4.201-2.567-3.896-8.621Z" fill="url(#cm)" stroke-width="0"/><path d="M139.012,385.445c.415,7.63,12.014,4.364,23.589,1.394,0,0,.593,1.976-1.778,2.766s-14.127,10.274-14.127,10.274l-5.587,14.758s-4.601-1.617-7.919-7.392c0,0-.707-5.158.554-13.123l5.269-8.677Z" fill="url(#cn)" stroke-width="0"/><path d="M243.895,340.054l-23.84,15.391-23.528,19.083-62.594,8.596-14.987.386c-.386,5.381-19.616,5.767-19.616,5.767l-19.983-38.845c24.979-24.207,34.217-7.292,34.217-7.292,10.423-6.366,21.758-9.921,34.217-10.01,1.711-10.12,7.534-13.878,17.301-11.534,12.857-16.561,32.103-34.729,53.342-53.398l25.47,71.856Z" fill="url(#co)" stroke-width="0"/><path d="M404.086,296.482c.165.771,0,0,0,0l13.929,22.724c.658,1.69,1.394,3.349,2.205,4.972l4.105,8.209c2.259,4.517,3.927,9.306,4.963,14.25l1.82,8.685c.366,1.747.812,3.477,1.335,5.184l21.142,52.067c.652,2.125,1.525,4.213,2.897,5.962,1.563,1.992,2.397,4.8,2.618,8.295l-1.525,7.42c-47.649,38.317-86.442,56.234-122.234,51.136l-43.521-161.531,3.996-49.613,33.792-81.708c27.352,12.823,34.005,30.551,49.353,55.791l25.124,48.158h0" fill="url(#cp)" stroke-width="0"/><path d="M244.281,357.355l28.311,97.559c19.75,20.104,40.003,27.945,61.825,27.438l-38.12-157.979,10.818-64.879-19.436,8.236c-4.964,7.643-8.791,17.921-12.085,29.434l-9.181,20.997-47.987-49.963,25.47,71.856.386,17.301" fill="url(#cq)" stroke-width="0"/><path d="M320.635,394.805c-4.027,4.746-8.212,8.648-12.869,10.033l-9.379.873-20.503,3.708c-19.857,1.854-35.247,1.765-44.277-1.091-4.961,10.59-11.031,8.587-17.449,2.617l-19.63.436v-36.862s3.926-4.144,7.416-3.489c6.736-14.832,16.678-16.949,29.227-8.725,6.653-3.668,13.068-6.424,19.194-8.07,4.578-5.895,14.643-7.746,25.301-9.16-1.331-2.826-.553-5.498,4.58-7.852.68-3.495,31.563-46.288,41.132-59.486,1.867-2.575,4.55-4.408,7.62-5.238,10.128-2.739,33.477-8.098,43.265-2.34,12.675,7.456,14.911,23.485,14.911,23.485,1.118,27.213-22.74,43.615-22.74,43.615l-45.801,57.546" fill="url(#cr)" stroke-width="0"/><path d="M276.986,345.054l.206-1.851s11.724-4.731,21.803,9.668c0,0,8.433,9.05,8.433,16.867,0,0,2.057,16.25-3.085,16.25,0,0-1.851-22.626-6.171-26.329-4.32-3.702-9.462-14.81-21.186-14.604Z" fill="url(#cs)" stroke-width="0"/><path d="M267.539,355.654s16.25,7.405,22.421,17.278c1.157,1.851,2.177,3.666,3.051,5.417,1.868,3.741-3.719,6.59-5.736,2.926-2.038-3.701-3.945-7.464-5.02-10.331-.218-.58-.575-1.086-1.067-1.463-3.403-2.608-17.078-13.286-13.649-13.827Z" fill="url(#ct)" stroke-width="0"/><path d="M204.068,371.007s1.106-4.424,7.004-1.843c5.898,2.58,15.482,21.565,2.949,40.18,0,0-4.792,2.765-10.322.922,0,0,11.612-2.58,12.533-12.533.922-9.953,1.659-25.619-12.165-26.725Z" fill="#0098ff" stroke-width="0"/><path d="M78.313,348.935s17.924,0,26.678,13.339c0,0,2.918,17.507-12.088,14.59l-14.59-27.928Z" fill="url(#cu)" stroke-width="0"/><path d="M132.814,391.562c-1.151,7.965-.554,13.123-.554,13.123,3.573,5.543,7.919,7.392,7.919,7.392,1.543,4.077,13.169,5.234,13.169,5.234,2.902,6.777,19.156-2.516,19.156-2.516,5.234-7.549,25.934-9.294,25.934-9.294,13.555,0,9.293-19.359,9.293-19.359-.386-12.967-9.091-12.195-9.091-12.195l-27.109-8.908c-6.19-4.059-16.362-1.692-17.228-.955-.928.79-13.997,3.343-13.997,3.343-7.584-.41-10.78,12.526-10.78,12.526-2.516,7.732,3.288,11.607,3.288,11.607ZM138.324,381.901l.973-1.671c1.01-1.69,2.829-2.718,4.794-2.681l2.498.037-8.265,4.316Z" fill="url(#cv)" stroke-width="0"/><path d="M128.918,382.942c-.019-1.329.533-3.049,1.196-4.786,1.764-2.695,3.968-5.013,8.291-5.686,8.953-1.395,22.721.032,22.721.032l-10.878,4.154-12.164,6.23-5.269,8.677s-4.201-2.567-3.896-8.621Z" fill="url(#cw)" stroke-width="0"/><path d="M138.083,382.886c.415,7.63,12.014,4.364,23.589,1.394,0,0,.593,1.976-1.778,2.766-2.371.79-14.127,10.274-14.127,10.274l-5.587,14.758s-4.601-1.617-7.919-7.392c0,0-.707-5.158.554-13.123l5.269-8.677Z" fill="url(#cx)" stroke-width="0"/><path d="M270.306,318.152c.655,2.791-7.213-1.291-14.018-8.215,0,0-48.07-42.021-40.748-52.208l21.311-13.981,25.133,16.676,13.609,36.74s-6.388,16.296-5.287,20.989Z" fill="url(#cy)" stroke-width="0"/><path d="M181.285,233.018s15.645,90.648-18.371,99.247c0,0,29.942,9.443,34.016-8.599,0,0,.767,6.719-3.057,10.726-4.137,4.335,15.634-3.77,18.046-13.81.197-.82.547-1.594.86-2.378,2.738-6.852,13.124-35.498,4.054-55.281l-35.548-29.905Z" fill="url(#cz)" stroke-width="0"/><path d="M140.865,334.666l.003-.004c.974-.937,2.408-1.842,4.155-2.733.083-.744.329-1.551.728-2.404-.587-.066-5.452-.523-6.966,2.495,0,0-2.329,3.042,2.081,2.647Z" fill="url(#da)" stroke-width="0"/><path d="M141.277,340.279c1.463-1.461,2.986-2.468,4.543-3.27l.129-.066c.456-.233.909-.451,1.366-.654-.549-.348-1.003-.734-1.352-1.158-.772-.911-1.077-1.984-.941-3.203-1.747.891-3.18,1.796-4.155,2.733l-.003.004c-.126.121-.248.245-.356.365-.612.671-.972,1.35-1.047,2.051-.163,1.334.064,2.229.644,2.733.296.262.689.414,1.171.465Z" fill="url(#db)" stroke-width="0"/><path d="M144.987,343.642s1.637-2.526,4.321-4.143c.872-.527,1.857-.956,2.937-1.173-.712-.225-1.421-.496-2.135-.799-1.123-.346-2.055-.763-2.796-1.238-.456.203-.909.421-1.366.654l-.129.066c-1.418,1.715-3.627,5.073-.833,6.633Z" fill="url(#dc)" stroke-width="0"/><path d="M166.259,301.112l-7.311,10.41c-1.881,2.679-4.015,5.174-6.345,7.474-9.646,9.519-11.288,16.36-1.529,19.387,12.303,5.261,23.772,1.645,34.667-8.074,16.89-24.358,13.045-35.647,1.323-37.882-8-1.525-16.125,2.021-20.806,8.686Z" fill="url(#dd)" stroke-width="0"/><path d="M126.367,360.907l-.002-.005c-.842-1.058-2.142-2.145-3.756-3.26.016-.748-.12-1.581-.403-2.479.591.012,5.473.204,6.574,3.396,0,0,1.905,3.324-2.413,2.347Z" fill="url(#de)" stroke-width="0"/><path d="M125.214,366.417c-1.256-1.642-2.633-2.842-4.069-3.843l-.119-.082c-.421-.292-.841-.567-1.267-.829.59-.272,1.092-.595,1.493-.969.886-.801,1.33-1.823,1.357-3.05,1.613,1.114,2.914,2.202,3.756,3.26l.002.005c.109.137.214.276.305.409.518.746.785,1.467.766,2.172-.015,1.344-.359,2.201-1.001,2.623-.329.22-.737.319-1.222.305Z" fill="url(#df)" stroke-width="0"/><path d="M121.091,369.258s-1.288-2.721-3.734-4.679c-.794-.638-1.714-1.193-2.755-1.552.736-.129,1.475-.303,2.222-.509,1.159-.194,2.138-.484,2.935-.856.425.262.846.538,1.267.829l.119.082c1.178,1.888,2.922,5.51-.054,6.684Z" fill="url(#dg)" stroke-width="0"/><path d="M105.646,324.283l5.866,11.287c1.51,2.905,3.293,5.661,5.298,8.249,8.299,10.714,9.019,17.712-1.055,19.419-12.892,3.584-23.78-1.522-33.291-12.599-13.512-26.383-8.204-37.062,3.711-37.723,8.131-.451,15.715,4.141,19.471,11.368Z" fill="url(#dh)" stroke-width="0"/><path d="M384.994,215.192c-13.165-.478-29.36,1.591-35.134,5.18-2.813,1.751-4.63,4.652-4.993,7.96-.353,3.203.745,6.316,3.007,8.526,3.126,3.064,10.589,4.808,18.226,5.81,6.97.915,14.069-1.174,19.23-5.947,6.461-5.976,6.982-13.132-.336-21.529Z" fill="url(#di)" stroke-width="0"/><path d="M248.367,157.664c-20.681.129-20.607-14.289-20.607-14.289-26.154,3.508-24.483-18.955-24.483-18.955-10.671.827-19.45,10.616-19.45,10.616-4.132,12.967,4.804,27.056,4.804,27.056l-17.539,8.77c-12.464,5.412-41.062-5.865-41.447-7.973-.827,5.161,2.993,14.295,2.993,14.295" fill="url(#dj)" stroke-width="0"/><path d="M240.616,140.761l-.257-2.094c-.312-.037-.184.882.257,2.094Z" fill="url(#dk)" stroke-width="0"/><path d="M278.258,166.039s4.638-4.815,5.106,2.6c0,0-.267,17.918-9.604,18.736,0,0-3.515-5.978-2.915-11.162,3.14-1.392,5.619-4.759,7.413-10.174Z" fill="url(#dl)" stroke-width="0"/><path d="M258.068,261.412c-10.623,8.296,20.009,37.32,17.525,35.752l2.636-8.291.091.29c1.996-10.043,12.131-25.587,12.131-25.587-.442-8.397,8.001-33.191,8.001-33.191-8.946-5.532-26.784-34.745-26.784-34.745l-32.591,51.509c-3.144-.526,21.817,8.237,18.991,14.263Z" fill="url(#dm)" stroke-width="0"/><path d="M246.595,156.293c.359,0,.717-.016,1.083-.041.79,2.778,1.654,5.311,2.59,7.657.627,1.588,1.295,3.104,1.98,4.545.008.008.016.024.016.033" fill="url(#dn)" stroke-width="0"/><path d="M203.625,122.12c6.753-4.752,54.659,10.438,55.768,65.038,2.647,7.698,5.482,16.797,8.235,27.256-7.592,25.546-23.216,39.492-61.071,50.106-11.861,3.723-24.984.301-36.853-6.786-17.612-10.525-23.925-15.103-27.346-35.329l-5.727-31.525c-3.78-6.354-9.416-24.008-9.71-37.913,0,0,17.86-28.231,76.702-30.847Z" fill="url(#do)" stroke-width="0"/><path d="M133.308,184.52c-.482-2.233.047-3.805,1.683-5.851,3.045-3.808,8.257-5.389,12.391-5.389,4.135,0,6.316.646,7.742,3.232.863,1.567-.003,2.506-1.523,2.551,0,0-15.666-6.653-20.293,5.457" fill="#580b17" stroke-width="0"/><path d="M189.7,195.51c4.827,10.482,9.905,14.82,25.113,11.073,10.11-2.515,16.983-9.352,15.498-19.428,0-.068-.017-.135-.017-.203,0-.017-.017-.051-.017-.068-.81-2.397-6.327-18.652-22.413-18.854,0,0-11.024-.067-17.827,9.588,0,0,0,.017-.017.034-.118.236-.236.473-.338.709-2.431,5.131-2.667,11.326.017,17.149Z" fill="url(#dp)" stroke-width="0"/><path d="M190.037,177.618c6.802-9.655,18.05-9.078,18.05-9.078,15.831.81,21.475,17.112,22.285,19.509-.354-2.177-1.076-5.519-2.021-7.578-4.743-10.532-15.36-15.562-26.044-12.692-5.536,1.502-9.823,5.165-12.271,9.84Z" fill="#7b2133" stroke-width="0"/><path d="M190.934,194.851c3.23,7.009,8.078,12.227,18.231,9.716,8.269-2.045,11.112-11.947,7.588-19.752-3.171-7.039-10.259-10.396-17.396-8.472-7.854,2.111-11.966,10.831-8.423,18.508Z" fill="url(#dq)" stroke-width="0"/><ellipse cx="198.301" cy="197.579" rx="2.892" ry="3.196" transform="translate(-48.617 329.458) rotate(-73.002)" fill="url(#dr)" stroke-width="0"/><path d="M173.076,212.101c1.296,1.033,13.423,11.074-.263,14.769-.203.055-.417.068-.625.038-1.41-.201-7.004-1.223-8.223-4.919-.165-.501-.031-1.057.316-1.455l4.451-5.105s.966-1.127,1.497-2.972c.338-1.174,1.85-1.496,2.637-.562h0c.064.076.133.144.21.206Z" fill="url(#ds)" stroke-width="0"/><path d="M175.516,224.816s-2.848-.647-6.02.259c0,0,3.366,1.359,6.02-.259Z" fill="url(#dt)" stroke-width="0"/><path d="M187.044,248.584c4.206,1.52,9.149,1.84,14.565-.539,6.206-2.727,10.022-6.571,12.366-10.323-4.714-.296-18.498-.08-26.931,10.862Z" fill="#e44f5b" stroke-width="0"/><path d="M172.493,236.855s5.663,8.549,14.552,11.73c8.433-10.942,22.217-11.158,26.931-10.862,4-6.425,3.679-12.633,3.679-12.633,0,0-4.315,1.388-10.335,3.222-1.009,2.365-4.011,6.688-12.558,8.753-10.843,2.617-15.576,1.554-18.167-.674-1.685.3-3.088.463-4.101.464Z" fill="#6d092b" stroke-width="0"/><path d="M176.594,236.39c2.591,2.228,7.324,3.291,18.167.674,8.547-2.065,11.549-6.388,12.558-8.753-9.435,2.85-23.032,6.785-30.726,8.079Z" fill="#faecea" stroke-width="0"/><circle cx="237.91" cy="201.454" r="10.033" fill="url(#du)" stroke-width="0"/><path d="M243.319,202.963s-3.471-3.471-7.811-4.556" fill="#c6485b" stroke-width="0"/><path d="M240.498,204.699s-3.471-3.471-7.811-4.556" fill="#c6485b" stroke-width="0"/><path d="M149.969,233.738c3.882.223,7.04-3.152,7.04-7.04,0-3.888-3.152-7.04-7.04-7.04,0,0-4.407,1.027-4.876,3.02l1.407,9.147s.019,1.714,3.469,1.913Z" fill="url(#dv)" stroke-width="0"/><path d="M156.52,225.071s-3.471-3.471-7.811-4.556" fill="#c6485b" stroke-width="0"/><path d="M153.699,226.807s-3.471-3.471-7.811-4.556" fill="#c6485b" stroke-width="0"/><path d="M199.126,169.961s-8.339,1.864-11.246-1.88c0,0,2.219,3.394,7.063,3.858l4.183-1.979Z" fill="#7b2133" stroke-width="0"/><path d="M207.416,167.558s-10.37,1.501-13.814-3.138c0,0,2.626,4.208,8.4,4.762l5.414-1.624Z" fill="#7b2133" stroke-width="0"/><path d="M211.386,167.519s-5.918.302-8.109-4.442c0,0,.402,3.598,4.734,5.061l3.375-.619Z" fill="#7b2133" stroke-width="0"/><path d="M140.44,203.412c-.508-19.597,13.622-15.52,15.596-14.84-2.736-1.929-5.726-2.719-8.482-1.984-5.511,1.488-8.306,8.614-7.114,16.824Z" fill="#7b2133" stroke-width="0"/><path d="M140.44,203.412c.196,1.377.528,2.81.958,4.224,3.029,9.881,10.012,12.893,16.442,11.167,6.43-1.745,9.863-7.585,6.834-17.466-1.72-5.639-4.964-10.194-8.619-12.765h-.019c-1.974-.68-16.104-4.757-15.596,14.84Z" fill="url(#dw)" stroke-width="0"/><path d="M141.214,206.722c1.779,5.812,6.911,9.166,11.66,8.242,5.474-1.065,7.986-6.755,5.217-12.805-2.543-5.555-6.999-9.502-11.66-8.242s-6.996,6.993-5.217,12.805Z" fill="url(#dx)" stroke-width="0"/><path d="M148.31,209.679c.368-1.131-.276-2.318-1.439-2.652s-2.403.312-2.77,1.443.276,2.318,1.439,2.652,2.403-.312,2.77-1.443Z" fill="url(#dy)" stroke-width="0"/><path d="M144.65,189.109s-4.342,1.525-6.449-1.314c0,0,2.145,2.918,5.219,2.918l1.231-1.605Z" fill="#7b2133" stroke-width="0"/><path d="M147.305,187.18s-4.18,1.213-6.288-1.626c0,0,1.592,3.106,4.666,3.106l1.622-1.48Z" fill="#7b2133" stroke-width="0"/><path d="M149.772,186.496s-3.137.672-5.232-1.63c0,0,1.642,2.899,4.716,2.899l.516-1.269Z" fill="#7b2133" stroke-width="0"/><path d="M252.249,168.455c.008.008.016.024.016.033,2.044,4.831,4.496,11.07,7.128,18.671,2.647,7.698,5.482,16.797,8.235,27.256,7.584,28.739,35.244,61.303,15.081,110.029,0,0,28.401-6.44,31.763-24.166,0,0-2.864,11.641-2.864,14.085s26.43-22.338,30.905-39.741c0,0,8.816-45.48-26.967-128.286l-20.442-37.703c-9.285-16.229-37.103-53.16-86.02-49.161-15.369,1.257-31.633,9.107-42.269,13.014-34.018,12.497-58.007,59.563-52.269,95.347,2.458,15.331,8.554,34.246,25.882,43.678-.786-3.388-.835-12.373-3.799-20.63-7.618-21.221-9.147-36.229,1.566-48.383,0,0,1.198,30.471,53.175,25.945.081-.007.121-.025.121-.025-14.539-24.05,8.569-38.077,8.569-38.077,0,0,18.041,37.669,52.201,38.147l-.016-.033Z" fill="url(#dz)" stroke-width="0"/><path d="M226.716,157.485c.825.283-.438-.881-.825-1.066-12.468-5.946-26.031-6.303-36.808.081-2.076,2.192-2.649,2.359-1.313,4.93.562,1.081,1.365.502,2.695-.072,0,0,19.326-9.683,36.25-3.873Z" fill="#580b17" stroke-width="0"/><path d="M286.145,173.61s26.086,26.524,34.769,87.308c1.73,12.11.577,24.796-6.441,39.36,0,0-2.499,17.892-31.763,24.166,0,0,32.163-18.928,19.729-63-3.231-11.453-13.658-42.114-20.689-56.127l4.396-31.707Z" fill="url(#ea)" stroke-width="0"/><path d="M138.198,142.497s4.921-37.223,37.447-38.637c35.761-1.555,24.419,26.48,24.419,26.48,0,0-23.506,12.764-8.569,38.077,0,0-48.141,5.876-53.296-25.92Z" fill="url(#eb)" stroke-width="0"/><path d="M252.265,168.487s-32.447-.161-52.201-38.147c0,0-1.32-16.213,19.051-12.699,14.11,2.434,26.207,11.835,31.886,24.979,3.193,7.39,4.795,16.392,1.264,25.867Z" fill="url(#ec)" stroke-width="0"/><path d="M267.298,214.31s7.848,1.147,14.451-8.993c2.197-3.374,3.506-7.246,4.094-11.23,1.689-11.453,3.399-21.249-5.057-24.835,0,0-11.914-5.515-18.159,6.975l-6.155,8.472,10.826,29.611Z" fill="#f99671" stroke-width="0"/><path d="M272.871,180.333s4.638-4.815,5.106,2.6c0,0-.267,17.918-9.604,18.736,0,0-3.515-5.978-2.915-11.162,1.181-3.988,2.903-6.283,7.413-10.174Z" fill="url(#ed)" stroke-width="0"/></g></g></svg>