<?xml version="1.0" encoding="UTF-8"?><svg id="b" xmlns="http://www.w3.org/2000/svg" xmlns:xlink="http://www.w3.org/1999/xlink" viewBox="0 0 361.336 407.143"><defs><radialGradient id="d" cx="-1715.995" cy="1047.281" fx="-1715.995" fy="1047.281" r="116.719" gradientTransform="translate(2522.75 -1027.537) scale(1.369 1.328)" gradientUnits="userSpaceOnUse"><stop offset=".351" stop-color="#5b316b"/><stop offset=".508" stop-color="#6f4f82"/><stop offset=".66" stop-color="#816896"/><stop offset=".711" stop-color="rgba(134,110,155,.895)" stop-opacity=".895"/><stop offset=".81" stop-color="rgba(147,127,169,.622)" stop-opacity=".622"/><stop offset=".947" stop-color="rgba(168,154,191,.183)" stop-opacity=".183"/><stop offset="1" stop-color="#b1a6c9" stop-opacity="0"/></radialGradient><linearGradient id="e" x1="203.943" y1="291.036" x2="330.127" y2="291.036" gradientUnits="userSpaceOnUse"><stop offset="0" stop-color="#8ad7ca"/><stop offset="1" stop-color="#8ad7ca"/></linearGradient><radialGradient id="f" cx="179.81" cy="193.105" fx="179.81" fy="193.105" r="70.143" gradientUnits="userSpaceOnUse"><stop offset=".352" stop-color="#a3413b"/><stop offset=".515" stop-color="#a64139"/><stop offset=".656" stop-color="#b14536"/><stop offset=".79" stop-color="#c34a31"/><stop offset=".919" stop-color="#db5129"/><stop offset="1" stop-color="#f05724"/></radialGradient><radialGradient id="g" cx="-3234.336" cy="-1427.379" fx="-3234.336" fy="-1427.379" r="70.143" gradientTransform="translate(2050.182 1303.19) scale(.608 .782)" gradientUnits="userSpaceOnUse"><stop offset=".51" stop-color="#cc593b"/><stop offset=".576" stop-color="#ce6347"/><stop offset=".697" stop-color="#d67e68"/><stop offset=".857" stop-color="#e3ab9d"/><stop offset="1" stop-color="#f0d7d2"/></radialGradient><linearGradient id="h" x1="9848.965" y1="-3379.055" x2="9894.336" y2="-3379.055" gradientTransform="translate(2473.294 10314.267) rotate(-84.541)" gradientUnits="userSpaceOnUse"><stop offset="0" stop-color="#8264ff"/><stop offset=".071" stop-color="#8b62f6"/><stop offset=".709" stop-color="#de53af"/><stop offset="1" stop-color="#ff4e93"/></linearGradient><linearGradient id="i" x1="202.709" y1="30.124" x2="114.493" y2="183.959" gradientUnits="userSpaceOnUse"><stop offset="0" stop-color="#ff4e93"/><stop offset=".029" stop-color="#ea51a4"/><stop offset=".083" stop-color="#ca57c0"/><stop offset=".141" stop-color="#af5bd7"/><stop offset=".205" stop-color="#9b5fe9"/><stop offset=".277" stop-color="#8c62f5"/><stop offset=".363" stop-color="#8463fc"/><stop offset=".506" stop-color="#8264ff"/><stop offset="1" stop-color="#5047bf"/></linearGradient><linearGradient id="j" x1="79.416" y1="172.418" x2="134.048" y2="172.418" gradientUnits="userSpaceOnUse"><stop offset="0" stop-color="#f03c00"/><stop offset="1" stop-color="#ffac00"/></linearGradient><linearGradient id="k" x1="218.511" y1="173.566" x2="267.136" y2="173.566" gradientUnits="userSpaceOnUse"><stop offset="0" stop-color="#d23300"/><stop offset="1" stop-color="#ff5000"/></linearGradient><linearGradient id="l" x1="224.988" y1="169.986" x2="282.406" y2="169.986" xlink:href="#j"/><linearGradient id="m" x1="119.64" y1="117.153" x2="189.213" y2="117.153" gradientUnits="userSpaceOnUse"><stop offset="0" stop-color="#374dd2"/><stop offset="1" stop-color="#8264ff"/></linearGradient><linearGradient id="n" x1="180.478" y1="64.532" x2="197.63" y2="64.532" gradientUnits="userSpaceOnUse"><stop offset="0" stop-color="#fef"/><stop offset=".656" stop-color="#ffeaff"/><stop offset="1" stop-color="#ffe5ff"/></linearGradient><linearGradient id="o" x1="154.307" y1="121.602" x2="163.53" y2="121.602" gradientUnits="userSpaceOnUse"><stop offset="0" stop-color="#ff4e93"/><stop offset=".184" stop-color="#ff5391"/><stop offset=".425" stop-color="#ff648d"/><stop offset=".7" stop-color="#ff7f86"/><stop offset=".996" stop-color="#ffa57d"/><stop offset="1" stop-color="#ffa67d"/></linearGradient><linearGradient id="p" x1="153.84" y1="121.615" x2="163.812" y2="121.615" xlink:href="#o"/><linearGradient id="q" x1="154.439" y1="126.232" x2="163.454" y2="126.232" xlink:href="#o"/><linearGradient id="r" x1="153.871" y1="126.191" x2="163.734" y2="126.191" xlink:href="#o"/><linearGradient id="s" x1="149.707" y1="131.165" x2="159.841" y2="131.165" xlink:href="#o"/><linearGradient id="t" x1="148.627" y1="131.206" x2="160.123" y2="131.206" xlink:href="#o"/><linearGradient id="u" x1="123.464" y1="61.286" x2="154.993" y2="61.286" xlink:href="#n"/><linearGradient id="v" x1="121.676" y1="78.129" x2="135.396" y2="78.129" gradientUnits="userSpaceOnUse"><stop offset="0" stop-color="#d072bf"/><stop offset="1" stop-color="#8264ff"/></linearGradient><linearGradient id="w" x1="72.245" y1="175.955" x2="121.84" y2="175.955" xlink:href="#k"/><linearGradient id="x" x1="149.278" y1="77.943" x2="203.027" y2="77.943" xlink:href="#j"/><linearGradient id="y" x1="148.431" y1="77.938" x2="203.874" y2="77.938" xlink:href="#j"/><linearGradient id="z" x1="176.744" y1="9.424" x2="120.848" y2="141.387" gradientUnits="userSpaceOnUse"><stop offset="0" stop-color="#00cdd2"/><stop offset=".053" stop-color="#19b8da"/><stop offset=".132" stop-color="#399ee6"/><stop offset=".218" stop-color="#5488ef"/><stop offset=".312" stop-color="#6878f6"/><stop offset=".418" stop-color="#776cfb"/><stop offset=".546" stop-color="#7f66fe"/><stop offset=".756" stop-color="#8264ff"/><stop offset=".939" stop-color="#5047bf"/></linearGradient><linearGradient id="aa" x1="172.945" y1="134.137" x2="200.011" y2="179.998" xlink:href="#o"/><linearGradient id="ab" x1="181.309" y1="120.939" x2="188.867" y2="120.939" xlink:href="#o"/><linearGradient id="ac" x1="181.026" y1="120.947" x2="189.334" y2="120.947" xlink:href="#o"/><linearGradient id="ad" x1="181.371" y1="124.733" x2="188.759" y2="124.733" xlink:href="#o"/><linearGradient id="ae" x1="181.091" y1="124.692" x2="189.326" y2="124.692" xlink:href="#o"/><linearGradient id="af" x1="184.332" y1="128.776" x2="192.636" y2="128.776" xlink:href="#o"/><linearGradient id="ag" x1="184.05" y1="128.817" x2="193.718" y2="128.817" xlink:href="#o"/><linearGradient id="ah" x1="208.584" y1="105.523" x2="184.989" y2="131.285" gradientUnits="userSpaceOnUse"><stop offset="0" stop-color="#5047bf"/><stop offset="1" stop-color="#8264ff"/></linearGradient><clipPath id="ai"><path d="M227.313,156.849c-.154-.224-.314-.454-.475-.685,1.636-5.879-1.859-12.702-9.647-19.545-4.048-2.824-7.613-5.76-10.598-8.829,8.277-14.603,1.727-27.382-12.667-37.819-1.188-.021-2.377-.049-3.572-.07-2.53-.049-5.054-.112-7.522-.182-4.579-.133-8.976-.336-12.96-.685-6.907-.608-12.555-1.678-15.638-3.691-7.06-3.481-6.109-6.033-.105-8.941,3.369-1.622,6.585-3.551,9.584-5.774,5.62-4.152,11.338-6.459,15.966-3.383l1.133.888c-.224-.958-.336-1.95-.336-2.971,0-7.41,6.005-13.422,13.422-13.422,1.167,0,2.307.154,3.397.433-1.902-14.897-11.842-27.731-26.019-35.218h-.007c-2.461-3.048-14.121-17.001-16.756-11.408-4.83-4.02-10.255-6.739-13.415-5.026-1.077,1.398-1.475,2.838-1.377,4.299-27.2-5.054-20.979,4.914-17.994,8.535,0,0-23.32-1.475-10.793,4.984-13.219,7.836-22.258,20.489-23.691,35.001l-2.74,9.465c6.257,17.63,2.768,33.554-3.411,49.311-2.048,8.416-.58,21.531,1.706,35.721.189-.259.378-.524.58-.776.028-.042.056-.077.084-.112.3-.405.608-.797.923-1.181,1.363-1.685,4.054-1.16,4.691.916.021.077.049.154.077.238.098.294.203.594.322.881.042.105.077.21.133.315.44,1.035.993,1.992,1.65,2.838.07.084.14.175.21.259.343.412.72.804,1.125,1.174.119.105.245.21.378.315.154.126.301.238.461.357.189.133.384.266.587.385.126.084.259.154.392.231.007,0,.014.007.021.007.168.098.342.189.517.273,1.545.734,3.209,1.049,4.921.979.091,0,.189-.007.28-.014.671-.042,1.356-.147,2.042-.308.084-.014.168-.035.258-.056.923-.238,1.852-.573,2.775-1,.147-.07.294-.14.433-.217.937-.475,1.859-1.049,2.761-1.713.014-.014.035-.028.049-.042,1.447-1.014,3.516-.356,4.097,1.321.014.028.021.063.035.091.021.07.049.14.077.21.077.231.16.447.258.671.056.126.112.259.168.384.119.266.252.51.378.762.063.119.14.238.21.357.063.119.14.238.21.357.44.713.951,1.363,1.51,1.936.091.091.175.175.266.252.531.51,1.104.958,1.726,1.335.126.077.259.154.392.224.168.091.336.182.503.259,1.636.783,3.404,1.091,5.222.965.224-.007.447-.035.671-.063.203-.021.399-.049.601-.091.07,0,.154-.021.224-.035.203-.035.405-.084.608-.133.21-.049.427-.098.636-.168.056-.014.105-.028.161-.049.196-.056.392-.112.58-.182.042-.014.084-.028.126-.049.196-.063.391-.14.58-.224.049-.014.091-.028.14-.049.203-.084.413-.175.615-.266.056-.028.119-.063.182-.091.454-.217.902-.454,1.342-.713,1.782-1.056,4.006.245,4.062,2.265v.21c0,.035-.007.063-.007.098-.007.112-.014.21-.021.322,0,.049,0,.105-.007.161-.021.385-.049.776-.091,1.167,0,.091-.014.189-.021.28-.028.259-.056.531-.084.797-.021.203-.042.406-.07.615-.049.356-.091.713-.147,1.069,0,.042-.007.084-.021.126-.056.454-.133.909-.217,1.37-.119.699-.252,1.398-.412,2.104-.049.231-.098.468-.161.699-.133.566-.272,1.139-.433,1.706-.091.357-.189.713-.294,1.07-.007.042-.028.091-.042.133-.126.44-.259.888-.406,1.328-.147.475-.315.944-.475,1.412-.161.475-.336.944-.517,1.419-.175.447-.35.895-.531,1.335-.021.042-.035.084-.049.126-.168.392-.329.776-.503,1.167-.23.538-.482,1.076-.734,1.601-.965,2.02-2.034,3.943-3.181,5.76l.021.021c4.523,8.41,14.449,12.031,27.606,12.786,25.242.119,47.752-2.915,65.277-11.709-.224-8.41,3.25-19.07,9.94-29.472-.37-.559-.755-1.14-1.153-1.713ZM123.463,61.29c0-8.619,7.06-15.61,15.763-15.61s15.764,6.99,15.764,15.61-7.053,15.603-15.764,15.603-15.763-6.99-15.763-15.603Z" fill="none" stroke-width="0"/></clipPath></defs><g id="c"><path d="M346.264,329.605c0,20.461-105.747,74.307-137.908,77.341C174.689,410.123,0,374.114,0,353.653s95.991-28.013,200.098-28.013,146.166-16.496,146.166,3.965Z" fill="url(#d)" opacity=".32" stroke-width="0"/><path d="M360.588,43.876v38.514c0,8.421-6.887,15.308-15.304,15.308h-121.901c-2.117,0-3.098-2.623-1.509-4.015l12.942-11.292v-38.514c0-8.417,6.891-15.304,15.308-15.304h95.16c8.417,0,15.304,6.887,15.304,15.304Z" fill="#fff" stroke="#231815" stroke-miterlimit="10" stroke-width="1.496"/><ellipse cx="60.366" cy="31.358" rx="5.777" ry="4.16" fill="#00cdd2" stroke-width="0"/><path d="M68.547,26.341c.198.841,1.044,1.36,1.881,1.163l.237-.058c2.618-.672,4.523-2.843,4.853-5.532.333-2.717-.951-5.21-3.353-6.507-1.643-.888-3.866-2.51-5.122-5.194-.31-.665-1.042-1.022-1.756-.865-.715.159-1.225.794-1.225,1.527v18.418c0,.864.7,1.564,1.564,1.564s.034-.7.034-1.564v-13.649c1.184,1.127,3.963,1.944,5.019,2.514,1.486.803,1.87,2.269,1.735,3.374-.316,3.147-1.78,4.471-3.867,4.808Z" fill="#00cdd2" stroke-width="0"/><path d="M320.944,297.856h0l-23.061,8.916-.938.357-6.256,2.413-39.708,15.284-45.987,17.72-.424.156-16.245-2.793-155.345-26.725-7.597-1.296,7.597-2.927,110.117-42.411,163.59,28.133c2.617.436,11.72,2.729,14.257,3.173Z" fill="#866fb2" stroke-width="0"/><path d="M330.127,323.643c0,11.083-3.754,20.737-9.318,25.898l-.381.156-9.474,3.62h-.023l-.513.201-12.157,4.693-2.212.849-91.482,35.216-.201-.045-.426-.067c.045-.045.112-.089.179-.156,5.721-5.117,9.586-14.927,9.586-26.166,0-10.659-3.463-19.999-8.714-25.295l90.699-34.926,2.19-.849,23.061-8.916c5.497,5.206,9.184,14.793,9.184,25.786Z" fill="#b786bd" stroke-width="0"/><path d="M27.262,313.142l161.062,26.768,16.245,2.793.424-.156c5.251,5.296,8.714,14.636,8.714,25.295,0,11.24-3.866,21.049-9.586,26.166-.067.067-.134.112-.179.156l-14.614-2.503-6.457-1.117-155.61-27.014" fill="#fffff3" stroke-width="0"/><path d="M204.598,396.681l-1.032-.314-21.075-3.621-155.61-27.013c-1.215-.212-2.032-1.368-1.82-2.584.214-1.215,1.377-2.021,2.584-1.82l175.592,30.447c5.106-5.034,8.238-14.092,8.238-23.934,0-9.281-2.728-17.755-7.336-22.945l-16.194-2.784-161.048-26.766c-1.218-.202-2.04-1.353-1.837-2.571.201-1.218,1.346-2.038,2.571-1.837l161.061,26.769,15.668,2.694,1.211-.448,1.013,1.021c5.861,5.913,9.361,15.957,9.361,26.869,0,11.468-3.958,22.133-10.33,27.832l-1.015,1.007Z" fill="#866fb2" stroke-width="0"/><polyline points="320.809 349.541 321.681 349.206 322.284 348.96" fill="#cc4521" stroke-width="0"/><path d="M320.81,349.541c-.089.089-.179.179-.268.246-.045-.022-.089-.067-.112-.089l.381-.156Z" fill="#cc4521" stroke-width="0"/><path d="M306.128,332.916c0,10.837-3.597,20.312-8.96,25.541l-46.702,17.988-.202-.045-.446-.067c.045-.045.134-.089.179-.156,5.719-5.117,9.586-14.927,9.586-26.166,0-10.547-3.375-19.82-8.581-25.138l20.692-7.977,2.19-.849,16.804-6.503,6.256-2.413c5.497,5.229,9.184,14.793,9.184,25.787Z" fill="#6e64ac" stroke-width="0"/><line x1="322.284" y1="219.241" x2="320.832" y2="219.799" fill="#6e64ac" stroke-width="0"/><path d="M320.944,242.826h0l-23.061,8.916-.938.357-6.256,2.413-39.708,15.284-45.987,17.72-.424.156-16.245-2.793-155.345-26.725-7.597-1.296,7.597-2.927,110.117-42.411,163.59,28.133c2.617.436,11.72,2.729,14.257,3.173Z" fill="#40c0c6" stroke-width="0"/><path d="M330.127,268.613c0,11.083-3.754,20.737-9.318,25.898l-.381.156-9.474,3.62h-.023l-.513.201-12.157,4.693-2.212.849-91.482,35.216-.201-.045-.426-.067c.045-.045.112-.089.179-.156,5.721-5.117,9.586-14.927,9.586-26.166,0-10.659-3.463-19.999-8.714-25.295l90.699-34.926,2.19-.849,23.061-8.916c5.497,5.206,9.184,14.793,9.184,25.786Z" fill="url(#e)" stroke-width="0"/><path d="M27.262,258.112l161.062,26.768,16.245,2.793.424-.156c5.251,5.296,8.714,14.636,8.714,25.295,0,11.24-3.866,21.049-9.586,26.166-.067.067-.134.112-.179.156l-14.614-2.503-6.457-1.117-155.61-27.014" fill="#fffff3" stroke-width="0"/><path d="M204.598,341.652l-1.032-.314-21.075-3.621-155.61-27.013c-1.215-.212-2.032-1.368-1.82-2.584.214-1.215,1.377-2.021,2.584-1.82l175.592,30.447c5.106-5.034,8.238-14.092,8.238-23.934,0-9.281-2.728-17.755-7.336-22.945l-16.194-2.784-161.048-26.766c-1.218-.202-2.04-1.353-1.837-2.571.201-1.218,1.346-2.038,2.571-1.837l161.061,26.769,15.668,2.694,1.211-.448,1.013,1.021c5.861,5.913,9.361,15.957,9.361,26.869,0,11.468-3.958,22.133-10.33,27.832l-1.015,1.007Z" fill="#40c0c6" stroke-width="0"/><polyline points="320.809 294.511 321.681 294.176 322.284 293.93" fill="#cc4521" stroke-width="0"/><path d="M320.81,294.511c-.089.089-.179.179-.268.246-.045-.022-.089-.067-.112-.089l.381-.156Z" fill="#cc4521" stroke-width="0"/><path d="M306.128,277.886c0,10.837-3.597,20.312-8.96,25.541l-46.702,17.988-.202-.045-.446-.067c.045-.045.134-.089.179-.156,5.719-5.117,9.586-14.927,9.586-26.166,0-10.547-3.375-19.82-8.581-25.138l20.692-7.977,2.19-.849,16.804-6.503,6.256-2.413c5.497,5.229,9.184,14.793,9.184,25.787Z" fill="#338c8a" stroke-width="0"/><line x1="322.284" y1="384.677" x2="320.832" y2="385.236" fill="#6e64ac" stroke-width="0"/><polyline points="320.163 292.261 321.035 291.925 321.638 291.68" fill="#cc4521" stroke-width="0"/><path d="M320.164,292.26c-.089.089-.179.179-.268.246-.045-.045-.089-.067-.112-.089l.381-.156Z" fill="#cc4521" stroke-width="0"/><path d="M320.298,188.265c-34.78,13.444-80.956,31.192-115.95,44.691-13.129-1.62-164.083-28.213-179.611-30.658l7.597-2.927,110.117-42.411c6.518,1.128,178.386,31.378,177.847,31.306Z" fill="#f05724" stroke-width="0"/><path d="M329.481,214.052c-.357,16.322-5.634,26.776-19.709,29.875-6.386,2.477-96.662,37.221-105.85,40.759-.126-.035-.492-.091-.626-.112,12.379-9.529,12.793-41.196,1.051-51.618,18.82-7.249,98.861-38.052,115.95-44.691,5.497,5.206,9.184,14.793,9.184,25.786Z" fill="#f69021" stroke-width="0"/><path d="M26.616,203.551l161.062,26.768,16.245,2.793.424-.156c5.251,5.296,8.714,14.636,8.714,25.295,0,11.24-3.866,21.049-9.586,26.166-.067.067-.134.112-.179.156l-14.614-2.503-6.457-1.117-155.61-27.014" fill="#fffff3" stroke-width="0"/><path d="M203.952,287.091l-1.032-.314-21.075-3.621-155.61-27.013c-1.215-.212-2.032-1.368-1.82-2.584.214-1.215,1.377-2.021,2.584-1.82l175.592,30.447c5.106-5.034,8.238-14.092,8.238-23.934,0-9.281-2.728-17.755-7.336-22.945l-16.194-2.784-161.048-26.766c-1.218-.202-2.04-1.353-1.837-2.571.201-1.218,1.346-2.038,2.571-1.837l161.061,26.769,15.668,2.694,1.211-.448,1.013,1.021c5.861,5.913,9.361,15.957,9.361,26.869,0,11.468-3.958,22.133-10.33,27.832l-1.015,1.007Z" fill="#f05724" stroke-width="0"/><polyline points="320.163 239.95 321.035 239.615 321.638 239.369" fill="#cc4521" stroke-width="0"/><path d="M320.164,239.95c-.089.089-.179.179-.268.246-.045-.022-.089-.067-.112-.089l.381-.156Z" fill="#cc4521" stroke-width="0"/><path d="M305.482,223.325c0,10.837-3.597,20.312-8.96,25.541l-46.702,17.988-.202-.045-.446-.067c.045-.045.134-.089.179-.156,5.719-5.117,9.586-14.927,9.586-26.166,0-10.547-3.375-19.82-8.581-25.138l20.692-7.977,2.19-.849,16.804-6.503,6.256-2.413c5.497,5.229,9.184,14.793,9.184,25.787Z" fill="#cc4521" stroke-width="0"/><path d="M59.12,207.819v36.182c0,.942-.151,1.851-.434,2.701l-8.839-8.736-7.94,5.589v-38.721l17.213,2.986Z" fill="#f05724" stroke-width="0"/><path d="M183.451,339.756v36.182c0,.942-.151,1.851-.434,2.701l-8.839-8.736-7.94,5.589v-38.721l17.213,2.986Z" fill="#6e64ac" stroke-width="0"/><ellipse cx="179.81" cy="193.105" rx="97.221" ry="19.701" fill="url(#f)" opacity=".32" stroke-width="0"/><ellipse cx="84.763" cy="186.423" rx="59.079" ry="15.414" fill="url(#g)" opacity=".32" stroke-width="0"/><polygon points="167.924 11.586 167.869 11.509 167.875 11.509 167.924 11.586" fill="#e4efe1" stroke-width="0"/><polygon points="167.924 11.586 167.869 11.509 167.875 11.509 167.924 11.586" fill="#e4efe1" stroke-width="0"/><rect x="75.86" y="194.858" width="1.309" height=".564" fill="#f9b8b4" stroke-width="0"/><path d="M95.602,145.045c-1.797,26.291-26.36,47.913-57.404,49.377-4.882.23-9.654-.05-14.244-.789-3.986-.644-7.836-1.631-11.503-2.932-4.62-2.803-7.721-7.372-7.971-12.66-.044-.936.004-1.86.136-2.759.048-.329.108-.658.18-.981,1.172,3.698,3.801,6.836,7.303,8.959,3.667,1.301,7.517,2.288,11.503,2.932,4.59.739,9.361,1.019,14.244.789,27.069-1.277,49.218-17.884,55.629-39.55.748-.758,1.459-1.559,2.125-2.386Z" fill="#5943b2" stroke-width="0"/><path d="M93.477,147.432c-6.414,21.664-28.56,38.274-55.63,39.55-4.882.23-9.653-.052-14.245-.791-3.987-.643-7.838-1.631-11.502-2.93-3.502-2.126-6.133-5.264-7.304-8.959.039-.182.082-.364.129-.544,2.185-8.504,12.048-13.831,21.873-12.156,1.74.297,3.506.528,5.293.692,3.133.286,8.4.443,11.656.515,5.347.119,10.929-.318,15.366-.819,7.986-.901,15.789-3.089,22.985-6.669,4.12-2.05,8.321-4.679,11.379-7.889Z" fill="url(#h)" stroke-width="0"/><path d="M139.229,77.171c-8.848,0-16.047-7.125-16.047-15.882s7.199-15.888,16.047-15.888,16.046,7.128,16.046,15.888-7.198,15.882-16.046,15.882ZM139.229,45.965c-8.537,0-15.482,6.874-15.482,15.324s6.945,15.318,15.482,15.318,15.482-6.871,15.482-15.318-6.945-15.324-15.482-15.324Z" fill="#f9b8b4" stroke-width="0"/><path d="M87.416,55.297c-.146-.668-.298-1.298-.444-1.882l.548-.137c.147.59.3,1.224.447,1.898l-.551.12Z" fill="#f9b8b4" stroke-width="0"/><path d="M124.625,102.659l-.041-.563,12.328-.886c2.787-.197,5.479-.63,8.001-1.289,4.263-1.113,7.712-1.546,10.244-1.283l-.057.561c-2.47-.254-5.847.173-10.045,1.267-2.555.667-5.281,1.107-8.103,1.306l-12.327.886Z" fill="#f9b8b4" stroke-width="0"/><path d="M227.313,156.849c-.154-.224-.314-.454-.475-.685,1.636-5.879-1.859-12.702-9.647-19.545-4.048-2.824-7.613-5.76-10.598-8.829,8.277-14.603,1.727-27.382-12.667-37.819-1.188-.021-2.377-.049-3.572-.07-2.53-.049-5.054-.112-7.522-.182-4.579-.133-8.976-.336-12.96-.685-6.907-.608-12.555-1.678-15.638-3.691-7.06-3.481-6.109-6.033-.105-8.941,3.369-1.622,6.585-3.551,9.584-5.774,5.62-4.152,11.338-6.459,15.966-3.383l1.133.888c-.224-.958-.336-1.95-.336-2.971,0-7.41,6.005-13.422,13.422-13.422,1.167,0,2.307.154,3.397.433-1.902-14.897-11.842-27.731-26.019-35.218h-.007c-2.461-3.048-14.121-17.001-16.756-11.408-4.83-4.02-10.255-6.739-13.415-5.026-1.077,1.398-1.475,2.838-1.377,4.299-27.2-5.054-20.979,4.914-17.994,8.535,0,0-23.32-1.475-10.793,4.984-13.219,7.836-22.258,20.489-23.691,35.001l-2.74,9.465c6.257,17.63,2.768,33.554-3.411,49.311-2.048,8.416-.58,21.531,1.706,35.721.189-.259.378-.524.58-.776.028-.042.056-.077.084-.112.3-.405.608-.797.923-1.181,1.363-1.685,4.054-1.16,4.691.916.021.077.049.154.077.238.098.294.203.594.322.881.042.105.077.21.133.315.44,1.035.993,1.992,1.65,2.838.07.084.14.175.21.259.343.412.72.804,1.125,1.174.119.105.245.21.378.315.154.126.301.238.461.357.189.133.384.266.587.385.126.084.259.154.392.231.007,0,.014.007.021.007.168.098.342.189.517.273,1.545.734,3.209,1.049,4.921.979.091,0,.189-.007.28-.014.671-.042,1.356-.147,2.042-.308.084-.014.168-.035.258-.056.923-.238,1.852-.573,2.775-1,.147-.07.294-.14.433-.217.937-.475,1.859-1.049,2.761-1.713.014-.014.035-.028.049-.042,1.447-1.014,3.516-.356,4.097,1.321.014.028.021.063.035.091.021.07.049.14.077.21.077.231.16.447.258.671.056.126.112.259.168.384.119.266.252.51.378.762.063.119.14.238.21.357.063.119.14.238.21.357.44.713.951,1.363,1.51,1.936.091.091.175.175.266.252.531.51,1.104.958,1.726,1.335.126.077.259.154.392.224.168.091.336.182.503.259,1.636.783,3.404,1.091,5.222.965.224-.007.447-.035.671-.063.203-.021.399-.049.601-.091.07,0,.154-.021.224-.035.203-.035.405-.084.608-.133.21-.049.427-.098.636-.168.056-.014.105-.028.161-.049.196-.056.392-.112.58-.182.042-.014.084-.028.126-.049.196-.063.391-.14.58-.224.049-.014.091-.028.14-.049.203-.084.413-.175.615-.266.056-.028.119-.063.182-.091.454-.217.902-.454,1.342-.713,1.782-1.056,4.006.245,4.062,2.265v.21c0,.035-.007.063-.007.098-.007.112-.014.21-.021.322,0,.049,0,.105-.007.161-.021.385-.049.776-.091,1.167,0,.091-.014.189-.021.28-.028.259-.056.531-.084.797-.021.203-.042.406-.07.615-.049.356-.091.713-.147,1.069,0,.042-.007.084-.021.126-.056.454-.133.909-.217,1.37-.119.699-.252,1.398-.412,2.104-.049.231-.098.468-.161.699-.133.566-.272,1.139-.433,1.706-.091.357-.189.713-.294,1.07-.007.042-.028.091-.042.133-.126.44-.259.888-.406,1.328-.147.475-.315.944-.475,1.412-.161.475-.336.944-.517,1.419-.175.447-.35.895-.531,1.335-.021.042-.035.084-.049.126-.168.392-.329.776-.503,1.167-.23.538-.482,1.076-.734,1.601-.965,2.02-2.034,3.943-3.181,5.76l.021.021c4.523,8.41,14.449,12.031,27.606,12.786,25.242.119,47.752-2.915,65.277-11.709-.224-8.41,3.25-19.07,9.94-29.472-.37-.559-.755-1.14-1.153-1.713ZM123.463,61.29c0-8.619,7.06-15.61,15.763-15.61s15.764,6.99,15.764,15.61-7.053,15.603-15.764,15.603-15.763-6.99-15.763-15.603Z" fill="url(#i)" stroke-width="0"/><path d="M220.103,195.877c-14.681,7.081-39.444,9.795-70.459,8.435-13.084-.57-25.147-1.986-35.681-4.367,4.339-3.34,8.35-7.741,11.662-13.005l.017.017c4.525,8.413,14.45,12.029,27.607,12.785,25.243.118,47.75-2.917,65.274-11.707.073,2.923.592,5.569,1.58,7.843Z" fill="#5943b2" stroke-width="0"/><path d="M82.802,147.84c-.023.034-.045.062-.068.096-.44.598-.869,1.213-1.281,1.839-.248.367-.485.734-.722,1.111-.011.017-.022.034-.034.051-.271.434-.542.88-.813,1.326-.011.028-.034.062-.051.09-.237.412-.474.824-.705,1.241-.203.367-.406.739-.598,1.111-.141.254-.271.508-.401.767-.203.395-.401.796-.592,1.202-2.471,5.179-4.057,10.466-4.796,15.578v.006c-.006,0-.006.006-.011.006-.705-2.201-1.145-4.52-1.292-6.974-3.645-25.497-1.433-52.731,6.37-80.576,1.078-3.853,3.09-8.385,4.206-12.227,1.357-4.675,2.273-6.666,2.488-9.679,6.257,17.626,2.769,33.551-3.41,49.309-2.048,8.418-.576,21.53,1.71,35.72Z" fill="#5943b2" stroke-width="0"/><path d="M133.224,169.24l-.551-.121c.145-.673.279-1.358.409-2.094l.556.096c-.125.734-.26,1.428-.414,2.119Z" fill="#f9b8b4" stroke-width="0"/><path d="M134.319,161.188l-.564-.027.002-.025c.004-.09.004-.18.004-.274l.563-.023c.007.082.007.164,0,.252h-.002c0,.033-.002.064-.004.096Z" fill="#f9b8b4" stroke-width="0"/><path d="M134.043,160.862c.006.068.006.135,0,.209,0,.034-.006.068-.006.102-.006.107-.011.209-.017.316,0,.051-.006.107-.011.164-.028.389-.056.779-.09,1.168,0,.09-.011.186-.022.277-.023.265-.051.536-.085.801-.017.203-.04.406-.068.615-.045.356-.09.711-.147,1.066,0,.045-.006.085-.017.13-.062.451-.135.908-.22,1.365-.118.7-.254,1.399-.412,2.105-.051.231-.102.468-.158.7-.135.57-.276,1.14-.434,1.709-.09.356-.192.711-.299,1.066-.006.045-.022.09-.039.135-.124.44-.26.886-.406,1.326-.147.474-.31.942-.474,1.416-.164.474-.339.942-.519,1.416-.169.446-.344.892-.53,1.337-.017.039-.034.085-.051.124-.164.389-.327.779-.502,1.168-.231.536-.479,1.072-.734,1.602-1.952,4.091-4.316,7.792-6.962,11.036-.237.192-.468.378-.705.559-9.033,6.946-19.494,9.281-28.092,5.174-4.35-2.082-7.713-5.569-10.009-9.981-3.244-6.223-4.361-14.286-3.126-22.845,0-.011,0-.017.006-.034v-.006c.739-5.112,2.325-10.399,4.796-15.578.192-.406.389-.807.592-1.202.13-.26.26-.513.401-.767.192-.372.395-.745.598-1.111.231-.418.468-.829.705-1.241.017-.028.04-.062.051-.09.045-.079.096-.152.141-.231.846.231,1.585.863,1.879,1.822.023.079.051.158.079.237.096.299.203.598.322.886.04.102.079.209.13.31.44,1.038.993,1.992,1.653,2.838.068.085.135.175.209.26.344.418.722.807,1.123,1.174.124.107.248.214.378.316.152.124.305.237.463.356.192.135.384.265.587.384.13.085.26.158.395.237.006,0,.011.006.017.006.169.096.344.186.519.271,1.546.734,3.21,1.05,4.92.976.09,0,.186-.006.282-.011.671-.045,1.354-.147,2.037-.305.085-.017.169-.039.26-.062.925-.231,1.856-.57,2.776-.999.147-.068.293-.141.434-.214.937-.474,1.862-1.05,2.759-1.715.017-.011.034-.023.051-.04,1.444-1.016,3.515-.356,4.096,1.32.011.028.023.062.034.09.022.073.051.141.079.214.079.226.164.446.26.666.056.13.113.26.169.389.118.26.243.508.378.756.062.118.135.243.203.361.068.118.135.237.214.356.44.711.948,1.36,1.512,1.935.085.09.169.175.26.254.53.508,1.106.953,1.732,1.332.124.079.254.152.389.226.164.09.333.181.502.26,1.636.784,3.408,1.089,5.219.965.226-.011.451-.034.671-.062.203-.023.401-.051.604-.09.073-.006.152-.023.226-.04.203-.034.406-.079.609-.13.209-.051.423-.102.632-.169.056-.011.107-.028.164-.045.192-.056.389-.118.581-.186.04-.011.085-.028.124-.045.192-.068.389-.141.581-.226.045-.011.09-.028.135-.051.209-.085.412-.175.615-.265.062-.028.124-.062.186-.09.451-.214.897-.451,1.343-.711,1.783-1.055,4.006.243,4.057,2.263Z" fill="url(#j)" stroke-width="0"/><path d="M267.136,184.609c-14.907,16.712-33.582,24.103-43.078,16.537-1.727-1.377-3.041-3.16-3.955-5.27-3.825-8.819-.649-23.302,8.362-37.312,1.49-2.319,3.143-4.626,4.948-6.895,2.263-2.838,4.638-5.45,7.081-7.826.367-.361.773-.632,1.19-.829-.604.711-1.202,1.439-1.794,2.178-1.805,2.268-3.459,4.576-4.948,6.895-9.01,14.009-12.187,28.493-8.362,37.312.914,2.11,2.229,3.893,3.955,5.27,8.159,6.505,23.099,1.958,36.601-10.06Z" fill="url(#k)" stroke-width="0"/><path d="M282.133,160.241c-2.494,6.782-6.517,13.942-11.933,20.741-.999,1.253-2.02,2.466-3.064,3.628-13.502,12.018-28.442,16.565-36.601,10.06-1.727-1.377-3.041-3.16-3.955-5.27-3.825-8.819-.649-23.302,8.362-37.312,1.49-2.319,3.143-4.627,4.948-6.895.592-.739,1.19-1.467,1.794-2.178,2.607-1.23,5.891.519,6.195,3.696.158,1.591.75,2.894,1.811,3.735,1.704,1.36,4.299,1.275,7.103.028.683-.305,1.258-.801,1.698-1.399.175-.243.361-.48.553-.722,2.003-2.511,4.356-4.356,6.539-5.304,2.161-.937,4.158-.993,5.473.056.908.728,1.371,1.879,1.433,3.289.045,1.01-.124,2.144-.485,3.34-.276.931-.293,1.935.085,2.827.237.559.581,1.027,1.038,1.388.97.779,2.308.948,3.814.609,3.414-.767,6.398,2.404,5.191,5.682Z" fill="url(#l)" stroke-width="0"/><path d="M189.213,141.522c-.226,0-39.099,6.595-52.72-2.048-1.895-1.203-12.218-6.61-13.75-8.25-8.758-9.376,3.846-23.886,3.449-33.007-.13-2.978,2.924-5.103,5.662-3.924,19.282,8.302,40.457,4.544,52.088-3.916" fill="url(#m)" stroke-width="0"/><path d="M197.63,57.409c0,7.109-1.822,13.857-5.089,19.911l-11.73-9.185c-.22-.959-.333-1.952-.333-2.973,0-7.408,6.003-13.417,13.417-13.417,1.174,0,2.313.152,3.402.434.22,1.715.333,3.464.333,5.23Z" fill="url(#n)" stroke-width="0"/><path d="M160.906,124.083l-.004-.004c-1.293-.742-3.068-1.329-5.175-1.815-.287-.774-.766-1.572-1.42-2.378.61-.227,5.693-2.015,8.119.81,0,0,3.303,2.633-1.52,3.387Z" fill="url(#o)" stroke-width="0"/><path d="M160.808,124.384l-.079-.078c-1.187-.676-2.845-1.254-5.065-1.767l-.148-.034-.053-.143c-.274-.739-.737-1.512-1.375-2.298l-.248-.305.368-.137c.595-.221,5.882-2.079,8.432.89.022.012,1.429,1.149,1.13,2.281-.21.792-1.132,1.305-2.82,1.569l-.142.022ZM155.937,122.023c2.173.511,3.819,1.089,5.024,1.765,1.342-.222,2.124-.615,2.263-1.139.171-.644-.645-1.469-.974-1.732-2.064-2.396-6.16-1.321-7.477-.893.514.677.904,1.348,1.164,2Z" fill="url(#p)" stroke-width="0"/><path d="M161.963,130.199c-1.955-1.173-3.854-1.843-5.733-2.286l-.156-.036c-.55-.128-1.093-.239-1.636-.335.495-.519.878-1.053,1.137-1.6.583-1.181.622-2.41.152-3.678,2.107.487,3.882,1.073,5.175,1.815l.004.004c.168.096.331.196.479.295.834.555,1.4,1.185,1.668,1.915.531,1.384.527,2.402.04,3.096-.247.359-.626.626-1.129.81Z" fill="url(#q)" stroke-width="0"/><path d="M161.934,130.511l-.115-.069c-1.725-1.035-3.521-1.75-5.653-2.254l-.156-.035c-.552-.128-1.082-.237-1.62-.332l-.518-.091.364-.381c.477-.501.843-1.014,1.087-1.526.54-1.096.587-2.259.142-3.46l-.182-.491.51.118c2.295.531,4.013,1.134,5.252,1.846l.036.023c.162.094.32.191.464.288.91.606,1.49,1.277,1.774,2.052.553,1.441.555,2.571.006,3.354-.275.4-.701.707-1.263.913l-.127.046ZM154.984,127.357c.381.073.762.155,1.154.246l.154.035c2.144.506,3.958,1.222,5.698,2.249.392-.162.678-.377.87-.657.436-.622.412-1.575-.071-2.835-.242-.662-.752-1.244-1.56-1.781-.144-.097-.301-.193-.462-.285l-.037-.022c-1.099-.625-2.601-1.168-4.58-1.651.323,1.179.215,2.325-.321,3.413-.206.433-.489.865-.845,1.289Z" fill="url(#r)" stroke-width="0"/><path d="M158.891,134.788s-2.426-2.266-5.729-3.279c-1.073-.331-2.242-.527-3.455-.471.702-.431,1.388-.91,2.071-1.424,1.109-.67,1.995-1.364,2.661-2.071.543.096,1.085.207,1.636.335l.156.036c1.975,1.456,5.234,4.46,2.661,6.874Z" fill="url(#s)" stroke-width="0"/><path d="M158.892,135.174l-.193-.18c-.024-.022-2.421-2.235-5.62-3.216-1.147-.353-2.277-.509-3.359-.458l-1.093.05.932-.572c.652-.401,1.322-.861,2.049-1.409,1.095-.663,1.97-1.344,2.625-2.039l.104-.111.15.026c.549.097,1.089.207,1.651.338l.26.084c1.635,1.206,3.608,3.043,3.72,4.948.051.874-.296,1.667-1.034,2.359l-.192.181ZM150.658,130.761c.847.047,1.714.207,2.587.477,2.818.864,4.978,2.594,5.634,3.161.491-.528.712-1.097.675-1.732-.103-1.754-2.18-3.554-3.445-4.493l-.1-.023c-.501-.117-.985-.217-1.472-.306-.677.693-1.555,1.368-2.614,2.008-.433.328-.854.629-1.266.907Z" fill="url(#t)" stroke-width="0"/><path d="M154.993,61.289c0,8.616-7.058,15.6-15.764,15.6s-15.764-6.985-15.764-15.6,7.058-15.606,15.764-15.606,15.764,6.991,15.764,15.606Z" fill="url(#u)" stroke-width="0"/><ellipse cx="128.536" cy="78.129" rx="6.86" ry="3.85" fill="url(#v)" stroke-width="0"/><path d="M121.84,192.215c-2.415,2.979-5.084,5.574-7.876,7.73-9.033,6.946-19.494,9.281-28.092,5.174-4.35-2.082-7.713-5.569-10.009-9.981-3.244-6.223-4.361-14.286-3.126-22.845,0-.011,0-.017.006-.034v-.006c.739-5.112,2.325-10.399,4.796-15.578.192-.406.389-.807.592-1.202.13-.26.26-.513.401-.767.192-.372.395-.745.598-1.111.231-.418.468-.829.705-1.241.017-.028.04-.062.051-.09.271-.446.542-.892.813-1.326.011-.017.023-.034.034-.051.237-.378.474-.745.722-1.111.412-.626.841-1.241,1.281-1.839.209-.293.423-.587.643-.875.028-.04.056-.073.085-.113.305-.401.615-.79.925-1.179.733-.903,1.839-1.173,2.81-.908-.045.079-.096.152-.141.231-.011.028-.034.062-.051.09-.237.412-.474.824-.705,1.241-.203.367-.406.739-.598,1.111-.141.254-.271.508-.401.767-.203.395-.401.796-.592,1.202-2.471,5.179-4.057,10.466-4.796,15.578v.006c-.006.017-.006.023-.006.034-1.236,8.559-.118,16.622,3.126,22.845,2.296,4.412,5.659,7.899,10.009,9.981,8.599,4.107,19.059,1.772,28.092-5.174.237-.181.468-.367.705-.559Z" fill="url(#w)" stroke-width="0"/><path d="M138.759,77.485c-8.943,0-16.218-7.275-16.218-16.218s7.275-16.218,16.218-16.218,16.218,7.275,16.218,16.218-7.275,16.218-16.218,16.218ZM138.759,46.741c-8.01,0-14.526,6.516-14.526,14.526s6.516,14.526,14.526,14.526,14.526-6.516,14.526-14.526-6.516-14.526-14.526-14.526Z" fill="#473f93" stroke-width="0"/><path d="M192.321,79.945c-7.234,0-13.12-6.561-13.12-14.627s5.886-14.626,13.12-14.626,13.12,6.561,13.12,14.626-5.886,14.627-13.12,14.627ZM192.321,52.385c-6.301,0-11.427,5.802-11.427,12.933s5.126,12.934,11.427,12.934,11.427-5.802,11.427-12.934-5.126-12.933-11.427-12.933Z" fill="#473f93" stroke-width="0"/><path d="M179.394,63.728c-10.74-9.689-24.698-1.809-24.839-1.729l-.848-1.465c.149-.087,15.153-8.586,26.821,1.936l-1.134,1.257Z" fill="#473f93" stroke-width="0"/><path d="M197.771,90.055c-1.275-.028-2.562-.056-3.842-.079-1.19-.023-2.381-.051-3.571-.073-2.533-.051-5.055-.107-7.527-.181-4.576-.13-8.977-.333-12.96-.683-6.906-.609-12.554-1.681-15.634-3.696-7.064-3.476-6.11-6.031-.107-8.937,3.368-1.625,6.584-3.554,9.586-5.778,5.62-4.153,11.335-6.46,15.967-3.38l1.128.886,11.73,9.185.22.175c.474.372.959.733,1.456,1.083,2.082,1.478,4.299,2.748,6.573,3.927,3.763,1.963,2.793,5.704-3.019,7.549Z" fill="url(#x)" stroke-width="0"/><path d="M197.893,90.904l-.141-.003c-1.274-.028-2.559-.056-3.839-.079l-3.572-.073c-2.538-.051-5.063-.108-7.537-.181-5.175-.147-9.431-.371-13.008-.685-7.977-.704-13.057-1.912-15.98-3.802-3.68-1.817-5.391-3.499-5.386-5.289.006-1.779,1.649-3.366,5.329-5.147,3.351-1.616,6.53-3.532,9.451-5.695,7.03-5.196,12.571-6.308,16.94-3.405l.054.039,13.083,10.25c.452.355.931.711,1.417,1.053,1.814,1.289,3.871,2.517,6.475,3.867,1.841.96,2.818,2.41,2.682,3.978-.186,2.142-2.313,4.012-5.833,5.129l-.134.042ZM174.943,66.679c-2.991,0-6.54,1.538-10.725,4.631-3.006,2.226-6.276,4.197-9.722,5.859-2.898,1.403-4.369,2.624-4.373,3.629-.002.72.774,1.961,4.486,3.788l.089.051c2.636,1.723,7.624,2.888,15.246,3.561,3.543.311,7.766.533,12.91.68,2.47.073,4.989.129,7.52.18l3.57.073c1.234.022,2.473.049,3.703.076,3.194-1.044,4.434-2.549,4.527-3.62.101-1.168-1.069-1.961-1.776-2.33-2.673-1.387-4.794-2.654-6.671-3.988-.508-.358-1.009-.731-1.489-1.107l-.224-.179-12.828-10.047c-1.269-.837-2.68-1.257-4.243-1.257Z" fill="url(#y)" stroke-width="0"/><rect x="168.505" y="81.49" width="1.195" height="3.82" rx=".597" ry=".597" transform="translate(29.599 210.246) rotate(-68.531)" fill="#000" stroke-width="0"/><rect x="186.395" y="82.823" width="1.195" height="3.355" rx=".562" ry=".562" transform="translate(123.043 -110.479) rotate(47.524)" fill="#000" stroke-width="0"/><path d="M125.016,95.133l15.067,13.058c2.156,1.869,4.465,3.56,6.927,5.003,10.711,6.276,13.746,11.95,5.814,16.761-9.608,7.282-20.423,6.622-32.067.501-17.975-11.967-19.949-39.287,4.259-35.324Z" fill="url(#z)" stroke-width="0"/><path d="M149.468,140.772s13.703,13.773,47.174-.383c0,0,9.799-6.888,4.569.432,0,0,17.076-2.147,6.161,7.905,0,0,16.105,27.338-22.257,24.497-38.362-2.842-35.648-32.45-35.648-32.45Z" fill="url(#aa)" stroke-width="0"/><path d="M197.629,147.819c-.229,0-.461-.075-.655-.23-.452-.361-.525-1.022-.163-1.474,4.298-5.372,4.883-7.219,4.944-7.745h-.016c-.434,0-1.754.212-5.097,2.02-5.859,3.169-11.867,5.329-17.857,6.421-19.196,3.501-28.781-4.23-29.18-4.561-.446-.37-.507-1.031-.137-1.477.37-.445,1.03-.507,1.476-.139.132.108,9.34,7.417,27.466,4.113,5.771-1.052,11.57-3.139,17.234-6.202,4.394-2.377,6.721-2.853,7.781-1.584,1.041,1.247.594,3.504-4.975,10.466-.207.259-.512.393-.82.393Z" fill="#34316d" stroke-width="0"/><path d="M206.756,148.926c-.324,0-.644-.15-.849-.432-.341-.468-.237-1.124.232-1.465,4.292-3.122,4.175-4.177,4.174-4.188-.401-.637-4.303-.767-8.724.043-.57.102-1.117-.272-1.221-.843-.104-.57.272-1.117.843-1.221,2.93-.537,9.874-1.498,11.033,1.204.714,1.665-.789,3.732-4.872,6.701-.186.136-.402.201-.616.201Z" fill="#34316d" stroke-width="0"/><circle cx="143.727" cy="67.058" r="3.915" fill="#37294f" stroke-width="0"/><circle cx="186.941" cy="67.816" r="3.21" fill="#37294f" stroke-width="0"/><path d="M183.459,122.973l.003-.003c1.059-.608,2.514-1.089,4.24-1.488.235-.634.628-1.288,1.164-1.949-.5-.186-4.665-1.651-6.653.664,0,0-2.707,2.158,1.246,2.776Z" fill="url(#ab)" stroke-width="0"/><path d="M183.56,123.27l-.145-.019c-1.405-.22-2.175-.652-2.352-1.323-.25-.943.848-1.851.974-1.952,2.073-2.422,6.437-.89,6.928-.707l.369.137-.248.305c-.519.639-.895,1.267-1.119,1.868l-.053.143-.148.034c-1.808.418-3.16.889-4.131,1.439l-.074.074ZM185.518,119.188c-1.128,0-2.303.275-3.091,1.193-.3.247-.952.903-.818,1.403.106.401.743.717,1.796.894.988-.551,2.328-1.022,4.089-1.437.208-.513.512-1.039.907-1.569-.581-.185-1.706-.484-2.883-.484Z" fill="url(#ac)" stroke-width="0"/><path d="M182.593,127.985c1.602-.961,3.158-1.51,4.698-1.873l.128-.029c.451-.105.896-.196,1.34-.275-.405-.425-.719-.863-.932-1.311-.477-.968-.51-1.975-.124-3.014-1.726.399-3.181.88-4.24,1.488l-.003.003c-.137.078-.271.16-.392.242-.683.454-1.148.971-1.367,1.569-.435,1.134-.432,1.968-.033,2.537.203.294.513.513.925.664Z" fill="url(#ad)" stroke-width="0"/><path d="M182.622,128.296l-.127-.046c-.471-.172-.828-.43-1.061-.768-.458-.656-.458-1.597.002-2.798.235-.641.717-1.2,1.473-1.703.116-.078.244-.157.376-.233l.036-.022c1.022-.586,2.434-1.083,4.318-1.518l.51-.118-.182.491c-.365.985-.328,1.898.113,2.791.198.418.494.834.883,1.241l.364.381-.518.092c-.44.078-.879.169-1.326.272l-.132.03c-1.737.41-3.204.995-4.613,1.84l-.115.069ZM183.635,123.196l-.036.022c-.131.074-.259.153-.375.231-.654.435-1.066.903-1.259,1.432-.391,1.019-.413,1.785-.067,2.278.149.217.369.385.669.512,1.423-.838,2.908-1.422,4.658-1.835l.128-.03c.29-.067.578-.129.865-.186-.27-.331-.487-.667-.646-1.004-.431-.873-.527-1.795-.287-2.746-1.57.389-2.768.824-3.651,1.325Z" fill="url(#ae)" stroke-width="0"/><path d="M185.11,131.744s1.988-1.857,4.695-2.687c.879-.271,1.837-.432,2.831-.386-.575-.353-1.138-.745-1.697-1.167-.909-.549-1.635-1.118-2.181-1.697-.445.078-.889.17-1.34.275l-.128.029c-1.618,1.193-4.289,3.655-2.181,5.633Z" fill="url(#af)" stroke-width="0"/><path d="M185.11,132.131l-.192-.181c-.616-.577-.906-1.241-.863-1.973.093-1.581,1.72-3.098,3.069-4.093l.107-.048.123-.029c.457-.106.906-.198,1.356-.278l.15-.026.105.111c.533.566,1.247,1.121,2.121,1.649.623.467,1.17.844,1.699,1.168l.934.573-1.095-.051c-.876-.035-1.8.085-2.735.374-2.615.802-4.566,2.606-4.585,2.624l-.193.18ZM187.411,126.373c-1.03.766-2.71,2.224-2.794,3.637-.029.491.137.933.507,1.346.582-.498,2.332-1.873,4.598-2.568.669-.207,1.334-.336,1.984-.384-.301-.206-.612-.43-.937-.674-.839-.505-1.554-1.053-2.109-1.618-.391.072-.782.154-1.178.246l-.071.016Z" fill="url(#ag)" stroke-width="0"/><path d="M206.596,127.793c-6.081,1.412-11.444,1.216-15.981-.823-2.658-1.194-3.628-4.516-2.034-6.955,3.233-4.95,5.207-11.099,6.103-17.953.624-4.769,6.716-6.346,9.707-2.579,6.159,7.757,8.011,16.848,2.205,28.311Z" fill="url(#ah)" stroke-width="0"/><path d="M155.284,95.383c1.881.537,5.264,2.412,8.844,4.464-2.327,2.817-4.839,5.256-7.594,7.194-1.196,1.133-3.479.85-3.619-.448-1.114-3.234-1.555-6.491-1.03-9.597-.139-1.298,2.005-2.316,3.398-1.613Z" fill="#4be0e0" stroke-width="0"/><path d="M171.797,104.782c-2.242-.8-5.3-2.569-8.456-4.454,2.145-2.374,4.322-4.659,6.761-6.189,1.065-.975,3.208-.615,3.397.571,1.172,2.564,1.59,5.515,1.395,8.761.189,1.185-1.766,2.013-3.098,1.311Z" fill="#4be0e0" stroke-width="0"/><path d="M165.422,102.225l-3.134.431c-.521.072-1.002-.293-1.074-.814-.427-.914-.558-1.817-.372-2.706-.072-.521.293-1.002.814-1.074l3.134-.431c.521-.072,1.002.293,1.074.814.341.788.414,1.717.372,2.706.072.521-.293,1.002-.814,1.074Z" fill="#40c0c6" stroke-width="0"/><g clip-path="url(#ai)"><path d="M113.547,47.178c-.373,0-.733-.199-.923-.55-.24-.444-.369-1.077,1.146-2.985,1.055-1.328,10.778-12.854,26.836-8.462.559.153.887.73.735,1.288-.153.558-.731.887-1.288.735-15.168-4.15-24.726,7.372-25.458,8.946-.008.365-.206.715-.55.9-.158.086-.329.126-.498.126Z" fill="#473f93" stroke-width="0"/><path d="M204.273,47.197c-.304,0-.605-.131-.812-.385-5.064-6.193-15.19-5.476-16.473-4.973-.332.309-.838.376-1.247.135-.499-.294-.665-.937-.371-1.436.166-.281.511-.866,3.176-1.069,5.04-.392,12.403.958,16.538,6.016.367.448.3,1.109-.148,1.475-.195.159-.429.237-.663.237ZM187.177,41.603s0,.001,0,.001c0,0,0,0,0-.001Z" fill="#473f93" stroke-width="0"/></g><path d="M53.962,281.282l-4.259-.802.17,4.068,3.677.691c1.277.24,2.364,1.633,2.427,3.113h0c.063,1.479-.922,2.485-2.201,2.245l-3.681-.69.283,6.878c.061,1.48-.928,2.487-2.209,2.248l-.839-.156c-1.28-.239-2.366-1.633-2.425-3.114l-.768-18.991c-.061-1.48.923-2.485,2.196-2.244l7.396,1.397c1.275.241,2.36,1.635,2.425,3.114h0c.064,1.479-.918,2.483-2.195,2.243Z" fill="#33aaa4" stroke-width="0"/><path d="M68.909,286.143c-.013-.017-.026-.02-.038-.007-.089-.017-.178-.033-.267-.035-.93-.145-1.735-.047-2.427.306-.754.385-1.384,1.014-1.875,1.902-.066-1.49-1.166-2.897-2.467-3.141l-.357-.067c-1.3-.244-2.293.77-2.228,2.261l.481,11.131c.065,1.506,1.165,2.912,2.47,3.154l.358.067c1.305.243,2.301-.772,2.235-2.278l-.193-4.384c-.069-1.549.173-2.675.725-3.362.551-.702,1.414-.936,2.576-.718.37.069.742.183,1.091.336.568.238,1.08-.193,1.049-.872l-.134-2.921c-.028-.62-.473-1.215-.999-1.372Z" fill="#33aaa4" stroke-width="0"/><path d="M80.532,301.571c-2.06-.383-3.143-1.841-3.26-4.348l8.529,1.586c1.195.222,2.075-.814,1.844-2.208-.122-.736-.278-1.437-.461-1.989-.414-1.216-.973-2.284-1.689-3.206-.703-.92-1.55-1.676-2.541-2.27-.991-.609-2.086-1.018-3.299-1.245-1.225-.229-2.313-.228-3.276.015-.95.231-1.765.678-2.405,1.318-.653.653-1.146,1.481-1.466,2.518-.319,1.037-.453,2.255-.391,3.627.061,1.327.32,2.575.753,3.723.445,1.136,1.038,2.167,1.79,3.082.752.9,1.65,1.652,2.668,2.264,1.031.601,2.155,1.028,3.372,1.254,3.33.617,5.555-.313,6.652-2.776.301-.678-.25-1.662-.976-1.797l-3.015-.56c-.264-.049-.489.069-.644.274-.505.667-1.236.911-2.185.735ZM78.092,292.042c.476-.379,1.103-.495,1.883-.35.741.138,1.392.508,1.939,1.092.548.599.924,1.311,1.129,2.153l-5.79-1.079c.087-.831.376-1.435.839-1.816Z" fill="#33aaa4" stroke-width="0"/><path d="M132.523,301.288c-.289-.824-.672-1.505-1.123-2.068-.464-.566-.998-1.013-1.612-1.345-.603-.33-1.25-.566-1.916-.689-2.114-.391-3.681.351-4.704,2.212-1.231-2.264-2.915-3.595-5.041-3.989-1.716-.318-3.222.159-4.522,1.417l-.018-.324c-.086-.889-.714-1.705-1.462-1.946l-1.932-.359c-.972-.181-1.705.572-1.644,1.704l.615,11.552c.043.81.363,1.583.853,2.197.477.613,1.136,1.055,1.83,1.182,1.412.26,2.472-.841,2.385-2.445l-.282-5.222c-.048-.883-.022-1.577.064-2.1.098-.535.241-.931.442-1.199.188-.271.433-.43.709-.48.275-.066.568-.055.888.004.372.069.695.187.983.357.288.17.531.433.728.775.184.355.35.822.47,1.383.132.563.209,1.261.255,2.1l.287,5.221c.044.809.366,1.582.858,2.196.491.615,1.151,1.056,1.845,1.184,1.401.257,2.471-.841,2.382-2.444l-.292-5.219c-.153-2.72.578-3.938,2.206-3.637.295.054.58.165.855.318.263.165.505.399.715.743.222.331.387.784.52,1.332.134.563.224,1.248.272,2.086l.297,5.217c.046.808.369,1.581.862,2.195.493.614,1.154,1.055,1.848,1.183,1.402.257,2.471-.841,2.378-2.443l-.452-7.787c-.063-1.088-.246-2.051-.547-2.863Z" fill="#33aaa4" stroke-width="0"/><path d="M135.493,292.628c-.027-.45.022-.859.148-1.227.126-.368.31-.677.553-.929.243-.251.532-.43.867-.537.335-.107.698-.124,1.09-.052.392.073.765.227,1.121.462.356.236.673.527.953.875.279.349.506.734.679,1.157.173.424.273.86.3,1.31.027.449-.022.858-.146,1.226-.126.368-.311.678-.553.929-.244.251-.533.43-.869.537-.335.108-.699.125-1.091.052-.392-.073-.766-.226-1.122-.462-.356-.236-.673-.527-.952-.875-.279-.348-.505-.733-.678-1.157-.173-.424-.273-.86-.3-1.309ZM141.454,302.855l.638,10.657c.095,1.604-.967,2.697-2.372,2.439h0c-1.405-.257-2.621-1.767-2.715-3.372l-.627-10.66c-.095-1.605.963-2.695,2.364-2.437h0c1.401.259,2.615,1.769,2.712,3.373Z" fill="#33aaa4" stroke-width="0"/><path d="M147.294,301.061c1.402.258,2.619,1.768,2.719,3.371l.393,6.367c.125,2.033,1.049,3.206,2.775,3.522,1.725.316,2.525-.542,2.398-2.574l-.4-6.365c-.101-1.603.954-2.692,2.357-2.434h0c1.403.258,2.624,1.766,2.726,3.368l.478,7.486c.141,2.223-.396,3.773-1.612,4.649-1.217.877-3.102,1.083-5.654.617-2.552-.466-4.505-1.373-5.857-2.72-1.352-1.347-2.094-3.133-2.229-5.358l-.455-7.493c-.098-1.604.959-2.694,2.361-2.436h0Z" fill="#33aaa4" stroke-width="0"/><path d="M98.681,304.935c-2.063-.382-3.152-1.838-3.278-4.342l8.54,1.583c1.196.221,2.074-.814,1.837-2.206-.125-.735-.284-1.435-.468-1.986-.419-1.215-.982-2.281-1.702-3.202-.707-.919-1.557-1.674-2.551-2.267-.994-.608-2.092-1.016-3.306-1.243-1.227-.229-2.316-.228-3.278.016-.95.231-1.763.678-2.402,1.317-.651.652-1.142,1.48-1.458,2.516-.316,1.036-.446,2.253-.378,3.623.065,1.326.33,2.572.767,3.719.45,1.134,1.046,2.164,1.803,3.078.756.899,1.657,1.65,2.678,2.261,1.034.6,2.161,1.026,3.379,1.251,3.335.615,5.558-.314,6.647-2.774.299-.677-.257-1.66-.984-1.794l-3.019-.558c-.264-.049-.489.069-.643.274-.503.666-1.234.911-2.184.735ZM96.206,295.417c.475-.379,1.102-.495,1.883-.35.742.138,1.394.507,1.944,1.091.55.598.93,1.31,1.138,2.15l-5.798-1.077c.084-.83.371-1.434.833-1.814Z" fill="#33aaa4" stroke-width="0"/><path d="M187.757,311.43c-.299-.821-.689-1.499-1.148-2.06-.471-.563-1.011-1.008-1.63-1.339-.607-.328-1.259-.563-1.928-.685-2.122-.389-3.685.352-4.69,2.207-1.258-2.256-2.961-3.58-5.095-3.972-1.723-.316-3.228.161-4.516,1.415l-.021-.323c-.096-.886-.734-1.698-1.486-1.938l-1.94-.356c-.977-.179-1.702.571-1.629,1.7l.742,11.511c.052.807.381,1.577.879,2.189.485.61,1.15,1.05,1.846,1.177,1.418.258,2.468-.84,2.364-2.438l-.34-5.204c-.058-.88-.039-1.571.041-2.093.092-.533.231-.928.43-1.195.186-.27.429-.428.706-.479.275-.066.568-.055.89.004.373.068.699.186.989.355.291.169.537.431.738.772.189.353.36.819.486,1.377.139.561.223,1.257.279,2.092l.344,5.202c.053.806.384,1.576.884,2.188.499.612,1.165,1.052,1.862,1.178,1.406.255,2.467-.84,2.36-2.437l-.35-5.2c-.183-2.71.536-3.924,2.171-3.626.296.054.583.164.861.316.265.164.51.397.725.74.226.33.397.781.536,1.327.14.56.238,1.244.295,2.079l.354,5.199c.055.806.387,1.575.888,2.186.5.612,1.168,1.051,1.865,1.177,1.407.255,2.467-.84,2.357-2.436l-.538-7.759c-.075-1.084-.269-2.044-.58-2.852Z" fill="#33aaa4" stroke-width="0"/><path d="M256.693,55.658v11.292c0,.577-.022,1.11-.087,1.589-.065.489-.163.903-.305,1.251-.218.566-.533,1.077-.925,1.534-.392.457-.849.849-1.371,1.175-.522.326-1.099.577-1.73.751-.642.185-1.305.283-2.002.283-1.512,0-2.829-.5-3.938-1.512-.751-.663-.772-1.828-.076-2.545l1.534-1.577c.011-.011.033-.033.043-.033.098-.098.229-.152.37-.152.185,0,.359.098.457.25.022.054.044.098.065.142.087.196.196.359.316.511.294.359.664.522,1.099.522.957,0,1.436-.751,1.436-2.263v-11.216c0-1.305,1.055-2.361,2.361-2.361h.392c1.305,0,2.361,1.055,2.361,2.361Z" fill="#231815" stroke-width="0"/><path d="M259.882,66.166c0-.992.2-1.92.6-2.781s.957-1.61,1.671-2.245,1.563-1.136,2.545-1.501c.984-.365,2.059-.548,3.225-.548,1.148,0,2.214.178,3.198.534.984.357,1.837.853,2.559,1.488.721.635,1.283,1.393,1.684,2.271.399.88.6,1.85.6,2.912s-.205,2.032-.614,2.911c-.409.879-.97,1.636-1.684,2.271-.714.635-1.57,1.127-2.571,1.475-1.002.348-2.085.523-3.251.523-1.148,0-2.211-.174-3.185-.523-.975-.347-1.815-.844-2.52-1.487s-1.258-1.414-1.658-2.311c-.401-.897-.6-1.893-.6-2.99ZM264.869,66.218c0,.453.083.866.249,1.24.165.375.382.701.652.98s.592.496.966.652c.375.157.77.235,1.189.235.418,0,.813-.078,1.188-.235.374-.156.696-.374.966-.652s.488-.604.653-.98c.165-.374.248-.779.248-1.214,0-.418-.083-.813-.248-1.188-.166-.374-.384-.7-.653-.978s-.592-.496-.966-.653c-.375-.156-.77-.235-1.188-.235-.419,0-.814.079-1.189.235-.374.157-.696.375-.966.653s-.488.6-.652.966c-.166.365-.249.757-.249,1.175Z" fill="#231815" stroke-width="0"/><path d="M278.368,54.442c0-.365.069-.709.208-1.032.139-.322.33-.604.575-.848.243-.244.526-.436.849-.575.322-.139.665-.209,1.032-.209s.709.07,1.031.209.604.33.849.575.435.526.575.848c.139.323.208.666.208,1.032s-.069.71-.208,1.032c-.14.322-.331.604-.575.849-.244.243-.527.435-.849.574-.322.14-.665.209-1.031.209s-.71-.069-1.032-.209c-.323-.139-.606-.33-.849-.574-.244-.244-.436-.527-.575-.849s-.208-.666-.208-1.032ZM283.407,61.949v8.668c0,1.305-1.058,2.363-2.363,2.363h0c-1.305,0-2.363-1.058-2.363-2.363v-8.668c0-1.305,1.058-2.363,2.363-2.363h0c1.305,0,2.363,1.058,2.363,2.363Z" fill="#231815" stroke-width="0"/><path d="M288.341,59.586h1.332c.937,0,1.697.76,1.697,1.697h0c.644-.783,1.296-1.31,1.958-1.58.662-.27,1.436-.405,2.323-.405.94,0,1.746.153,2.416.457.669.305,1.24.736,1.709,1.293.384.453.644.957.784,1.514.139.558.208,1.193.208,1.906v6.149c0,1.305-1.058,2.363-2.363,2.363h0c-1.305,0-2.363-1.058-2.363-2.363v-4.399c0-.662-.048-1.196-.143-1.606-.096-.408-.266-.735-.509-.978-.209-.209-.444-.357-.705-.444s-.54-.131-.835-.131c-.801,0-1.415.24-1.841.718-.427.479-.64,1.162-.64,2.049v4.791c0,1.305-1.058,2.363-2.363,2.363h0c-1.305,0-2.363-1.058-2.363-2.363v-9.334c0-.937.76-1.697,1.697-1.697Z" fill="#231815" stroke-width="0"/><path d="M312.907,70.074l2.384-14.04c.269-1.583,1.64-2.741,3.246-2.741h.004c1.372,0,2.599.85,3.082,2.134l3.141,8.361,3.118-8.354c.48-1.287,1.71-2.141,3.084-2.141h0c1.606,0,2.977,1.158,3.246,2.741l2.383,14.04c.258,1.519-.913,2.905-2.454,2.905h0c-1.232,0-2.279-.902-2.461-2.12l-1.38-9.211-4.264,10.398c-.231.564-.781.933-1.391.933h0c-.62,0-1.176-.38-1.401-.958l-4.039-10.373-1.38,9.211c-.183,1.219-1.229,2.12-2.461,2.12h0c-1.541,0-2.712-1.386-2.454-2.906Z" fill="#231815" stroke-width="0"/><path d="M352.089,68.886h-2.752c-.392,0-.783.139-1.047.429-.498.548-1.164.822-1.989.822-1.915,0-2.872-1.023-2.872-3.057h8.201c.992,0,1.757-.873,1.632-1.857-.084-.667-.212-1.307-.379-1.787-.326-.936-.805-1.719-1.436-2.361-.631-.642-1.393-1.142-2.296-1.48-.903-.337-1.926-.5-3.057-.5-1.153,0-2.176.163-3.089.5-.914.337-1.697.827-2.339,1.447-.642.631-1.142,1.393-1.49,2.285-.348.903-.522,1.904-.522,3.024,0,1.077.185,2.045.544,2.916.37.881.892,1.621,1.556,2.252.674.631,1.48,1.11,2.415,1.447.946.337,1.98.511,3.111.511,3.22,0,5.385-1.175,6.506-3.503.228-.511-.142-1.088-.696-1.088ZM344.442,62.718c.457-.381,1.055-.577,1.784-.577.696,0,1.284.207,1.773.598.49.402.816.935.968,1.599h-5.407c.12-.696.413-1.24.881-1.621Z" fill="#231815" stroke-width="0"/></g></svg>