<?xml version="1.0" encoding="UTF-8"?><svg id="b" xmlns="http://www.w3.org/2000/svg" xmlns:xlink="http://www.w3.org/1999/xlink" viewBox="0 0 443.259 443.259"><defs><clipPath id="d"><rect width="443.259" height="443.259" fill="none" stroke-width="0"/></clipPath><linearGradient id="e" x1="-96.394" y1="277.225" x2="439.447" y2="234.922" gradientUnits="userSpaceOnUse"><stop offset=".002" stop-color="#fef9c2"/><stop offset=".386" stop-color="#fefce1"/><stop offset=".701" stop-color="#fff"/></linearGradient><filter id="f" filterUnits="userSpaceOnUse"><feOffset dx="0" dy="0"/><feGaussianBlur result="g" stdDeviation="7.651"/><feFlood flood-color="#fff" flood-opacity=".75"/><feComposite in2="g" operator="in"/><feComposite in="SourceGraphic"/></filter><filter id="h" filterUnits="userSpaceOnUse"><feOffset dx="0" dy="0"/><feGaussianBlur result="i" stdDeviation="5.956"/><feFlood flood-color="#fff" flood-opacity=".75"/><feComposite in2="i" operator="in"/><feComposite in="SourceGraphic"/></filter><linearGradient id="j" x1="129.409" y1="13.843" x2="132.362" y2="16.212" gradientUnits="userSpaceOnUse"><stop offset="0" stop-color="#338c8a"/><stop offset=".033" stop-color="rgba(68,149,147,.924)" stop-opacity=".924"/><stop offset=".18" stop-color="rgba(135,187,186,.629)" stop-opacity=".629"/><stop offset=".326" stop-color="rgba(187,216,216,.398)" stop-opacity=".398"/><stop offset=".47" stop-color="rgba(224,238,237,.233)" stop-opacity=".233"/><stop offset=".611" stop-color="rgba(247,250,250,.133)" stop-opacity=".133"/><stop offset=".745" stop-color="#fff" stop-opacity=".1"/></linearGradient><linearGradient id="k" x1="127.669" y1="225.776" x2="127.437" y2="239.079" gradientUnits="userSpaceOnUse"><stop offset="0" stop-color="#00cdd2"/><stop offset=".035" stop-color="#19b8da"/><stop offset=".088" stop-color="#399ee6"/><stop offset=".146" stop-color="#5488ef"/><stop offset=".209" stop-color="#6878f6"/><stop offset=".28" stop-color="#776cfb"/><stop offset=".365" stop-color="#7f66fe"/><stop offset=".506" stop-color="#8264ff"/><stop offset="1" stop-color="#5047bf"/></linearGradient><linearGradient id="l" x1="89.601" y1="232.009" x2="131.165" y2="419.971" gradientUnits="userSpaceOnUse"><stop offset="0" stop-color="#ff4e93"/><stop offset=".029" stop-color="#ea51a4"/><stop offset=".083" stop-color="#ca57c0"/><stop offset=".141" stop-color="#af5bd7"/><stop offset=".205" stop-color="#9b5fe9"/><stop offset=".277" stop-color="#8c62f5"/><stop offset=".363" stop-color="#8463fc"/><stop offset=".506" stop-color="#8264ff"/><stop offset="1" stop-color="#5047bf"/></linearGradient><linearGradient id="m" x1="127.622" y1="376.739" x2="128.162" y2="376.739" gradientUnits="userSpaceOnUse"><stop offset="0" stop-color="#f05724"/><stop offset="1" stop-color="#f69021"/></linearGradient><linearGradient id="n" x1="84.736" y1="392.949" x2="163.852" y2="392.949" gradientUnits="userSpaceOnUse"><stop offset="0" stop-color="#ff4e93"/><stop offset=".184" stop-color="#ff5391"/><stop offset=".425" stop-color="#ff648d"/><stop offset=".7" stop-color="#ff7f86"/><stop offset=".996" stop-color="#ffa57d"/><stop offset="1" stop-color="#ffa67d"/></linearGradient><linearGradient id="o" x1="-145.79" y1="903.718" x2="-75.848" y2="903.718" gradientTransform="translate(312.746 -576.642) rotate(5.153)" gradientUnits="userSpaceOnUse"><stop offset="0" stop-color="#8264ff"/><stop offset="1" stop-color="#5f4dd2"/></linearGradient><linearGradient id="p" x1="-670.216" y1="1199.954" x2="-609.339" y2="1199.954" gradientTransform="translate(885.909 -821.426) rotate(7.925) scale(.94 1)" gradientUnits="userSpaceOnUse"><stop offset="0" stop-color="#ffac00"/><stop offset="1" stop-color="#f03c00"/></linearGradient><linearGradient id="q" x1="-264.98" y1="1294.078" x2="-254.878" y2="1294.078" gradientTransform="translate(1384.532 534.211) rotate(90)" gradientUnits="userSpaceOnUse"><stop offset="0" stop-color="#d072bf"/><stop offset="1" stop-color="#8264ff"/></linearGradient><linearGradient id="r" x1="-197.306" y1="1292.307" x2="-187.204" y2="1292.307" gradientTransform="translate(1449.947 474.835) rotate(90)" gradientUnits="userSpaceOnUse"><stop offset="0" stop-color="#8264ff"/><stop offset="1" stop-color="#d072bf"/></linearGradient><linearGradient id="s" x1="-260.174" y1="1285.311" x2="-236.958" y2="1285.311" gradientTransform="translate(539.69 -966.842) rotate(8.541)" gradientUnits="userSpaceOnUse"><stop offset="0" stop-color="#fef"/><stop offset=".656" stop-color="#ffeaff"/><stop offset="1" stop-color="#ffe5ff"/></linearGradient><linearGradient id="t" x1="-213.789" y1="1285.684" x2="-192.953" y2="1285.684" xlink:href="#s"/><linearGradient id="u" x1="-170.2" y1="-1505.387" x2="-189.314" y2="-1521.771" gradientTransform="translate(-433.232 1414.614) rotate(-151.905) scale(1 -1)" gradientUnits="userSpaceOnUse"><stop offset="0" stop-color="#a84e93"/><stop offset=".185" stop-color="#ad5191"/><stop offset=".428" stop-color="#be5c8d"/><stop offset=".705" stop-color="#d96d86"/><stop offset="1" stop-color="#ff867d"/></linearGradient><linearGradient id="v" x1="-236.919" y1="-1440.644" x2="-179.28" y2="-1375.069" gradientTransform="translate(-433.232 1414.614) rotate(-151.905) scale(1 -1)" gradientUnits="userSpaceOnUse"><stop offset="0" stop-color="#40c0c6"/><stop offset="1" stop-color="#6982c6"/></linearGradient><linearGradient id="w" x1="-241.014" y1="-1450.212" x2="-124.223" y2="-1317.341" gradientTransform="translate(-433.232 1414.614) rotate(-151.905) scale(1 -1)" gradientUnits="userSpaceOnUse"><stop offset="0" stop-color="#6982c6"/><stop offset=".324" stop-color="#40c0c6"/><stop offset="1" stop-color="#fcff80"/></linearGradient><linearGradient id="x" x1="-202.502" y1="-1421.431" x2="17.506" y2="-1425.514" gradientTransform="translate(-433.232 1414.614) rotate(-151.905) scale(1 -1)" gradientUnits="userSpaceOnUse"><stop offset="0" stop-color="#6982c6"/><stop offset=".032" stop-color="#618dc6"/><stop offset=".112" stop-color="#52a3c6"/><stop offset=".2" stop-color="#48b3c6"/><stop offset=".298" stop-color="#41bdc6"/><stop offset=".432" stop-color="#40c0c6"/><stop offset="1" stop-color="#fcff80"/></linearGradient><linearGradient id="y" x1="-88.521" y1="-1432.933" x2="-35.421" y2="-1484.516" gradientTransform="translate(-433.232 1414.614) rotate(-151.905) scale(1 -1)" gradientUnits="userSpaceOnUse"><stop offset="0" stop-color="#78cd9e"/><stop offset=".183" stop-color="#91d6a8"/><stop offset=".571" stop-color="#d1efc2"/><stop offset=".805" stop-color="#fcffd3"/></linearGradient><linearGradient id="z" x1="-109.915" y1="-1431.333" x2="-109.872" y2="-1431.333" gradientTransform="translate(-433.232 1414.614) rotate(-151.905) scale(1 -1)" gradientUnits="userSpaceOnUse"><stop offset="0" stop-color="#e45627"/><stop offset="1" stop-color="#ec8c28"/></linearGradient><linearGradient id="aa" x1="-109.829" y1="-1431.347" x2="-109.791" y2="-1431.347" xlink:href="#z"/><linearGradient id="ab" x1="-74.72" y1="-1455.518" x2="-74.663" y2="-1455.518" gradientTransform="translate(-433.232 1414.614) rotate(-151.905) scale(1 -1)" gradientUnits="userSpaceOnUse"><stop offset="0" stop-color="#75c398"/><stop offset=".186" stop-color="#8ecda3"/><stop offset=".579" stop-color="#cee7c0"/><stop offset=".805" stop-color="#f7f8d2"/></linearGradient><linearGradient id="ac" x1="9801.848" y1="-3462.425" x2="9850.45" y2="-3462.425" gradientTransform="translate(-8757.125 -4991.89) rotate(49.448)" xlink:href="#n"/><linearGradient id="ad" x1="2310.326" y1="-3461.602" x2="2337.968" y2="-3461.602" gradientTransform="translate(-873.17 4222.219) rotate(-130.552) scale(1 -1)" gradientUnits="userSpaceOnUse"><stop offset="0" stop-color="#f3a17c"/><stop offset=".044" stop-color="#f4ab8a"/><stop offset=".171" stop-color="#f7c4ad"/><stop offset=".306" stop-color="#fad9cb"/><stop offset=".448" stop-color="#fceae2"/><stop offset=".601" stop-color="#fdf5f2"/><stop offset=".772" stop-color="#fefcfb"/><stop offset="1" stop-color="#fff"/></linearGradient><linearGradient id="ae" x1="9789.009" y1="-3449.976" x2="9797.893" y2="-3449.976" gradientTransform="translate(-8757.125 -4991.89) rotate(49.448)" gradientUnits="userSpaceOnUse"><stop offset="0" stop-color="#fff"/><stop offset="1" stop-color="#fff"/></linearGradient><linearGradient id="af" x1="9797.893" y1="-3449.984" x2="9807.131" y2="-3449.984" xlink:href="#ae"/><linearGradient id="ag" x1="9807.131" y1="-3449.935" x2="9816.368" y2="-3449.935" xlink:href="#ae"/><linearGradient id="ah" x1="9821.665" y1="-3449.589" x2="9825.606" y2="-3449.589" xlink:href="#ae"/><linearGradient id="ai" x1="9816.368" y1="-3449.769" x2="9821.665" y2="-3449.769" xlink:href="#ae"/><linearGradient id="aj" x1="9825.606" y1="-3449.707" x2="9834.843" y2="-3449.707" xlink:href="#ae"/><linearGradient id="ak" x1="9834.843" y1="-3450.525" x2="9844.081" y2="-3450.525" xlink:href="#ae"/><linearGradient id="al" x1="9844.081" y1="-3452.315" x2="9850.521" y2="-3452.315" xlink:href="#ae"/><linearGradient id="am" x1="-195.367" y1="-1422.024" x2="-103.766" y2="-1422.024" gradientTransform="translate(-433.232 1414.614) rotate(-151.905) scale(1 -1)" gradientUnits="userSpaceOnUse"><stop offset="0" stop-color="#3e95a4"/><stop offset="1" stop-color="#40c0c6"/></linearGradient><linearGradient id="an" x1="-176.434" y1="-1536.323" x2="-69.53" y2="-1455.906" gradientTransform="translate(-433.232 1414.614) rotate(-151.905) scale(1 -1)" gradientUnits="userSpaceOnUse"><stop offset="0" stop-color="#fcffd3"/><stop offset=".422" stop-color="#fafed2"/><stop offset=".576" stop-color="#f3fad2"/><stop offset=".686" stop-color="#e7f5d0"/><stop offset=".775" stop-color="#d6edcf"/><stop offset=".851" stop-color="#c0e2cd"/><stop offset=".919" stop-color="#a5d5ca"/><stop offset=".978" stop-color="#85c6c7"/><stop offset="1" stop-color="#78c0c6"/></linearGradient><linearGradient id="ao" x1="-91.53" y1="-1507.464" x2="-152.558" y2="-1559.774" gradientTransform="translate(-433.232 1414.614) rotate(-151.905) scale(1 -1)" xlink:href="#n"/><linearGradient id="ap" x1="-134.042" y1="-1486.907" x2="-94.436" y2="-1486.907" gradientTransform="translate(-433.232 1414.614) rotate(-151.905) scale(1 -1)" gradientUnits="userSpaceOnUse"><stop offset="0" stop-color="#a0175f"/><stop offset="1" stop-color="#ab2fba"/></linearGradient><linearGradient id="aq" x1="-128.83" y1="-1480.77" x2="-99.649" y2="-1480.77" gradientTransform="translate(-433.232 1414.614) rotate(-151.905) scale(1 -1)" xlink:href="#n"/><linearGradient id="ar" x1="-122.327" y1="-1501.207" x2="-106.608" y2="-1501.207" gradientTransform="translate(-433.232 1414.614) rotate(-151.905) scale(1 -1)" gradientUnits="userSpaceOnUse"><stop offset="0" stop-color="#4092c6"/><stop offset="1" stop-color="#40c0a8"/></linearGradient><linearGradient id="as" x1="7317.942" y1="2199.363" x2="7366.544" y2="2199.363" gradientTransform="translate(-7273.562 1101.719) rotate(-22.723)" xlink:href="#n"/><linearGradient id="at" x1="7304.813" y1="2200.186" x2="7332.455" y2="2200.186" gradientTransform="translate(-7273.562 1101.719) rotate(-22.723)" gradientUnits="userSpaceOnUse"><stop offset="0" stop-color="#fff"/><stop offset=".228" stop-color="#fefcfb"/><stop offset=".399" stop-color="#fdf5f2"/><stop offset=".552" stop-color="#fceae2"/><stop offset=".694" stop-color="#fad9cb"/><stop offset=".829" stop-color="#f7c4ad"/><stop offset=".956" stop-color="#f4ab8a"/><stop offset="1" stop-color="#f3a17c"/></linearGradient><linearGradient id="au" x1="7305.103" y1="2211.812" x2="7313.987" y2="2211.812" gradientTransform="translate(-7273.562 1101.719) rotate(-22.723)" xlink:href="#ae"/><linearGradient id="av" x1="7313.987" y1="2211.804" x2="7323.225" y2="2211.804" gradientTransform="translate(-7273.562 1101.719) rotate(-22.723)" xlink:href="#ae"/><linearGradient id="aw" x1="7323.225" y1="2211.853" x2="7332.462" y2="2211.853" gradientTransform="translate(-7273.562 1101.719) rotate(-22.723)" xlink:href="#ae"/><linearGradient id="ax" x1="7337.759" y1="2212.199" x2="7341.7" y2="2212.199" gradientTransform="translate(-7273.562 1101.719) rotate(-22.723)" xlink:href="#ae"/><linearGradient id="ay" x1="7332.462" y1="2212.019" x2="7337.759" y2="2212.019" gradientTransform="translate(-7273.562 1101.719) rotate(-22.723)" xlink:href="#ae"/><linearGradient id="az" x1="7341.7" y1="2212.081" x2="7350.937" y2="2212.081" gradientTransform="translate(-7273.562 1101.719) rotate(-22.723)" xlink:href="#ae"/><linearGradient id="ba" x1="7350.937" y1="2211.263" x2="7360.174" y2="2211.263" gradientTransform="translate(-7273.562 1101.719) rotate(-22.723)" xlink:href="#ae"/><linearGradient id="bb" x1="7360.174" y1="2209.473" x2="7366.615" y2="2209.473" gradientTransform="translate(-7273.562 1101.719) rotate(-22.723)" xlink:href="#ae"/><linearGradient id="bc" x1="-1207.99" y1="290.591" x2="-1248.488" y2="274.625" gradientTransform="translate(-996.579) rotate(-180) scale(1 -1)" gradientUnits="userSpaceOnUse"><stop offset="0" stop-color="#ffb680"/><stop offset=".057" stop-color="#eca97f"/><stop offset=".227" stop-color="#bb897f"/><stop offset=".396" stop-color="#926e7e"/><stop offset=".56" stop-color="#72597e"/><stop offset=".718" stop-color="#5c4a7e"/><stop offset=".868" stop-color="#4e417e"/><stop offset="1" stop-color="#4a3e7e"/></linearGradient><linearGradient id="bd" x1="-1325.95" y1="124.713" x2="-1056.098" y2="124.713" gradientTransform="translate(-996.579) rotate(-180) scale(1 -1)" gradientUnits="userSpaceOnUse"><stop offset=".001" stop-color="#710828"/><stop offset=".487" stop-color="#b32d1c"/><stop offset="1" stop-color="#f5830f"/></linearGradient><radialGradient id="be" cx="-1242.778" cy="88.89" fx="-1242.778" fy="88.89" r="195.976" gradientTransform="translate(-996.579) rotate(-180) scale(1 -1)" gradientUnits="userSpaceOnUse"><stop offset=".001" stop-color="#710828"/><stop offset=".487" stop-color="#b32d1c"/><stop offset=".888" stop-color="#f5830f"/><stop offset="1" stop-color="#ffc622"/></radialGradient><linearGradient id="bf" x1="-1221.15" y1="304.636" x2="-1070.589" y2="374.25" gradientTransform="translate(-996.579) rotate(-180) scale(1 -1)" gradientUnits="userSpaceOnUse"><stop offset="0" stop-color="#383e85"/><stop offset="1" stop-color="#7e5f9b"/></linearGradient><radialGradient id="bg" cx="-1327.23" cy="257.696" fx="-1327.23" fy="257.696" r="215.391" gradientTransform="translate(-996.579) rotate(-180) scale(1 -1)" gradientUnits="userSpaceOnUse"><stop offset=".242" stop-color="#2f2c4d"/><stop offset=".628" stop-color="#383e85"/><stop offset=".745" stop-color="#353b82"/><stop offset=".83" stop-color="#2e3179"/><stop offset=".903" stop-color="#222269"/><stop offset=".971" stop-color="#120c53"/><stop offset="1" stop-color="#090048"/></radialGradient><linearGradient id="bh" x1="225.389" y1="264.663" x2="323.278" y2="484.414" gradientUnits="userSpaceOnUse"><stop offset="0" stop-color="#d4938c"/><stop offset=".596" stop-color="#424494"/><stop offset="1" stop-color="#090048"/></linearGradient><radialGradient id="bi" cx="-1243.886" cy="310.1" fx="-1243.886" fy="310.1" r="114.845" gradientTransform="translate(-996.579) rotate(-180) scale(1 -1)" gradientUnits="userSpaceOnUse"><stop offset="0" stop-color="#ffca9b"/><stop offset="1" stop-color="#383e85"/></radialGradient><linearGradient id="bj" x1="-1090.212" y1="362.643" x2="-1063.896" y2="362.643" gradientTransform="translate(-996.579) rotate(-180) scale(1 -1)" gradientUnits="userSpaceOnUse"><stop offset="0" stop-color="#ed795e"/><stop offset="1" stop-color="#febf7e"/></linearGradient><linearGradient id="bk" x1="-1187.267" y1="404.322" x2="-1114.552" y2="379.733" gradientTransform="translate(-996.579) rotate(-180) scale(1 -1)" gradientUnits="userSpaceOnUse"><stop offset="0" stop-color="#ce5d6c"/><stop offset=".364" stop-color="#f17b73"/><stop offset=".368" stop-color="#f17b73"/><stop offset=".512" stop-color="#f79480"/><stop offset=".661" stop-color="#fba689"/><stop offset=".82" stop-color="#feb18f"/><stop offset="1" stop-color="#ffb591"/></linearGradient><linearGradient id="bl" x1="-1139.604" y1="370.885" x2="-1111.468" y2="385.129" gradientTransform="translate(-996.579) rotate(-180) scale(1 -1)" gradientUnits="userSpaceOnUse"><stop offset="0" stop-color="#f16c5f"/><stop offset="1" stop-color="#f98b71"/></linearGradient><linearGradient id="bm" x1="-1116.997" y1="398.474" x2="-1147.101" y2="388.247" gradientTransform="translate(-996.579) rotate(-180) scale(1 -1)" gradientUnits="userSpaceOnUse"><stop offset=".001" stop-color="#f89a81"/><stop offset="1" stop-color="#f1786e"/></linearGradient><linearGradient id="bn" x1="-1249.173" y1="199.058" x2="-1253.374" y2="298.403" gradientTransform="translate(-996.579) rotate(-180) scale(1 -1)" gradientUnits="userSpaceOnUse"><stop offset=".001" stop-color="#912236"/><stop offset=".003" stop-color="#912236"/><stop offset=".316" stop-color="#bc4541"/><stop offset=".598" stop-color="#db5e4a"/><stop offset=".836" stop-color="#ef6e4f"/><stop offset="1" stop-color="#f67451"/></linearGradient><linearGradient id="bo" x1="-1368.975" y1="190.869" x2="-1259.035" y2="308.797" gradientTransform="translate(-996.579) rotate(-180) scale(1 -1)" gradientUnits="userSpaceOnUse"><stop offset=".001" stop-color="#695bdc"/><stop offset=".226" stop-color="#3d4395"/><stop offset=".656" stop-color="#3d4395"/><stop offset=".912" stop-color="#b68488"/><stop offset="1" stop-color="#e19c84"/></linearGradient><linearGradient id="bp" x1="-1311.092" y1="156.529" x2="-1271.835" y2="271.029" gradientTransform="translate(-996.579) rotate(-180) scale(1 -1)" gradientUnits="userSpaceOnUse"><stop offset="0" stop-color="#302d56"/><stop offset="1" stop-color="#5f457a"/></linearGradient><radialGradient id="bq" cx="-1164.273" cy="211.629" fx="-1164.273" fy="211.629" r="117.292" gradientTransform="translate(-996.579) rotate(-180) scale(1 -1)" gradientUnits="userSpaceOnUse"><stop offset=".001" stop-color="#fcdca5"/><stop offset=".139" stop-color="#fbd59f"/><stop offset=".337" stop-color="#fac191"/><stop offset=".572" stop-color="#f9a27a"/><stop offset=".655" stop-color="#f99671"/></radialGradient><radialGradient id="br" cx="-1190.907" cy="188.841" fx="-1190.907" fy="188.841" r="25.685" gradientTransform="translate(-996.579) rotate(-180) scale(1 -1)" gradientUnits="userSpaceOnUse"><stop offset="0" stop-color="#f2e1de"/><stop offset=".425" stop-color="#efdfde"/><stop offset=".644" stop-color="#e7d9e1"/><stop offset=".817" stop-color="#dacee6"/><stop offset=".964" stop-color="#c7c0ec"/><stop offset=".999" stop-color="#c2bcef"/></radialGradient><linearGradient id="bs" x1="-1196.66" y1="182.763" x2="-1176.946" y2="204.835" gradientTransform="translate(-996.579) rotate(-180) scale(1 -1)" gradientUnits="userSpaceOnUse"><stop offset="0" stop-color="#000"/><stop offset="1" stop-color="#580b17"/></linearGradient><linearGradient id="bt" x1="284.168" y1="-358.5" x2="290.848" y2="-358.5" gradientTransform="translate(633.1 105.462) rotate(116.645) scale(1 -1)" gradientUnits="userSpaceOnUse"><stop offset="0" stop-color="#f5f7f9" stop-opacity=".5"/><stop offset=".206" stop-color="rgba(248,249,250,.651)" stop-opacity=".651"/><stop offset=".447" stop-color="rgba(251,251,252,.801)" stop-opacity=".801"/><stop offset=".668" stop-color="rgba(253,253,253,.91)" stop-opacity=".91"/><stop offset=".859" stop-color="rgba(254,254,254,.976)" stop-opacity=".976"/><stop offset=".999" stop-color="#fff"/></linearGradient><radialGradient id="bu" cx="-1136.672" cy="206.763" fx="-1136.672" fy="206.763" r="13.659" gradientTransform="translate(-996.579) rotate(-180) scale(1 -1)" gradientUnits="userSpaceOnUse"><stop offset=".588" stop-color="#f2e5e6"/><stop offset=".806" stop-color="#f2e2e3"/><stop offset=".919" stop-color="#f2dadc"/><stop offset="1" stop-color="#f2cfd2"/></radialGradient><linearGradient id="bv" x1="-1139.315" y1="200.6" x2="-1128.701" y2="214.248" xlink:href="#bs"/><linearGradient id="bw" x1="351.933" y1="-352.658" x2="356.478" y2="-352.658" gradientTransform="translate(607.802 73.719) rotate(119.857) scale(.901 -.97) skewX(-6.65)" xlink:href="#bt"/><linearGradient id="bx" x1="-1162.371" y1="225.413" x2="-1149.669" y2="219.478" gradientTransform="translate(-996.579) rotate(-180) scale(1 -1)" gradientUnits="userSpaceOnUse"><stop offset="0" stop-color="#f99671"/><stop offset=".335" stop-color="#f99872"/><stop offset=".539" stop-color="#f9a178"/><stop offset=".708" stop-color="#faaf83"/><stop offset=".857" stop-color="#fcc391"/><stop offset=".993" stop-color="#fddda4"/><stop offset=".999" stop-color="#fedfa5"/></linearGradient><linearGradient id="by" x1="-1158.965" y1="227.71" x2="-1153.076" y2="227.71" gradientTransform="translate(-996.579) rotate(-180) scale(1 -1)" gradientUnits="userSpaceOnUse"><stop offset="0" stop-color="#e85a41"/><stop offset=".351" stop-color="#e85c43"/><stop offset=".566" stop-color="#ea6449"/><stop offset=".744" stop-color="#ee7355"/><stop offset=".9" stop-color="#f48765"/><stop offset="1" stop-color="#f99974"/></linearGradient><radialGradient id="bz" cx="-1251.026" cy="175.544" fx="-1251.026" fy="175.544" r="26.748" gradientTransform="translate(-996.579) rotate(-180) scale(1 -1)" gradientUnits="userSpaceOnUse"><stop offset=".002" stop-color="#a32320"/><stop offset=".163" stop-color="#b1362d"/><stop offset="1" stop-color="#f99671"/></radialGradient><radialGradient id="ca" cx="-1219.988" cy="204.582" fx="-1219.988" fy="204.582" r="9.812" gradientTransform="translate(-996.579) rotate(-180) scale(1 -1)" gradientUnits="userSpaceOnUse"><stop offset=".33" stop-color="#f99f78"/><stop offset=".4" stop-color="rgba(249,159,120,.98)" stop-opacity=".98"/><stop offset=".484" stop-color="rgba(249,159,120,.921)" stop-opacity=".921"/><stop offset=".575" stop-color="rgba(249,159,120,.824)" stop-opacity=".824"/><stop offset=".671" stop-color="rgba(249,159,120,.688)" stop-opacity=".688"/><stop offset=".771" stop-color="rgba(249,159,120,.514)" stop-opacity=".514"/><stop offset=".875" stop-color="rgba(249,160,120,.301)" stop-opacity=".301"/><stop offset=".979" stop-color="rgba(249,160,120,.053)" stop-opacity=".053"/><stop offset="1" stop-color="#f9a179" stop-opacity="0"/></radialGradient><radialGradient id="cb" cx="-1135.036" cy="229.277" fx="-1135.036" fy="229.277" r="6.381" gradientTransform="translate(-996.579) rotate(-180) scale(1 -1)" gradientUnits="userSpaceOnUse"><stop offset="0" stop-color="#fab487"/><stop offset=".105" stop-color="rgba(249,179,134,.98)" stop-opacity=".98"/><stop offset=".23" stop-color="rgba(249,178,133,.922)" stop-opacity=".922"/><stop offset=".365" stop-color="rgba(249,176,132,.825)" stop-opacity=".825"/><stop offset=".508" stop-color="rgba(249,174,130,.69)" stop-opacity=".69"/><stop offset=".657" stop-color="rgba(249,170,128,.516)" stop-opacity=".516"/><stop offset=".811" stop-color="rgba(249,166,125,.303)" stop-opacity=".303"/><stop offset=".967" stop-color="rgba(249,162,121,.057)" stop-opacity=".057"/><stop offset="1" stop-color="#f9a179" stop-opacity="0"/></radialGradient><linearGradient id="cc" x1="260.719" y1="361.274" x2="290.89" y2="361.274" gradientUnits="userSpaceOnUse"><stop offset="0" stop-color="#c4a195"/><stop offset="1" stop-color="#53599b"/></linearGradient><linearGradient id="cd" x1="253.36" y1="351.649" x2="277.092" y2="379.641" gradientUnits="userSpaceOnUse"><stop offset=".001" stop-color="#a88d91"/><stop offset="1" stop-color="#605989"/></linearGradient><linearGradient id="ce" x1="12009.121" y1="-1529.971" x2="12017.379" y2="-1529.971" gradientTransform="translate(12096.663 -1527.135) rotate(163.914) scale(1 -1)" xlink:href="#n"/><linearGradient id="cf" x1="12009.484" y1="-1525.838" x2="12017.496" y2="-1525.838" gradientTransform="translate(12096.663 -1527.135) rotate(163.914) scale(1 -1)" xlink:href="#n"/><linearGradient id="cg" x1="12005.403" y1="-1521.396" x2="12014.443" y2="-1521.396" gradientTransform="translate(12096.663 -1527.135) rotate(163.914) scale(1 -1)" xlink:href="#n"/><linearGradient id="ch" x1="11912.543" y1="-1652.634" x2="12034.393" y2="-1447.485" gradientTransform="translate(12096.663 -1527.135) rotate(163.914) scale(1 -1)" gradientUnits="userSpaceOnUse"><stop offset="0" stop-color="#00cdd2"/><stop offset=".028" stop-color="#19b8da"/><stop offset=".07" stop-color="#399ee6"/><stop offset=".116" stop-color="#5488ef"/><stop offset=".166" stop-color="#6878f6"/><stop offset=".222" stop-color="#776cfb"/><stop offset=".29" stop-color="#7f66fe"/><stop offset=".402" stop-color="#8264ff"/><stop offset=".641" stop-color="#5047bf"/></linearGradient><linearGradient id="ci" x1="325.563" y1="2119.982" x2="333.821" y2="2119.982" gradientTransform="translate(664.019 -1716.806) rotate(23.704)" xlink:href="#n"/><linearGradient id="cj" x1="325.926" y1="2124.114" x2="333.937" y2="2124.114" gradientTransform="translate(664.019 -1716.806) rotate(23.704)" xlink:href="#n"/><linearGradient id="ck" x1="321.845" y1="2128.557" x2="330.885" y2="2128.557" gradientTransform="translate(664.019 -1716.806) rotate(23.704)" xlink:href="#n"/><linearGradient id="cl" x1="228.984" y1="1997.319" x2="350.834" y2="2202.467" gradientTransform="translate(664.019 -1716.806) rotate(23.704)" xlink:href="#ch"/><linearGradient id="cm" x1="1929.846" y1="7337.511" x2="1885.074" y2="7266.892" gradientTransform="translate(-6901.117 2247.721) rotate(59.657) scale(1 -1)" gradientUnits="userSpaceOnUse"><stop offset=".274" stop-color="#4db8c6"/><stop offset=".545" stop-color="#95d5cb"/><stop offset=".91" stop-color="#fcffd3"/></linearGradient><linearGradient id="cn" x1="-1141.256" y1="371.275" x2="-1158.001" y2="436.288" gradientTransform="translate(-996.579) rotate(-180) scale(1 -1)" gradientUnits="userSpaceOnUse"><stop offset="0" stop-color="#dcae87"/><stop offset=".155" stop-color="#d3a584"/><stop offset=".403" stop-color="#bd8d7e"/><stop offset=".713" stop-color="#996775"/><stop offset="1" stop-color="#733e6b"/></linearGradient><linearGradient id="co" x1="-1169.762" y1="409.366" x2="-1083.007" y2="416.802" gradientTransform="translate(-996.579) rotate(-180) scale(1 -1)" gradientUnits="userSpaceOnUse"><stop offset="0" stop-color="#bd869e"/><stop offset="1" stop-color="#fae1a4"/></linearGradient><linearGradient id="cp" x1="-1170.343" y1="416.143" x2="-1083.588" y2="423.58" xlink:href="#co"/><linearGradient id="cq" x1="-1168.791" y1="398.037" x2="-1082.036" y2="405.473" xlink:href="#co"/><linearGradient id="cr" x1="-1167.869" y1="387.28" x2="-1081.114" y2="394.716" xlink:href="#co"/><linearGradient id="cs" x1="-1167.407" y1="381.882" x2="-1080.651" y2="389.318" xlink:href="#co"/><linearGradient id="ct" x1="-1169.156" y1="402.296" x2="-1082.401" y2="409.732" xlink:href="#co"/><linearGradient id="cu" x1="-1170.233" y1="414.857" x2="-1083.478" y2="422.293" xlink:href="#co"/><linearGradient id="cv" x1="-1169.531" y1="406.668" x2="-1082.776" y2="414.105" xlink:href="#co"/><linearGradient id="cw" x1="-1169.058" y1="401.143" x2="-1082.302" y2="408.58" xlink:href="#co"/><linearGradient id="cx" x1="-1168.617" y1="396.008" x2="-1081.862" y2="403.445" xlink:href="#co"/><linearGradient id="cy" x1="-1168.193" y1="391.052" x2="-1081.437" y2="398.488" xlink:href="#co"/><linearGradient id="cz" x1="-1167.676" y1="385.031" x2="-1080.921" y2="392.467" xlink:href="#co"/><linearGradient id="da" x1="-1170.475" y1="417.681" x2="-1083.72" y2="425.117" xlink:href="#co"/><linearGradient id="db" x1="-1169.948" y1="411.53" x2="-1083.193" y2="418.967" xlink:href="#co"/><linearGradient id="dc" x1="-1169.992" y1="412.043" x2="-1083.237" y2="419.479" xlink:href="#co"/><linearGradient id="dd" x1="-1169.383" y1="404.94" x2="-1082.628" y2="412.376" xlink:href="#co"/><linearGradient id="de" x1="-1168.903" y1="399.336" x2="-1082.147" y2="406.772" xlink:href="#co"/><linearGradient id="df" x1="-1168.48" y1="394.41" x2="-1081.725" y2="401.847" xlink:href="#co"/><linearGradient id="dg" x1="-1168.014" y1="388.971" x2="-1081.259" y2="396.407" xlink:href="#co"/><linearGradient id="dh" x1="-1170.405" y1="416.86" x2="-1083.649" y2="424.296" xlink:href="#co"/><linearGradient id="di" x1="-1169.796" y1="409.759" x2="-1083.041" y2="417.195" xlink:href="#co"/><linearGradient id="dj" x1="-1169.226" y1="403.112" x2="-1082.471" y2="410.548" xlink:href="#co"/><linearGradient id="dk" x1="-1168.567" y1="395.425" x2="-1081.812" y2="402.861" xlink:href="#co"/><linearGradient id="dl" x1="-1169.74" y1="409.104" x2="-1082.985" y2="416.54" xlink:href="#co"/><linearGradient id="dm" x1="-1169.063" y1="401.204" x2="-1082.307" y2="408.64" xlink:href="#co"/><linearGradient id="dn" x1="-1170.287" y1="415.484" x2="-1083.531" y2="422.92" xlink:href="#co"/><linearGradient id="do" x1="-1169.635" y1="407.881" x2="-1082.88" y2="415.317" xlink:href="#co"/><linearGradient id="dp" x1="-1168.712" y1="397.116" x2="-1081.957" y2="404.552" xlink:href="#co"/><linearGradient id="dq" x1="-1168.25" y1="391.72" x2="-1081.495" y2="399.156" xlink:href="#co"/><linearGradient id="dr" x1="-1167.796" y1="386.428" x2="-1081.041" y2="393.864" xlink:href="#co"/><linearGradient id="ds" x1="-1167.34" y1="381.104" x2="-1080.585" y2="388.54" xlink:href="#co"/><linearGradient id="dt" x1="-914.264" y1="261.238" x2="-1094.018" y2="417.453" gradientTransform="translate(-996.579) rotate(-180) scale(1 -1)" gradientUnits="userSpaceOnUse"><stop offset="0" stop-color="#fef9c2"/><stop offset=".504" stop-color="#f7c88f"/><stop offset="1" stop-color="#f0a87c"/></linearGradient><linearGradient id="du" x1="-933.685" y1="267.248" x2="-1070.101" y2="414.814" gradientTransform="translate(-996.579) rotate(-180) scale(1 -1)" gradientUnits="userSpaceOnUse"><stop offset="0" stop-color="#fef9c2"/><stop offset="1" stop-color="#efc59a"/></linearGradient></defs><g id="c"><g clip-path="url(#d)"><polygon points="489.077 -37.356 500.494 514.157 150 508.915 36.029 284.234 -89.605 261.248 174.577 -28.223 489.077 -37.356" fill="url(#e)" stroke-width="0"/><g filter="url(#f)"><path d="M29.251,229.347c-1.333,0-2.551-.295-3.621-.879-8.67-4.731-5.07-27.473,8.188-51.773,11.497-21.067,26.088-35.778,35.489-35.778,1.33,0,2.548.295,3.618.878,4.342,2.37,5.773,9.195,4.038,19.219-1.664,9.592-6.004,21.154-12.225,32.553-11.495,21.067-26.089,35.78-35.487,35.78ZM69.307,143.379c-8.267,0-22.596,14.83-33.326,34.497-13.439,24.628-15.591,44.925-9.17,48.429.704.384,1.527.58,2.441.58,8.266,0,22.597-14.831,33.324-34.498,6.095-11.171,10.345-22.462,11.961-31.797,1.519-8.774.505-14.834-2.79-16.631-.705-.384-1.525-.58-2.439-.58Z" fill="#e3a14c" stroke-width="0"/><path d="M69.46,229.258c-9.399,0-24.042-14.648-35.604-35.623-13.364-24.243-17.06-46.966-8.415-51.736,1.08-.594,2.307-.894,3.657-.894,9.398,0,24.038,14.646,35.601,35.623,6.274,11.376,10.664,22.918,12.369,32.502,1.779,10.016.378,16.848-3.954,19.233-1.078.595-2.308.895-3.654.895ZM29.098,143.466c-.928,0-1.756.2-2.466.591-6.407,3.531-4.166,23.82,9.38,48.389,10.798,19.581,25.178,34.352,33.449,34.352.927,0,1.754-.199,2.465-.591,3.285-1.81,4.279-7.878,2.72-16.644-1.661-9.327-5.953-20.601-12.101-31.747-10.796-19.582-25.177-34.35-33.446-34.35Z" fill="#e3a14c" stroke-width="0"/><path d="M48.786,202.744C21.416,202.744-.051,195.09-.086,185.321c-.023-4.944,5.265-9.49,14.881-12.804,9.206-3.171,21.427-4.944,34.42-4.996h.548c27.376,0,48.845,7.654,48.884,17.424.036,9.875-21.618,17.695-49.302,17.798l-.558.002ZM49.763,169.982h-.543c-12.729.05-24.666,1.775-33.621,4.862-8.419,2.901-13.24,6.715-13.226,10.467.029,7.23,18.684,14.969,46.413,14.969h.55c28.057-.107,46.873-8.011,46.844-15.329-.025-7.229-18.683-14.969-46.418-14.969Z" fill="#e3a14c" stroke-width="0"/><path d="M60.213,185.131c0,6.04-4.898,10.935-10.933,10.935s-10.935-4.895-10.935-10.935,4.897-10.932,10.935-10.932,10.933,4.895,10.933,10.932Z" fill="#f12400" stroke-width="0"/><path d="M47.468,181.672c0,1.457-1.185,2.638-2.641,2.638s-2.637-1.181-2.637-2.638,1.181-2.641,2.637-2.641,2.641,1.183,2.641,2.641Z" fill="#fff3dc" stroke-width="0"/><path d="M49.298,174.199c-.008,0-.015,0-.019,0-6.038,0-10.935,4.895-10.935,10.932s4.897,10.935,10.935,10.935c.004,0,.011-.002.019-.002v-21.865Z" fill="#fff" opacity=".2" stroke-width="0"/><path d="M9.651,197.11c-2.393,1.147-5.265.142-6.412-2.252-1.15-2.394-.143-5.262,2.252-6.412,2.391-1.15,5.263-.141,6.411,2.251,1.15,2.394.142,5.263-2.251,6.413Z" fill="#e331dd" stroke-width="0"/><path d="M11.902,190.697c-1.148-2.392-4.02-3.402-6.411-2.251-2.396,1.15-3.402,4.018-2.252,6.412l8.663-4.16Z" fill="#fff" opacity=".2" stroke-width="0"/><path d="M38.149,229.537c-2.392,1.147-5.263.14-6.412-2.253-1.149-2.393-.141-5.263,2.254-6.413,2.394-1.149,5.262-.141,6.411,2.252,1.15,2.394.142,5.264-2.253,6.414Z" fill="#e331dd" stroke-width="0"/><path d="M40.402,223.124c-1.149-2.393-4.017-3.401-6.411-2.252-2.395,1.15-3.403,4.02-2.254,6.413l8.665-4.16Z" fill="#fff" opacity=".2" stroke-width="0"/><path d="M91.568,180.216c-2.391,1.148-5.263.141-6.412-2.252-1.149-2.396-.141-5.263,2.253-6.414,2.393-1.149,5.261-.14,6.41,2.253,1.15,2.391.141,5.263-2.251,6.413Z" fill="#e331dd" stroke-width="0"/><path d="M93.819,173.804c-1.149-2.393-4.017-3.402-6.41-2.253-2.395,1.15-3.402,4.018-2.253,6.414l8.663-4.16Z" fill="#fff" opacity=".2" stroke-width="0"/><path d="M41.395,173.049c-2.395,1.149-5.265.141-6.415-2.252-1.149-2.394-.141-5.264,2.253-6.414,2.392-1.147,5.263-.141,6.412,2.253,1.15,2.393.14,5.263-2.25,6.413Z" fill="#e331dd" stroke-width="0"/><path d="M43.645,166.636c-1.149-2.394-4.02-3.4-6.412-2.253-2.394,1.15-3.402,4.02-2.253,6.414l8.665-4.16Z" fill="#fff" opacity=".2" stroke-width="0"/><path d="M43.17,148.691c-1.565,2.193-4.611,2.701-6.805,1.138-2.193-1.566-2.701-4.611-1.137-6.805,1.566-2.196,4.611-2.704,6.804-1.14,2.194,1.564,2.7,4.612,1.138,6.806Z" fill="#49d3f3" stroke-width="0"/><path d="M42.032,141.885c-2.193-1.564-5.238-1.056-6.804,1.14-1.564,2.194-1.056,5.238,1.137,6.805l5.667-7.944Z" fill="#fff" opacity=".2" stroke-width="0"/><path d="M72.526,187.602c-1.567,2.194-4.612,2.702-6.807,1.138-2.194-1.566-2.7-4.612-1.135-6.805,1.565-2.194,4.609-2.702,6.805-1.14,2.192,1.565,2.7,4.612,1.137,6.806Z" fill="#49d3f3" stroke-width="0"/><path d="M71.388,180.795c-2.196-1.562-5.24-1.054-6.805,1.14-1.565,2.193-1.059,5.238,1.135,6.805l5.67-7.944Z" fill="#fff" opacity=".2" stroke-width="0"/><path d="M94.199,197.842c-1.565,2.192-4.61,2.701-6.806,1.137-2.196-1.565-2.704-4.612-1.137-6.805,1.563-2.193,4.611-2.703,6.805-1.139,2.194,1.564,2.7,4.611,1.137,6.806Z" fill="#49d3f3" stroke-width="0"/><path d="M93.062,191.036c-2.194-1.564-5.242-1.054-6.805,1.139-1.567,2.193-1.059,5.239,1.137,6.805l5.668-7.943Z" fill="#fff" opacity=".2" stroke-width="0"/><path d="M24.3,213.304c-1.056,1.48-3.11,1.824-4.591.767-1.48-1.056-1.822-3.111-.766-4.591,1.055-1.481,3.111-1.824,4.591-.768,1.48,1.055,1.822,3.111.766,4.592Z" fill="#49d3f3" stroke-width="0"/><path d="M23.534,208.711c-1.48-1.056-3.536-.713-4.591.768-1.056,1.48-.714,3.535.766,4.591l3.825-5.36Z" fill="#fff" opacity=".2" stroke-width="0"/></g><g filter="url(#h)"><path d="M336.292,16.042l9.125-5.106c.815-.489.815-1.684-.109-2.064-8.148-3.476-17.544-4.943-26.181-6.084M319.997,32.337l-5.106,9.125c-.489.815-1.684.815-2.064-.109-3.476-8.148-4.943-17.544-6.084-26.181" fill="#f77539" stroke-width="0"/><path d="M325.808,39.344l17.599-17.599c-3.205-6.029-7.767-11.244-13.525-14.937-6.572-4.182-14.231-6.735-22.161-7.278l-.815-.054c-1.901-.163-3.476,1.412-3.313,3.313l.054.815c.489,7.985,3.096,15.589,7.278,22.161,3.639,5.812,8.854,10.375,14.883,13.579h0Z" fill="#00c8ff" stroke-width="0"/><path d="M334.988,26.363c2.716-2.716,3.042-7.061.76-10.103-2.77-3.639-6.084-6.735-9.886-9.234-6.192-3.911-13.253-6.409-20.64-7.17.543-.326,1.141-.489,1.738-.435l.815.054c7.876.597,15.48,3.096,22.107,7.333,5.758,3.694,10.32,8.908,13.525,14.937l-17.599,17.599c-.869-.435-1.63-.869-2.444-1.358l11.624-11.624h0Z" fill="#1ddaff" stroke-width="0"/><path d="M341.995,24.244l-12.547,12.547,2.987,2.987,12.547-12.547-2.987-2.987Z" fill="#00c8ff" stroke-width="0"/><path d="M338.68,37.443l6.631-6.631,9.258,15.89-15.89-9.258Z" fill="#fb8f3b" stroke-width="0"/><path d="M323.799,11.154c2.34,2.34,2.316,6.158-.054,8.528-2.37,2.37-6.188,2.394-8.528.054-2.341-2.339-2.318-6.157.05-8.528,2.369-2.371,6.187-2.397,8.528-.058l.004.004h0Z" fill="#e9fbfa" stroke-width="0"/></g><path d="M129.191,13.568l1.501,1.403c-.511-.447-1.013-.915-1.501-1.403Z" fill="url(#j)" stroke-width="0"/><path d="M127.663,226.705c-.007.019-.007.032-.013.052,0-.013,0-.032-.007-.045.007,0,.013-.006.02-.006Z" fill="url(#k)" stroke-width="0"/><path d="M127.663,226.705c-.007.019-.007.032-.013.052,0-.013,0-.032-.007-.045.007,0,.013-.006.02-.006Z" fill="url(#k)" stroke-width="0"/><path d="M179.837,402.176c-5.981,7.184-14.5,9.695-23.078,12.096-11.954,2.969-24.468,3.971-37.143,4.35-13.708.642-27.267.483-40.617-.819-7.045-1.882-13.98-5.022-20.851-9.011-5.338-6.891-8.448-15.151-8.448-24.034,0-2.548.26-5.052.753-7.484-.253-8.474,8.604-33.204,15-62.766,1.007-19.708,2.545-37.541,5.968-48.679,1.429-6.525,4.558-12.536,8.987-17.68,1.506-1.772,3.175-3.433,4.981-4.979,4.253-3.659,9.273-6.671,14.831-8.858,3.175-3.213,6.637-5.706,8.072-3.268,4.019-3.586,8.649-6.128,11.526-4.875,1.045,1.094,1.474,2.273,1.467,3.488,15.955-3.812,18.935-1.149,18.435,1.961,0,.012-.007.031-.007.043-.084.476-.24.959-.448,1.436,2.149.684,4.227,1.491,6.221,2.413,1.026.464,2.026.965,3,1.491,5.085,2.731,9.565,6.213,13.227,10.264,4.292,4.747,7.468,10.27,9.175,16.281.234.806.442,1.619.617,2.444,3.39,11.149,4.909,28.903,5.922,48.52,1.727,7.985,3.636,15.621,5.494,22.678-.604,5.089,4.286,22.05,3.604,26.387.787,14.072-1.25,13.912-1.841,21.874-2.952,9.073-2.237,9.105-4.847,16.729Z" fill="url(#l)" stroke-width="0"/><path d="M195.662,384.554c0,24.058-22.792,43.565-50.916,43.565-1.623,0-3.234-.061-4.818-.196h-34.41c-1.584.134-3.195.196-4.818.196-16.727,0-31.565-6.903-40.844-17.558-.565-.648-1.104-1.301-1.623-1.973,6.87,3.989,13.805,7.129,20.851,9.011,13.351,1.301,26.91,1.46,40.617.819,12.675-.379,25.189-1.381,37.143-4.35,8.578-2.401,13.901-7.074,19.882-14.258,4.749-7.108,7.664-13.637,7.482-23.271.052-8.547.005-5.593.693-15.783.682-4.337-2.498-18.685-1.894-23.774,1.721,6.549,3.409,12.591,4.864,17.967,1.506,5.553,3.403,10.997,5.409,16.403.286.776.545,1.558.786,2.346,1.039,3.47,1.597,7.111,1.597,10.856Z" fill="#5943b2" stroke-width="0"/><path d="M170.22,415.011c.264-.088.522-.188.769-.305-.246.123-.505.223-.769.305Z" fill="#473f93" stroke-width="0"/><path d="M170.22,415.011c.264-.088.522-.188.769-.305-.246.123-.505.223-.769.305Z" fill="#473f93" stroke-width="0"/><path d="M170.22,415.011c.264-.088.522-.188.769-.305-.246.123-.505.223-.769.305Z" fill="#473f93" stroke-width="0"/><path d="M127.622,376.735c.178,0,.355.007.54.007h-.213c-.107,0-.22,0-.327-.007Z" fill="url(#m)" stroke-width="0"/><path d="M161.275,379.236l-.039.039c-1.045,1.039-2.461,2.266-4.363,3.695-.098.071-.175.156-.227.253-.396.351-.468.961-.149,1.396.214.279.526.429.857.429,0,0,1.273,27.708-35.247,26.676-33.942-3.078-37.371-29.286-37.371-29.286.065.026.325.123.792.26l.006.006c2.448,1.214,10.442,4.584,23.851,4.584,5.526,0,11.968-.578,19.325-2.104,5.929-1.234,11.838-3.039,17.649-5.396,1.266-.519,2.533-1.058,3.792-1.623.941-.422,1.877-.857,2.805-1.312.721-.344,1.442-.701,2.156-1.065,3.993-2.032,7.993-1.968,8.636-.935.325.526-.026,1.935-2.474,4.383Z" fill="url(#n)" stroke-width="0"/><path d="M158.041,384.528c-.435.318-1.045.234-1.364-.195-.253-.338-.26-.786-.032-1.11.052-.097.13-.182.227-.253,1.902-1.429,3.318-2.656,4.363-3.695l.039-.039c2.448-2.448,2.799-3.857,2.474-4.383-.643-1.033-4.643-1.097-8.636.935-.714.364-1.435.721-2.156,1.065-.928.455-1.864.89-2.805,1.312-1.26.565-2.526,1.104-3.792,1.623-5.812,2.357-11.721,4.162-17.649,5.396-7.357,1.526-13.799,2.104-19.325,2.104-13.409,0-21.403-3.37-23.851-4.584l-.006-.006c-.455-.227-.721-.377-.792-.416-.461-.273-.617-.87-.344-1.338.273-.461.87-.617,1.331-.344.078.045,4.208,2.39,12.156,3.747,3.266.558,7.175.955,11.714.955,5.37,0,11.617-.552,18.714-2.026,6.818-1.416,13.61-3.61,20.26-6.539,1.902-.831,3.792-1.727,5.662-2.682,4.149-2.11,9.63-2.708,11.175-.234,1.461,2.351-1.019,5.948-7.364,10.708Z" fill="#473f93" stroke-width="0"/><path d="M121.796,319.555c-21.765-1.595-30.862-7.249-34.663-11.783-1.383-1.649.817-3.527,3.191-2.72,5.053,1.718,14.415,3.796,31.754,5.512,16.141,1.595,25.428,1.021,30.767-.127,2.529-.544,4.666,1.751,2.925,3.181-4.602,3.781-14.153,7.39-33.974,5.937Z" fill="url(#o)" stroke-width="0"/><path d="M152.594,293.616v.007c-.179,1.06-1.612,2.078-3.852,2.736-.415.123-.851.23-1.293.323l-.244-.021c-1.212-.113-2.432-.226-3.653-.333l-2.302-.218c-.487-.049-.976-.092-1.449-.133-2.66-.253-5.313-.498-7.911-.757-5.513-.555-9.808-1.078-13.529-1.652-1.426-.219-3.031-.439-4.703-.673-3.117-.435-6.347-.891-9.263-1.419-2.946-.532-5.042-1.055-6.422-1.597-.494-.194-.886-.396-1.178-.594l-.091-.058c-.024-.013-.048-.026-.072-.039-1.421-.766-1.207-2.648.35-3.225.5-.185,1.005-.362,1.447-.518,1.595-.554,3.397-1.187,5.124-2.021,2.115-1.021,4.281-2.303,6.378-3.538,1.462-.871,2.846-1.689,4.217-2.427,4.937-2.658,8.96-3.794,12.181-3.422,1.474.17,2.778.656,3.914,1.458l12.449,10.357.211.175c.482.405.974.797,1.456,1.153,1.827,1.388,3.933,2.732,6.607,4.238,1.168.655,1.748,1.44,1.629,2.199Z" fill="url(#p)" stroke-width="0"/><path d="M115.706,289.83h0c-.251.226-.678.241-.951.032l-2.175-1.663c-.272-.208-.29-.563-.039-.789h0c.251-.226.678-.241.951-.032l2.175,1.663c.272.208.29.563.039.789Z" fill="#473f93" stroke-width="0"/><path d="M132.589,292.164l-.048-.052c-.21-.23-.156-.562.122-.736l2.002-1.26c.277-.175.677-.129.887.101l.048.052c.21.23.156.562-.122.736l-2.002,1.26c-.277.175-.677.129-.887-.101Z" fill="#473f93" stroke-width="0"/><ellipse cx="90.454" cy="274.281" rx="2.835" ry="5.051" transform="translate(-194.22 322.997) rotate(-81.459)" fill="url(#q)" stroke-width="0"/><ellipse cx="157.64" cy="282.58" rx="2.835" ry="5.051" transform="translate(-145.218 396.505) rotate(-81.459)" fill="url(#r)" stroke-width="0"/><path d="M114.472,269.025c-.942,6.274-6.846,10.588-13.185,9.636-6.339-.952-10.715-6.81-9.773-13.084s6.846-10.592,13.186-9.64c6.339.952,10.715,6.814,9.772,13.088Z" fill="url(#s)" stroke-width="0"/><path d="M137.329,272.835c-.846,5.631,3.082,10.888,8.771,11.743,5.69.854,10.988-3.018,11.834-8.648.846-5.631-3.081-10.892-8.771-11.746-5.69-.854-10.989,3.021-11.834,8.652Z" fill="url(#t)" stroke-width="0"/><path d="M101.241,280.052c-6.907-1.037-11.682-7.5-10.645-14.407,1.037-6.907,7.5-11.682,14.407-10.645,6.907,1.037,11.682,7.5,10.645,14.407-1.037,6.907-7.5,11.682-14.407,10.645ZM104.784,256.463c-6.101-.916-11.809,3.301-12.725,9.402-.916,6.101,3.301,11.809,9.402,12.725,6.101.916,11.809-3.301,12.725-9.402.916-6.101-3.301-11.809-9.402-12.725Z" fill="#473f93" stroke-width="0"/><path d="M146.023,285.821c-6.315-.948-10.681-6.857-9.732-13.172.948-6.315,6.857-10.681,13.172-9.732,6.315.948,10.681,6.857,9.732,13.172-.948,6.315-6.857,10.681-13.172,9.732ZM149.262,264.253c-5.578-.838-10.797,3.018-11.634,8.596s3.018,10.797,8.596,11.634c5.578.838,10.797-3.018,11.634-8.596.838-5.578-3.018-10.797-8.596-11.634Z" fill="#473f93" stroke-width="0"/><path d="M137.5,270.881c-9.991-10.258-21.635-3.673-22.126-3.388l-.692-1.267c.129-.076,13.064-7.43,23.825,3.618l-1.007,1.036Z" fill="#473f93" stroke-width="0"/><circle cx="144.789" cy="273.915" r="1.241" fill="#fff" stroke-width="0"/><circle cx="102.309" cy="271.019" r="3.859" fill="#37294f" stroke-width="0"/><circle cx="145.856" cy="276.812" r="3.859" fill="#37294f" stroke-width="0"/><path d="M88.839,251.711c-.129,0-.261-.041-.372-.125-.271-.206-.324-.592-.119-.864.058-.076,5.882-7.564,16.183-4.73.328.09.521.429.43.758-.09.328-.431.52-.758.43-9.503-2.615-14.821,4.217-14.873,4.287-.122.159-.305.244-.492.244Z" fill="#473f93" stroke-width="0"/><path d="M162.471,261.774c-.206,0-.408-.104-.525-.292-5.167-8.361-13.462-7.046-13.813-6.987-.335.056-.654-.167-.712-.502-.058-.335.165-.654.501-.712.092-.017,9.456-1.536,15.073,7.553.179.289.089.669-.2.848-.1.063-.212.092-.323.092Z" fill="#473f93" stroke-width="0"/><path d="M116.164,314.858c1.63.882,4.373,3.308,7.264,5.939-2.729,2.129-5.551,3.869-8.495,5.097-1.338.803-3.392.074-3.254-1.155-.368-3.219-.109-6.32,1.013-9.085.138-1.229,2.328-1.731,3.472-.796Z" fill="#4be0e0" stroke-width="0"/><path d="M130.5,316.621c-1.795.46-5.045,2.15-8.487,4.002,2.132,2.726,4.448,5.099,7.007,7.004,1.104,1.103,3.273.893,3.437-.332,1.137-3.034,1.637-6.106,1.218-9.06.164-1.226-1.839-2.244-3.176-1.613Z" fill="#4be0e0" stroke-width="0"/><path d="M124.137,323.261l-2.986-.243c-.497-.04-.867-.476-.826-.973-.207-.933-.144-1.794.21-2.579.04-.497.476-.867.973-.826l2.986.243c.497.04.867.476.826.973.154.799.032,1.672-.21,2.579-.04.497-.476.867-.973.826Z" fill="#40c0c6" stroke-width="0"/><path d="M427.801,175.558s55.122,23.883,4.415-29.498l-5.672,15.234,1.257,14.264Z" fill="url(#u)" stroke-width="0"/><path d="M369.397,269.378c-4.274,18.092,18.88,28.005,45.063,20.574,21.312-6.042,38.746-24.954,39.451-35.473-4.695,10.656-19.95,24.988-37.986,30.104-24.779,7.026-46.837-1.467-45.521-17.729-.452.746-.785,1.582-1.007,2.524Z" fill="url(#v)" stroke-width="0"/><path d="M370.407,266.848s-.008.002-.003.005c-1.316,16.263,20.742,24.756,45.521,17.729,18.035-5.116,33.291-19.448,37.986-30.104l.006-.01c.043-.617.027-1.2-.05-1.755-1.389-10.008-21.012,2.032-44.255,5.255-21.006,2.909-35.004,1.848-39.204,8.879Z" fill="url(#w)" stroke-width="0"/><path d="M259.65,216.182c1.027,10.073,1.347,11.335,7.698,19.449.214-.118.442-.222.707-.285,16.875,24.891,44.578,41.829,72.462,53.657.053-.957.194-2.007.551-3.028-.268,1.047-.384,2.111-.418,3.094,2.76,1.939,5.895,1.365,8.989,2.397-.017-.009-.036-.014-.052-.023,7.565,2.617,15.544,3.877,23.034,6.75.121-.307.226-.585.303-.77l-.004-.002c.497-1.205.918-2.23,1.423-3.392,7.488-4.758,12.445-10.684,16.541-18.518,4.119-8.768,6.864-18.373,11.234-27.005,8.893-19.2,20.555-43.778,19.733-64.672-10.822,6.494-24.169,9.548-36.566,7.725-3.906,6.988-9.729,12.75-16.889,16.265l-.004.008c-7.044,3.491-15.36,4.59-22.959,2.39.005-.003.781-2.058.784-2.064-2.997-1.07-5.779-2.567-8.363-4.416-.04-.026-.08-.052-.113-.082-.017-.009-.027-.02-.04-.027-.006-.015-.019-.01-.025-.024-.776-.568-1.218-1.54-1.931-2.196h0c-8.554-11.368-5.273-24.269,2.046-36.336-.933-1.481-6.241-9.85-7.019-11.867-2.38,3.355-8.475,6.833-11.049,10.074.121.248.24.499.345.755.353.745.653,1.52.918,2.305.059.145.101.302.149.446.014.045.032.092.041.135.031.069.044.142.066.218.004.002.002.006.006.009.252.79.446,1.593.618,2.403l-.002.004c.1.414-.006.881-.341,1.153-.007-.004-.014.014-.022.01-.02.016-.048.039-.073.047-.079.044-.175.084-.266.106-.074.02-.166.033-.241.028-.372.015-.749-.142-1.023-.384-.009-.006-.019-.006-.023-.018-.004-.002-.008-.004-.01-.011-.018-.012-.035-.026-.048-.042-.026-.019-.05-.045-.07-.07-.013-.007-.019-.015-.027-.03-.006.002-.004-.002-.006-.009-.079-.072-.145-.168-.208-.256-.137-.199-.233-.426-.295-.658l.002-.004c-.177-.677-.338-1.362-.547-2.031-1.288-4.06-3.753-7.699-7.324-9.994-7.236-4.429-6.784,15.263-7.334,19.346.041.749.032,1.804-.913,1.941l-.004-.002c-.115.022-.226.033-.334.021-.895-.038-1.104-1.811-1.905-1.496-19.576,7.71-39.402,21.423-41.202,38.976Z" fill="url(#x)" stroke-width="0"/><path d="M324.812,165.85c.195.975.068,1.99-.334,2.899-3.576,8.072-9.328,12.493-17.542,13.506-2.707.334-5.251-1.495-5.909-4.243-2.294-9.539-1.489-21.108,2.382-34.437.78-2.685,3.674-4.2,6.289-3.212,7.851,2.965,12.472,12.281,15.115,25.486Z" fill="url(#y)" stroke-width="0"/><path d="M385.281,191.559c-.246.289-.422.609-.553.954.189-.314.374-.63.553-.954Z" fill="#e2eddf" stroke-width="0"/><path d="M346.213,208.158l-.779,2.055-.004.008c.027.009.057.014.084.023s.057.014.087.019c.595.167,1.196.321,1.803.446.71.153,1.427.283,2.149.372.288.046.576.081.858.108.087.009.174.017.256.024.254.028.513.048.772.067.255.017.509.035.772.046.115.007.229.015.346.018.121.005.24.004.357.007.074.002.153.006.24.004.21.01.427.007.64.002.134.001.268.003.41-.002.202-.005.408-.008.613-.018.274-.01.555-.021.832-.046.189-.012.372-.022.556-.043.172-.01.343-.027.511-.039.243-.021.484-.049.725-.076.239-.034.478-.068.717-.102.09-.017.181-.027.275-.042.094-.014.188-.029.277-.046.604-.092,1.217-.212,1.82-.342.201-.044.398-.089.597-.139.928-.226,1.847-.484,2.756-.785.302-.102.607-.209.907-.318.234-.085.461-.168.691-.256.23-.087.462-.179.685-.275.082-.032.159-.066.236-.1.589-.246,1.17-.506,1.744-.786.077-.034.161-.07.243-.113l.004-.008c.179-.082.357-.175.534-.264-.497.144-.992.284-1.499.417-.088.023-.186.046-.287.073-.274.069-.528.133-.817.199-.285.069-.505.118-.825.184-.321.066-.712.153-1.068.216-1.064.197-2.147.361-3.228.49-.23.028-.465.053-.703.077-.718.064-1.433.113-2.161.144-.106.008-.2.012-.332.017-.13.011-.153.015-.349.018-.196.003-.587.02-.844.029-.255.004-.616.005-.865.007-.246-.002-.393-.01-.624-.01-.236-.002-.414-.011-.675-.027-.259-.009-.702-.036-.961-.055-.263-.022-.511-.041-.727-.06-.212-.016-.295-.033-.496-.049-.203-.023-.564-.053-.742-.073-.174-.017-.165-.013-.311-.032-.144-.012-.267-.024-.43-.041-.163-.017-.214-.023-.436-.05-.227-.029-.625-.08-.908-.124-.282-.037-.622-.085-.916-.139-.097-.02-.21-.031-.309-.046-.321-.064-.707-.108-1.013-.191-.384-.108-.788-.238-1.184-.374Z" fill="#e2eddf" stroke-width="0"/><path d="M332.91,199.258c.193.335.393.657.596.981.198.305.402.618.613.92.014.024.033.05.053.072.164.238.332.478.506.706.082.119.17.236.261.349.029.037.053.072.082.108l.431-.605c-.197-.175-.411-.37-.552-.499-.205-.19-.398-.385-.528-.503-.124-.12-.139-.133-.205-.201-.209-.214-.401-.408-.596-.609-.188-.203-.392-.425-.564-.608-.033-.039-.064-.072-.097-.111Z" fill="#e2eddf" stroke-width="0"/><path d="M387.86,268.621c-.437,1.01-.874,2.01-1.319,3.006-.097.223-.203.441-.315.65.108-.212.213-.43.311-.653.445-.995.882-1.995,1.323-3.003ZM379.258,282.827c.518-.607,1.025-1.224,1.514-1.857-.489.633-.992,1.253-1.514,1.857ZM402.884,235.423c-1.54,3.469-3.171,6.928-4.908,10.384-2.061,4.112-3.976,8.447-5.85,12.815,1.87-4.37,3.781-8.707,5.844-12.813,1.735-3.462,3.37-6.918,4.914-10.386ZM371.294,290.06c.656-.463,1.298-.939,1.927-1.432.625-.495,1.238-1.008,1.839-1.538-.597.532-1.21,1.045-1.839,1.538-.625.495-1.267.971-1.927,1.432ZM411.117,214.564c-.598,1.716-1.213,3.423-1.841,5.123.628-1.7,1.239-3.41,1.841-5.123ZM416.816,196.666s-.003-.125.003-.338c.023-.004.047-.007.07-.011-.015.099-.026.169-.045.245-.009.027-.014.057-.023.084.002.006,0,.011-.003.015l-.002.004ZM369.28,291.382c.136-.084.266-.165.398-.251-.128.088-.26.174-.394.253-.181.42-.354.834-.522,1.251.168-.416.337-.833.518-1.253ZM318.179,165.947c.016.041.028.079.039.118.012.028.024.056.036.084-.018-.058-.039-.118-.063-.174-.002-.006-.008-.015-.012-.028ZM320.81,165.87c-.068-.188-.137-.374-.21-.56.072.186.141.372.21.56ZM320.475,164.975c-.04-.097-.082-.2-.124-.292.018.037.032.071.044.11.071.17.138.345.206.518-.043-.111-.081-.225-.126-.335ZM320.977,166.315c-.052-.15-.113-.296-.167-.445.054.151.111.301.162.453,0,.011.006.019.01.021s.006.009.008.015c-.008-.015-.012-.028-.014-.045ZM321.179,166.934c-.061-.189-.124-.384-.189-.575.037.112.077.229.11.349.028.069.056.148.079.225ZM319.837,170.467c-.025-.013-.042-.033-.062-.055.025.024.05.048.075.072l.006.003c.009.008.018.017.027.025.031.033.062.055.098.079.115.088.24.155.375.206-.052-.023-.109-.048-.159-.074-.059-.031-.111-.065-.165-.104-.048-.031-.09-.064-.135-.099-.006-.009-.015-.013-.023-.018-.004-.002-.008-.004-.01-.011-.006-.009-.019-.015-.025-.024ZM320.95,170.904l-.004-.002-.002.004.007-.002ZM321.168,170.87s-.015.008-.022.01c.03-.006.056-.013.083-.025q-.006.002-.011,0c-.019.006-.032.01-.051.016ZM321.251,170.844c-.009.006-.015.008-.022.01.011,0,.017-.002.026-.008l-.004-.002Z" fill="#43b6bb" stroke-width="0"/><path d="M340.89,239.583c-.194.143-.397.266-.609.381.213-.113.415-.238.609-.381Z" fill="#43b6bb" stroke-width="0"/><path d="M335.434,239.897c.256.105.511.192.779.265-.266-.077-.52-.165-.779-.265Z" fill="#43b6bb" stroke-width="0"/><path d="M358.88,215.417c-1.833,1.561-3.53,3.22-4.973,5.142-.214.285-.351.528-.538.821.187-.293.328-.533.542-.818,1.442-1.922,3.136-3.583,4.969-5.144Z" fill="#43b6bb" stroke-width="0"/><path d="M297.955,207.715c-.095-.105-.175-.196-.25-.279.068.085.151.172.25.279Z" fill="#43b6bb" stroke-width="0"/><path d="M297.036,206.477c-.111-.21-.2-.428-.279-.652.076.225.164.443.279.652Z" fill="#43b6bb" stroke-width="0"/><path d="M337.756,203.676c.01.011.023.018.036.024t-.006-.009l-.008-.004-.021-.011Z" fill="url(#z)" stroke-width="0"/><path d="M337.692,203.625s.004.002.006.009l.025.013c-.013-.007-.021-.011-.031-.022Z" fill="url(#aa)" stroke-width="0"/><path d="M349.636,291.465c.265.088.533.182.8.287-.227-.094-.479-.181-.707-.259-.032-.011-.065-.019-.093-.028ZM335.434,239.897c.256.105.511.192.779.265-.266-.077-.52-.165-.779-.265Z" fill="#43b6bb" stroke-width="0"/><path d="M332.91,199.258c.193.335.393.657.596.981.198.305.402.618.613.92.014.024.033.05.053.072.164.238.332.478.506.706.082.119.17.236.261.349.029.037.053.072.082.108l.431-.605c-.197-.175-.411-.37-.552-.499-.205-.19-.398-.385-.528-.503-.124-.12-.139-.133-.205-.201-.209-.214-.401-.408-.596-.609-.188-.203-.392-.425-.564-.608-.033-.039-.064-.072-.097-.111ZM346.213,208.158l-.779,2.055-.004.008c.027.009.057.014.084.023s.057.014.087.019c.595.167,1.196.321,1.803.446.71.153,1.427.283,2.149.372.288.046.576.081.858.108.087.009.174.017.256.024.254.028.513.048.772.067.255.017.509.035.772.046.115.007.229.015.346.018.121.005.24.004.357.007.074.002.153.006.24.004.21.01.427.007.64.002.134.001.268.003.41-.002.202-.005.408-.008.613-.018.274-.01.555-.021.832-.046.189-.012.372-.022.556-.043.172-.01.343-.027.511-.039.243-.021.484-.049.725-.076.239-.034.478-.068.717-.102.09-.017.181-.027.275-.042.094-.014.188-.029.277-.046.604-.092,1.217-.212,1.82-.342.201-.044.398-.089.597-.139.928-.226,1.847-.484,2.756-.785.302-.102.607-.209.907-.318.234-.085.461-.168.691-.256.23-.087.462-.179.685-.275.082-.032.159-.066.236-.1.589-.246,1.17-.506,1.744-.786.077-.034.161-.07.243-.113l.004-.008c.179-.082.357-.175.534-.264-.497.144-.992.284-1.499.417-.088.023-.186.046-.287.073-.274.069-.528.133-.817.199-.285.069-.505.118-.825.184-.321.066-.712.153-1.068.216-1.064.197-2.147.361-3.228.49-.23.028-.465.053-.703.077-.718.064-1.433.113-2.161.144-.106.008-.2.012-.332.017-.13.011-.153.015-.349.018-.196.003-.587.02-.844.029-.255.004-.616.005-.865.007-.246-.002-.393-.01-.624-.01-.236-.002-.414-.011-.675-.027-.259-.009-.702-.036-.961-.055-.263-.022-.511-.041-.727-.06-.212-.016-.295-.033-.496-.049-.203-.023-.564-.053-.742-.073-.174-.017-.165-.013-.311-.032-.144-.012-.267-.024-.43-.041-.163-.017-.214-.023-.436-.05-.227-.029-.625-.08-.908-.124-.282-.037-.622-.085-.916-.139-.097-.02-.21-.031-.309-.046-.321-.064-.707-.108-1.013-.191-.384-.108-.788-.238-1.184-.374ZM384.729,192.514c.189-.314.374-.63.553-.954-.246.289-.422.609-.553.954ZM416.82,196.329c-.006.212-.007.335-.003.338l.002-.004s.004-.008.003-.015c.009-.027.014-.057.023-.084.019-.076.029-.146.045-.245-.023.004-.047.007-.07.011ZM335.435,239.897c.256.105.511.192.779.265-.266-.077-.52-.165-.779-.265ZM341.194,285.736c.106-.148.241-.27.394-.366-.16.087-.295.209-.394.366Z" fill="#43b6bb" stroke-width="0"/><path d="M335.434,239.897c.256.105.511.192.779.265-.266-.077-.52-.165-.779-.265Z" fill="#43b6bb" stroke-width="0"/><path d="M297.955,207.715c-.095-.105-.175-.196-.25-.279.068.085.151.172.25.279Z" fill="#43b6bb" stroke-width="0"/><path d="M335.434,239.897c.256.105.511.192.779.265-.266-.077-.52-.165-.779-.265Z" fill="#43b6bb" stroke-width="0"/><path d="M321.505,170.721c.006-.002.011-.01.015-.008.011-.01.022-.021.033-.031-.013.014-.03.027-.048.039Z" fill="#43b6bb" stroke-width="0"/><path d="M321.146,170.88c.03-.006.056-.013.083-.025q-.006.002-.011,0c-.019.006-.032.01-.051.016-.002.004-.015.008-.022.01Z" fill="#43b6bb" stroke-width="0"/><path d="M319.895,170.519c-.006.002-.008-.004-.013-.007.031.033.062.055.098.079-.031-.022-.056-.046-.085-.072Z" fill="#43b6bb" stroke-width="0"/><path d="M319.856,170.487c-.028-.023-.056-.046-.081-.075.025.024.05.048.075.072l.006.003Z" fill="#43b6bb" stroke-width="0"/><path d="M319.862,170.491l-.006-.003c.009.008.018.017.027.025-.004-.002-.008-.004-.01-.011-.004-.002-.008-.004-.01-.011Z" fill="#43b6bb" stroke-width="0"/><path d="M297.955,207.715c-.095-.105-.175-.196-.25-.279.068.085.151.172.25.279Z" fill="#43b6bb" stroke-width="0"/><path d="M320.064,164.04c.03.065.056.127.08.193.088.187.164.378.244.572.208.499.404,1.007.584,1.518,0,.011.006.019.01.021v.011c.039.118.078.236.118.354.049.139.094.287.139.435-.019-.075-.039-.139-.06-.21-.061-.189-.124-.384-.189-.575-.008-.015-.012-.028-.014-.045-.052-.15-.113-.296-.167-.445-.068-.188-.137-.374-.21-.56-.043-.111-.081-.225-.126-.335-.026-.062-.052-.125-.08-.183-.012-.039-.026-.073-.044-.11-.036-.084-.074-.174-.114-.26-.028-.079-.064-.153-.098-.23-.022-.049-.046-.095-.068-.144q-.002-.006-.006-.009Z" fill="#43b6bb" stroke-width="0"/><path d="M318.096,165.741c.01.021.018.047.028.069l-.012-.039c-.006-.009-.012-.017-.016-.03Z" fill="url(#ab)" stroke-width="0"/><path d="M303.284,178.629c.283-.097.507-.295.617-.581.011-.032.023-.063.034-.095.014-.036.019-.065.022-.101-.022.091-.051.177-.09.259l-.004.008c-.038.071-.084.138-.133.198-.009.006-.015.019-.026.029-.048.05-.1.097-.159.136l-.033.031c-.071.043-.147.083-.228.115Z" fill="#43b6bb" stroke-width="0"/><path d="M303.99,177.558c-.006.061-.012.123-.018.184-.003.036-.01.07-.014.106.007-.034.015-.068.018-.104.006-.061.012-.123.013-.187Z" fill="#43b6bb" stroke-width="0"/><path d="M304.005,176.612c.003.034.002.066,0,.102.002.006.002.017.001.028.004-.008.003-.015.003-.025-.003-.034,0-.07-.004-.104Z" fill="#43b6bb" stroke-width="0"/><path d="M304.072,175.367c-.02.269-.038.535-.058.804-.004.057-.005.11-.004.17.004-.057.005-.11.009-.168.02-.269.036-.541.053-.806Z" fill="#43b6bb" stroke-width="0"/><path d="M301.619,178.257c.027.03.062.055.098.079.013.007.027.02.044.029-.048-.031-.098-.069-.142-.108Z" fill="#43b6bb" stroke-width="0"/><path d="M301.297,177.923c.035.046.072.098.107.143.006.009.01.011.017.02.016.02.035.035.058.053.027.03.056.057.087.079.014.013.033.028.054.04-.121-.097-.222-.21-.323-.334Z" fill="#43b6bb" stroke-width="0"/><path d="M301.155,177.735c.01.022.018.037.029.048.006.009.016.02.023.028.008.015.023.028.031.043.021.022.039.048.06.07-.017-.02-.035-.046-.051-.065-.026-.041-.066-.078-.09-.124Z" fill="#43b6bb" stroke-width="0"/><path d="M307.111,158.095c-.224.5-.433,1.002-.623,1.509.194-.505.399-1.009.627-1.507.117-.26.253-.484.405-.678-.152.194-.292.415-.409.676Z" fill="#43b6bb" stroke-width="0"/><path d="M236.968,215.622c.3.392.647.757,1.036,1.089l12.327,10.526c5.864.765,9.275-1.759,9.509-1.945.881-.677,1.042-1.938.365-2.818-.677-.873-1.922-1.044-2.804-.383-.343.251-7.536,5.195-20.075-6.208-.11-.101-.231-.19-.359-.261Z" fill="#348885" stroke-width="0"/><path d="M238.768,204.179l-1.604,1.878c-2.276,2.666-2.362,6.49-.434,9.242.076.109.155.214.234.319l.004.003c.127.071.252.159.361.258,7.767,7.063,13.48,7.856,16.791,7.379,2.028-.298,3.153-1.074,3.284-1.168.881-.659,2.124-.491,2.803.382.679.88.516,2.139-.364,2.818-.235.187-3.644,2.71-9.51,1.942l12.603,10.762c.874.747,2.204.645,2.953-.233l7.597-8.897-13.836-12.683-14.634-12.495c-1.853-1.582-4.666-1.361-6.248.492Z" fill="#43b6bb" stroke-width="0"/><path d="M355.668,209.42c.083.006.172.011.28.01.249-.002.61-.003.865-.007.257-.008.649-.025.844-.029.196-.003.219-.007.349-.018.132-.005.225-.009.332-.017.728-.032,1.443-.08,2.161-.144.239-.023.473-.049.703-.077,1.081-.128,2.165-.293,3.228-.49.357-.063.748-.15,1.068-.216.321-.066.541-.115.825-.184.289-.067.543-.13.817-.199.101-.027.199-.05.287-.073.507-.133,1.002-.273,1.499-.417.045-.024.09-.049.136-.073.183-.091.366-.192.543-.291.246-.127.489-.261.727-.393.227-.132.456-.268.685-.405.212-.124.412-.248.616-.377.246-.149.49-.304.726-.463.071-.043.141-.092.208-.137.169-.104.329-.212.491-.325.167-.121.344-.242.513-.367.983-.692,1.938-1.442,2.863-2.246.986-.858,1.941-1.769,2.853-2.742.245-.257.488-.52.722-.788,1.743-1.934,3.331-4.091,4.715-6.432l.004-.008c.11-.286.249-.557.434-.802-1.081-.033-2.161-.098-3.248-.189-.363-.027-.721-.062-1.083-.099-.261-.026-.521-.052-.786-.081-.212-.027-.426-.05-.638-.076-.222-.027-.445-.054-.665-.086-.303-.038-.597-.082-.898-.124-.179.325-.364.641-.553.954l-.004.008c-1.384,2.341-2.972,4.498-4.715,6.432-1.126,1.273-2.326,2.441-3.575,3.53-.925.804-1.88,1.554-2.863,2.246-.169.125-.347.246-.513.367-.229.158-.461.309-.699.462-.236.159-.48.314-.726.463-.203.128-.404.253-.616.377-.229.136-.458.273-.684.405-.237.132-.481.265-.727.393-.177.099-.36.201-.543.292-.045.024-.09.049-.136.073-.177.089-.355.182-.534.264l-.004.008c-.082.042-.166.078-.243.112-.575.28-1.156.541-1.744.786-.077.034-.155.068-.236.1-.224.096-.455.188-.685.275-.23.087-.457.171-.691.256-.3.109-.605.215-.907.318-.262.087-.521.169-.776.243Z" fill="#c2cfbd" stroke-width="0"/><path d="M272.598,246.053c-.067-.1.062.105,0,0-8.495-2.193-16.713-12.831-21.761-19.219l.011-.009c-.126-.18-.27-.392-.452-.626l.011-.009c-.634-.871-1.609-2.109-2.798-3.574,10.396-10.662,6.163-21.845,5.364-23.69,1.194.689,2.399,1.489,3.609,2.404,2.356,1.776,4.607,3.885,6.668,6.294,9.541,11.151,14.64,29.69,9.347,38.429Z" fill="url(#ac)" stroke-width="0"/><path d="M247.609,222.616c-5.179-6.378-14.479-17.085-17.697-20.856,5.589-6.818,14.142-7.946,23.061-2.834.798,1.845,5.032,13.029-5.364,23.69Z" fill="url(#ad)" stroke-width="0"/><path d="M251.346,217.836s16.984,9.291,23.121,22.828" fill="none" stroke-width="0"/><path d="M247.609,222.616c-.016.014-.033.038-.049.051" fill="none" stroke-width="0"/><path d="M235.624,208.565l-2.903,2.484c-1.934-2.249-3.523-4.096-4.353-5.077.186-1.358.544-2.492,1.038-3.426l.005-.005c.131-.26.279-.499.432-.723l.174.204c1.208,1.411,3.252,3.789,5.607,6.542Z" fill="url(#ae)" stroke-width="0"/><path d="M241.629,215.584l-2.903,2.484c-2.074-2.445-4.191-4.909-6.006-7.019l2.903-2.484c1.892,2.201,3.982,4.643,6.006,7.019Z" fill="url(#af)" stroke-width="0"/><path d="M247.56,222.667l-2.898,2.479c-1.693-2.065-3.793-4.563-5.936-7.079l2.903-2.484c2.17,2.558,4.261,5.045,5.931,7.083Z" fill="url(#ag)" stroke-width="0"/><path d="M250.826,226.844c.763.946,1.604,1.973,2.508,3.04l-2.941,2.516c-.878-1.08-1.704-2.111-2.471-3.072" fill="url(#ah)" stroke-width="0"/><path d="M247.929,229.323c-.608-.874-1.775-2.357-3.267-4.176l2.898-2.479c1.194,1.46,2.175,2.684,2.82,3.545l-.005.005c.182.235.331.441.457.622" fill="url(#ai)" stroke-width="0"/><path d="M259.609,236.673l-3.139,2.686c-2.191-2.289-4.241-4.718-6.075-6.959l2.941-2.516c1.859,2.183,3.994,4.548,6.274,6.789Z" fill="url(#aj)" stroke-width="0"/><path d="M266.752,242.718l-3.311,2.833c-2.407-1.705-4.757-3.876-6.971-6.192l3.139-2.686c2.28,2.241,4.705,4.358,7.143,6.045Z" fill="url(#ak)" stroke-width="0"/><path d="M269.705,248.668c-2.091-.553-4.193-1.664-6.264-3.117l3.311-2.833c1.886,1.314,3.787,2.373,5.639,3.038.067.101.14.196.207.297l-2.893,2.615Z" fill="url(#al)" stroke-width="0"/><path d="M298.102,264.991c8.449,8.588,20.034,15.187,31.854,18.145,21.456,9.339,39.244,14.232,49.719,10.274,25.151-15.164,45.423-84.777,41.521-109.949l-7.866,15.614c-5.587,11.074-9.236,23.024-10.8,35.326-.743,5.871-2.555,11.531-5.32,16.711-1.473,2.759-3.217,5.38-5.214,7.825-3.711,4.543-8.123,9.948-13.071,14.259-4.948,4.311-10.437,7.524-16.302,7.676-5.014.136-11.075-.563-17.117-1.529-6.034-.968-12.054-2.198-16.985-3.124l-30.419-11.228Z" fill="url(#am)" stroke-width="0"/><path d="M335.089,117.55c.195,2.046,1.147,3.888,2.606,5.327-10.75,9.539-11.97,32.157-.68,41.439-6.276,10.519-11.049,29.046.283,39.011,1.585,1.48,3.345,2.72,5.219,3.72,8.193,4.373,18.631,4.202,26.923-.058l.006-.01c6.651-3.248,12.122-8.673,15.714-15.128,20.92,3.189,38.662-4.852,46.578-19.279,2.001.488,4.035.326,5.84-.605,4.739-2.454,6.069-9.282,2.982-15.246-1.142-2.211-2.729-3.985-4.518-5.234-.351-4.591-1.441-9.436-3.371-14.469-6.803-14.226-19.106-27.645-34.597-32.606,2.705.83,5.324,1.875,7.82,3.121-15.98-9.718-37.935-10.831-54.366-1.323l.005.003-.069.03.064-.033c-.651-.094-1.315-.161-1.989-.174l-.003.005c-7.391-.463-15.248,5.169-14.448,11.507ZM393.126,103.147c1.669.324,3.313.741,4.919,1.258-1.611-.493-3.256-.911-4.919-1.258Z" fill="url(#an)" stroke-width="0"/><polygon points="345.147 83.684 345.206 83.637 345.201 83.636 345.147 83.684" fill="#e2eddf" stroke-width="0"/><polygon points="345.147 83.684 345.206 83.637 345.201 83.636 345.147 83.684" fill="#e2eddf" stroke-width="0"/><path d="M352.511,105.716c28.254-10.659,83.472,44.473,83.472,44.473l1.061-14.006c-.147-6.969,3.192-13.945-.528-20.058-4.734-7.772-13.123-18.197-27.091-26.343-13.347-7.777-23.642-7.991-30.436-6.416-5.12,1.184-13.214,5.509-16.025,9.949l-10.453,12.4ZM377.602,104.865l3.875-2.36c1.298-.977,4.498-2.091,6.119-2.47,2.151-.494,5.412-.428,9.637,2.035,4.424,2.579,7.08,5.88,8.577,8.343,1.18,1.933.725,3.513.771,5.717l-.299,4.514s-17.888-14.298-28.681-15.779Z" fill="url(#ao)" stroke-width="0"/><polygon points="392.6 128.205 392.667 128.173 392.662 128.17 392.6 128.205" fill="#e2eddf" stroke-width="0"/><polygon points="392.6 128.205 392.667 128.173 392.662 128.17 392.6 128.205" fill="#e2eddf" stroke-width="0"/><path d="M415.143,150.944c.186.099.406.132.626.078.473-.116.763-.593.647-1.066-.087-.357-2.227-8.745-10.699-10.298-.479-.088-.939.229-1.027.709-.088.479.228.94.709,1.027,7.327,1.346,9.225,8.671,9.302,8.982.063.253.229.454.442.567Z" fill="#36294e" stroke-width="0"/><path d="M371.342,127.562c.186.099.406.132.626.078.473-.116.763-.593.647-1.066-.087-.357-2.227-8.745-10.699-10.298-.479-.088-.939.229-1.027.709-.088.479.228.941.709,1.027,7.327,1.346,9.224,8.67,9.302,8.982.063.253.229.454.442.567Z" fill="#36294e" stroke-width="0"/><rect x="394.183" y="146.037" width="12.853" height="4.326" rx="2.163" ry="2.163" transform="translate(688.206 464.016) rotate(-152.624)" fill="#36294e" stroke-width="0"/><rect x="350.865" y="123.56" width="12.853" height="4.326" rx="2.163" ry="2.163" transform="translate(616.757 401.661) rotate(-152.624)" fill="#36294e" stroke-width="0"/><path d="M388.34,174.717c-1.062.584-1.899,1.573-2.259,2.83-.719,2.502.727,5.113,3.229,5.831.431.124,10.672,2.967,21.319-2.435.048-.025.095-.05.14-.074,2.219-1.22,3.084-3.988,1.931-6.262-1.178-2.322-4.016-3.249-6.337-2.071-7.261,3.685-14.382,1.802-14.452,1.783-1.246-.358-2.519-.179-3.572.4Z" fill="#ff4e93" stroke-width="0"/><path d="M395.396,177.039l-1.002,4.605c.22.049,5.451,1.161,10.74-.874l-1.691-4.399c-3.934,1.513-8.007.676-8.047.668Z" fill="#fff" stroke-width="0"/><path d="M369.8,153.139c.43.23.965.067,1.195-.363l3.246-6.081c.23-.43.067-.965-.363-1.195s-.965-.067-1.195.363l-3.246,6.081c-.23.43-.067.965.363,1.195Z" fill="#36294e" stroke-width="0"/><path d="M351.181,156.921c.069-.202.157-.395.26-.587,2.155-4.037,9.664-4.236,16.771-.442,7.113,3.797,11.126,10.147,8.971,14.184-.103.192-.214.372-.343.542,7.282-1.493,11.314-6.343,9.06-11.159-2.063-4.451-8.782-7.367-15.773-7.154-3.708-5.924-9.869-9.885-14.716-9.122-5.256.807-7.041,6.856-4.23,13.737Z" fill="url(#ap)" stroke-width="0"/><path d="M351.44,156.334c-.103.192-.19.385-.26.587.126.314.266.629.413.946,2.207,4.745,6.052,8.604,9.976,10.467,3.737,2.226,9.083,3.274,14.253,2.468.346-.055.685-.113,1.016-.183.13-.17.241-.35.343-.542,2.155-4.037-1.858-10.387-8.971-14.184-7.107-3.794-14.616-3.595-16.771.442Z" fill="url(#aq)" stroke-width="0"/><path d="M370.885,147.34l3.172,1.693c1.869.998,6.932.105,7.93-1.765h0c.998-1.869.285-4.215-1.584-5.213l-7.07-3.774c-1.869-.998-4.215-.285-5.213,1.584h0c-.998,1.869.896,6.476,2.765,7.474Z" fill="url(#ar)" stroke-width="0"/><path d="M373.378,291.178c-.116.033.119-.027,0,0-4.689,7.415-17.332,11.982-24.959,14.832l-.005-.013c-.21.065-.455.137-.734.239l-.005-.013c-1.023.337-2.5.886-4.259,1.569-6.966-13.161-18.909-12.555-20.91-12.36,1.021-.925,2.152-1.828,3.394-2.7,2.412-1.699,5.109-3.196,8.033-4.421,13.537-5.669,32.746-4.847,39.446,2.868Z" fill="url(#as)" stroke-width="0"/><path d="M343.415,307.792c-7.658,2.977-20.697,8.553-25.273,10.461-4.779-7.408-3.234-15.896,4.363-22.821,2.001-.195,13.944-.801,20.91,12.36Z" fill="url(#at)" stroke-width="0"/><path d="M340.009,302.771s14.045-13.323,28.811-15.021" fill="none" stroke-width="0"/><path d="M343.449,307.854c-.008-.02-.026-.043-.034-.062" fill="none" stroke-width="0"/><path d="M326.37,314.899l1.476,3.524c-2.733,1.152-4.978,2.1-6.166,2.59-1.236-.593-2.206-1.281-2.944-2.037l-.003-.007c-.208-.204-.39-.419-.556-.632l.247-.104c1.713-.718,4.603-1.935,7.945-3.335Z" fill="url(#au)" stroke-width="0"/><path d="M334.891,311.331l1.476,3.524c-2.963,1.225-5.957,2.487-8.521,3.568l-1.476-3.524c2.674-1.128,5.639-2.369,8.521-3.568Z" fill="url(#av)" stroke-width="0"/><path d="M343.449,307.854l1.473,3.518c-2.484.979-5.505,2.213-8.556,3.483l-1.476-3.524c3.1-1.283,6.107-2.512,8.559-3.477Z" fill="url(#aw)" stroke-width="0"/><path d="M348.425,306.023c1.134-.437,2.369-.923,3.662-1.457l1.495,3.57c-1.297.505-2.532.976-3.681,1.411" fill="url(#ax)" stroke-width="0"/><path d="M349.898,309.541c-1.018.311-2.787.968-4.976,1.831l-1.473-3.518c1.756-.689,3.221-1.249,4.238-1.599l.003.006c.279-.102.522-.18.732-.245" fill="url(#ay)" stroke-width="0"/><path d="M360.471,300.672l1.596,3.811c-2.85,1.385-5.79,2.593-8.485,3.653l-1.495-3.57c2.647-1.101,5.553-2.409,8.384-3.894Z" fill="url(#az)" stroke-width="0"/><path d="M368.413,295.723l1.683,4.019c-2.36,1.769-5.147,3.342-8.029,4.741l-1.596-3.811c2.831-1.484,5.589-3.144,7.942-4.949Z" fill="url(#ba)" stroke-width="0"/><path d="M374.982,294.733c-1.167,1.821-2.868,3.482-4.885,5.009l-1.683-4.019c1.828-1.393,3.419-2.879,4.619-4.438.116-.033.23-.073.346-.107l1.603,3.555Z" fill="url(#bb)" stroke-width="0"/><path d="M254.186,316.215c.641,2.73-7.055-1.262-13.71-8.034,0,0-47.015-41.099-39.853-51.062l20.843-13.674,24.581,16.309,11.955,33.904s-4.892,17.968-3.815,22.557Z" fill="url(#bc)" stroke-width="0"/><path d="M233.637,161.754c-20.227.126-20.155-13.976-20.155-13.976-25.58,3.431-23.945-18.538-23.945-18.538-10.437.809-19.023,10.383-19.023,10.383-4.042,12.682,4.699,26.462,4.699,26.462l-17.154,8.577c-12.19,5.293-40.16-5.736-40.537-7.798-.808,5.047,2.927,13.981,2.927,13.981-10.628,7.602-24.755-.777-24.755-.777,0,0,8.523-.473,12.807-4.871-3.101.77-6.747,1.296-10.901,1.594-28.167,1.706-28.67-15.359-28.67-15.359,14.676,8.191,20.478-4.779,20.478-4.779-22.33-7.867-29.674-36.424-25.693-33.189s6.741.424,6.741.424c-13.133-6.92-10.773-22.677-10.773-22.677,9.486,5.312,21.294.195,21.294.195,2.946-.808,16.281-10.786,16.281-10.786-23.891-13.652-12.628-34.31-12.628-34.31,1.202,2.167,2.758,3.99,4.527,5.524,9.558,8.287,24.087,7.17,32.897-1.909,22.952-23.652,69.26-30.004,69.26-30.004,6-2.281,17.892-3.395,17.892-3.395-1.491-4.689,3.467-8.982,3.467-8.982,2.281,7.419,17.856,5.407,17.856,5.407,42.142-6.143,41.298,31.741,41.298,31.741l8.874-2.569c1.365,7.509-5.12,13.994-5.12,13.994,17.478,0,31.256,8.209,37.741,12.952,2.21,1.617,4.868,2.443,7.581,2.443.754,0,1.527-.072,2.281-.198,3.754,11.604-16.041,20.479-16.041,20.479,18.772,6.485,22.706,22.867,22.185,33.609-.503,10.76-8.012,3.413-8.012,3.413.503,7.347-7.509,9.395-7.509,9.395l5.03,4.383-31.256,79.291-8.55-.09-30.825-41.298c-13.167-18.664-14.568-28.741-14.568-28.741" fill="url(#bd)" stroke-width="0"/><path d="M226.056,145.222l-.252-2.048c-.305-.036-.18.862.252,2.048Z" fill="url(#be)" stroke-width="0"/><path d="M228.355,337.636l-23.316,15.053-23.011,18.664-61.219,8.407-14.658.377c-.377,5.263-19.185,5.641-19.185,5.641l-19.544-37.993c24.43-23.676,33.466-7.132,33.466-7.132,10.194-6.227,21.28-9.703,33.466-9.79,1.673-9.897,7.369-13.573,16.922-11.281,12.575-16.198,31.398-33.966,52.17-52.225l24.91,70.279Z" fill="url(#bf)" stroke-width="0"/><path d="M387.025,286.763c.162.754.216,1.168.216,1.168l11.411,29.314c.644,1.653,1.363,3.276,2.157,4.863l4.015,8.029c2.209,4.418,3.84,9.102,4.854,13.937l1.78,8.494c.358,1.709.794,3.401,1.306,5.07l20.677,50.924c.637,2.079,1.491,4.121,2.833,5.831,1.529,1.948,2.344,4.695,2.561,8.113l-1.491,7.257c-46.602,37.476-101.482,54.432-136.489,49.447l-25.627-157.417,3.908-48.524,56.014-23.773,45.918,14.655,5.958,22.614h-.018" fill="url(#bg)" stroke-width="0"/><path d="M228.732,354.557l27.69,95.417c19.316,19.663,40.028,30.298,61.371,29.802l-38.187-157.477,3.071-44.676-12.129,4.759-12.129,25.178-8.041,8.663-46.934-48.866,24.91,70.279.377,16.921" fill="url(#bh)" stroke-width="0"/><path d="M303.409,391.185c-3.938,4.642-8.032,8.458-12.586,9.813l-9.173.853-20.053,3.626c-19.421,1.813-34.473,1.727-43.305-1.067-4.852,10.357-10.788,8.399-17.066,2.56l-19.199.427v-36.052s3.84-4.053,7.253-3.413c6.588-14.506,16.312-16.577,28.586-8.533,6.507-3.587,12.781-6.283,18.773-7.893,4.478-5.765,14.322-7.576,24.746-8.959-1.302-2.764-.541-5.377,4.48-7.68.665-3.418,30.87-45.271,40.229-58.18,1.826-2.518,4.45-4.311,7.453-5.123,9.905-2.679,32.742-7.92,42.315-2.289,12.396,7.292,14.584,22.97,14.584,22.97,1.094,26.616-22.24,42.658-22.24,42.658l-44.796,56.283" fill="url(#bi)" stroke-width="0"/><path d="M67.317,348.825s17.531,0,26.092,13.046c0,0,2.854,17.123-11.823,14.269l-14.269-27.315Z" fill="url(#bj)" stroke-width="0"/><path d="M120.622,390.516c-1.126,7.79-.542,12.835-.542,12.835,3.495,5.422,7.745,7.23,7.745,7.23,1.509,3.988,12.88,5.119,12.88,5.119,2.838,6.628,18.736-2.461,18.736-2.461,5.12-7.383,25.364-9.09,25.364-9.09,13.257,0,9.089-18.933,9.089-18.933-.377-12.682-8.892-11.927-8.892-11.927l-26.514-8.712c-6.054-3.97-16.003-1.655-16.849-.934-.908.773-13.689,3.27-13.689,3.27-7.417-.401-10.543,12.251-10.543,12.251-2.461,7.563,3.216,11.353,3.216,11.353ZM126.011,381.068l.952-1.635c.988-1.652,2.766-2.659,4.689-2.623l2.443.036-8.084,4.221Z" fill="url(#bk)" stroke-width="0"/><path d="M116.811,382.085c-.018-1.299.522-2.982,1.17-4.681,1.726-2.636,3.881-4.903,8.109-5.562,8.757-1.365,22.222.032,22.222.032l-10.64,4.062-11.897,6.094-5.153,8.486s-4.109-2.511-3.81-8.431Z" fill="url(#bl)" stroke-width="0"/><path d="M125.775,382.03c.406,7.462,11.75,4.268,23.071,1.363,0,0,.58,1.932-1.739,2.705s-13.817,10.049-13.817,10.049l-5.465,14.434s-4.5-1.581-7.745-7.23c0,0-.691-5.045.542-12.835l5.153-8.486Z" fill="url(#bm)" stroke-width="0"/><path d="M243.125,263.224c-10.39,8.114,19.569,36.501,17.141,34.967l2.579-8.108.089.283c1.953-9.822,11.864-25.025,11.864-25.025-.432-8.213,7.825-32.463,7.825-32.463-8.749-5.41-26.196-33.982-26.196-33.982l-30.124,48.434c-3.074-.514,21.66,10.313,16.822,15.894Z" fill="url(#bn)" stroke-width="0"/><path d="M254.011,316.905c4.599-.791,5.151-8.406,5.151-8.406,0,0,17.424-46.094,70.668-50.765,47.387-4.15,55.902,23.011,57.195,29.029,2.102-.431,2.623-1.329,2.623-1.329,2.479-2.551,4.293-5.694,5.263-9.126l2.066-7.257c.341-1.203.808-2.371,1.329-3.503,4.868-10.544,4.527-20.299-4.024-28.813l-12.071-13.652c-.629-.701-1.293-1.383-2.012-1.994l-14.119-12.251c-2.766-2.407-4.886-5.479-6.144-8.928l-.072-.198c-1.186-3.233-3.198-6.036-5.623-8.461-3.233-3.233-5.461-7.688-6.682-13.401-5.317-42.017-34.723-33.412-34.723-33.412l-10.381,8.357-13.628,42.423c-6.396,26.031-20.104,56.308-27.849,80.207-6.823,21.051-8.234,37.119-6.967,41.479Z" fill="url(#bo)" stroke-width="0"/><path d="M302.456,152.796c11.309-1.46,42.3,33.75-41.478,122.629l41.478-122.629Z" fill="url(#bp)" stroke-width="0"/><path d="M302.421,152.126s13.064,26.976-12.384,35.3l12.384-35.3Z" fill="#840828" stroke-width="0"/><path d="M232.962,160.371c-16.096,1.062-19.475-12.601-19.475-12.601-26.407,2.952-23.606-20.781-23.606-20.781,0,0-39.942,9.651-16.49,36.437,0,0-4.01,6.674-15.274,9.737,0,0-22.269,3.884-40.893-7.578.287,13.598,3.436,22.444,7.129,28.655l5.6,30.831c3.353,19.782,9.524,24.263,26.75,34.553,11.61,6.935,24.442,10.283,36.045,6.636,43.76-12.266,57.148-29.093,63.089-63.821,0,0,7.676,1.122,14.134-8.795,2.149-3.3,3.43-7.087,4.004-10.983,1.652-11.201,3.325-20.783-4.946-24.29-1.112-.471-4.544,1.417-5.743,3.378,2.027,7.601-1.948,19.171-11.656,19.257-1.858,4.899,2.316,9.842-3.42,9.485-5.838-9.279-11.477-16.843-15.248-30.12" fill="url(#bq)" stroke-width="0"/><path d="M209.131,163.167c-11.394-3.655-21.393-3.61-32.124,2.052-1.301.687-2.087,1.377-2.636.087-1.307-3.071-3.995-2.07,1.284-5.89,10.54-7.626,23.805-7.2,35.999-.096.379.22,1.366.601.807,1.273-.56.672-.51,1.678-1.371,2.196-.862.518-.362.892-1.959.379Z" fill="#580b17" stroke-width="0"/><path d="M137.542,181.527c1.28-.229,1.894-1.133.967-2.348-1.531-2.006-3.456-2.279-6.952-1.758-3.496.521-7.703,2.513-9.797,6.116-1.126,1.936-1.375,3.331-.686,5.158.2.531.468,1.169.722,1.38.948.787,1.417,1.518,2.342-.256,3.633-6.962,6.179-6.996,13.404-8.292Z" fill="#580b17" stroke-width="0"/><path d="M174.582,199.464c5.138,11.155,10.541,15.773,26.726,11.785,10.76-2.677,18.075-9.953,16.494-20.677,0-.072-.018-.144-.018-.216,0-.018-.018-.054-.018-.072-.862-2.551-6.734-19.85-23.853-20.066,0,0-11.733-.071-18.972,10.204,0,0,0,.018-.018.036-.126.251-.252.503-.359.754-2.587,5.461-2.838,12.054.018,18.251Z" fill="url(#br)" stroke-width="0"/><path d="M174.941,180.422c7.239-10.275,19.21-9.662,19.21-9.662,16.848.862,22.855,18.212,23.717,20.763-.377-2.317-1.145-5.874-2.151-8.065-5.048-11.209-16.347-16.562-27.717-13.508-5.892,1.599-10.455,5.496-13.059,10.472Z" fill="#7b2133" stroke-width="0"/><path d="M175.895,198.763c3.437,7.46,8.597,13.012,19.402,10.34,8.8-2.176,11.826-12.715,8.075-21.021-3.375-7.491-10.918-11.064-18.514-9.017-8.358,2.246-12.735,11.527-8.964,19.698Z" fill="url(#bs)" stroke-width="0"/><ellipse cx="183.736" cy="201.666" rx="3.078" ry="3.402" transform="translate(-62.832 318.422) rotate(-73.002)" fill="url(#bt)" stroke-width="0"/><path d="M128.45,206.664c-.467-19.167,12.521-15.179,14.335-14.514-2.515-1.886-5.263-2.659-7.796-1.94-5.066,1.455-7.634,8.425-6.539,16.454Z" fill="#7b2133" stroke-width="0"/><path d="M128.45,206.664c.18,1.347.485,2.748.88,4.132,2.784,9.664,9.203,12.61,15.113,10.922,5.91-1.706,9.066-7.419,6.282-17.083-1.581-5.515-4.563-9.97-7.922-12.484h-.018c-1.814-.665-14.802-4.653-14.335,14.514Z" fill="url(#bu)" stroke-width="0"/><path d="M129.161,209.902c1.635,5.684,6.352,8.964,10.717,8.061,5.031-1.042,7.341-6.607,4.795-12.523-2.338-5.433-6.433-9.293-10.717-8.061s-6.43,6.839-4.795,12.523Z" fill="url(#bv)" stroke-width="0"/><ellipse cx="133.749" cy="212.203" rx="2.094" ry="2.023" transform="translate(-108.284 278.075) rotate(-73.002)" fill="url(#bw)" stroke-width="0"/><path d="M159.999,214.995c1.268,1.01,13.128,10.831-.257,14.444-.199.054-.408.066-.611.037-1.379-.196-6.85-1.196-8.042-4.811-.162-.49-.03-1.034.309-1.423l4.354-4.993s.944-1.102,1.464-2.907c.33-1.148,1.809-1.463,2.579-.549h0c.062.074.13.141.205.201Z" fill="url(#bx)" stroke-width="0"/><path d="M162.386,227.432s-2.786-.633-5.888.253c0,0,3.292,1.33,5.888-.253Z" fill="url(#by)" stroke-width="0"/><path d="M173.661,250.678c4.114,1.487,8.948,1.8,14.245-.527,6.07-2.667,9.802-6.427,12.095-10.096-4.61-.29-18.092-.078-26.339,10.624Z" fill="#e44f5b" stroke-width="0"/><path d="M159.429,239.206s5.539,8.362,14.232,11.472c8.248-10.702,21.729-10.913,26.339-10.624,3.913-6.284,3.598-12.355,3.598-12.355,0,0-4.221,1.357-10.108,3.151-.987,2.313-3.923,6.541-12.283,8.561-10.605,2.56-15.234,1.52-17.768-.659-1.648.293-3.02.453-4.011.454Z" fill="#6d092b" stroke-width="0"/><path d="M163.44,238.751c2.534,2.179,7.163,3.219,17.768.659,8.359-2.02,11.296-6.247,12.283-8.561-9.228,2.787-22.526,6.636-30.051,7.902Z" fill="#faecea" stroke-width="0"/><path d="M262.872,169.945s4.537-4.71,4.994,2.543c0,0-.261,17.525-9.393,18.324,0,0-3.438-5.847-2.851-10.917,3.071-1.361,5.496-4.655,7.25-9.951Z" fill="url(#bz)" stroke-width="0"/><circle cx="223.41" cy="204.582" r="9.812" fill="url(#ca)" stroke-width="0"/><path d="M228.7,206.058s-3.395-3.395-7.639-4.456" fill="#c6485b" stroke-width="0"/><path d="M225.941,207.756s-3.395-3.395-7.639-4.456" fill="#c6485b" stroke-width="0"/><path d="M137.399,236.157c3.796.218,6.886-3.083,6.886-6.886,0-3.803-3.083-6.886-6.886-6.886,0,0-4.31,1.004-4.769,2.954l1.376,8.946s.018,1.677,3.393,1.871Z" fill="url(#cb)" stroke-width="0"/><path d="M143.807,227.681s-3.395-3.395-7.639-4.456" fill="#c6485b" stroke-width="0"/><path d="M141.048,229.378s-3.395-3.395-7.639-4.456" fill="#c6485b" stroke-width="0"/><path d="M260.719,342.526l.201-1.811s11.467-4.627,21.325,9.455c0,0,8.248,8.852,8.248,16.496,0,0,2.012,15.893-3.018,15.893,0,0-1.811-22.129-6.035-25.751-4.225-3.621-9.254-14.485-20.721-14.284Z" fill="url(#cc)" stroke-width="0"/><path d="M251.48,352.893s15.893,7.242,21.928,16.899c1.132,1.811,2.129,3.586,2.984,5.298,1.827,3.659-3.637,6.445-5.61,2.862-1.994-3.62-3.859-7.3-4.91-10.104-.213-.568-.562-1.062-1.043-1.431-3.328-2.551-16.703-12.994-13.349-13.524Z" fill="url(#cd)" stroke-width="0"/><path d="M189.402,367.909s1.082-4.326,6.85-1.803c5.769,2.524,15.142,21.091,2.884,39.298,0,0-4.687,2.704-10.095.901,0,0,11.357-2.524,12.258-12.258.901-9.734,1.622-25.057-11.898-26.139Z" fill="#383e85" stroke-width="0"/><path d="M128.646,333.922l.003-.004c.953-.916,2.355-1.802,4.063-2.673.081-.728.322-1.517.712-2.351-.574-.065-5.332-.512-6.813,2.44,0,0-2.278,2.975,2.035,2.589Z" fill="url(#ce)" stroke-width="0"/><path d="M129.049,339.413c1.431-1.429,2.921-2.413,4.443-3.198l.126-.064c.446-.228.889-.441,1.336-.64-.537-.34-.981-.718-1.322-1.133-.755-.891-1.053-1.94-.92-3.133-1.708.871-3.11,1.757-4.063,2.673l-.003.004c-.124.118-.243.239-.349.357-.599.656-.951,1.32-1.024,2.006-.16,1.305.062,2.18.63,2.673.29.256.674.405,1.146.455Z" fill="url(#cf)" stroke-width="0"/><path d="M132.678,342.702s1.601-2.471,4.226-4.052c.852-.515,1.816-.935,2.872-1.147-.697-.22-1.39-.485-2.088-.781-1.098-.339-2.01-.746-2.735-1.211-.446.199-.889.412-1.336.64l-.126.064c-1.387,1.677-3.547,4.962-.814,6.487Z" fill="url(#cg)" stroke-width="0"/><path d="M153.483,301.105l-7.15,10.181c-1.84,2.62-3.927,5.061-6.206,7.309-9.434,9.31-11.04,16.001-1.496,18.961,12.033,5.146,23.25,1.608,33.906-7.897,16.52-23.823,12.758-34.865,1.294-37.051-7.824-1.492-15.771,1.977-20.349,8.495Z" fill="url(#ch)" stroke-width="0"/><path d="M114.466,359.588l-.002-.005c-.823-1.034-2.095-2.098-3.673-3.188.016-.732-.118-1.546-.394-2.425.578.012,5.353.2,6.429,3.322,0,0,1.863,3.251-2.36,2.296Z" fill="url(#ci)" stroke-width="0"/><path d="M113.339,364.976c-1.228-1.606-2.575-2.779-3.98-3.759l-.117-.081c-.412-.285-.823-.555-1.239-.811.577-.266,1.068-.582,1.46-.947.866-.783,1.301-1.783,1.327-2.983,1.578,1.09,2.85,2.154,3.673,3.188l.002.005c.107.134.209.27.298.4.506.73.767,1.435.749,2.124-.015,1.315-.351,2.152-.979,2.566-.321.215-.721.312-1.196.299Z" fill="url(#cj)" stroke-width="0"/><path d="M109.306,367.755s-1.259-2.661-3.652-4.577c-.777-.624-1.677-1.167-2.695-1.518.72-.126,1.442-.296,2.173-.498,1.134-.19,2.091-.473,2.871-.837.416.256.827.526,1.239.811l.117.081c1.152,1.846,2.858,5.389-.053,6.538Z" fill="url(#ck)" stroke-width="0"/><path d="M94.2,323.767l5.737,11.04c1.476,2.841,3.221,5.536,5.182,8.068,8.117,10.479,8.821,17.323-1.031,18.992-12.609,3.505-23.258-1.488-32.56-12.323-13.215-25.803-8.024-36.248,3.629-36.895,7.953-.441,15.37,4.05,19.043,11.118Z" fill="url(#cl)" stroke-width="0"/><path d="M385.454,191.915c-12.876-.467-28.716,1.557-34.363,5.066-2.751,1.712-4.528,4.55-4.883,7.785-.345,3.133.728,6.178,2.941,8.339,3.058,2.997,10.357,4.702,17.826,5.683,6.817.895,13.761-1.148,18.808-5.816,6.319-5.845,6.828-12.844-.329-21.056Z" fill="url(#cm)" stroke-width="0"/><path d="M218.224,414.4s1.529,4.586-2.93,5.247c0,0-80.562,10.107-104.699,9.076-2.318-.099-4.541-.897-6.38-2.312l-3.856-2.966-15.027-40.128,13.541-.165s12.814,1.569,22.26,4.417l97.09,26.831Z" fill="url(#cn)" stroke-width="0"/><polygon points="165.761 407.918 177.958 411.547 189.347 410.056 176.629 406.481 165.761 407.918" fill="url(#co)" stroke-width="0"/><path d="M182.162,412.804l14.982,4.473,9.844-.934c.719-.072.808-1.078.126-1.275l-13.401-3.772-11.551,1.509Z" fill="url(#cp)" stroke-width="0"/><polygon points="122.613 395.021 161.522 406.643 172.246 405.242 131.739 393.817 122.613 395.021" fill="url(#cq)" stroke-width="0"/><polygon points="107.973 390.656 119.613 394.14 119.631 394.14 128.667 392.955 116.559 389.542 116.524 389.542 107.973 390.656" fill="url(#cr)" stroke-width="0"/><path d="M93.279,386.272l11.766,3.503h.018s8.407-1.114,8.407-1.114l-3.898-1.096c-3.737-1.06-7.598-1.527-11.461-1.437l-4.832.143Z" fill="url(#cs)" stroke-width="0"/><polygon points="135.475 403.93 144.439 406.93 151.696 405.565 142.05 402.691 135.475 403.93" fill="url(#ct)" stroke-width="0"/><polygon points="153.492 412.104 145.535 413.272 164.198 420.403 175.767 419.307 153.456 411.853 153.492 412.104" fill="url(#cu)" stroke-width="0"/><polygon points="132.583 408.332 142.104 411.96 150.241 410.775 138.798 406.949 138.816 407.038 132.583 408.332" fill="url(#cv)" stroke-width="0"/><polygon points="120.709 403.805 122.793 404.613 122.811 404.613 123.368 404.811 129.457 407.146 135.583 405.871 131.846 404.613 131.541 404.523 126.368 402.781 120.709 403.805" fill="url(#cw)" stroke-width="0"/><polygon points="110.398 399.871 117.494 402.565 122.829 401.596 115.087 399.008 110.398 399.871" fill="url(#cx)" stroke-width="0"/><polygon points="99.063 395.542 107.165 398.631 111.548 397.823 102.8 394.895 99.063 395.542" fill="url(#cy)" stroke-width="0"/><polygon points="85.483 389.111 86.219 390.638 96.764 394.661 100.267 394.051 85.483 389.111" fill="url(#cz)" stroke-width="0"/><polygon points="138.708 418.948 145.66 422.163 160.121 420.78 151.606 417.529 151.606 417.547 138.708 418.948" fill="url(#da)" stroke-width="0"/><polygon points="126.457 413.307 131.505 415.625 131.541 415.625 131.541 415.643 135.96 417.691 135.942 417.457 147.978 416.146 136.427 411.745 136.409 411.745 126.457 413.307" fill="url(#db)" stroke-width="0"/><polygon points="131.541 415.625 131.505 415.625 131.541 415.643 131.541 415.625" fill="url(#dc)" stroke-width="0"/><polygon points="114.53 407.793 123.529 411.942 133.068 410.451 129.296 409.014 129.206 409.032 129.188 408.978 122.613 406.464 114.53 407.793" fill="url(#dd)" stroke-width="0"/><polygon points="105.099 403.427 107.273 404.433 111.584 406.446 111.62 406.446 119.272 405.188 112.428 402.565 112.41 402.565 105.099 403.427" fill="url(#de)" stroke-width="0"/><polygon points="96.8 399.601 101.919 401.99 101.955 401.99 108.782 401.182 102.512 398.775 102.494 398.775 96.8 399.601" fill="url(#df)" stroke-width="0"/><polygon points="87.369 393.009 88.752 395.865 88.752 395.883 94.86 398.703 94.842 398.595 100.069 397.859 87.369 393.009" fill="url(#dg)" stroke-width="0"/><polygon points="121.661 418.75 130.391 423.601 142.086 422.505 131.236 417.493 121.661 418.75" fill="url(#dh)" stroke-width="0"/><polygon points="110.56 412.589 119.003 417.277 119.021 417.277 128.164 416.074 118.428 411.583 118.41 411.583 110.56 412.589" fill="url(#di)" stroke-width="0"/><polygon points="100.859 407.2 107.919 411.116 115.374 410.164 107.021 406.284 107.003 406.284 100.859 407.2" fill="url(#dj)" stroke-width="0"/><polygon points="89.992 398.433 91.806 402.17 98.273 405.763 104.021 404.918 89.992 398.433" fill="url(#dk)" stroke-width="0"/><path d="M93.171,404.972l6.18,12.772,6.269,5.048c2.227,1.814,5.101,2.677,7.958,2.407l13.652-1.293-29.28-16.275-.126.018-.018-.09-4.634-2.587Z" fill="url(#dl)" stroke-width="0"/><polygon points="97.806 407.559 97.824 407.649 97.95 407.631 97.806 407.559" fill="url(#dm)" stroke-width="0"/><polygon points="162.456 412.948 180.168 418.876 180.186 418.876 192.383 417.727 172.12 411.673 162.456 412.948" fill="url(#dn)" stroke-width="0"/><polygon points="159.187 411.853 159.151 411.565 167.899 410.415 155.235 406.625 155.253 406.733 147.96 408.116 159.187 411.853" fill="url(#do)" stroke-width="0"/><polygon points="122.631 399.637 131.918 402.763 131.954 402.763 138.259 401.577 128.559 398.649 128.541 398.649 122.631 399.637" fill="url(#dp)" stroke-width="0"/><polygon points="110.003 395.416 115.176 397.158 118.967 398.416 118.985 398.416 124.607 397.482 114.44 394.446 114.458 394.518 110.003 395.416" fill="url(#dq)" stroke-width="0"/><polygon points="107.686 394.643 107.686 394.608 112.015 393.727 99.027 389.847 99.009 389.847 95.399 390.53 107.686 394.643" fill="url(#dr)" stroke-width="0"/><polygon points="84.225 386.524 84.387 386.847 93.099 389.757 93.081 389.686 96.423 389.057 89.902 387.117 90.117 386.362 84.225 386.524" fill="url(#ds)" stroke-width="0"/><path d="M40.147,291.548l61.796,124.474c.963,1.939-.714,4.142-2.84,3.729l-113.927-22.125-71.312-135.51,113.889,20.165c5.315,1.066,9.868,4.47,12.393,9.267Z" fill="url(#dt)" stroke-width="0"/><path d="M29.381,288.137l70.083,133.126c1.157,2.197-.83,4.728-3.239,4.126l-111.05-27.762c-.764-.191-1.417-.688-1.805-1.374l-72.573-129.906c-1.21-2.141.655-4.714,3.066-4.23l113.54,24.542c.848.17,1.574.713,1.977,1.479Z" fill="url(#du)" stroke-width="0"/></g></g></svg>