<?xml version="1.0" encoding="UTF-8"?><svg id="b" xmlns="http://www.w3.org/2000/svg" xmlns:xlink="http://www.w3.org/1999/xlink" viewBox="0 0 443.259 443.259"><defs><clipPath id="d"><rect width="443.259" height="443.259" fill="none" stroke-width="0"/></clipPath><linearGradient id="e" x1="239.352" y1="37.181" x2="238.734" y2="72.679" gradientUnits="userSpaceOnUse"><stop offset="0" stop-color="#00cdd2"/><stop offset=".035" stop-color="#19b8da"/><stop offset=".088" stop-color="#399ee6"/><stop offset=".146" stop-color="#5488ef"/><stop offset=".209" stop-color="#6878f6"/><stop offset=".28" stop-color="#776cfb"/><stop offset=".365" stop-color="#7f66fe"/><stop offset=".506" stop-color="#8264ff"/><stop offset="1" stop-color="#5047bf"/></linearGradient><linearGradient id="f" x1="137.765" y1="53.814" x2="248.681" y2="555.407" gradientUnits="userSpaceOnUse"><stop offset="0" stop-color="#ff4e93"/><stop offset=".029" stop-color="#ea51a4"/><stop offset=".083" stop-color="#ca57c0"/><stop offset=".141" stop-color="#af5bd7"/><stop offset=".205" stop-color="#9b5fe9"/><stop offset=".277" stop-color="#8c62f5"/><stop offset=".363" stop-color="#8463fc"/><stop offset=".506" stop-color="#8264ff"/><stop offset="1" stop-color="#5047bf"/></linearGradient><linearGradient id="g" x1="239.227" y1="440.038" x2="240.668" y2="440.038" gradientUnits="userSpaceOnUse"><stop offset="0" stop-color="#f05724"/><stop offset="1" stop-color="#f69021"/></linearGradient><linearGradient id="h" x1="124.781" y1="483.297" x2="335.909" y2="483.297" gradientUnits="userSpaceOnUse"><stop offset="0" stop-color="#ff4e93"/><stop offset=".184" stop-color="#ff5391"/><stop offset=".425" stop-color="#ff648d"/><stop offset=".7" stop-color="#ff7f86"/><stop offset=".996" stop-color="#ffa57d"/><stop offset="1" stop-color="#ffa67d"/></linearGradient><linearGradient id="i" x1="-52.002" y1="1060.29" x2="134.645" y2="1060.29" gradientTransform="translate(276.176 -788.519) rotate(5.153)" gradientUnits="userSpaceOnUse"><stop offset="0" stop-color="#8264ff"/><stop offset="1" stop-color="#5f4dd2"/></linearGradient><linearGradient id="j" x1="-672.364" y1="1412.042" x2="-509.908" y2="1412.042" gradientTransform="translate(977.16 -1128.932) rotate(7.925) scale(.94 1)" gradientUnits="userSpaceOnUse"><stop offset="0" stop-color="#ffac00"/><stop offset="1" stop-color="#f03c00"/></linearGradient><linearGradient id="k" x1="-138.38" y1="1521.468" x2="-111.422" y2="1521.468" gradientTransform="translate(1661.508 291.522) rotate(90)" gradientUnits="userSpaceOnUse"><stop offset="0" stop-color="#d072bf"/><stop offset="1" stop-color="#8264ff"/></linearGradient><linearGradient id="l" x1="42.215" y1="1516.741" x2="69.173" y2="1516.741" gradientTransform="translate(1836.075 133.073) rotate(90)" gradientUnits="userSpaceOnUse"><stop offset="0" stop-color="#8264ff"/><stop offset="1" stop-color="#d072bf"/></linearGradient><linearGradient id="m" x1="-125.554" y1="1498.072" x2="-63.6" y2="1498.072" gradientTransform="translate(489.516 -1319.425) rotate(8.541)" gradientUnits="userSpaceOnUse"><stop offset="0" stop-color="#fef"/><stop offset=".656" stop-color="#ffeaff"/><stop offset="1" stop-color="#ffe5ff"/></linearGradient><linearGradient id="n" x1="-1.77" y1="1499.068" x2="53.832" y2="1499.068" xlink:href="#m"/><linearGradient id="o" x1="208.613" y1="385.21" x2="262.509" y2="385.21" gradientUnits="userSpaceOnUse"><stop offset="0" stop-color="#f33700"/><stop offset="1" stop-color="#ffee54"/></linearGradient><linearGradient id="p" x1="181.157" y1="375.449" x2="238.449" y2="375.449" gradientUnits="userSpaceOnUse"><stop offset="0" stop-color="#f6902d"/><stop offset=".173" stop-color="#f69730"/><stop offset=".434" stop-color="#f8ac38"/><stop offset=".75" stop-color="#fbce46"/><stop offset="1" stop-color="#ffee54"/></linearGradient><linearGradient id="q" x1="16663.627" y1="-2113.37" x2="16687.291" y2="-2113.37" gradientTransform="translate(16765.583 -2586.892) rotate(162.453) scale(1 -1)" xlink:href="#h"/><linearGradient id="r" x1="16664.667" y1="-2101.529" x2="16687.624" y2="-2101.529" gradientTransform="translate(16765.583 -2586.892) rotate(162.453) scale(1 -1)" xlink:href="#h"/><linearGradient id="s" x1="16652.971" y1="-2088.798" x2="16678.877" y2="-2088.798" gradientTransform="translate(16765.583 -2586.892) rotate(162.453) scale(1 -1)" xlink:href="#h"/><linearGradient id="t" x1="16386.871" y1="-2464.874" x2="16736.044" y2="-1877.001" gradientTransform="translate(16765.583 -2586.892) rotate(162.453) scale(1 -1)" gradientUnits="userSpaceOnUse"><stop offset="0" stop-color="#00cdd2"/><stop offset=".028" stop-color="#19b8da"/><stop offset=".07" stop-color="#399ee6"/><stop offset=".116" stop-color="#5488ef"/><stop offset=".166" stop-color="#6878f6"/><stop offset=".222" stop-color="#776cfb"/><stop offset=".29" stop-color="#7f66fe"/><stop offset=".402" stop-color="#8264ff"/><stop offset=".641" stop-color="#5047bf"/></linearGradient><linearGradient id="u" x1="643.127" y1="2952.375" x2="666.792" y2="2952.375" gradientTransform="translate(481.226 -2586.892) rotate(17.547)" xlink:href="#h"/><linearGradient id="v" x1="644.168" y1="2964.217" x2="667.125" y2="2964.217" gradientTransform="translate(481.226 -2586.892) rotate(17.547)" xlink:href="#h"/><linearGradient id="w" x1="632.472" y1="2976.948" x2="658.377" y2="2976.948" gradientTransform="translate(481.226 -2586.892) rotate(17.547)" xlink:href="#h"/><linearGradient id="x" x1="366.372" y1="2600.871" x2="715.545" y2="3188.744" gradientTransform="translate(481.226 -2586.892) rotate(17.547)" xlink:href="#t"/></defs><g id="c"><g clip-path="url(#d)"><path d="M239.335,39.66c-.018.052-.018.087-.035.139,0-.035,0-.087-.018-.121.018,0,.035-.017.052-.017Z" fill="url(#e)" stroke-width="0"/><path d="M239.335,39.66c-.018.052-.018.087-.035.139,0-.035,0-.087-.018-.121.018,0,.035-.017.052-.017Z" fill="url(#e)" stroke-width="0"/><path d="M378.568,507.92c-15.96,19.172-38.695,25.873-61.586,32.28-31.902,7.923-65.294,10.597-99.119,11.608-36.581,1.712-72.764,1.288-108.391-2.184-18.801-5.021-37.308-13.401-55.642-24.047-14.244-18.39-22.544-40.432-22.544-64.137,0-6.798.693-13.483,2.01-19.971-.675-22.612,22.96-88.607,40.029-167.498,2.686-52.594,6.793-100.183,15.925-129.903,3.813-17.412,12.165-33.454,23.983-47.181,4.02-4.728,8.473-9.162,13.291-13.287,11.35-9.766,24.745-17.803,39.578-23.64,8.474-8.575,17.71-15.227,21.54-8.722,10.726-9.57,23.081-16.352,30.758-13.01,2.79,2.918,3.934,6.065,3.916,9.309,42.577-10.173,50.531-3.065,49.196,5.233,0,.033-.018.081-.018.114-.225,1.271-.641,2.56-1.196,3.831,5.736,1.826,11.281,3.978,16.601,6.44,2.738,1.239,5.407,2.576,8.006,3.978,13.568,7.287,25.525,16.58,35.299,27.389,11.454,12.668,19.928,27.406,24.485,43.448.624,2.152,1.179,4.32,1.646,6.521,9.046,29.753,13.101,77.13,15.804,129.479,4.61,21.308,9.704,41.687,14.66,60.517-1.611,13.58,11.437,58.842,9.617,70.417,2.101,37.553-3.337,37.125-4.913,58.372-7.878,24.212-5.969,24.298-12.935,44.644Z" fill="url(#f)" stroke-width="0"/><path d="M420.798,460.894c0,64.202-60.824,116.258-135.874,116.258-4.332,0-8.63-.163-12.858-.522h-91.825c-4.227.359-8.526.522-12.858.522-44.638,0-84.234-18.423-108.997-46.855-1.507-1.728-2.945-3.473-4.332-5.266,18.334,10.646,36.841,19.026,55.642,24.047,35.628,3.472,71.811,3.896,108.391,2.184,33.826-1.011,67.218-3.684,99.119-11.608,22.891-6.407,37.097-18.877,53.057-38.049,12.673-18.968,20.452-36.391,19.966-62.101.139-22.808.013-14.926,1.849-42.12,1.82-11.575-6.666-49.863-5.055-63.443,4.593,17.477,9.098,33.601,12.98,47.948,4.02,14.819,9.081,29.346,14.435,43.774.762,2.071,1.455,4.157,2.097,6.26,2.773,9.26,4.263,18.977,4.263,28.971Z" fill="#5943b2" stroke-width="0"/><path d="M239.227,440.028c.474,0,.948.019,1.441.019h-.569c-.284,0-.587,0-.872-.019Z" fill="url(#g)" stroke-width="0"/><path d="M329.034,446.701l-.104.104c-2.79,2.772-6.568,6.048-11.644,9.86-.261.191-.468.416-.607.676-1.057.936-1.248,2.565-.399,3.726.572.745,1.404,1.144,2.287,1.144,0,0,3.396,73.942-94.06,71.186-90.577-8.214-99.727-78.152-99.727-78.152.173.069.866.329,2.114.693l.017.017c6.533,3.24,27.865,12.234,63.648,12.234,14.747,0,31.937-1.542,51.571-5.614,15.821-3.292,31.59-8.11,47.099-14.4,3.379-1.386,6.759-2.825,10.121-4.332,2.512-1.126,5.008-2.287,7.486-3.5,1.924-.918,3.847-1.871,5.754-2.842,10.657-5.424,21.331-5.251,23.047-2.495.866,1.404-.069,5.164-6.602,11.697Z" fill="url(#h)" stroke-width="0"/><path d="M320.404,460.824c-1.161.849-2.79.624-3.639-.52-.676-.901-.693-2.097-.086-2.963.139-.26.346-.485.607-.676,5.077-3.812,8.855-7.088,11.644-9.86l.104-.104c6.533-6.533,7.469-10.293,6.602-11.697-1.716-2.755-12.39-2.928-23.047,2.495-1.906.971-3.83,1.924-5.754,2.842-2.477,1.213-4.974,2.374-7.486,3.5-3.362,1.508-6.741,2.946-10.121,4.332-15.509,6.29-31.278,11.108-47.099,14.4-19.634,4.072-36.823,5.614-51.571,5.614-35.784,0-57.115-8.993-63.648-12.234l-.017-.017c-1.213-.606-1.924-1.005-2.114-1.109-1.23-.728-1.646-2.322-.918-3.57.728-1.23,2.322-1.646,3.552-.918.208.121,11.229,6.377,32.44,9.999,8.716,1.49,19.148,2.547,31.261,2.547,14.331,0,31.001-1.473,49.941-5.407,18.195-3.778,36.321-9.635,54.066-17.45,5.077-2.218,10.12-4.609,15.11-7.157,11.073-5.632,25.699-7.226,29.823-.624,3.899,6.273-2.72,15.873-19.65,28.575Z" fill="#473f93" stroke-width="0"/><path d="M223.679,287.436c-58.082-4.255-82.359-19.345-92.501-31.445-3.69-4.402,2.179-9.412,8.516-7.258,13.484,4.585,38.468,10.129,84.739,14.709,43.075,4.257,67.856,2.724,82.105-.34,6.748-1.451,12.451,4.673,7.806,8.489-12.28,10.09-37.768,19.72-90.664,15.844Z" fill="url(#i)" stroke-width="0"/><path d="M305.868,218.216l-.003.018c-.474,2.829-4.299,5.545-10.276,7.3-1.108.328-2.272.614-3.45.861l-.652-.057c-3.235-.301-6.49-.604-9.749-.889l-6.142-.582c-1.301-.132-2.604-.246-3.867-.355-7.098-.674-14.179-1.328-21.11-2.019-14.713-1.481-26.173-2.878-36.104-4.409-3.806-.586-8.089-1.172-12.551-1.797-8.319-1.162-16.939-2.377-24.719-3.787-7.863-1.419-13.456-2.814-17.139-4.262-1.319-.517-2.364-1.058-3.143-1.586l-.243-.156c-.064-.034-.128-.069-.191-.103-3.793-2.045-3.22-7.066.935-8.606,1.335-.495,2.682-.967,3.863-1.382,4.257-1.479,9.065-3.169,13.675-5.392,5.643-2.725,11.424-6.146,17.02-9.441,3.902-2.324,7.595-4.507,11.252-6.476,13.174-7.093,23.911-10.124,32.506-9.131,3.932.454,7.414,1.751,10.444,3.89l33.22,27.64.562.466c1.286,1.079,2.599,2.126,3.885,3.077,4.876,3.703,10.494,7.291,17.631,11.309,3.116,1.747,4.666,3.843,4.347,5.869Z" fill="url(#j)" stroke-width="0"/><path d="M207.429,208.113h0c-.669.603-1.811.642-2.537.087l-5.804-4.437c-.726-.555-.773-1.503-.104-2.106h0c.669-.603,1.811-.642,2.537-.087l5.804,4.437c.726.555.773,1.503.104,2.106Z" fill="#473f93" stroke-width="0"/><path d="M252.482,214.343l-.128-.14c-.562-.615-.415-1.499.325-1.965l5.342-3.362c.74-.466,1.806-.345,2.367.27l.128.14c.562.615.415,1.499-.325,1.965l-5.342,3.362c-.74.466-1.806.345-2.367-.27Z" fill="#473f93" stroke-width="0"/><ellipse cx="140.039" cy="166.621" rx="7.565" ry="13.479" transform="translate(-45.532 280.361) rotate(-81.459)" fill="url(#k)" stroke-width="0"/><ellipse cx="319.333" cy="188.767" rx="7.565" ry="13.479" transform="translate(85.234 476.524) rotate(-81.459)" fill="url(#l)" stroke-width="0"/><path d="M204.134,152.594c-2.514,16.742-18.269,28.255-35.186,25.715-16.918-2.541-28.595-18.174-26.08-34.916,2.514-16.742,18.27-28.266,35.188-25.726,16.917,2.541,28.593,18.185,26.079,34.927Z" fill="url(#m)" stroke-width="0"/><path d="M265.131,162.76c-2.257,15.026,8.224,29.056,23.407,31.337,15.183,2.28,29.323-8.053,31.579-23.079,2.257-15.026-8.222-29.066-23.405-31.347-15.183-2.28-29.324,8.063-31.581,23.089Z" fill="url(#n)" stroke-width="0"/><path d="M168.827,182.021c-18.432-2.768-31.174-20.014-28.406-38.446,2.768-18.432,20.014-31.174,38.446-28.406,18.432,2.768,31.174,20.014,28.406,38.446-2.768,18.432-20.014,31.174-38.446,28.406ZM178.281,119.071c-16.28-2.445-31.513,8.81-33.958,25.09-2.445,16.28,8.81,31.513,25.09,33.958,16.28,2.445,31.513-8.81,33.958-25.09,2.445-16.28-8.81-31.513-25.09-33.958Z" fill="#473f93" stroke-width="0"/><path d="M288.332,197.415c-16.852-2.531-28.503-18.299-25.972-35.151,2.531-16.852,18.299-28.503,35.151-25.972,16.852,2.531,28.503,18.299,25.972,35.151-2.531,16.852-18.299,28.503-35.151,25.972ZM296.975,139.859c-14.885-2.235-28.812,8.055-31.048,22.94-2.235,14.885,8.055,28.812,22.94,31.048,14.885,2.235,28.812-8.055,31.048-22.94,2.235-14.885-8.055-28.812-22.94-31.048Z" fill="#473f93" stroke-width="0"/><path d="M265.586,157.546c-26.663-27.374-57.735-9.803-59.046-9.041l-1.848-3.381c.344-.202,34.863-19.829,63.58,9.656l-2.687,2.765Z" fill="#473f93" stroke-width="0"/><circle cx="285.039" cy="165.644" r="3.311" fill="#fff" stroke-width="0"/><circle cx="171.676" cy="157.914" r="10.297" fill="#37294f" stroke-width="0"/><circle cx="287.887" cy="173.374" r="10.297" fill="#37294f" stroke-width="0"/><path d="M135.732,106.389c-.345,0-.695-.109-.992-.334-.723-.549-.866-1.58-.316-2.304.154-.202,15.697-20.184,43.185-12.622.875.241,1.389,1.145,1.148,2.022-.241.875-1.15,1.387-2.022,1.148-25.358-6.979-39.551,11.254-39.691,11.44-.324.426-.814.65-1.312.65Z" fill="#473f93" stroke-width="0"/><path d="M332.224,133.244c-.551,0-1.089-.276-1.4-.78-13.788-22.312-35.925-18.802-36.861-18.644-.894.149-1.746-.445-1.9-1.341-.156-.893.442-1.744,1.336-1.9.246-.045,25.233-4.1,40.222,20.157.477.772.238,1.786-.535,2.263-.268.167-.567.246-.862.246Z" fill="#473f93" stroke-width="0"/><path d="M208.651,274.903c4.349,2.352,11.671,8.829,19.385,15.849-7.281,5.68-14.812,10.325-22.67,13.603-3.571,2.143-9.051.197-8.685-3.083-.981-8.59-.291-16.867,2.704-24.245.367-3.28,6.212-4.62,9.266-2.124Z" fill="#4be0e0" stroke-width="0"/><path d="M246.908,279.607c-4.79,1.229-13.462,5.738-22.647,10.681,5.688,7.275,11.869,13.606,18.7,18.69,2.946,2.944,8.733,2.384,9.173-.887,3.033-8.096,4.369-16.294,3.25-24.178.439-3.271-4.908-5.988-8.475-4.306Z" fill="#4be0e0" stroke-width="0"/><path d="M229.927,297.327l-7.969-.649c-1.326-.108-2.313-1.27-2.205-2.596-.553-2.489-.384-4.788.56-6.881.108-1.326,1.27-2.313,2.596-2.205l7.969.649c1.326.108,2.313,1.27,2.205,2.596.412,2.131.085,4.463-.56,6.881-.108,1.326-1.27,2.313-2.596,2.205Z" fill="#40c0c6" stroke-width="0"/><path d="M259.72,374.967l-8.804,8.575c-2.166,2.119-3.161,5.163-2.646,8.148l2.078,12.117c1.288,7.516-6.603,13.247-13.352,9.699l-10.882-5.719c-2.681-1.411-5.883-1.411-8.564,0l-8.938,4.695c8.95-5.262,17.274-14.236,22.981-25.814,5.145-10.431,7.323-21.254,6.773-30.831,1.194.866,2.587,1.446,4.086,1.662l12.164,1.768c7.551,1.1,10.566,10.373,5.104,15.699Z" fill="url(#o)" stroke-width="0"/><path d="M231.594,386.668c-5.707,11.578-14.031,20.552-22.981,25.814l-1.943,1.024c-6.749,3.547-14.64-2.183-13.352-9.699l2.078-12.117c.515-2.985-.48-6.029-2.646-8.148l-8.804-8.575c-5.461-5.327-2.447-14.599,5.104-15.699l12.164-1.768c2.997-.433,5.584-2.318,6.925-5.034l5.444-11.022c3.372-6.837,13.13-6.837,16.501,0l5.444,11.022c.673,1.358,1.651,2.505,2.839,3.372.55,9.576-1.627,20.4-6.773,30.831Z" fill="url(#p)" stroke-width="0"/><circle cx="211.339" cy="363.746" r="5.462" fill="#ffee54" stroke-width="0"/><path d="M225.685,433.079l.007-.012c2.663-2.694,6.615-5.334,11.445-7.954.179-2.09.811-4.37,1.867-6.787-1.649-.143-15.311-1.076-19.339,7.488,0,0-6.307,8.689,6.019,7.266Z" fill="url(#q)" stroke-width="0"/><path d="M227.241,448.778c3.993-4.198,8.191-7.127,12.494-9.486l.357-.194c1.262-.686,2.515-1.327,3.78-1.93-1.563-.935-2.864-1.985-3.87-3.148-2.228-2.498-3.158-5.481-2.865-8.908-4.83,2.62-8.782,5.26-11.445,7.954l-.007.012c-.346.348-.679.704-.973,1.048-1.667,1.924-2.627,3.852-2.787,5.822-.362,3.751.338,6.24,2.001,7.611.849.712,1.959,1.11,3.315,1.218Z" fill="url(#r)" stroke-width="0"/><path d="M237.876,457.934s4.406-7.195,11.811-11.917c2.404-1.539,5.135-2.81,8.144-3.495-2.012-.579-4.018-1.287-6.038-2.085-3.171-.89-5.811-1.99-7.922-3.268-1.264.602-2.518,1.244-3.78,1.93l-.357.194c-3.85,4.906-9.798,14.474-1.859,18.642Z" fill="url(#s)" stroke-width="0"/><path d="M294.434,337.254l-19.739,29.689c-5.08,7.64-10.879,14.784-17.243,21.393-26.346,27.36-30.456,46.644-2.898,54.427,34.847,13.861,66.721,2.908,96.553-25.101,45.582-69.454,34-100.808.999-106.232-22.523-3.702-45.035,6.816-57.672,25.824Z" fill="url(#t)" stroke-width="0"/><path d="M218.796,433.079l-.007-.012c-2.663-2.694-6.615-5.334-11.445-7.954-.179-2.09-.811-4.37-1.867-6.787,1.649-.143,15.311-1.076,19.339,7.488,0,0,6.307,8.689-6.019,7.266Z" fill="url(#u)" stroke-width="0"/><path d="M217.241,448.778c-3.993-4.198-8.191-7.127-12.494-9.486-.119-.065-.238-.129-.357-.194-1.262-.686-2.515-1.327-3.78-1.93,1.563-.935,2.864-1.985,3.87-3.148,2.228-2.498,3.158-5.481,2.865-8.908,4.83,2.62,8.782,5.26,11.445,7.954l.007.012c.346.348.679.704.973,1.048,1.667,1.924,2.627,3.852,2.787,5.822.362,3.751-.338,6.24-2.001,7.611-.849.712-1.959,1.11-3.315,1.218Z" fill="url(#v)" stroke-width="0"/><path d="M206.606,457.934s-4.406-7.195-11.811-11.917c-2.404-1.539-5.135-2.81-8.144-3.495,2.012-.579,4.018-1.287,6.038-2.085,3.171-.89,5.811-1.99,7.922-3.268,1.264.602,2.518,1.244,3.78,1.93.119.065.238.129.357.194,3.85,4.906,9.798,14.474,1.859,18.642Z" fill="url(#w)" stroke-width="0"/><path d="M150.048,337.254l19.739,29.689c5.08,7.64,10.879,14.784,17.243,21.393,26.346,27.36,30.456,46.644,2.898,54.427-34.847,13.861-66.721,2.908-96.553-25.101-45.582-69.454-34-100.808-.999-106.232,22.523-3.702,45.035,6.816,57.672,25.824Z" fill="url(#x)" stroke-width="0"/></g></g></svg>