<svg width="1440" height="1774" viewBox="0 0 1440 1774" fill="none" xmlns="http://www.w3.org/2000/svg">
<g filter="url(#filter0_f_145_5717)">
<path d="M145.529 1222.69C35.5788 1157.68 -3.45889 1026.35 -39.6316 869.01C-76.1624 711.412 -109.828 527.549 0.12236 408.181C110.073 289.073 363.281 234.72 590.345 253.705C817.409 272.689 1018.33 365.011 1195.61 484.379C1372.89 603.487 1526.54 749.381 1515.43 887.214C1504.69 1025.31 1328.84 1155.08 1151.56 1220.09C974.276 1285.11 795.562 1285.37 615.773 1285.89C435.985 1286.41 255.122 1287.71 145.529 1222.69Z" fill="url(#paint0_linear_145_5717)" fill-opacity="0.8"/>
</g>
<g filter="url(#filter1_f_145_5717)">
<path d="M1355.48 1363.29C1265.62 1441.06 1084.09 1468.67 866.611 1494.25C648.776 1520.09 394.635 1543.9 229.641 1466.13C65.007 1388.37 -10.1208 1209.28 16.1201 1048.69C42.3609 888.092 169.971 745.988 334.964 620.602C499.599 495.216 701.258 386.548 891.774 394.401C1082.65 402 1262.02 526.373 1351.89 651.759C1441.75 777.145 1442.11 903.544 1442.83 1030.7C1443.55 1157.86 1445.35 1285.78 1355.48 1363.29Z" fill="url(#paint1_linear_145_5717)" fill-opacity="0.4"/>
</g>
<defs>
<filter id="filter0_f_145_5717" x="-324.709" y="0" width="2090.71" height="1536" filterUnits="userSpaceOnUse" color-interpolation-filters="sRGB">
<feFlood flood-opacity="0" result="BackgroundImageFix"/>
<feBlend mode="normal" in="SourceGraphic" in2="BackgroundImageFix" result="shape"/>
<feGaussianBlur stdDeviation="125" result="effect1_foregroundBlur_145_5717"/>
</filter>
<filter id="filter1_f_145_5717" x="-243" y="140" width="1939.99" height="1633.06" filterUnits="userSpaceOnUse" color-interpolation-filters="sRGB">
<feFlood flood-opacity="0" result="BackgroundImageFix"/>
<feBlend mode="normal" in="SourceGraphic" in2="BackgroundImageFix" result="shape"/>
<feGaussianBlur stdDeviation="127" result="effect1_foregroundBlur_145_5717"/>
</filter>
<linearGradient id="paint0_linear_145_5717" x1="720.645" y1="1286" x2="720.645" y2="250" gradientUnits="userSpaceOnUse">
<stop stop-color="#8264FF"/>
<stop offset="1" stop-color="#FFE0EC" stop-opacity="0.2"/>
</linearGradient>
<linearGradient id="paint1_linear_145_5717" x1="727" y1="362" x2="1658.23" y2="782.489" gradientUnits="userSpaceOnUse">
<stop stop-color="#00CDD2" stop-opacity="0.2"/>
<stop offset="1" stop-color="#8264FF" stop-opacity="0.8"/>
</linearGradient>
</defs>
</svg>
