<?xml version="1.0" encoding="UTF-8"?><svg id="b" xmlns="http://www.w3.org/2000/svg" xmlns:xlink="http://www.w3.org/1999/xlink" viewBox="0 0 443.259 443.259"><defs><clipPath id="d"><rect width="443.259" height="443.259" fill="none" stroke-width="0"/></clipPath><linearGradient id="e" x1="54.7" y1="295.619" x2="74.889" y2="295.619" gradientUnits="userSpaceOnUse"><stop offset="0" stop-color="#ffc400"/><stop offset="1" stop-color="#ffac00"/></linearGradient><linearGradient id="f" x1="29.608" y1="478.161" x2="49.796" y2="478.161" xlink:href="#e"/><linearGradient id="g" x1="13.408" y1="152.367" x2="254.443" y2="152.367" xlink:href="#e"/><linearGradient id="h" x1="13.587" y1="454.411" x2="337.221" y2="454.411" xlink:href="#e"/><linearGradient id="i" x1="280.831" y1="334.678" x2="282.082" y2="334.678" gradientUnits="userSpaceOnUse"><stop offset="0" stop-color="#f05724"/><stop offset="1" stop-color="#f69021"/></linearGradient><linearGradient id="j" x1="327.527" y1="226.374" x2="327.589" y2="226.374" gradientUnits="userSpaceOnUse"><stop offset="0" stop-color="#40c0c6"/><stop offset="1" stop-color="#fcff80"/></linearGradient><linearGradient id="k" x1="275.748" y1="320.958" x2="275.96" y2="320.958" gradientUnits="userSpaceOnUse"><stop offset="0" stop-color="#f9ffe1"/><stop offset=".24" stop-color="#f9fddc"/><stop offset=".488" stop-color="#faf8d0"/><stop offset=".74" stop-color="#fcf1bb"/><stop offset=".993" stop-color="#fee69e"/><stop offset="1" stop-color="#ffe69e"/></linearGradient><linearGradient id="l" x1="134.283" y1="212.411" x2="141.529" y2="212.411" gradientUnits="userSpaceOnUse"><stop offset="0" stop-color="#ffe69e"/><stop offset=".007" stop-color="#fee69e"/><stop offset=".26" stop-color="#fcf1bb"/><stop offset=".512" stop-color="#faf8d0"/><stop offset=".76" stop-color="#f9fddc"/><stop offset="1" stop-color="#f9ffe1"/></linearGradient><linearGradient id="m" x1="174.091" y1="236.749" x2="174.97" y2="236.749" xlink:href="#l"/><linearGradient id="n" x1="130.251" y1="408.994" x2="275.96" y2="408.994" xlink:href="#j"/><linearGradient id="o" x1="450.109" y1="163.399" x2="12.439" y2="502.738" gradientUnits="userSpaceOnUse"><stop offset="0" stop-color="#fcff80"/><stop offset=".568" stop-color="#40c0c6"/><stop offset="1" stop-color="#6982c6"/></linearGradient><linearGradient id="p" x1="56.092" y1="351.746" x2="283.861" y2="351.746" gradientUnits="userSpaceOnUse"><stop offset="0" stop-color="#3e95a4"/><stop offset="1" stop-color="#40c0c6"/></linearGradient><linearGradient id="q" x1="177.926" y1="265.036" x2="183.717" y2="265.036" xlink:href="#l"/><linearGradient id="r" x1="185.096" y1="276.526" x2="185.96" y2="276.526" xlink:href="#l"/><linearGradient id="s" x1="188.507" y1="283.613" x2="190.751" y2="283.613" xlink:href="#l"/><linearGradient id="t" x1="191.63" y1="287.501" x2="192.752" y2="287.501" xlink:href="#l"/><linearGradient id="u" x1="196.162" y1="294.088" x2="198.436" y2="294.088" xlink:href="#l"/><linearGradient id="v" x1="241.837" y1="321.556" x2="242.019" y2="321.556" xlink:href="#l"/><linearGradient id="w" x1="256.047" y1="323.209" x2="257.173" y2="323.209" xlink:href="#i"/><linearGradient id="x" x1="123.641" y1="544.987" x2="143.923" y2="544.987" gradientUnits="userSpaceOnUse"><stop offset="0" stop-color="#ffd600"/><stop offset=".3" stop-color="#ffd100"/><stop offset=".625" stop-color="#ffc400"/><stop offset=".962" stop-color="#ffae00"/><stop offset="1" stop-color="#ffac00"/></linearGradient><linearGradient id="y" x1="75.236" y1="484.473" x2="95.518" y2="484.473" gradientUnits="userSpaceOnUse"><stop offset="0" stop-color="#f0c400"/><stop offset="1" stop-color="#ff9500"/></linearGradient><linearGradient id="z" x1="417.121" y1="484.476" x2="437.401" y2="484.476" gradientUnits="userSpaceOnUse"><stop offset="0" stop-color="#f0c400"/><stop offset=".224" stop-color="#f8b600"/><stop offset=".514" stop-color="#fdae00"/><stop offset="1" stop-color="#ffac00"/></linearGradient><linearGradient id="aa" x1="65.3" y1="386.16" x2="501.282" y2="386.16" xlink:href="#x"/><linearGradient id="ab" x1="305.207" y1="406.755" x2="304.03" y2="561.031" gradientUnits="userSpaceOnUse"><stop offset="0" stop-color="#ff9500"/><stop offset="1" stop-color="#f0c400"/></linearGradient><linearGradient id="ac" x1="50.049" y1="397.332" x2="177.062" y2="500.4" gradientUnits="userSpaceOnUse"><stop offset="0" stop-color="#ff9500"/><stop offset=".359" stop-color="#fe9700"/><stop offset=".606" stop-color="#fba000"/><stop offset=".819" stop-color="#f6b000"/><stop offset="1" stop-color="#f0c400"/></linearGradient><linearGradient id="ad" x1="113.666" y1="205.282" x2="64.432" y2="163.082" gradientUnits="userSpaceOnUse"><stop offset="0" stop-color="#a84e93"/><stop offset=".185" stop-color="#ad5191"/><stop offset=".428" stop-color="#be5c8d"/><stop offset=".705" stop-color="#d96d86"/><stop offset="1" stop-color="#ff867d"/></linearGradient><linearGradient id="ae" x1="121.747" y1="128.521" x2="353.039" y2="294.327" gradientUnits="userSpaceOnUse"><stop offset="0" stop-color="#fcffd3"/><stop offset=".422" stop-color="#fafed2"/><stop offset=".576" stop-color="#f3fad2"/><stop offset=".686" stop-color="#e7f5d0"/><stop offset=".775" stop-color="#d6edcf"/><stop offset=".851" stop-color="#c0e2cd"/><stop offset=".919" stop-color="#a5d5ca"/><stop offset=".978" stop-color="#85c6c7"/><stop offset="1" stop-color="#78c0c6"/></linearGradient><linearGradient id="af" x1="15689.075" y1="-1778.063" x2="15756.347" y2="-1778.063" gradientTransform="translate(10237.447 12461.844) rotate(-123.103)" gradientUnits="userSpaceOnUse"><stop offset="0" stop-color="#ff4e93"/><stop offset=".184" stop-color="#ff5391"/><stop offset=".425" stop-color="#ff648d"/><stop offset=".7" stop-color="#ff7f86"/><stop offset=".996" stop-color="#ffa57d"/><stop offset="1" stop-color="#ffa67d"/></linearGradient><linearGradient id="ag" x1="319.02" y1="202.1" x2="159.187" y2="65.101" gradientTransform="matrix(1,0,0,1,0,0)" xlink:href="#af"/><linearGradient id="ah" x1="238.421" y1="229.786" x2="276.094" y2="229.786" gradientUnits="userSpaceOnUse"><stop offset="0" stop-color="#4092c6"/><stop offset="1" stop-color="#40c0a8"/></linearGradient><linearGradient id="ai" x1="195.316" y1="253.191" x2="230.207" y2="253.191" gradientUnits="userSpaceOnUse"><stop offset="0" stop-color="#a0175f"/><stop offset="1" stop-color="#ab2fba"/></linearGradient><linearGradient id="aj" x1="279.362" y1="253.806" x2="312.551" y2="253.806" xlink:href="#ai"/><linearGradient id="ak" x1="212.153" y1="263.406" x2="295.765" y2="263.406" gradientTransform="matrix(1,0,0,1,0,0)" xlink:href="#af"/><linearGradient id="al" x1="263.991" y1="318.74" x2="366.507" y2="318.74" gradientUnits="userSpaceOnUse"><stop offset="0" stop-color="#fcffd3"/><stop offset=".137" stop-color="#f4fccf"/><stop offset=".345" stop-color="#dff4c7"/><stop offset=".6" stop-color="#bce6b9"/><stop offset=".888" stop-color="#8cd4a6"/><stop offset="1" stop-color="#78cd9e"/></linearGradient><linearGradient id="am" x1="123.989" y1="318.74" x2="226.506" y2="318.74" gradientUnits="userSpaceOnUse"><stop offset="0" stop-color="#4db8c6"/><stop offset=".426" stop-color="#95d5cb"/><stop offset="1" stop-color="#fcffd3"/></linearGradient></defs><g id="c"><g clip-path="url(#d)"><rect x="54.7" y="189.123" width="20.188" height="212.99" rx="7.579" ry="7.579" fill="url(#e)" stroke-width="0"/><rect x="29.608" y="400.69" width="20.188" height="154.943" rx="10.094" ry="10.094" fill="url(#f)" stroke-width="0"/><rect x="13.408" y="84.846" width="241.034" height="135.043" rx="17.997" ry="17.997" fill="url(#g)" stroke-width="0"/><path d="M337.221,521.932H96.186l-79.945-112.563c-6.695-9.426.045-22.48,11.607-22.48h213.462l95.91,135.043Z" fill="url(#h)" stroke-width="0"/><path d="M123.198,191.93c-4.895,12.132-10.138,24.892-15.261,38.468,5.11-14.366,10.312-27.366,15.261-38.468Z" fill="#63d6d6" stroke-width="0"/><path d="M218.66,329.956c1.047,6.637,1.306,13.042.571,19.175-.109.911-.258,1.795-.435,2.679.177-.884.313-1.768.422-2.679.734-6.133.49-12.539-.558-19.175Z" fill="#40c0c6" stroke-width="0"/><path d="M280.831,334.67c.412,0,.823.016,1.252.016h-.494c-.247,0-.51,0-.757-.016Z" fill="url(#i)" stroke-width="0"/><line x1="196.649" y1="273.25" x2="195.027" y2="274.609" fill="none" stroke-width="0"/><polygon points="236.941 83.62 236.828 83.464 236.842 83.464 236.941 83.62" fill="#e4efe1" stroke-width="0"/><polygon points="236.941 83.62 236.828 83.464 236.842 83.464 236.941 83.62" fill="#e4efe1" stroke-width="0"/><path d="M327.577,226.365c.015.485.03.985-.046.015-.015-.97.016-.5.046-.015Z" fill="url(#j)" stroke-width="0"/><path d="M275.96,320.927c-.076.03-.137.045-.212.061v-.015c.075-.015.152-.03.212-.045Z" fill="url(#k)" stroke-width="0"/><polygon points="357.04 83.62 356.927 83.464 356.941 83.464 357.04 83.62" fill="#e4efe1" stroke-width="0"/><polygon points="357.04 83.62 356.927 83.464 356.941 83.464 357.04 83.62" fill="#e4efe1" stroke-width="0"/><path d="M134.283,209.932c2.349,1.713,4.775,3.365,7.246,4.957-2.486-1.592-4.896-3.244-7.246-4.957Z" fill="url(#l)" stroke-width="0"/><path d="M174.105,230.837c.076,3.987.364,7.943.865,11.824-.515-3.881-.804-7.837-.879-11.824h.015Z" fill="url(#m)" stroke-width="0"/><path d="M130.251,497.061c.061-.318.136-.622.272-.925-.121.288-.212.606-.272.925ZM275.748,320.973v.015c.075-.015.136-.03.212-.061-.061.015-.137.03-.212.045Z" fill="url(#n)" stroke-width="0"/><path d="M368.752,331.569c-.47-1.425-9.201-40.338-8.277-41.49-1.728-20.253-17.305-52.303-17.412-72.025-8.201,6.352-15.738,13.062-23.62,15.048-4.429,36.644-17.478,65.94-47.532,83.204-31.182,8.322-61.101-1.926-79.156-28v-.03c-12.006-16.599-15.606-37.099-15.97-57.564-24.876-8.913-50.609-23.674-67.466-44.169l-1.03,43.461c-.713,30.834-6.701,61.318-17.676,90.136-5.245,13.749-7.898,28.287-7.898,42.885,0,7.777.758,15.568,2.274,23.269,2.819,14.31,6.169,31.334,11.976,46.584,5.806,15.25,14.083,28.726,26.771,35.927,10.839,6.17,24.952,11.733,39.338,16.69,14.37,4.942,29.014,9.293,40.914,13.037l79.873,10.99c16.478-5.397,45.523-15.114,62.349-24.891,30.228-17.585,44.28-86.452,22.542-153.061ZM329.99,276.072c.515-1.031,1.016-2.047,1.5-3.093-.454,1.046-.985,2.077-1.5,3.093ZM332.931,269.78c.045-.182.152-.364.227-.546-.061.182-.152.364-.227.546ZM337.858,255.288c.197-.728.379-1.471.561-2.198-.167.743-.364,1.501-.561,2.198ZM338.919,250.877c-.152.697-.303,1.41-.486,2.122.182-.773.349-1.531.515-2.304-.015.061-.03.121-.03.182ZM341.193,227.153c-.016-.273-.016-.561-.016-.849.016.015.016.046.016.076v.773Z" fill="url(#o)" stroke-width="0"/><path d="M283.861,509.522c-28.59,8.944-61.727,9.853-91.121,2.501-57.999-4.639-102.749-14.735-121.091-35.684-37.412-62.713-.363-239.15,37.671-289.797l-1.03,43.461c-.713,30.834-6.701,61.318-17.676,90.136-5.245,13.749-7.898,28.287-7.898,42.885,0,7.777.758,15.568,2.274,23.269,2.819,14.31,6.169,31.334,11.976,46.584,5.806,15.25,14.083,28.726,26.771,35.927,10.839,6.17,24.952,11.733,39.338,16.69,14.37,4.942,29.014,9.293,40.914,13.037l79.873,10.99Z" fill="url(#p)" stroke-width="0"/><path d="M180.957,266.385c.834,2.213,1.759,4.381,2.759,6.488-1.001-2.107-1.925-4.275-2.774-6.488-1.137-2.986-2.152-6.049-3.017-9.187.865,3.138,1.895,6.2,3.032,9.187Z" fill="url(#q)" stroke-width="0"/><path d="M185.46,276.42c.152.318.333.637.5.94-.182-.318-.349-.622-.515-.94-.107-.243-.228-.485-.349-.728.121.242.243.485.364.728Z" fill="url(#r)" stroke-width="0"/><path d="M189.583,283.606c.379.576.773,1.182,1.168,1.773-.41-.591-.804-1.197-1.183-1.773-.349-.576-.712-1.167-1.061-1.759.364.591.713,1.182,1.076,1.759Z" fill="url(#s)" stroke-width="0"/><path d="M191.63,286.698c.364.531.728,1.061,1.122,1.576v.03c-.016,0-.016-.015-.016-.015v-.015c-.394-.515-.758-1.046-1.107-1.576Z" fill="url(#t)" stroke-width="0"/><path d="M197.815,294.717c.197.243.409.485.622.713-.212-.228-.425-.47-.637-.713-.561-.637-1.107-1.304-1.637-1.971.531.667,1.091,1.334,1.652,1.971Z" fill="url(#u)" stroke-width="0"/><path d="M242.019,321.549v.03l-.182-.046c.061.015.121.015.182.015Z" fill="url(#v)" stroke-width="0"/><path d="M256.047,323.201c.37,0,.741.015,1.126.015h-.445c-.222,0-.459,0-.681-.015Z" fill="url(#w)" stroke-width="0"/><line x1="178.454" y1="267.94" x2="177.022" y2="269.139" fill="none" stroke-width="0"/><line x1="338.613" y1="279.086" x2="337.255" y2="274.816" fill="none" stroke-width="0"/><path d="M210.746,413.444c.122.639.313,1.265.53,1.863-.231-.612-.408-1.224-.53-1.863Z" fill="#40c0c6" stroke-width="0"/><path d="M212.065,417.062c.517.925,1.129,1.781,1.836,2.557-.721-.775-1.333-1.632-1.836-2.557Z" fill="#40c0c6" stroke-width="0"/><path d="M217.926,422.651c.571.272,1.169.503,1.781.707-.612-.19-1.21-.422-1.781-.707Z" fill="#40c0c6" stroke-width="0"/><path d="M336.746,423.943c1.129,0,2.217-.15,3.264-.408-1.047.272-2.149.422-3.278.422h-113.121c-1.129,0-2.23-.15-3.278-.422,1.047.258,2.149.408,3.278.408h113.135Z" fill="#40c0c6" stroke-width="0"/><path d="M340.635,423.358c.612-.204,1.21-.435,1.795-.707-.585.286-1.183.517-1.795.707Z" fill="#40c0c6" stroke-width="0"/><rect x="123.641" y="413.294" width="20.282" height="263.386" rx="8.447" ry="8.447" fill="url(#x)" stroke-width="0"/><rect x="75.236" y="352.78" width="20.282" height="263.386" rx="8.447" ry="8.447" fill="url(#y)" stroke-width="0"/><rect x="417.121" y="352.779" width="20.279" height="263.393" rx="8.447" ry="8.447" fill="url(#z)" stroke-width="0"/><path d="M500.756,427.165c-1.763,6.867-7.87,12.489-16.059,12.489H135.537c-4.528,0-8.812-1.838-11.896-5.044-.547-.547-1.049-1.139-1.504-1.777l-26.618-36.661-2.188-3.008-18.095-24.932-6.746-9.283c-7.946-10.939-.136-26.284,13.4-26.284h334.215c5.302,0,10.286,2.537,13.4,6.821l68.591,73.884c3.13,4.315,3.813,9.313,2.659,13.795Z" fill="url(#aa)" stroke-width="0"/><rect x="143.923" y="439.654" width="321.605" height="60.498" fill="url(#ab)" stroke-width="0"/><path d="M123.641,434.61v60.499c-.547-.547-1.049-1.139-1.504-1.777l-26.618-36.661v-60.499l26.618,36.661c.455.638.957,1.23,1.504,1.777Z" fill="url(#ac)" stroke-width="0"/><polygon points="413.467 425.984 227.798 425.984 168.393 346.791 354.062 346.791 413.467 425.984" fill="#fff" stroke-width="0"/><path d="M98.559,222.906s-154.224-12.595,25.75-72.382l-5.59,41.496-20.16,30.887Z" fill="url(#ad)" stroke-width="0"/><path d="M313.822,309.837c36.911-7.41,67.207-62.615,54.343-97.339,5.053-1.494,9.459-4.529,12.386-8.95,9.505-13.418-1.51-35.756-18.872-43.659v-.015c-1.556-.801-3.143-1.448-4.729-2.018l.092.154-.108-.154h.015c-25.81-41.55-77.024-65.637-125.138-62.946,11.492.308,23.077,2.203,34.323,5.515-56.296-15.855-125.279,9.077-156.226,58.664-22.091,3.915-38.25,39.485-16.638,51.084.204,48.047,40.241,86.482,83.374,101.475l12.413,3.038c39.085,9.565,80.015,8.531,118.567-2.995l6.196-1.852h0Z" fill="url(#ae)" stroke-width="0"/><path d="M190.202,268.861c1.705,2.615,2.407,5.879,1.701,9.171-1.401,6.557-7.855,10.737-14.411,9.332-1.13-.24-27.849-6.203-45.489-31.394-.079-.115-.156-.228-.228-.339-3.562-5.463-2.169-12.804,3.208-16.572,5.493-3.847,13.066-2.51,16.911,2.98,12.03,17.182,30.495,21.541,30.677,21.581,3.265.699,5.941,2.648,7.631,5.241Z" fill="url(#af)" stroke-width="0"/><path d="M171.351,265.578l-3.309,11.68c-.558-.156-13.795-3.975-23.345-15.014l9.18-7.945c7.104,8.21,17.373,11.249,17.474,11.279Z" fill="#fff" stroke-width="0"/><path d="M345.65,114.677c-1.001-13.498-14.147-33.146-24.344-42.046-13.527-11.82-37.18-23.823-76.942-22.342-41.623,1.566-73.33,15.078-93.514,26.996-15.868,9.379-16.742,29.281-25.53,44.938l-13.265,33.912s193.622-56.776,244.893,1.716l-11.298-43.174ZM214.067,124.226l4.796-10.619c2.778-4.953,3.66-9.097,8.686-12.057,6.391-3.781,16.43-8.058,29.61-8.553,12.588-.471,20.078,3.334,24.367,7.067,3.225,2.827,9.145,9.242,10.909,13.035l5.943,10.064c-26.322-9.728-84.311,1.063-84.311,1.063Z" fill="url(#ag)" stroke-width="0"/><rect x="182.527" y="202.617" width="33.108" height="11.144" rx="5.572" ry="5.572" transform="translate(2.626 -2.48) rotate(.719)" fill="#37294f" stroke-width="0"/><rect x="299.965" y="204.09" width="33.108" height="11.144" rx="5.572" ry="5.572" transform="translate(2.654 -3.953) rotate(.719)" fill="#37294f" stroke-width="0"/><path d="M257.56,254.781c-1.474,0-2.666-1.192-2.666-2.666v-16.519c0-1.474,1.192-2.666,2.666-2.666s2.666,1.192,2.666,2.666v16.519c0,1.474-1.192,2.666-2.666,2.666Z" fill="#37294f" stroke-width="0"/><path d="M261.813,240.744h-8.618c-5.079,0-14.774-7.602-14.774-12.681h0c0-5.079,4.155-9.234,9.234-9.234h19.206c5.079,0,9.234,4.155,9.234,9.234h0c0,5.079-9.203,12.681-14.282,12.681Z" fill="url(#ah)" stroke-width="0"/><path d="M215.439,240.633c4.26,3.075,9.309,5.67,14.767,7.673-10.437,4.401-17.447,11.608-18.054,19.845-4.133-2.031-8.026-4.358-11.58-6.939-5.684-4.105-6.954-12.031-2.849-17.716,4.09-5.684,12.031-6.968,17.716-2.863Z" fill="url(#ai)" stroke-width="0"/><path d="M308.559,260.154c-3.794,3.583-8.082,6.657-12.793,9.225v-.028c0-8.266-6.431-15.614-16.404-20.269,4.429-1.791,8.435-4.245,11.778-7.391,5.106-4.81,13.145-4.57,17.955.522,4.81,5.106,4.57,13.146-.536,17.941Z" fill="url(#aj)" stroke-width="0"/><path d="M295.765,269.351v.028c-10.945,5.966-24.147,9.126-38.562,9.126-1.143,0-2.299-.014-3.456-.056-2.68-.099-5.36-.296-8.011-.592-6.051-.677-12.017-1.876-17.758-3.569-5.543-1.608-10.861-3.667-15.826-6.136.607-8.237,7.616-15.445,18.054-19.845.762.282,1.523.55,2.3.804,7.645,2.525,15.995,3.921,24.175,3.978,8.012.056,15.854-1.199,22.68-4.006,9.972,4.655,16.404,12.003,16.404,20.269Z" fill="url(#ak)" stroke-width="0"/><path d="M304.548,268.355c0,4.137,3.353,7.49,7.49,7.49,4.137,0,7.49-3.353,7.49-7.49s-7.49-14.892-7.49-14.892c0,0-7.49,10.756-7.49,14.892Z" fill="#4be0e0" stroke-width="0"/><rect x="176.895" y="181.289" width="44.371" height="5.783" rx="2.788" ry="2.788" fill="#37294f" stroke-width="0"/><rect x="294.333" y="181.289" width="44.371" height="5.783" rx="2.788" ry="2.788" fill="#37294f" stroke-width="0"/><ellipse cx="315.249" cy="318.74" rx="51.258" ry="34.722" fill="url(#al)" stroke-width="0"/><ellipse cx="175.248" cy="318.74" rx="51.258" ry="34.722" fill="url(#am)" stroke-width="0"/><path d="M296.26,414.384c-.06,0-.121-.003-.182-.011-5.421-.647-20.241-9.133-22.551-14.286-1.034-.966-2.206-2.345-1.981-3.915.184-1.271,1.15-2.019,2.12-2.549-.806-.197-1.58-.329-3.167-.329-.137,0-.273-.018-.405-.054l-.832-.227c-7.051-1.917-11.306-3.075-12.935-8.056-.146-.444-.081-.93.174-1.321.609-.933.538-1.51.439-2.311-.074-.596-.172-1.401.155-2.237-.097-.167-.185-.348-.254-.537-.175-.003-.348-.036-.511-.098-.669-.25-1.493-.51-2.4-.796-4.182-1.319-9.853-3.11-11.527-7.066-1.14-.966-1.736-2.016-1.775-3.125-.065-1.862,1.416-3.162,2.498-4.112.251-.22.493-.43.692-.632.215-.22.492-.37.794-.432.838-.168,1.568-.483,2.342-.814,1.272-.546,2.714-1.164,4.74-1.164,14.961,1.234,21.665.955,30.938.563,5.842-.245,12.464-.522,22.673-.522.285,0,.565.08.807.229.959.59,2.389,1.146,3.902,1.735,3.83,1.489,8.171,3.179,9.268,6.908.126.427.06.886-.178,1.262-.562.883-.419,1.539-.22,2.449.214.984.539,2.472-.744,3.74-.179.178-.399.308-.64.381-.967.29-1.73.605-2.467.91-.915.378-1.799.742-2.865.961,1.924,1.315,2.443,2.418,2.998,4.39l.015.051c1.062.618,1.456,1.444,1.591,2.078.414,1.93-1.141,3.857-2.456,5.232-.464,2.53-8.465,3.174-8.548,3.174-.178,0-.353-.03-.52-.09l-1.319-.477c-1.142-.417-1.793-.653-2.294-.742,1.941,1.891,4.066,4.47,4.55,6.055.129.426.069.886-.166,1.264-.202.325-.515.561-.879.665.003.251.047.624.078.897.111.945.255,2.172-.31,3.227.008.546-.154,1.068-.48,1.522-.846,1.178-2.691,1.778-6.043,1.926.005.02.011.039.017.059.424,1.485,1.064,3.729-1.075,5.792-.289.278-.673.432-1.07.432ZM274.638,396.645c.089.188.367.636,1.216,1.395.205.182.358.417.442.68,1.073,3.349,13.962,11.157,19.332,12.443.241-.512.12-1.088-.187-2.157-.216-.76-.462-1.62-.39-2.529.063-.802.732-1.42,1.536-1.42,3.534,0,4.784-.397,5.193-.6-.04-.456.102-.94.417-1.262.107-.188.014-.982-.036-1.408-.093-.79-.272-2.314.542-3.323-1.178-1.787-3.793-4.364-4.862-5.196-.429-.102-.808-.388-1.018-.806-.261-.521-.224-1.222.123-1.689.288-.388.76-.62,1.24-.629l.42-.146c2.612-.922,2.999-.833,6.38.396l1.04.376c1.568-.066,3.929-.701,5.115-1.145.071-.141.165-.274.281-.39,2.105-2.111,2.368-2.875,2.339-3.144.002.011-.123-.078-.417-.19-.448-.172-.79-.54-.927-.999l-.215-.746c-.566-2.01-.683-2.428-6.345-5.129-.662-.316-1.009-1.053-.83-1.765.121-.484.49-1.959,1.849-2.418,1.266-.421,2.508.298,3.687,1.196,1.256-.077,2.133-.439,3.295-.919.621-.257,1.309-.542,2.136-.817-.008-.203-.072-.496-.119-.71-.213-.976-.521-2.389.235-4.035-1.03-1.965-4.299-3.236-7.211-4.369-1.474-.573-2.874-1.118-4.01-1.754-9.907.008-16.394.28-22.126.519-9.388.393-16.171.675-31.194-.564-1.267.005-2.254.429-3.399.919-.73.313-1.543.662-2.494.9-.163.15-.338.305-.518.463-.512.448-1.465,1.285-1.451,1.686.005.14.205.524.92,1.068.247.188.433.447.53.742.923,2.782,6.205,4.449,9.701,5.551.857.271,1.645.521,2.309.76.648.038,1.103.199,1.458.415.429-.033.859.008,1.219.044.207.02.409.035.578.045.019-.006.038-.011.057-.017.765-.214,1.579.188,1.862.939.283.749-.056,1.59-.779,1.935-.17.08-.346.134-.525.168-.193.053-.377.098-.551.138-.028.349-.174.688-.434.955-.121.123-.139.141-.053.847.107.865.261,2.117-.511,3.666,1.186,2.738,3.854,3.594,10.584,5.425l.638.175c2.141.015,3.145.274,4.206.546.441.114.89.23,1.463.338.22-.167.493-.277.836-.304.383-.027,1.064.051,1.534.842.285.215.494.528.576.892.144.641-.134,1.303-.692,1.649-.126.077-.272.137-.427.179-.063.108-.139.209-.228.301-.563.578-1.332.942-2.075,1.294-.392.185-1.014.48-1.264.692Z" fill="#ff8f00" stroke-width="0"/><path d="M330.512,402.039c-.099.063-.197.119-.297.182l-.026.023,4.143,6.474-4.151-6.469-4.398,7.818c.69.474,1.284,1.09,1.756,1.835l1.024,1.614c.462.729.772,1.537.925,2.345l8.997-.652c.091-.058.184-.122.275-.18.01-.012.026-.023.043-.033,2.871-2.071,3.68-6.067,1.763-9.089l-1.031-1.616c-1.917-3.021-5.917-4.001-9.022-2.252Z" fill="#fffff3" stroke-width="0"/><path d="M372.347,375.329l-42.131,26.892c.099-.063.197-.119.297-.182,3.105-1.749,7.105-.769,9.022,2.252l1.031,1.616c1.917,3.022,1.109,7.018-1.763,9.089-.017.011-.033.021-.043.033l41.832-26.696c3.137-1.991,4.089-6.182,2.097-9.313l-1.023-1.621c-1.98-3.121-6.181-4.06-9.319-2.07Z" fill="#ff8f00" stroke-width="0"/><path d="M325.786,410.065l-3.537,6.326,7.236-.532c-.151-.811-.458-1.615-.919-2.342l-1.026-1.617c-.472-.744-1.069-1.363-1.754-1.835Z" fill="#ff8f00" stroke-width="0"/><path d="M387.417,154.45h-21.294c-1.558,0-2.962-.939-3.558-2.377-.597-1.44-.267-3.096.835-4.197l14.719-14.719h-11.996c-2.127,0-3.851-1.724-3.851-3.851s1.724-3.851,3.851-3.851h21.294c1.558,0,2.962.939,3.558,2.377.597,1.44.267,3.096-.835,4.197l-14.719,14.719h11.996c2.127,0,3.851,1.724,3.851,3.851s-1.724,3.851-3.851,3.851Z" fill="#37294f" stroke-width="0"/><path d="M424.229,117.639h-21.294c-1.558,0-2.962-.939-3.558-2.377-.597-1.44-.267-3.096.835-4.197l14.719-14.719h-11.996c-2.127,0-3.851-1.724-3.851-3.851s1.724-3.851,3.851-3.851h21.294c1.558,0,2.962.939,3.558,2.377.597,1.44.267,3.096-.835,4.197l-14.719,14.719h11.996c2.127,0,3.851,1.724,3.851,3.851s-1.724,3.851-3.851,3.851Z" fill="#37294f" stroke-width="0"/></g></g></svg>