<?xml version="1.0" encoding="UTF-8"?><svg id="b" xmlns="http://www.w3.org/2000/svg" xmlns:xlink="http://www.w3.org/1999/xlink" viewBox="0 0 443.259 443.259"><defs><clipPath id="d"><rect width="443.259" height="443.259" fill="none" stroke-width="0"/></clipPath><linearGradient id="e" x1="50.761" y1="121.342" x2="221.431" y2="454.555" gradientUnits="userSpaceOnUse"><stop offset=".001" stop-color="#c1e9ff"/><stop offset=".023" stop-color="rgba(192,233,254,.975)" stop-opacity=".975"/><stop offset=".391" stop-color="rgba(186,242,253,.563)" stop-opacity=".563"/><stop offset=".687" stop-color="rgba(182,249,252,.26)" stop-opacity=".26"/><stop offset=".896" stop-color="rgba(180,253,251,.072)" stop-opacity=".072"/><stop offset="1" stop-color="#b3fffb" stop-opacity="0"/></linearGradient><linearGradient id="f" x1="637.781" y1="310.763" x2="638.281" y2="310.763" gradientUnits="userSpaceOnUse"><stop offset=".001" stop-color="#c1e9ff"/><stop offset=".641" stop-color="#eaf8ff"/><stop offset="1" stop-color="#fdffff"/></linearGradient><linearGradient id="g" x1="185.633" y1="57.065" x2="294.587" y2="549.79" gradientUnits="userSpaceOnUse"><stop offset="0" stop-color="#ff4e93"/><stop offset=".029" stop-color="#ea51a4"/><stop offset=".083" stop-color="#ca57c0"/><stop offset=".141" stop-color="#af5bd7"/><stop offset=".205" stop-color="#9b5fe9"/><stop offset=".277" stop-color="#8c62f5"/><stop offset=".363" stop-color="#8463fc"/><stop offset=".506" stop-color="#8264ff"/><stop offset="1" stop-color="#5047bf"/></linearGradient><linearGradient id="h" x1="285.3" y1="436.46" x2="286.716" y2="436.46" gradientUnits="userSpaceOnUse"><stop offset="0" stop-color="#f05724"/><stop offset="1" stop-color="#f69021"/></linearGradient><linearGradient id="i" x1="82.376" y1="451.352" x2="229.43" y2="451.352" gradientUnits="userSpaceOnUse"><stop offset="0" stop-color="#ff4e93"/><stop offset=".184" stop-color="#ff5391"/><stop offset=".425" stop-color="#ff648d"/><stop offset=".7" stop-color="#ff7f86"/><stop offset=".996" stop-color="#ffa57d"/><stop offset="1" stop-color="#ffa67d"/></linearGradient><linearGradient id="j" x1="3790.968" y1="628.683" x2="3830.672" y2="628.683" gradientTransform="translate(4006.139 437.746) rotate(-166.577) scale(1 -1)" gradientUnits="userSpaceOnUse"><stop offset="0" stop-color="#fef"/><stop offset=".656" stop-color="#ffeaff"/><stop offset="1" stop-color="#ffe5ff"/></linearGradient><linearGradient id="k" x1="3667.361" y1="620.462" x2="3735.715" y2="620.462" xlink:href="#j"/><linearGradient id="l" x1="3663.485" y1="656.978" x2="3693.228" y2="656.978" gradientTransform="translate(932.734 3901.225) rotate(-90) scale(1 -1)" gradientUnits="userSpaceOnUse"><stop offset="0" stop-color="#d072bf"/><stop offset="1" stop-color="#8264ff"/></linearGradient><linearGradient id="m" x1="3721.489" y1="656.564" x2="3841.689" y2="656.564" gradientTransform="translate(4006.139 437.746) rotate(-166.577) scale(1 -1)" gradientUnits="userSpaceOnUse"><stop offset="0" stop-color="#f03c00"/><stop offset="1" stop-color="#ffac00"/></linearGradient><linearGradient id="n" x1="3723.324" y1="656.573" x2="3839.854" y2="656.573" xlink:href="#m"/><linearGradient id="o" x1="3199.359" y1="396.255" x2="3360.423" y2="396.255" gradientTransform="translate(3507.318 100.449) rotate(-176.806) scale(1 -1)" gradientUnits="userSpaceOnUse"><stop offset="0" stop-color="#374dd2"/><stop offset="1" stop-color="#8264ff"/></linearGradient><linearGradient id="p" x1="14739.875" y1="-1904.011" x2="14763.774" y2="-1904.011" gradientTransform="translate(14808.749 -2284.882) rotate(162.453) scale(1 -1)" xlink:href="#i"/><linearGradient id="q" x1="14745.561" y1="-1891.405" x2="14769.124" y2="-1891.405" gradientTransform="translate(14808.749 -2284.882) rotate(162.453) scale(1 -1)" xlink:href="#i"/><linearGradient id="r" x1="14739.883" y1="-1876.775" x2="14764.92" y2="-1876.775" gradientTransform="translate(14808.749 -2284.882) rotate(162.453) scale(1 -1)" xlink:href="#i"/><linearGradient id="s" x1="132.579" y1="186.583" x2="416.367" y2="494.115" gradientUnits="userSpaceOnUse"><stop offset="0" stop-color="#00cdd2"/><stop offset=".028" stop-color="#19b8da"/><stop offset=".07" stop-color="#399ee6"/><stop offset=".116" stop-color="#5488ef"/><stop offset=".166" stop-color="#6878f6"/><stop offset=".222" stop-color="#776cfb"/><stop offset=".29" stop-color="#7f66fe"/><stop offset=".402" stop-color="#8264ff"/><stop offset=".641" stop-color="#5047bf"/></linearGradient><clipPath id="t"><path d="M422.178,503.143c-15.677,18.834-38.011,25.416-60.497,31.71-31.337,7.783-64.139,10.41-97.367,11.402-35.934,1.682-71.477,1.265-106.475-2.146-18.469-4.933-36.649-13.164-54.658-23.622-13.992-18.065-22.146-39.717-22.146-63.003,0-6.678.681-13.244,1.974-19.618-.663-22.213,22.555-87.041,39.322-164.537,2.639-51.664,6.673-98.411,15.643-127.606,3.745-17.104,11.95-32.863,23.559-46.347,3.949-4.644,8.323-9,13.056-13.052,11.149-9.593,24.307-17.488,38.879-23.222,8.324-8.424,17.397-14.958,21.159-8.568,10.537-9.401,22.673-16.063,30.215-12.78,2.74,2.867,3.864,5.957,3.847,9.144,41.824-9.993,49.637-3.011,48.327,5.141,0,.032-.017.08-.017.112-.221,1.249-.629,2.514-1.174,3.763,5.634,1.794,11.082,3.908,16.307,6.326,2.69,1.217,5.311,2.53,7.864,3.908,13.329,7.159,25.074,16.287,34.675,26.905,11.252,12.444,19.576,26.921,24.052,42.68.613,2.114,1.158,4.244,1.617,6.406,8.886,29.227,12.87,75.766,15.525,127.19,4.528,20.932,9.533,40.95,14.401,59.447-1.583,13.34,11.234,57.801,9.447,69.172,2.064,36.889-3.278,36.468-4.826,57.34-7.739,23.784-5.864,23.868-12.707,43.855Z" fill="none" stroke-width="0"/></clipPath><linearGradient id="u" x1="9609.631" y1="6467.074" x2="9631.858" y2="6467.074" gradientTransform="translate(9831.515 6408.618) rotate(-113.806) scale(1 -1)" xlink:href="#i"/><linearGradient id="v" x1="9606.419" y1="6481.159" x2="9622.869" y2="6481.159" gradientTransform="translate(9831.515 6408.618) rotate(-113.806) scale(1 -1)" xlink:href="#i"/><linearGradient id="w" x1="9617.814" y1="6454.485" x2="9632.008" y2="6454.485" gradientTransform="translate(9831.515 6408.618) rotate(-113.806) scale(1 -1)" xlink:href="#i"/><linearGradient id="x" x1="206.351" y1="6.685" x2="-32.652" y2="485.64" gradientUnits="userSpaceOnUse"><stop offset="0" stop-color="#00cdd2"/><stop offset=".033" stop-color="#19b8da"/><stop offset=".084" stop-color="#399ee6"/><stop offset=".138" stop-color="#5488ef"/><stop offset=".198" stop-color="#6878f6"/><stop offset=".266" stop-color="#776cfb"/><stop offset=".347" stop-color="#7f66fe"/><stop offset=".481" stop-color="#8264ff"/><stop offset=".686" stop-color="#5449c4"/><stop offset=".939" stop-color="#5047bf"/></linearGradient></defs><g id="c"><g clip-path="url(#d)"><path d="M402.226,73.306c0,5.136-5.802,9.314-12.934,9.314-.356,0-.712-.015-1.068-.031-6.668-.387-11.897-4.409-11.897-9.283,0-3.234,2.29-6.08,5.755-7.751,2.058-1.006,4.533-1.578,7.21-1.578,3.125,0,6.034.82,8.262,2.151,1.748,1.068,3.125,2.429,3.883,4.007.139.263.263.526.356.804.294.743.433,1.532.433,2.367Z" fill="#ff8186" stroke-width="0"/><path d="M401.034,72.176c-1.934-.015-3.481-1.702-3.481-3.636v-2.414c1.748,1.068,3.125,2.429,3.883,4.007.433,1.238,1.052,2.073-.402,2.042Z" fill="#ff8186" stroke-width="0"/><path d="M446.18,90.757c0,5.152-5.802,9.329-12.934,9.329-.371,0-.727-.015-1.098-.031-6.653-.402-11.866-4.409-11.866-9.298,0-3.233,2.29-6.08,5.771-7.751,2.058-.975,4.533-1.563,7.194-1.563,3.125,0,6.034.82,8.277,2.15v-29.194l-40.395-16.508.015.186v30.587c0,.541.139,1.037.294,1.47-.758-1.578-2.135-2.94-3.883-4.007V27.356c.046-2.166,2.398-3.512,4.409-2.723.712.356,31.345,12.362,40.566,16.121,1.563.634,2.568,2.166,2.568,3.852v41.525c0,.526.139,1.021.294,1.47.093.263.201.511.278.727.093.217.155.402.201.572.186.603.309,1.207.309,1.856Z" fill="#ff8186" stroke-width="0"/><polygon points="14.858 135.969 105.458 91.675 377.186 335.797 43.414 529.85 14.858 135.969" fill="url(#e)" stroke-width="0"/><path d="M103.738,128.364c-.693,0-1.378-.309-1.836-.899l-7.109-9.171c-.785-1.013-.601-2.471.412-3.256,1.013-.785,2.471-.601,3.256.412l7.109,9.171c.785,1.013.601,2.471-.412,3.256-.423.328-.924.486-1.42.486Z" fill="#fff" stroke-width="0"/><path d="M275.38,349.809c-.693,0-1.378-.309-1.836-.899l-14.303-18.454c-.785-1.013-.601-2.471.412-3.256,1.013-.786,2.471-.601,3.256.412l14.303,18.454c.785,1.013.601,2.471-.412,3.256-.423.328-.924.486-1.42.486ZM246.773,312.902c-.693,0-1.378-.309-1.836-.899l-14.303-18.454c-.785-1.013-.601-2.471.412-3.256,1.013-.786,2.471-.601,3.256.412l14.303,18.454c.785,1.013.601,2.471-.412,3.256-.423.328-.924.486-1.42.486ZM218.166,275.994c-.693,0-1.378-.309-1.836-.899l-14.304-18.454c-.785-1.013-.601-2.471.412-3.256,1.013-.785,2.47-.601,3.256.412l14.304,18.454c.785,1.013.601,2.471-.412,3.256-.423.328-.924.486-1.42.486ZM189.559,239.087c-.693,0-1.378-.309-1.836-.899l-14.304-18.454c-.785-1.013-.601-2.471.412-3.256,1.013-.785,2.471-.601,3.256.412l14.304,18.454c.785,1.013.601,2.471-.412,3.256-.423.328-.924.486-1.42.486ZM160.952,202.179c-.693,0-1.378-.309-1.836-.899l-14.303-18.454c-.785-1.013-.601-2.471.412-3.256,1.013-.785,2.47-.601,3.256.412l14.303,18.454c.785,1.013.601,2.471-.412,3.256-.423.328-.924.486-1.42.486ZM132.345,165.272c-.693,0-1.378-.309-1.836-.899l-14.303-18.454c-.785-1.013-.601-2.471.412-3.256,1.013-.785,2.471-.601,3.256.412l14.303,18.454c.785,1.013.601,2.471-.412,3.256-.423.328-.924.486-1.42.486Z" fill="#fff" stroke-width="0"/><path d="M296.792,377.434c-.693,0-1.378-.309-1.836-.899l-7.109-9.172c-.785-1.013-.601-2.471.412-3.256,1.013-.785,2.471-.601,3.256.412l7.109,9.172c.785,1.013.601,2.471-.412,3.256-.423.328-.924.486-1.42.486Z" fill="#fff" stroke-width="0"/><path d="M75.8,143.276c-.897,0-1.75-.523-2.13-1.398l-4.618-10.645c-.51-1.176.029-2.543,1.205-3.053,1.175-.511,2.542.029,3.052,1.205l4.618,10.645c.51,1.176-.029,2.543-1.205,3.053-.301.131-.614.193-.922.193Z" fill="#fff" stroke-width="0"/><path d="M179.663,382.701c-.897,0-1.751-.523-2.13-1.398l-8.656-19.953c-.51-1.176.03-2.543,1.206-3.053,1.175-.511,2.543.029,3.052,1.205l8.656,19.953c.51,1.176-.03,2.543-1.206,3.053-.301.131-.614.193-.922.193ZM162.353,342.796c-.897,0-1.75-.523-2.13-1.398l-8.655-19.952c-.51-1.176.029-2.543,1.205-3.053,1.175-.511,2.542.029,3.052,1.205l8.655,19.952c.51,1.176-.029,2.543-1.205,3.053-.301.131-.614.193-.922.193ZM145.042,302.892c-.897,0-1.751-.523-2.13-1.398l-8.655-19.952c-.51-1.176.03-2.543,1.206-3.053,1.175-.511,2.543.029,3.052,1.205l8.655,19.952c.51,1.176-.029,2.543-1.205,3.053-.301.131-.614.193-.922.193ZM127.732,262.988c-.897,0-1.751-.523-2.13-1.398l-8.655-19.952c-.51-1.176.029-2.543,1.205-3.053,1.175-.511,2.542.029,3.052,1.205l8.656,19.952c.51,1.176-.03,2.543-1.206,3.053-.301.131-.614.193-.922.193ZM110.421,223.083c-.897,0-1.75-.523-2.13-1.398l-8.655-19.952c-.51-1.176.029-2.543,1.205-3.053,1.175-.511,2.542.029,3.052,1.205l8.655,19.952c.51,1.176-.029,2.543-1.205,3.053-.301.131-.614.193-.922.193ZM93.11,183.179c-.897,0-1.75-.523-2.13-1.398l-8.655-19.952c-.51-1.176.029-2.543,1.205-3.053,1.176-.51,2.542.029,3.052,1.205l8.655,19.952c.51,1.176-.029,2.543-1.205,3.053-.301.131-.614.193-.922.193Z" fill="#fff" stroke-width="0"/><path d="M192.936,413.299c-.897,0-1.751-.523-2.13-1.398l-4.618-10.646c-.51-1.176.029-2.543,1.205-3.053,1.175-.511,2.542.029,3.053,1.205l4.618,10.646c.51,1.176-.029,2.543-1.205,3.053-.301.131-.614.193-.922.193Z" fill="#fff" stroke-width="0"/><path d="M46.376,156.87c-1.098,0-2.074-.783-2.28-1.902l-2.098-11.412c-.232-1.26.602-2.47,1.863-2.701,1.26-.237,2.47.602,2.702,1.863l2.098,11.412c.232,1.26-.602,2.47-1.863,2.701-.142.026-.283.039-.422.039Z" fill="#fff" stroke-width="0"/><path d="M91.214,400.765c-1.098,0-2.074-.783-2.28-1.902l-4.484-24.389c-.232-1.26.602-2.47,1.863-2.701,1.261-.237,2.47.603,2.702,1.863l4.484,24.389c.232,1.26-.602,2.47-1.863,2.701-.142.026-.283.039-.422.039ZM82.246,351.985c-1.098,0-2.074-.783-2.28-1.902l-4.484-24.389c-.232-1.26.602-2.47,1.863-2.701,1.256-.239,2.47.602,2.702,1.863l4.484,24.389c.232,1.26-.602,2.47-1.863,2.701-.142.026-.283.039-.422.039ZM73.279,303.207c-1.098,0-2.074-.783-2.28-1.902l-4.484-24.39c-.232-1.26.602-2.47,1.863-2.701,1.257-.239,2.47.602,2.702,1.863l4.484,24.39c.232,1.26-.602,2.47-1.863,2.701-.142.026-.283.039-.422.039ZM64.312,254.428c-1.098,0-2.074-.783-2.28-1.902l-4.484-24.389c-.232-1.26.602-2.47,1.863-2.701,1.261-.236,2.471.603,2.702,1.863l4.484,24.389c.232,1.26-.602,2.47-1.863,2.701-.142.026-.283.039-.422.039ZM55.344,205.649c-1.098,0-2.074-.783-2.28-1.902l-4.484-24.389c-.232-1.26.602-2.47,1.863-2.701,1.261-.234,2.47.602,2.702,1.863l4.484,24.389c.232,1.26-.602,2.47-1.863,2.701-.142.026-.283.039-.422.039Z" fill="#fff" stroke-width="0"/><path d="M97.796,436.566c-1.098,0-2.074-.783-2.28-1.902l-2.098-11.412c-.232-1.26.602-2.47,1.863-2.701,1.26-.234,2.47.601,2.702,1.863l2.098,11.412c.232,1.26-.602,2.47-1.863,2.701-.142.026-.283.039-.422.039Z" fill="#fff" stroke-width="0"/><path d="M-129.447,424.777c-5.031-.129-8.909-4.538-8.909-9.571V44.917h.235C-135.039.56-97.969-34.588-52.844-34.588-14.2-34.588,19.693-8.609,29.71,28.638c1.248,4.64-1.113,9.693-5.637,11.313-5.121,1.834-10.596-1.125-11.956-6.27C4.344,4.26-22.368-16.289-52.844-16.289c-37.045,0-67.184,30.139-67.184,67.184h-.028v364.735c0,5.132-4.227,9.279-9.39,9.146Z" fill="#40c0c6" stroke-width="0"/><path d="M53.346,31.83c-9.568,1.072-19.109,3.817-28.102,8.287-8.993,4.47-16.887,10.405-23.501,17.41-1.908-.47-3.634-1.777-4.575-3.66l-3.817-7.712c-1.725-3.451-.314-7.686,3.163-9.411,13.228-10.535,27.684-17.75,43.395-21.593,3.451-1.725,7.686-.314,9.411,3.163l3.843,7.685c.941,1.882.941,4,.183,5.829Z" fill="#40c0c6" stroke-width="0"/><path d="M120.973,83.552c7.621-3.791,9.833-13.611,4.62-20.339-23.396-30.194-65.574-40.728-101.083-23.063C-10.999,57.815-28.04,97.809-18.072,134.683c2.221,8.217,11.388,12.376,19.009,8.584l120.036-59.716Z" fill="#4be0e0" stroke-width="0"/><polygon points="14.858 135.969 105.458 91.675 377.186 335.797 43.414 529.85 14.858 135.969" fill="url(#f)" stroke-width="0"/><path d="M103.738,128.364c-.693,0-1.378-.309-1.836-.899l-7.109-9.171c-.785-1.013-.601-2.471.412-3.256,1.013-.785,2.471-.601,3.256.412l7.109,9.171c.785,1.013.601,2.471-.412,3.256-.423.328-.924.486-1.42.486Z" fill="#fff" stroke-width="0"/><path d="M275.38,349.809c-.693,0-1.378-.309-1.836-.899l-14.303-18.454c-.785-1.013-.601-2.471.412-3.256,1.013-.786,2.471-.601,3.256.412l14.303,18.454c.785,1.013.601,2.471-.412,3.256-.423.328-.924.486-1.42.486ZM246.773,312.902c-.693,0-1.378-.309-1.836-.899l-14.303-18.454c-.785-1.013-.601-2.471.412-3.256,1.013-.786,2.471-.601,3.256.412l14.303,18.454c.785,1.013.601,2.471-.412,3.256-.423.328-.924.486-1.42.486ZM218.166,275.994c-.693,0-1.378-.309-1.836-.899l-14.304-18.454c-.785-1.013-.601-2.471.412-3.256,1.013-.785,2.47-.601,3.256.412l14.304,18.454c.785,1.013.601,2.471-.412,3.256-.423.328-.924.486-1.42.486ZM189.559,239.087c-.693,0-1.378-.309-1.836-.899l-14.304-18.454c-.785-1.013-.601-2.471.412-3.256,1.013-.785,2.471-.601,3.256.412l14.304,18.454c.785,1.013.601,2.471-.412,3.256-.423.328-.924.486-1.42.486ZM160.952,202.179c-.693,0-1.378-.309-1.836-.899l-14.303-18.454c-.785-1.013-.601-2.471.412-3.256,1.013-.785,2.47-.601,3.256.412l14.303,18.454c.785,1.013.601,2.471-.412,3.256-.423.328-.924.486-1.42.486ZM132.345,165.272c-.693,0-1.378-.309-1.836-.899l-14.303-18.454c-.785-1.013-.601-2.471.412-3.256,1.013-.785,2.471-.601,3.256.412l14.303,18.454c.785,1.013.601,2.471-.412,3.256-.423.328-.924.486-1.42.486Z" fill="#fff" stroke-width="0"/><path d="M296.792,377.434c-.693,0-1.378-.309-1.836-.899l-7.109-9.172c-.785-1.013-.601-2.471.412-3.256,1.013-.785,2.471-.601,3.256.412l7.109,9.172c.785,1.013.601,2.471-.412,3.256-.423.328-.924.486-1.42.486Z" fill="#fff" stroke-width="0"/><path d="M75.8,143.276c-.897,0-1.75-.523-2.13-1.398l-4.618-10.645c-.51-1.176.029-2.543,1.205-3.053,1.175-.511,2.542.029,3.052,1.205l4.618,10.645c.51,1.176-.029,2.543-1.205,3.053-.301.131-.614.193-.922.193Z" fill="#fff" stroke-width="0"/><path d="M179.663,382.701c-.897,0-1.751-.523-2.13-1.398l-8.656-19.953c-.51-1.176.03-2.543,1.206-3.053,1.175-.511,2.543.029,3.052,1.205l8.656,19.953c.51,1.176-.03,2.543-1.206,3.053-.301.131-.614.193-.922.193ZM162.353,342.796c-.897,0-1.75-.523-2.13-1.398l-8.655-19.952c-.51-1.176.029-2.543,1.205-3.053,1.175-.511,2.542.029,3.052,1.205l8.655,19.952c.51,1.176-.029,2.543-1.205,3.053-.301.131-.614.193-.922.193ZM145.042,302.892c-.897,0-1.751-.523-2.13-1.398l-8.655-19.952c-.51-1.176.03-2.543,1.206-3.053,1.175-.511,2.543.029,3.052,1.205l8.655,19.952c.51,1.176-.029,2.543-1.205,3.053-.301.131-.614.193-.922.193ZM127.732,262.988c-.897,0-1.751-.523-2.13-1.398l-8.655-19.952c-.51-1.176.029-2.543,1.205-3.053,1.175-.511,2.542.029,3.052,1.205l8.656,19.952c.51,1.176-.03,2.543-1.206,3.053-.301.131-.614.193-.922.193ZM110.421,223.083c-.897,0-1.75-.523-2.13-1.398l-8.655-19.952c-.51-1.176.029-2.543,1.205-3.053,1.175-.511,2.542.029,3.052,1.205l8.655,19.952c.51,1.176-.029,2.543-1.205,3.053-.301.131-.614.193-.922.193ZM93.11,183.179c-.897,0-1.75-.523-2.13-1.398l-8.655-19.952c-.51-1.176.029-2.543,1.205-3.053,1.176-.51,2.542.029,3.052,1.205l8.655,19.952c.51,1.176-.029,2.543-1.205,3.053-.301.131-.614.193-.922.193Z" fill="#fff" stroke-width="0"/><path d="M192.936,413.299c-.897,0-1.751-.523-2.13-1.398l-4.618-10.646c-.51-1.176.029-2.543,1.205-3.053,1.175-.511,2.542.029,3.053,1.205l4.618,10.646c.51,1.176-.029,2.543-1.205,3.053-.301.131-.614.193-.922.193Z" fill="#fff" stroke-width="0"/><path d="M46.376,156.87c-1.098,0-2.074-.783-2.28-1.902l-2.098-11.412c-.232-1.26.602-2.47,1.863-2.701,1.26-.237,2.47.602,2.702,1.863l2.098,11.412c.232,1.26-.602,2.47-1.863,2.701-.142.026-.283.039-.422.039Z" fill="#fff" stroke-width="0"/><path d="M91.214,400.765c-1.098,0-2.074-.783-2.28-1.902l-4.484-24.389c-.232-1.26.602-2.47,1.863-2.701,1.261-.237,2.47.603,2.702,1.863l4.484,24.389c.232,1.26-.602,2.47-1.863,2.701-.142.026-.283.039-.422.039ZM82.246,351.985c-1.098,0-2.074-.783-2.28-1.902l-4.484-24.389c-.232-1.26.602-2.47,1.863-2.701,1.256-.239,2.47.602,2.702,1.863l4.484,24.389c.232,1.26-.602,2.47-1.863,2.701-.142.026-.283.039-.422.039ZM73.279,303.207c-1.098,0-2.074-.783-2.28-1.902l-4.484-24.39c-.232-1.26.602-2.47,1.863-2.701,1.257-.239,2.47.602,2.702,1.863l4.484,24.39c.232,1.26-.602,2.47-1.863,2.701-.142.026-.283.039-.422.039ZM64.312,254.428c-1.098,0-2.074-.783-2.28-1.902l-4.484-24.389c-.232-1.26.602-2.47,1.863-2.701,1.261-.236,2.471.603,2.702,1.863l4.484,24.389c.232,1.26-.602,2.47-1.863,2.701-.142.026-.283.039-.422.039ZM55.344,205.649c-1.098,0-2.074-.783-2.28-1.902l-4.484-24.389c-.232-1.26.602-2.47,1.863-2.701,1.261-.234,2.47.602,2.702,1.863l4.484,24.389c.232,1.26-.602,2.47-1.863,2.701-.142.026-.283.039-.422.039Z" fill="#fff" stroke-width="0"/><path d="M97.796,436.566c-1.098,0-2.074-.783-2.28-1.902l-2.098-11.412c-.232-1.26.602-2.47,1.863-2.701,1.26-.234,2.47.601,2.702,1.863l2.098,11.412c.232,1.26-.602,2.47-1.863,2.701-.142.026-.283.039-.422.039Z" fill="#fff" stroke-width="0"/><path d="M-129.447,424.777c-5.031-.129-8.909-4.538-8.909-9.571V44.917h.235C-135.039.56-97.969-34.588-52.844-34.588-14.2-34.588,19.693-8.609,29.71,28.638c1.248,4.64-1.113,9.693-5.637,11.313-5.121,1.834-10.596-1.125-11.956-6.27C4.344,4.26-22.368-16.289-52.844-16.289c-37.045,0-67.184,30.139-67.184,67.184h-.028v364.735c0,5.132-4.227,9.279-9.39,9.146Z" fill="#40c0c6" stroke-width="0"/><path d="M53.346,31.83c-9.568,1.072-19.109,3.817-28.102,8.287-8.993,4.47-16.887,10.405-23.501,17.41-1.908-.47-3.634-1.777-4.575-3.66l-3.817-7.712c-1.725-3.451-.314-7.686,3.163-9.411,13.228-10.535,27.684-17.75,43.395-21.593,3.451-1.725,7.686-.314,9.411,3.163l3.843,7.685c.941,1.882.941,4,.183,5.829Z" fill="#40c0c6" stroke-width="0"/><path d="M120.973,83.552c7.621-3.791,9.833-13.611,4.62-20.339-23.396-30.194-65.574-40.728-101.083-23.063C-10.999,57.815-28.04,97.809-18.072,134.683c2.221,8.217,11.388,12.376,19.009,8.584l120.036-59.716Z" fill="#4be0e0" stroke-width="0"/><path d="M422.178,503.143c-15.677,18.834-38.011,25.416-60.497,31.71-31.337,7.783-64.139,10.41-97.367,11.402-35.934,1.682-71.477,1.265-106.475-2.146-18.469-4.933-36.649-13.164-54.658-23.622-13.992-18.065-22.146-39.717-22.146-63.003,0-6.678.681-13.244,1.974-19.618-.663-22.213,22.555-87.041,39.322-164.537,2.639-51.664,6.673-98.411,15.643-127.606,3.745-17.104,11.95-32.863,23.559-46.347,3.949-4.644,8.323-9,13.056-13.052,11.149-9.593,24.307-17.488,38.879-23.222,8.324-8.424,17.397-14.958,21.159-8.568,10.537-9.401,22.673-16.063,30.215-12.78,2.74,2.867,3.864,5.957,3.847,9.144,41.824-9.993,49.637-3.011,48.327,5.141,0,.032-.017.08-.017.112-.221,1.249-.629,2.514-1.174,3.763,5.634,1.794,11.082,3.908,16.307,6.326,2.69,1.217,5.311,2.53,7.864,3.908,13.329,7.159,25.074,16.287,34.675,26.905,11.252,12.444,19.576,26.921,24.052,42.68.613,2.114,1.158,4.244,1.617,6.406,8.886,29.227,12.87,75.766,15.525,127.19,4.528,20.932,9.533,40.95,14.401,59.447-1.583,13.34,11.234,57.801,9.447,69.172,2.064,36.889-3.278,36.468-4.826,57.34-7.739,23.784-5.864,23.868-12.707,43.855Z" fill="url(#g)" stroke-width="0"/><path d="M285.3,436.451c.466,0,.931.019,1.416.019h-.559c-.279,0-.577,0-.857-.019Z" fill="url(#h)" stroke-width="0"/><path d="M224.045,431.533c-.006.008-.079.086-.106.113-2.801,2.941-5.788,5.511-9.035,8.007-.165.127-.327.365-.514.541-.852.801-1.131,2.202-.761,3.161.37.959.806.994,1.569,1.315-4.813,37.063-41.833,56.723-75.657,57.343-58.57-7.381-67.029-52.833-48.198-101.321.307.484.614.86,1.074,1.239,0,0-.063-.022-.02.038,12.214,17.257,20.452,28.728,43.068,33.089,9.321,1.797,20.558,3.839,31.458,2.91,8.785-.749,20.074-4.812,29.077-8.051,1.966-.707,5.133-2.069,7.306-3.007,1.624-.701,3.884-1.802,5.439-2.531,1.201-.563,3.272-1.775,4.068-2.126,4.445-1.966,12.874-5.87,16.267-.535,1.725,2.712-3.432,7.876-5.037,9.817Z" fill="url(#i)" stroke-width="0"/><path d="M216.687,443.629c-.458.331-2.343.323-2.589-.793-.246-1.116-.258-1.725.301-2.63.158-.256.343-.414.507-.542,3.24-2.522,6.233-5.068,9.032-8.017.026-.028.099-.105.106-.113,1.604-1.941,6.762-7.105,5.037-9.817-3.393-5.334-11.822-1.43-16.267.535-.795.351-2.867,1.564-4.068,2.127-1.556.73-3.816,1.83-5.439,2.531-2.173.938-5.341,2.3-7.306,3.007-9.003,3.238-20.292,7.304-29.077,8.052-10.9.928-22.137-1.117-31.458-2.912-22.617-4.356-30.854-15.834-43.068-33.085-.043-.06.018-.051.012-.054-.323-.17-.849-1.343-.876-1.468-.178-.827-.516-2.869.953-2.789,1.469.08.431-2.779,3.472,1.876.512.784,10.963,16.811,17.425,21.557,2.655,1.95,15.479,9.721,23.24,9.843,9.182.144,19.266,3.999,30.07,2.506,10.379-1.433,23.513-5.77,33.993-10.226,2.993-1.273,7.874-3.958,10.766-5.238,6.411-2.839,17.019-7.061,20.756,1.79,3.736,8.851-8.77,18.981-15.523,23.861Z" fill="#473f93" stroke-width="0"/><path d="M229.418,174.273c4.307-18.045,22.637-29.188,40.862-24.839,18.225,4.35,29.549,22.57,25.242,40.615-4.305,18.039-22.636,29.176-40.86,24.826-18.225-4.35-29.549-22.564-25.244-40.603ZM229.036,174.182c-4.251,17.812,6.937,35.798,24.938,40.094,18.003,4.297,36.107-6.698,40.358-24.51,4.253-17.819-6.934-35.811-24.936-40.107-18.002-4.296-36.107,6.704-40.36,24.524Z" fill="#f9b8b4" stroke-width="0"/><path d="M132.586,166.646c-3.979,17.543-4.16,20.437,2.713,23.331l35.251-14.494c.947-1.912,1.684-3.949,2.198-6.103,3.728-15.622-5.907-31.315-21.541-35.046-2.475-.591-8.045,1.158-10.483,1.205-1.327,3.506-7.292,27.374-8.139,31.108Z" fill="url(#j)" stroke-width="0"/><path d="M228.441,174.04c-4.336,18.168,7.033,36.45,25.392,40.832,18.359,4.382,36.759-6.796,41.095-24.964,4.336-18.168-7.03-36.462-25.389-40.844-18.359-4.382-36.761,6.808-41.098,24.976Z" fill="url(#k)" stroke-width="0"/><ellipse cx="275.756" cy="222.868" rx="8.346" ry="14.872" transform="translate(-5.039 439.354) rotate(-76.577)" fill="url(#l)" stroke-width="0"/><path d="M228.484,174c4.501-18.859,23.505-30.54,42.364-26.039,18.859,4.501,30.54,23.505,26.039,42.364-4.501,18.859-23.505,30.54-42.364,26.039-18.859-4.501-30.54-23.505-26.039-42.364ZM232.053,174.852c-4.031,16.891,6.43,33.911,23.321,37.942,16.891,4.031,33.911-6.43,37.942-23.321,4.031-16.891-6.43-33.911-23.321-37.942-16.891-4.031-33.911,6.43-37.942,23.321Z" fill="#473f93" stroke-width="0"/><path d="M120.029,157.147c4.059-17.007,19.773-27.881,35.028-24.24,15.255,3.641,24.364,20.439,20.305,37.446-4.059,17.008-19.773,27.882-35.028,24.241-15.255-3.641-24.364-20.439-20.305-37.447ZM123.598,157.999c-3.589,15.04,4.3,29.855,17.588,33.026,13.288,3.171,27.017-6.484,30.607-21.524,3.589-15.039-4.3-29.854-17.588-33.025-13.288-3.171-27.017,6.484-30.606,21.523Z" fill="#473f93" stroke-width="0"/><path d="M175.757,166.902c27.526-15.027,52.992,8.615,53.25,8.855l2.525-2.662c-.271-.259-27.634-25.732-57.533-9.416l1.758,3.222Z" fill="#473f93" stroke-width="0"/><path d="M122.806,214.743c-6.862-4.128-10.405-9.141-9.72-13.752.502-3.375,3.292-5.941,7.657-7.039,6.169-1.536,11.125-3.092,15.6-4.897,1.197-.477,2.385-.987,3.518-1.509l32.747-15.03.134-.055c10.673-3.925,21.799,1.21,34.009,15.705,5.071,6.032,10.812,11.672,17.064,16.766,6.864,5.609,9.53,9.783,8.647,13.537-.889,3.778-5.345,6.463-14.02,8.443-7.114,2.513-18.436,2.506-35.611-.025-7.701-1.138-16.789-2.807-27.777-5.102-5.254-1.091-10.608-2.242-15.985-3.411l-7.568-1.643c-2.711-.597-5.434-1.184-8.135-1.766l-.298-.065-.262-.157ZM174.076,175.88l-32.107,14.73-.563.264c-1.2.552-2.446,1.088-3.697,1.586-4.631,1.867-9.74,3.472-16.075,5.051-1.676.422-4.543,1.505-4.917,4.019-.342,2.304,1.515,6.104,7.724,9.912,2.606.562,5.234,1.129,7.846,1.703l7.565,1.642c5.362,1.166,10.704,2.316,15.949,3.405,10.92,2.28,19.937,3.937,27.566,5.064,16.413,2.418,27.515,2.471,33.943.164l.214-.062c8.747-1.984,11.009-4.211,11.367-5.729.499-2.12-1.99-5.435-7.395-9.853-6.429-5.237-12.334-11.041-17.552-17.248-7.269-8.628-13.979-13.657-20.286-15.163-3.296-.787-6.482-.611-9.58.515Z" fill="url(#m)" stroke-width="0"/><path d="M123.752,213.17c2.703.583,5.43,1.17,8.142,1.767,2.522.551,5.047,1.091,7.568,1.643,5.368,1.168,10.715,2.318,15.963,3.407,9.714,2.029,19.097,3.816,27.673,5.083,14.87,2.191,27.319,2.773,34.829.075,16.646-3.774,15.921-9.644,4.724-18.793-6.286-5.122-12.096-10.809-17.307-17.008-9.76-11.585-20.652-19.328-31.97-15.163l-2.825,1.3-29.359,13.466-.552.258c-1.187.547-2.392,1.064-3.615,1.552-5.135,2.07-10.449,3.631-15.838,4.973-8.924,2.246-8.76,10.623,2.566,17.439Z" fill="url(#n)" stroke-width="0"/><rect x="186.262" y="209.424" width="2.59" height="8.282" rx="1.295" ry="1.295" transform="translate(2.345 429.167) rotate(-98.046)" fill="#000" stroke-width="0"/><rect x="147.983" y="203.247" width="2.59" height="7.274" rx="1.219" ry="1.219" transform="translate(388.877 294.504) rotate(145.9)" fill="#000" stroke-width="0"/><circle cx="249.295" cy="191.875" r="8.488" fill="#37294f" stroke-width="0"/><circle cx="157.782" cy="171.725" r="6.959" fill="#37294f" stroke-width="0"/><path d="M142.231,318.469c.566.034,67.888,76.1,103.158,56.385,4.908-2.743,31.479-14.825,35.54-18.714,23.211-22.227-6.286-60.276-4.018-83.029.74-7.429-6.601-13.17-13.612-10.604-49.381,18.072-101.814,5.717-129.723-17.062l8.655,73.024Z" fill="url(#o)" stroke-width="0"/><path d="M322.943,165.142c.786.188,1.646-.05,2.223-.696.73-.815,1.321-2.084-.914-6.87-1.557-3.333-16.259-32.53-52.333-31.35-1.256.041-2.239,1.092-2.199,2.346.041,1.255,1.095,2.238,2.346,2.199,34.075-1.117,48.432,27.991,49.183,31.679-.166.773.075,1.611.707,2.176.291.261.63.432.986.517Z" fill="#473f93" stroke-width="0"/><path d="M174.263,277.635c3.29,2.516,8.498,8.834,13.96,15.654-6.769,3.745-13.608,6.601-20.539,8.282-3.235,1.305-7.514-1.023-6.781-3.689.314-7.235,1.97-13.992,5.415-19.704.734-2.666,5.745-3.008,7.944-.543Z" fill="#4be0e0" stroke-width="0"/><path d="M205.297,286.541c-4.124.389-11.889,2.983-20.137,5.868,3.753,6.764,8.036,12.812,13.021,17.914,2.051,2.822,6.913,3.117,7.705.468,3.571-6.301,5.75-12.908,5.858-19.577.792-2.649-3.276-5.597-6.448-4.673Z" fill="#4be0e0" stroke-width="0"/><path d="M188.926,298.976l-6.508-1.581c-1.083-.263-1.747-1.354-1.484-2.437-.131-2.132.31-4.011,1.365-5.62.263-1.083,1.354-1.747,2.437-1.484l6.508,1.581c1.083.263,1.747,1.354,1.484,2.437.061,1.817-.515,3.703-1.365,5.62-.263,1.083-1.354,1.747-2.437,1.484Z" fill="#40c0c6" stroke-width="0"/><path d="M163.069,354.832c3.102-.451.704-.103.721-.114,4.401-2.854,8.512-3.335,13.211-4.211,1-2.255,2.364-4.236,3.918-6.147-6.881-3.091-14.121-4.1-20.018.802-5.503,5.641-1.923,10.264,2.167,9.67Z" fill="url(#p)" stroke-width="0"/><path d="M160.693,371.314c4.59-2.574,9.227-4.277,14.347-5.373.141-.03.26-.049.387-.073,1.348-.252,2.696-.463,4.046-.648-1.005-1.416-1.984-2.973-2.556-4.592-1.245-3.526-.998-6.657-.003-10.071-3.42.171-10.427,2.546-12.394,3.823-1.482.962-.335.222-.352.233-.573.392-.996.616-1.317.811-1.806,1.095-3.627,3.248-4.282,4.891-1.247,3.133-1.747,5.712-.541,8.525.62,1.446,1.57,1.659,2.663,2.475Z" fill="url(#q)" stroke-width="0"/><path d="M167.636,384.385c4.526-3.8,8.682-6.152,14.657-8.041,1.942-.614,6.175-1.032,8.579-.483-1.645-1.309-3.56-3.087-5.13-4.43-2.381-2.036-4.401-3.781-6.267-6.216-1.352.205-2.7.383-4.047.661-.127.026-.251-.023-.386.082-6.238,4.847-11.909,10.494-7.406,18.427Z" fill="url(#r)" stroke-width="0"/><path d="M255.98,293.211c-5.449,8.279-7.204,14.563-14.723,21.066-7.519,6.503-16.08,12.877-22.881,15.49-15.507,5.959-61.937,13.723-30.849,44.982,42.173,36.72,76.329,25.319,118.726-.151,31.489-27.033,54.563-108.814.536-112.943-36.873-2.818-36.854,10.354-50.809,31.556Z" fill="url(#s)" stroke-width="0"/><g clip-path="url(#t)"><path d="M130.334,118.688c-.761-.999-.568-2.426.43-3.186,11.265-8.583,27.47-7.725,37.902-4.362,5.518,1.77,5.951,3.176,6.159,3.853.37,1.199-.304,2.472-1.504,2.841-.982.303-2.017-.093-2.561-.912-2.452-1.707-23.444-8.314-37.24,2.197-.565.431-1.266.556-1.907.403-.492-.118-.948-.4-1.279-.833ZM170.48,116.332s-.001-.002,0-.003c0,.001,0,.003,0,.003Z" fill="#473f93" stroke-width="0"/></g><path d="M22.551,209.506c-.757,1.004-1.251,2.25-1.494,3.713,3.068,3.352,5.183,7.015,6.792,10.84.196.443.378.893.555,1.329.039.123.09.24.129.364.494,1.262.944,2.528,1.368,3.806l11.895-8.816c-.624-1.626-1.26-3.137-1.92-4.529-.875-1.842-1.766-3.474-2.702-4.853-.472-.681-.939-1.316-1.429-1.863l-.006-.013c-.06-.066-.115-.12-.176-.187-.224-.26-.454-.5-.687-.71-1.585-1.544-3.252-2.321-5.069-2.236-3.413.104-5.802,1.189-7.256,3.155Z" fill="url(#u)" stroke-width="0"/><path d="M29.897,229.558c-.413-1.279-.864-2.54-1.355-3.805-.046-.119-.092-.239-.138-.358-4.097-3.489-12.266-8.618-17.018.458,0,0,6.15,3.785,9.675,11.116l8.837-7.411Z" fill="url(#v)" stroke-width="0"/><path d="M35.563,209.297c.061.067.116.121.176.187l.006.013c.491.547.958,1.182,1.429,1.863.936,1.379,1.827,3.011,2.702,4.853.477-.226.935-.46,1.399-.679,2.549-1.25,4.864-2.255,6.949-3.003-.311-4.272-1.599-8.675-5.27-10.25,0,0-7.151-5.508-7.391,7.016Z" fill="url(#w)" stroke-width="0"/><path d="M132.766,244.847l-12.652-1.632c-14.887-1.921-29.094-7.521-41.136-16.482-1.379-1.026-2.576-1.983-3.497-2.822-22.433-20.44-48.396-13.297-53.863,8.716-10.016,27.719,58.114,105.413,80.861,128.145l30.287-115.924Z" fill="url(#x)" stroke-width="0"/><ellipse cx="63.847" cy="171.977" rx="14.945" ry="10.76" fill="#ff8186" stroke-width="0"/><path d="M103.042,147.547c-.789,6.498-5.136,11.836-11.232,13.924-.433.139-.866.279-1.315.387l-.619.155c-2.166.511-4.347-.836-4.873-3.017,1.594-.263,3.048-.743,4.332-1.501,3.048-1.81,5.106-5.214,5.678-10.938.356-2.847-.65-6.653-4.487-8.726-2.738-1.47-9.917-3.589-12.98-6.498v35.305c0,.557.124,1.083.294,1.547v.015c.511,1.454,1.3,2.476-.387,2.476-2.228,0-4.038-1.81-4.038-4.038v-47.651c0-1.888,1.315-3.527,3.156-3.945,1.856-.402,3.744.51,4.549,2.243,3.249,6.931,9.004,11.124,13.243,13.429,6.219,3.357,9.546,9.809,8.679,16.833Z" fill="#ff8186" stroke-width="0"/></g></g></svg>