<?xml version="1.0" encoding="UTF-8"?><svg id="b" xmlns="http://www.w3.org/2000/svg" xmlns:xlink="http://www.w3.org/1999/xlink" viewBox="0 0 184.763 177.76"><defs><linearGradient id="d" x1="62.356" y1="111.048" x2="184.763" y2="111.048" gradientUnits="userSpaceOnUse"><stop offset="0" stop-color="#f33700"/><stop offset="1" stop-color="#ffee54"/></linearGradient><linearGradient id="e" x1="0" y1="88.88" x2="130.12" y2="88.88" gradientUnits="userSpaceOnUse"><stop offset="0" stop-color="#f6902d"/><stop offset=".173" stop-color="#f69730"/><stop offset=".434" stop-color="#f8ac38"/><stop offset=".75" stop-color="#fbce46"/><stop offset="1" stop-color="#ffee54"/></linearGradient></defs><g id="c"><path d="M178.43,87.783l-19.995,19.476c-4.919,4.813-7.179,11.726-6.009,18.506l4.72,27.52c2.925,17.07-14.996,30.085-30.325,22.029l-24.714-12.989c-6.089-3.204-13.361-3.204-19.45,0l-20.301,10.662c20.327-11.952,39.232-32.332,52.194-58.629,11.686-23.691,16.631-48.272,15.382-70.022,2.712,1.968,5.876,3.284,9.28,3.776l27.626,4.015c17.15,2.499,23.997,23.558,11.593,35.656Z" fill="url(#d)" stroke-width="0"/><path d="M114.55,114.359c-12.962,26.297-31.867,46.677-52.194,58.629l-4.414,2.327c-15.328,8.056-33.25-4.959-30.325-22.029l4.719-27.52c1.17-6.78-1.09-13.693-6.009-18.506l-19.995-19.476c-12.404-12.098-5.557-33.156,11.593-35.656l27.626-4.015c6.807-.984,12.683-5.265,15.727-11.433l12.364-25.033c7.658-15.528,29.82-15.528,37.477,0l12.364,25.033c1.529,3.084,3.749,5.69,6.448,7.658,1.25,21.75-3.696,46.331-15.382,70.022Z" fill="url(#e)" stroke-width="0"/><circle cx="68.547" cy="62.299" r="12.405" fill="#ffee54" stroke-width="0"/></g></svg>