<svg width="20" height="21" viewBox="0 0 20 21" fill="none" xmlns="http://www.w3.org/2000/svg">
<path d="M16.5718 19.2C15.2924 20.252 13.8807 20.0881 12.5351 19.592C11.1046 19.086 9.79675 19.054 8.28594 19.592C6.40449 20.28 5.40594 20.08 4.27282 19.2C-2.12456 13.62 -1.18029 5.12002 6.09053 4.80002C7.85394 4.88002 9.08856 5.62602 10.1272 5.68802C11.6711 5.42202 13.1489 4.66002 14.8013 4.76002C16.7866 4.89602 18.2715 5.56002 19.263 6.75402C15.179 8.83402 16.1469 13.394 19.8981 14.674C19.1472 16.344 18.1841 17.994 16.5695 19.214L16.5718 19.2ZM9.98561 4.74002C9.79439 2.26002 12.1669 0.22002 14.8958 0.0200195C15.2711 2.88002 11.8269 5.02002 9.98561 4.74002Z" fill="black"/>
</svg>
