<svg width="81" height="58" viewBox="0 0 81 58" fill="none" xmlns="http://www.w3.org/2000/svg">
<path d="M80.8028 23.8393C79.2977 14.3412 69.6793 8.59407 65.6905 6.20995C52.4233 -1.71821 35.5219 -1.56268 22.9205 3.89536C19.7602 5.26399 11.8748 8.799 6.3049 17.0327C5.10915 18.8021 -3.47632 31.6833 1.58162 42.4859C8.44132 57.1401 37.2387 61.2387 56.5297 53.3416C67.8649 48.7015 82.8976 37.0626 80.8028 23.8393Z" fill="white"/>
<path d="M15.3678 21.9473C15.5976 22.5182 15.3733 22.9665 15.2611 23.1897C15.1725 23.3672 14.9138 23.8575 14.2264 24.0918C14.0907 24.1375 13.5353 24.3113 12.8226 24.1393C12.582 24.0808 12.3613 24.0295 12.175 23.8649C11.8077 23.5428 11.8783 23.058 11.9181 22.7725C12.0791 21.8083 12.8515 21.3362 13.4214 21.1349C13.7814 21.0178 14.1486 20.8971 14.5448 21.0434C15.0856 21.2447 15.3136 21.8101 15.3678 21.9437V21.9473Z" fill="#FF5000"/>
<path d="M28.5392 21.9473C28.769 22.5182 28.5447 22.9665 28.4325 23.1897C28.3439 23.3672 28.0852 23.8575 27.3978 24.0918C27.2621 24.1375 26.7067 24.3113 25.994 24.1393C25.7534 24.0808 25.5327 24.0295 25.3464 23.8649C24.9791 23.5428 25.0497 23.058 25.0895 22.7725C25.2505 21.8083 26.0229 21.3362 26.5928 21.1349C26.9527 21.0178 27.32 20.8971 27.7161 21.0434C28.257 21.2447 28.485 21.8101 28.5392 21.9437V21.9473Z" fill="#FF64A0"/>
<path d="M41.7846 39.4212C42.0143 39.9921 41.79 40.4404 41.6779 40.6636C41.5892 40.8411 41.3305 41.3314 40.6431 41.5656C40.5074 41.6114 39.9521 41.7852 39.2393 41.6132C38.9987 41.5547 38.778 41.5034 38.5917 41.3387C38.2245 41.0167 38.295 40.5318 38.3348 40.2464C38.4958 39.2821 39.2683 38.8101 39.8381 38.6088C40.1981 38.4917 40.5653 38.3709 40.9615 38.5173C41.5024 38.7186 41.7303 39.284 41.7846 39.4175V39.4212Z" fill="#00CDD2"/>
<path d="M54.4113 39.4212C54.641 39.9921 54.4167 40.4404 54.3046 40.6636C54.2159 40.8411 53.9572 41.3314 53.2698 41.5656C53.1342 41.6114 52.5788 41.7852 51.866 41.6132C51.6255 41.5547 51.4048 41.5034 51.2184 41.3387C50.8512 41.0167 50.9218 40.5318 50.9616 40.2464C51.1226 39.2821 51.895 38.8101 52.4648 38.6088C52.8248 38.4917 53.192 38.3709 53.5882 38.5173C54.1291 38.7186 54.357 39.284 54.4113 39.4175V39.4212Z" fill="#8264FF"/>
<path d="M68.0131 21.9473C68.2428 22.5182 68.0185 22.9665 67.9064 23.1897C67.8177 23.3672 67.5591 23.8575 66.8716 24.0918C66.736 24.1375 66.1806 24.3113 65.4679 24.1393C65.2273 24.0808 65.0066 24.0295 64.8202 23.8649C64.453 23.5428 64.5236 23.058 64.5634 22.7725C64.7244 21.8083 65.4968 21.3362 66.0666 21.1349C66.4266 21.0178 66.7938 20.8971 67.19 21.0434C67.7309 21.2447 67.9588 21.8101 68.0131 21.9437V21.9473Z" fill="#FF8F00"/>
<path d="M13.6765 24.8438C14.5702 24.8438 15.4041 25.0139 16.1802 25.3561C16.9562 25.6982 17.6292 26.1575 18.2026 26.7375C18.7761 27.3175 19.2301 28 19.5684 28.7831C19.9049 29.5681 20.0749 30.4116 20.0749 31.3155C20.0749 32.2193 19.9067 33.0372 19.5684 33.8222C19.2301 34.6071 18.7761 35.2896 18.2026 35.8678C17.6292 36.4478 16.9544 36.9089 16.1802 37.2492C15.4041 37.5914 14.5702 37.7615 13.6765 37.7615C13.0361 37.7615 12.4211 37.6719 11.8295 37.4926C11.2398 37.3133 10.6917 37.0534 10.1852 36.7131V41.8034C10.1852 42.2132 10.0459 42.5572 9.76729 42.839C9.48871 43.1208 9.14862 43.2617 8.7434 43.2617C8.33819 43.2617 8.018 43.1208 7.73218 42.839C7.44455 42.5572 7.30164 42.2114 7.30164 41.8034V31.3155C7.30164 30.4116 7.46987 29.5681 7.80634 28.7831C8.14282 27.9982 8.59868 27.3175 9.17213 26.7375C9.74558 26.1575 10.4203 25.6982 11.1946 25.3561C11.9706 25.0157 12.7955 24.8438 13.6729 24.8438H13.6765ZM13.6765 34.845C14.1649 34.845 14.6208 34.7517 15.0423 34.5632C15.4638 34.3766 15.831 34.1241 16.1422 33.8094C16.4533 33.4946 16.703 33.1196 16.8875 32.6841C17.072 32.2486 17.1661 31.793 17.1661 31.3155C17.1661 30.8379 17.0738 30.3603 16.8875 29.934C16.7012 29.5077 16.4533 29.1363 16.1422 28.8216C15.831 28.5068 15.4638 28.2543 15.0423 28.0677C14.6208 27.8811 14.1649 27.7859 13.6765 27.7859C13.1881 27.7859 12.7539 27.8792 12.3234 28.0677C11.8929 28.2562 11.522 28.5068 11.2109 28.8216C10.8979 29.1381 10.6501 29.5077 10.4656 29.934C10.2792 30.3603 10.187 30.8214 10.187 31.3155C10.187 31.8095 10.2792 32.2486 10.4656 32.6841C10.6501 33.1196 10.8997 33.4946 11.2109 33.8094C11.522 34.1259 11.8929 34.3766 12.3234 34.5632C12.7539 34.7517 13.2044 34.845 13.6765 34.845Z" fill="#FF5000"/>
<path d="M32.6781 32.031C32.4755 32.2707 32.2349 32.4537 31.9581 32.5817C31.6796 32.7098 31.3901 32.7739 31.0862 32.7739H23.7019C23.9877 33.3868 24.4092 33.8863 24.9664 34.2706C25.5236 34.6548 26.1549 34.8469 26.8622 34.8469C27.3 34.8469 27.7179 34.7701 28.114 34.6164C28.5102 34.4627 28.8593 34.2504 29.1633 33.9778C29.4672 33.7052 29.8163 33.5808 30.2125 33.6064C30.6086 33.632 30.9415 33.7985 31.211 34.1059C31.4643 34.4133 31.5783 34.7664 31.5529 35.1671C31.5276 35.5678 31.363 35.9045 31.0591 36.1771C30.5019 36.6712 29.8669 37.0591 29.1506 37.3408C28.4342 37.6226 27.6708 37.7635 26.8622 37.7635C25.9849 37.7635 25.1599 37.5933 24.3839 37.2512C23.6078 36.9109 22.9331 36.4498 22.3614 35.8697C21.788 35.2897 21.3321 34.6072 20.9957 33.8241C20.6574 33.0392 20.4891 32.2048 20.4891 31.3174C20.4891 30.43 20.6574 29.57 20.9957 28.7851C21.3321 28.0001 21.788 27.3195 22.3614 26.7395C22.9349 26.1594 23.6096 25.7002 24.3839 25.358C25.1599 25.0177 25.9849 24.8457 26.8622 24.8457C27.6546 24.8457 28.4089 24.9866 29.1253 25.2684C29.8416 25.5501 30.4784 25.9326 31.0337 26.4193C31.5909 26.906 32.0576 27.4805 32.4375 28.1465C32.8174 28.8107 33.0652 29.5279 33.1828 30.2946C33.266 30.9588 33.0978 31.5388 32.6763 32.0347L32.6781 32.031ZM30.0478 29.8573C29.7602 29.2443 29.3351 28.7448 28.7707 28.3606C28.2063 27.9763 27.5695 27.7842 26.8622 27.7842C26.1549 27.7842 25.5217 27.9763 24.9664 28.3606C24.4092 28.7448 23.9877 29.2425 23.7019 29.8573H30.0497H30.0478Z" fill="#FF64A0"/>
<path d="M39.9937 24.8439C40.8873 24.8439 41.7213 25.0141 42.4973 25.3562C43.2734 25.6984 43.9464 26.1576 44.5198 26.7377C45.0933 27.3177 45.5473 28.0002 45.8856 28.7833C46.2221 29.5682 46.3921 30.4117 46.3921 31.3156C46.3921 32.2195 46.2239 33.0374 45.8856 33.8223C45.5473 34.6073 45.0933 35.2897 44.5198 35.8679C43.9464 36.448 43.2716 36.909 42.4973 37.2494C41.7213 37.5915 40.8873 37.7617 39.9937 37.7617C39.1001 37.7617 38.2896 37.5915 37.5154 37.2494C36.7393 36.909 36.0646 36.448 35.4929 35.8679C34.9195 35.2879 34.4636 34.6054 34.1271 33.8223C33.7889 33.0374 33.6224 32.203 33.6224 31.3156V21.1607C33.6224 20.7508 33.7653 20.4068 34.053 20.1251C34.3388 19.8433 34.6771 19.7024 35.0642 19.7024C35.4513 19.7024 35.8095 19.8433 36.0881 20.1251C36.3667 20.4068 36.506 20.7526 36.506 21.1607V25.8923C37.0125 25.552 37.5588 25.2903 38.1503 25.1129C38.7401 24.9336 39.3551 24.8439 39.9973 24.8439H39.9937ZM39.9937 34.8451C40.4821 34.8451 40.938 34.7518 41.3595 34.5633C41.781 34.3767 42.1482 34.1242 42.4594 33.8095C42.7705 33.4948 43.0201 33.1197 43.2047 32.6842C43.3892 32.2488 43.4832 31.7932 43.4832 31.3156C43.4832 30.838 43.391 30.3605 43.2047 29.9342C43.0183 29.5078 42.7705 29.1364 42.4594 28.8217C42.1482 28.507 41.781 28.2545 41.3595 28.0679C40.938 27.8812 40.4821 27.7861 39.9937 27.7861C39.5053 27.7861 39.0711 27.8794 38.6406 28.0679C38.21 28.2563 37.8392 28.507 37.528 28.8217C37.2151 29.1382 36.9673 29.5078 36.7827 29.9342C36.5964 30.3605 36.5042 30.8216 36.5042 31.3156C36.5042 31.8096 36.5964 32.2488 36.7827 32.6842C36.9673 33.1197 37.2169 33.4948 37.528 33.8095C37.8392 34.126 38.21 34.3767 38.6406 34.5633C39.0711 34.7518 39.5216 34.8451 39.9937 34.8451Z" fill="#00CDD2"/>
<path d="M53.1504 24.8439C54.0441 24.8439 54.878 25.0141 55.6541 25.3562C56.4301 25.6984 57.1031 26.1576 57.6765 26.7377C58.25 27.3177 58.704 28.0002 59.0423 28.7833C59.3788 29.5682 59.5488 30.4117 59.5488 31.3156C59.5488 32.2195 59.3806 33.0374 59.0423 33.8223C58.704 34.6073 58.25 35.2897 57.6765 35.8679C57.1031 36.448 56.4283 36.909 55.6541 37.2494C54.878 37.5915 54.0441 37.7617 53.1504 37.7617C52.2568 37.7617 51.4464 37.5915 50.6721 37.2494C49.896 36.909 49.2213 36.448 48.6497 35.8679C48.0762 35.2879 47.6203 34.6054 47.2839 33.8223C46.9456 33.0374 46.7773 32.203 46.7773 31.3156V21.1607C46.7773 20.7508 46.9203 20.4068 47.2079 20.1251C47.4937 19.8433 47.832 19.7024 48.2191 19.7024C48.6062 19.7024 48.9644 19.8433 49.243 20.1251C49.5216 20.4068 49.6609 20.7526 49.6609 21.1607V25.8923C50.1674 25.552 50.7137 25.2903 51.3052 25.1129C51.895 24.9336 52.51 24.8439 53.1522 24.8439H53.1504ZM53.1504 34.8451C53.6389 34.8451 54.0947 34.7518 54.5162 34.5633C54.9377 34.3767 55.3049 34.1242 55.6161 33.8095C55.9272 33.4948 56.1769 33.1197 56.3614 32.6842C56.5459 32.2488 56.64 31.7932 56.64 31.3156C56.64 30.838 56.5477 30.3605 56.3614 29.9342C56.1751 29.5078 55.9272 29.1364 55.6161 28.8217C55.3031 28.507 54.9377 28.2545 54.5162 28.0679C54.0947 27.8812 53.6389 27.7861 53.1504 27.7861C52.662 27.7861 52.2278 27.8794 51.7973 28.0679C51.3668 28.2563 50.9959 28.507 50.6848 28.8217C50.3718 29.1382 50.124 29.5078 49.9395 29.9342C49.7531 30.3605 49.6609 30.8216 49.6609 31.3156C49.6609 31.8096 49.7531 32.2488 49.9395 32.6842C50.1258 33.1197 50.3736 33.4948 50.6848 33.8095C50.9959 34.126 51.3668 34.3767 51.7973 34.5633C52.2278 34.7518 52.6783 34.8451 53.1504 34.8451Z" fill="#8264FF"/>
<path d="M66.3091 24.8438C67.2028 24.8438 68.0367 25.0139 68.8128 25.3561C69.5888 25.6982 70.2618 26.1575 70.8352 26.7375C71.4087 27.3175 71.8627 28 72.201 28.7831C72.5375 29.5681 72.7075 30.4116 72.7075 31.3155C72.7075 32.2193 72.5393 33.0372 72.201 33.8222C71.8627 34.6071 71.4087 35.2896 70.8352 35.8678C70.2618 36.4478 69.587 36.9089 68.8128 37.2492C68.0367 37.5914 67.2028 37.7615 66.3091 37.7615C65.4155 37.7615 64.6069 37.5914 63.8308 37.2492C63.0547 36.9089 62.38 36.4478 61.8083 35.8678C61.2349 35.2878 60.779 34.6053 60.4426 33.8222C60.1043 33.0372 59.936 32.2029 59.936 31.3155C59.936 30.428 60.1043 29.5681 60.4426 28.7831C60.779 27.9982 61.2349 27.3175 61.8083 26.7375C62.3818 26.1575 63.0565 25.6982 63.8308 25.3561C64.6069 25.0157 65.4317 24.8438 66.3091 24.8438ZM66.3091 34.845C66.7975 34.845 67.2534 34.7517 67.6749 34.5632C68.0964 34.3766 68.4636 34.1241 68.7748 33.8094C69.0859 33.4946 69.3356 33.1196 69.5201 32.6841C69.7046 32.2486 69.7987 31.793 69.7987 31.3155C69.7987 30.8379 69.7064 30.3603 69.5201 29.934C69.3337 29.5077 69.0859 29.1363 68.7748 28.8216C68.4618 28.5068 68.0964 28.2543 67.6749 28.0677C67.2534 27.8811 66.7975 27.7859 66.3091 27.7859C65.8207 27.7859 65.3865 27.8792 64.956 28.0677C64.5254 28.2562 64.1546 28.5068 63.8435 28.8216C63.5305 29.1381 63.2827 29.5077 63.0981 29.934C62.9118 30.3603 62.8196 30.8214 62.8196 31.3155C62.8196 31.8095 62.9118 32.2486 63.0981 32.6841C63.2827 33.1196 63.5323 33.4946 63.8435 33.8094C64.1546 34.1259 64.5254 34.3766 64.956 34.5632C65.3865 34.7517 65.837 34.845 66.3091 34.845Z" fill="#FF8F00"/>
</svg>
