<?xml version="1.0" encoding="UTF-8"?><svg id="b" xmlns="http://www.w3.org/2000/svg" viewBox="0 0 204.576 72.852"><g id="c"><path d="M25.224,6.943c.72,1.767.018,3.15-.334,3.845-.279.55-1.084,2.065-3.238,2.789-.426.143-2.162.679-4.392.149-.751-.178-1.441-.342-2.024-.848-1.146-.996-.931-2.496-.804-3.376.504-2.983,2.921-4.439,4.703-5.063,1.124-.364,2.274-.736,3.513-.282,1.694.621,2.406,2.369,2.577,2.786Z" fill="#ff5000" stroke-width="0"/><path d="M66.422,6.943c.72,1.767.018,3.15-.334,3.845-.279.55-1.084,2.065-3.238,2.789-.426.143-2.162.679-4.392.149-.751-.178-1.441-.342-2.024-.848-1.146-.996-.931-2.496-.804-3.376.504-2.983,2.921-4.439,4.703-5.063,1.124-.364,2.274-.736,3.513-.282,1.694.621,2.406,2.369,2.577,2.786Z" fill="#ff64a0" stroke-width="0"/><path d="M107.854,60.98c.72,1.767.018,3.15-.334,3.845-.279.55-1.084,2.065-3.238,2.789-.426.143-2.162.679-4.392.149-.751-.178-1.441-.342-2.024-.848-1.146-.996-.931-2.496-.804-3.376.504-2.983,2.921-4.439,4.703-5.063,1.124-.364,2.274-.736,3.513-.282,1.694.621,2.406,2.369,2.577,2.786Z" fill="#00cdd2" stroke-width="0"/><path d="M147.346,60.98c.72,1.767.018,3.15-.334,3.845-.279.55-1.084,2.065-3.238,2.789-.426.143-2.162.679-4.392.149-.751-.178-1.441-.342-2.024-.848-1.146-.996-.931-2.496-.804-3.376.504-2.983,2.921-4.439,4.703-5.063,1.124-.364,2.274-.736,3.513-.282,1.694.621,2.406,2.369,2.577,2.786Z" fill="#8264ff" stroke-width="0"/><path d="M189.895,6.943c.72,1.767.018,3.15-.334,3.845-.279.55-1.084,2.065-3.238,2.789-.426.143-2.162.679-4.392.149-.751-.178-1.441-.342-2.024-.848-1.146-.996-.931-2.496-.804-3.376.504-2.983,2.921-4.439,4.703-5.063,1.124-.364,2.274-.736,3.513-.282,1.694.621,2.406,2.369,2.577,2.786Z" fill="#ff8f00" stroke-width="0"/><path d="M19.933,15.899c2.794,0,5.405.528,7.831,1.582,2.425,1.055,4.535,2.479,6.328,4.271,1.792,1.793,3.216,3.903,4.271,6.328,1.054,2.426,1.582,5.036,1.582,7.831,0,2.743-.528,5.327-1.582,7.752-1.055,2.426-2.479,4.536-4.271,6.328-1.793,1.793-3.903,3.217-6.328,4.271-2.426,1.055-5.037,1.582-7.831,1.582-2.005,0-3.929-.277-5.774-.831-1.846-.554-3.559-1.357-5.142-2.413v15.741c0,1.266-.435,2.334-1.305,3.204-.87.87-1.937,1.305-3.203,1.305-1.214,0-2.268-.435-3.164-1.305-.897-.87-1.344-1.938-1.344-3.204v-32.431c0-2.794.526-5.405,1.581-7.831,1.054-2.425,2.478-4.535,4.271-6.328,1.793-1.792,3.902-3.216,6.328-4.271,2.425-1.054,5.01-1.582,7.752-1.582ZM19.933,46.828c1.529,0,2.952-.289,4.272-.87,1.317-.58,2.464-1.357,3.44-2.334.975-.975,1.753-2.136,2.334-3.481.58-1.345.87-2.755.87-4.232,0-1.529-.291-2.953-.87-4.271-.581-1.317-1.358-2.464-2.334-3.441-.976-.975-2.123-1.752-3.44-2.334-1.32-.58-2.743-.87-4.272-.87-1.477,0-2.887.29-4.232.87-1.344.581-2.505,1.359-3.48,2.334-.976.976-1.754,2.124-2.334,3.441-.581,1.319-.87,2.743-.87,4.271,0,1.477.29,2.887.87,4.232.58,1.345,1.357,2.505,2.334,3.481.975.976,2.136,1.754,3.48,2.334,1.345.581,2.755.87,4.232.87Z" fill="#ff5000" stroke-width="0"/><path d="M79.37,38.127c-.633.739-1.384,1.305-2.254,1.701-.87.396-1.779.593-2.729.593h-23.098c.896,1.898,2.215,3.441,3.955,4.627,1.74,1.187,3.718,1.78,5.932,1.78,1.37,0,2.676-.237,3.916-.712,1.238-.475,2.334-1.133,3.282-1.977.949-.843,2.043-1.226,3.283-1.147,1.238.079,2.28.593,3.124,1.543.791.949,1.147,2.044,1.068,3.283-.079,1.239-.593,2.282-1.542,3.124-1.74,1.53-3.732,2.729-5.972,3.599-2.242.87-4.628,1.305-7.159,1.305-2.743,0-5.327-.527-7.752-1.582-2.426-1.054-4.536-2.478-6.328-4.271-1.793-1.792-3.217-3.902-4.271-6.328-1.055-2.425-1.582-5.009-1.582-7.752,0-2.794.527-5.405,1.582-7.831,1.054-2.425,2.478-4.535,4.271-6.328,1.792-1.792,3.902-3.216,6.328-4.271,2.425-1.054,5.009-1.582,7.752-1.582,2.478,0,4.837.435,7.08,1.305,2.241.87,4.232,2.056,5.972,3.559,1.74,1.503,3.203,3.283,4.39,5.339,1.187,2.057,1.964,4.271,2.334,6.644.263,2.057-.265,3.85-1.583,5.379ZM71.143,31.403c-.897-1.898-2.229-3.441-3.995-4.627-1.768-1.187-3.757-1.78-5.972-1.78s-4.192.593-5.932,1.78c-1.741,1.186-3.059,2.729-3.955,4.627h19.855Z" fill="#ff64a0" stroke-width="0"/><path d="M102.249,15.899c2.794,0,5.404.528,7.831,1.582,2.425,1.055,4.535,2.479,6.328,4.271,1.792,1.793,3.216,3.903,4.271,6.328,1.054,2.426,1.582,5.036,1.582,7.831,0,2.743-.528,5.327-1.582,7.752-1.055,2.426-2.479,4.536-4.271,6.328-1.793,1.793-3.903,3.217-6.328,4.271-2.426,1.055-5.037,1.582-7.831,1.582-2.743,0-5.327-.527-7.753-1.582-2.426-1.054-4.536-2.478-6.328-4.271-1.793-1.792-3.217-3.902-4.271-6.328-1.055-2.425-1.581-5.009-1.581-7.752V4.509c0-1.265.447-2.333,1.344-3.204.896-.87,1.95-1.305,3.164-1.305,1.266,0,2.334.435,3.203,1.305.871.87,1.305,1.938,1.305,3.204v14.634c1.583-1.054,3.296-1.859,5.142-2.413,1.844-.554,3.77-.831,5.774-.831ZM102.249,46.828c1.528,0,2.952-.289,4.271-.87,1.317-.58,2.464-1.357,3.44-2.334.975-.975,1.753-2.136,2.334-3.481.579-1.345.87-2.755.87-4.232,0-1.529-.291-2.953-.87-4.271-.581-1.317-1.359-2.464-2.334-3.441-.976-.975-2.123-1.752-3.44-2.334-1.319-.58-2.743-.87-4.271-.87-1.478,0-2.888.29-4.232.87-1.345.581-2.505,1.359-3.481,2.334-.976.976-1.754,2.124-2.334,3.441-.581,1.319-.87,2.743-.87,4.271,0,1.477.29,2.887.87,4.232.58,1.345,1.357,2.505,2.334,3.481.975.976,2.136,1.754,3.481,2.334,1.344.581,2.755.87,4.232.87Z" fill="#00cdd2" stroke-width="0"/><path d="M143.406,15.899c2.794,0,5.405.528,7.831,1.582,2.425,1.055,4.535,2.479,6.328,4.271,1.793,1.793,3.216,3.903,4.271,6.328,1.054,2.426,1.583,5.036,1.583,7.831,0,2.743-.528,5.327-1.583,7.752-1.055,2.426-2.479,4.536-4.271,6.328-1.793,1.793-3.903,3.217-6.328,4.271-2.426,1.055-5.036,1.582-7.831,1.582-2.742,0-5.327-.527-7.752-1.582-2.426-1.054-4.536-2.478-6.328-4.271-1.794-1.792-3.217-3.902-4.271-6.328-1.055-2.425-1.582-5.009-1.582-7.752V4.509c0-1.265.447-2.333,1.344-3.204.896-.87,1.951-1.305,3.164-1.305,1.266,0,2.334.435,3.204,1.305.87.87,1.305,1.938,1.305,3.204v14.634c1.582-1.054,3.295-1.859,5.142-2.413,1.845-.554,3.77-.831,5.774-.831ZM143.406,46.828c1.529,0,2.952-.289,4.271-.87,1.317-.58,2.464-1.357,3.441-2.334.975-.975,1.753-2.136,2.334-3.481.58-1.345.87-2.755.87-4.232,0-1.529-.291-2.953-.87-4.271-.581-1.317-1.359-2.464-2.334-3.441-.976-.975-2.124-1.752-3.441-2.334-1.319-.58-2.742-.87-4.271-.87-1.477,0-2.887.29-4.232.87-1.345.581-2.505,1.359-3.48,2.334-.977.976-1.754,2.124-2.334,3.441-.58,1.319-.87,2.743-.87,4.271,0,1.477.29,2.887.87,4.232.58,1.345,1.357,2.505,2.334,3.481.975.976,2.135,1.754,3.48,2.334,1.345.581,2.755.87,4.232.87Z" fill="#8264ff" stroke-width="0"/><path d="M184.564,15.899c2.794,0,5.405.528,7.831,1.582,2.425,1.055,4.534,2.479,6.328,4.271,1.792,1.793,3.216,3.903,4.271,6.328,1.054,2.426,1.582,5.036,1.582,7.831,0,2.743-.528,5.327-1.582,7.752-1.055,2.426-2.479,4.536-4.271,6.328-1.794,1.793-3.903,3.217-6.328,4.271-2.426,1.055-5.037,1.582-7.831,1.582-2.743,0-5.327-.527-7.752-1.582-2.426-1.054-4.536-2.478-6.328-4.271-1.793-1.792-3.217-3.902-4.271-6.328-1.055-2.425-1.582-5.009-1.582-7.752,0-2.794.527-5.405,1.582-7.831,1.054-2.425,2.478-4.535,4.271-6.328,1.792-1.792,3.902-3.216,6.328-4.271,2.425-1.054,5.009-1.582,7.752-1.582ZM184.564,46.828c1.528,0,2.953-.289,4.271-.87,1.317-.58,2.464-1.357,3.441-2.334s1.752-2.136,2.334-3.481c.58-1.345.87-2.755.87-4.232,0-1.529-.29-2.953-.87-4.271-.581-1.317-1.358-2.464-2.334-3.441-.976-.975-2.124-1.752-3.441-2.334-1.318-.58-2.743-.87-4.271-.87-1.477,0-2.887.29-4.232.87-1.345.581-2.505,1.359-3.481,2.334-.976.976-1.754,2.124-2.334,3.441-.581,1.319-.87,2.743-.87,4.271,0,1.477.289,2.887.87,4.232.58,1.345,1.357,2.505,2.334,3.481.975.976,2.136,1.754,3.481,2.334,1.344.581,2.755.87,4.232.87Z" fill="#ff8f00" stroke-width="0"/></g></svg>