<svg width="72" height="72" viewBox="0 0 72 72" fill="none" xmlns="http://www.w3.org/2000/svg">
<path fill-rule="evenodd" clip-rule="evenodd" d="M72 36C72 16.1193 55.8805 0 36 0C16.1193 0 0 16.1193 0 36C0 53.967 13.1628 68.861 30.3755 71.565V46.4087H21.2325V36H30.3755V28.0669C30.3755 19.0453 35.7519 14.0587 43.9735 14.0587C47.9121 14.0587 52.033 14.7623 52.033 14.7623V23.622H47.492C43.0219 23.622 41.6245 26.3963 41.6245 29.2464V35.9997H51.6075L50.013 46.4085H41.6241V71.5645C58.837 68.866 71.9995 53.972 71.9995 35.9997L72 36Z" fill="#1977F3"/>
<path fill-rule="evenodd" clip-rule="evenodd" d="M50.0117 46.4084L51.6067 35.9997H41.6234V29.2464C41.6234 26.4012 43.0156 23.6219 47.4909 23.6219H52.0322V14.7623C52.0322 14.7623 47.9114 14.0586 43.9725 14.0586C35.751 14.0586 30.3746 19.0403 30.3746 28.0668V36H21.2314V46.4087H30.3746V71.565C32.2071 71.853 34.0853 72 35.999 72C37.9127 72 39.7909 71.848 41.6234 71.565V46.4087H50.0122L50.0117 46.4084Z" fill="#FEFEFE"/>
</svg>
